<svg xmlns="http://www.w3.org/2000/svg" version="1.1" viewBox="-20 -20.5 1064 334.82000732421875">
<g stroke-width="2.00" fill="none" stroke-linecap="butt" data-svg-id="svg-elem-1768388258565-u319adpqj" id="svg-elem-1768388229109-trad9xmrs">
<path stroke="#eef4fb" vector-effect="non-scaling-stroke" d="   M 23.47 0.00   L 6.58 0.15   A 1.18 1.17 84.0 0 0 5.44 1.57   L 5.45 1.64   A 1.74 1.74 0.0 0 0 7.16 3.04   Q 512.01 3.06 1017.38 3.03   A 1.62 1.62 0.0 0 0 1019.00 1.51   Q 1019.06 0.43 1017.63 0.00" data-svg-id="svg-elem-1768388258565-r1zc5gsz3" id="svg-elem-1768388229109-04y1p5en3"/>
<path stroke="#888c8e" vector-effect="non-scaling-stroke" d="   M 37.12 51.58   L 36.92 171.56   A 1.34 1.34 0.0 0 0 38.25 172.90   L 151.76 173.10   A 34.07 33.11 0.1 0 0 185.89 140.05   L 185.99 83.61   A 34.07 33.11 0.1 0 0 151.98 50.44   L 38.47 50.24   A 1.34 1.34 0.0 0 0 37.12 51.58" data-svg-id="svg-elem-1768388258565-h6jrzkkbw" id="svg-elem-1768388229109-gnw32xfx9"/>
<path stroke="#888c8e" vector-effect="non-scaling-stroke" d="   M 240.61 64.76   A 14.72 14.72 0.0 0 0 225.89 50.04   A 14.72 14.72 0.0 0 0 211.17 64.76   A 14.72 14.72 0.0 0 0 225.89 79.48   A 14.72 14.72 0.0 0 0 240.61 64.76" data-svg-id="svg-elem-1768388258565-idp3zab6i" id="svg-elem-1768388229109-ask8wher5"/>
<path stroke="#888c8e" vector-effect="non-scaling-stroke" d="   M 413.63 141.24   Q 416.11 154.24 424.99 163.84   C 428.99 168.15 433.44 169.90 438.82 171.60   Q 442.64 172.81 450.74 172.75   C 458.66 172.69 466.61 173.35 473.04 171.99   C 489.09 168.60 496.87 155.68 500.63 140.67   C 504.32 125.90 508.46 111.53 512.62 94.45   Q 517.28 75.28 523.80 51.50   A 0.93 0.92 -82.3 0 0 522.91 50.33   L 500.12 50.33   A 1.35 1.35 0.0 0 0 498.82 51.31   Q 497.15 57.17 495.90 62.06   Q 488.44 91.24 485.67 101.72   Q 477.36 133.05 477.32 133.41   C 476.68 139.83 472.90 146.15 467.46 149.49   A 4.86 4.83 -60.7 0 1 464.92 150.21   Q 452.70 150.20 450.75 150.23   C 438.98 150.37 438.29 135.92 433.70 128.44   Q 428.08 119.27 416.76 117.61   Q 408.48 116.40 401.53 119.88   C 394.18 123.55 391.00 129.29 388.79 137.04   Q 387.92 140.10 384.60 145.09   Q 381.16 150.26 375.01 150.23   Q 370.37 150.21 361.14 150.23   A 3.70 3.68 58.1 0 1 359.49 149.84   Q 356.29 148.24 355.31 147.21   C 351.46 143.18 349.81 139.06 348.45 133.30   Q 346.96 126.96 343.76 115.10   Q 336.76 89.08 329.95 61.70   Q 329.65 60.51 327.28 50.88   A 0.72 0.72 0.0 0 0 326.58 50.34   L 303.24 50.34   A 0.56 0.56 0.0 0 0 302.68 50.87   Q 302.56 53.08 302.96 54.51   Q 308.77 75.28 313.60 95.57   C 316.85 109.24 320.94 122.37 324.16 136.35   C 326.66 147.18 330.30 156.86 337.80 164.26   Q 342.64 169.03 349.97 171.33   Q 354.79 172.83 364.05 172.79   C 375.78 172.72 382.54 173.52 391.63 170.13   C 400.11 166.97 406.17 158.47 409.69 150.39   C 410.96 147.48 411.67 144.08 413.23 141.18   A 0.22 0.21 53.4 0 1 413.63 141.24" data-svg-id="svg-elem-1768388258565-uf3htkyn5" id="svg-elem-1768388229109-wwmvlahxl"/>
<path stroke="#888c8e" vector-effect="non-scaling-stroke" d="   M 620.00 100.89   Q 618.64 100.56 612.75 100.54   Q 581.43 100.46 575.26 100.53   Q 558.91 100.69 547.26 112.05   Q 540.22 118.91 538.68 127.63   Q 537.15 136.31 538.77 147.01   C 540.99 161.66 556.75 172.96 570.98 172.92   Q 611.90 172.79 638.76 173.00   Q 654.27 173.11 659.10 171.61   C 668.77 168.60 678.81 160.43 681.49 149.98   Q 683.16 143.42 683.06 137.34   C 682.93 129.52 683.02 114.82 683.12 90.26   Q 683.16 81.43 682.40 78.12   Q 678.81 62.39 664.64 54.58   Q 656.86 50.29 646.27 50.30   Q 606.45 50.31 541.25 50.34   A 0.98 0.98 0.0 0 0 540.27 51.32   L 540.27 70.83   A 1.05 1.04 2.1 0 0 541.24 71.87   Q 544.33 72.11 547.00 72.10   Q 585.35 72.02 644.75 72.13   C 650.84 72.14 659.33 75.59 659.35 83.01   Q 659.37 100.37 659.40 135.63   C 659.41 144.44 658.69 150.60 648.74 150.66   Q 622.95 150.80 578.08 150.70   Q 569.46 150.68 568.03 150.22   C 562.10 148.32 561.31 141.46 561.51 135.36   Q 561.64 131.15 563.62 128.36   Q 567.29 123.19 575.19 123.23   Q 608.81 123.39 619.72 123.12   A 0.92 0.91 89.4 0 0 620.61 122.20   L 620.61 101.67   A 0.80 0.80 0.0 0 0 620.00 100.89" data-svg-id="svg-elem-1768388258565-unwkzmj5y" id="svg-elem-1768388229109-bgtstphfk"/>
<path stroke="#888c8e" vector-effect="non-scaling-stroke" d="   M 766.93 172.92   Q 778.17 172.93 780.99 172.90   Q 790.80 172.80 794.88 171.44   C 807.04 167.37 814.74 154.89 817.79 143.24   Q 827.34 106.85 834.03 80.25   C 836.43 70.68 839.37 61.10 841.59 51.33   A 0.77 0.77 0.0 0 0 840.84 50.39   L 817.91 50.33   A 1.53 1.53 0.0 0 0 816.43 51.47   Q 806.30 91.01 794.72 135.63   C 792.92 142.55 788.88 150.33 780.74 150.64   Q 778.42 150.73 766.95 150.72   Q 755.48 150.71 753.15 150.62   C 745.01 150.31 740.98 142.52 739.19 135.60   Q 727.66 90.97 717.58 51.41   A 1.53 1.53 0.0 0 0 716.10 50.27   L 693.17 50.31   A 0.77 0.77 0.0 0 0 692.42 51.25   C 694.63 61.02 697.56 70.60 699.94 80.17   Q 706.60 106.78 716.11 143.18   C 719.15 154.84 726.83 167.32 738.99 171.41   Q 743.07 172.77 752.88 172.88   Q 755.70 172.92 766.93 172.92" data-svg-id="svg-elem-1768388258565-kh58mi52e" id="svg-elem-1768388229109-j6avsdtdj"/>
<path stroke="#888c8e" vector-effect="non-scaling-stroke" d="   M 992.83 172.43   L 992.83 151.51   A 0.80 0.80 0.0 0 0 992.03 150.71   Q 961.52 150.73 893.75 150.73   C 889.49 150.73 883.27 151.29 880.10 149.35   C 876.91 147.40 873.32 144.43 873.32 140.47   Q 873.33 119.39 873.31 82.07   Q 873.31 78.43 876.04 75.56   C 878.27 73.23 884.32 72.22 887.02 72.19   Q 907.80 71.92 957.25 72.17   C 963.41 72.20 970.35 73.69 971.18 81.05   C 972.03 88.62 971.87 94.92 964.71 98.64   Q 961.35 100.38 953.06 100.26   Q 939.74 100.07 915.50 100.28   Q 913.98 100.29 912.51 100.73   A 0.53 0.53 0.0 0 0 912.13 101.24   L 912.13 122.12   A 0.58 0.57 90.0 0 0 912.70 122.70   Q 948.88 122.68 954.54 122.72   C 959.81 122.75 963.81 122.20 968.26 121.26   C 976.01 119.62 982.12 115.10 987.55 109.27   Q 991.64 104.89 993.65 98.20   C 995.34 92.57 995.27 84.08 994.68 79.00   C 992.97 64.34 982.64 54.76 968.76 51.33   Q 964.53 50.29 954.67 50.30   Q 925.37 50.35 889.00 50.28   Q 880.89 50.26 876.00 51.29   C 865.86 53.41 855.24 61.42 851.64 72.03   Q 850.20 76.27 850.23 83.01   Q 850.37 108.33 850.28 134.97   Q 850.26 144.11 850.44 145.50   C 851.72 155.27 858.46 162.65 866.77 167.95   C 874.68 172.99 882.61 172.94 894.05 172.92   Q 960.81 172.85 992.29 172.97   A 0.54 0.54 0.0 0 0 992.83 172.43" data-svg-id="svg-elem-1768388258565-lhhxj189x" id="svg-elem-1768388229109-db5agbxs4"/>
<path stroke="#888c8e" vector-effect="non-scaling-stroke" d="   M 227.2839 96.5489   A 14.96 14.68 -84.5 0 0 211.2376 110.0330   A 14.96 14.68 -84.5 0 0 224.4161 126.3311   A 14.96 14.68 -84.5 0 0 240.4624 112.8470   A 14.96 14.68 -84.5 0 0 227.2839 96.5489" data-svg-id="svg-elem-1768388258565-f1sj00u67" id="svg-elem-1768388229109-lqtq8yvyb"/>
<path stroke="#adc2cf" vector-effect="non-scaling-stroke" d="   M 289.63 111.42   A 14.90 14.90 0.0 0 0 274.73 96.52   A 14.90 14.90 0.0 0 0 259.83 111.42   A 14.90 14.90 0.0 0 0 274.73 126.32   A 14.90 14.90 0.0 0 0 289.63 111.42" data-svg-id="svg-elem-1768388258565-hiasuxdig" id="svg-elem-1768388229109-4hn5xpzo4"/>
<path stroke="#888c8e" vector-effect="non-scaling-stroke" d="   M 259.6721 157.1383   A 14.96 14.76 -175.7 0 0 273.4833 172.9785   A 14.96 14.76 -175.7 0 0 289.5079 159.3817   A 14.96 14.76 -175.7 0 0 275.6967 143.5415   A 14.96 14.76 -175.7 0 0 259.6721 157.1383" data-svg-id="svg-elem-1768388258565-szjmcsjew" id="svg-elem-1768388229109-wue24xh9k"/>
<path stroke="#b0b4b8" vector-effect="non-scaling-stroke" d="   M 186.45 247.21   Q 200.94 241.43 201.88 225.02   A 4.59 4.33 -51.8 0 0 201.76 223.69   Q 200.33 218.07 199.75 216.75   Q 196.38 208.99 188.25 205.36   C 181.84 202.50 171.88 203.19 165.81 206.69   Q 157.53 211.46 155.61 221.10   Q 155.06 223.89 155.45 228.02   Q 155.96 233.35 156.71 234.88   Q 160.06 241.67 167.09 245.52   A 4.89 4.10 62.6 0 0 167.93 245.87   Q 172.58 247.23 176.39 249.76   C 180.51 252.50 184.15 254.01 187.59 255.34   Q 188.61 255.74 193.36 255.88   A 2.03 2.00 28.3 0 0 194.56 255.53   Q 197.88 253.25 199.28 251.25   A 0.56 0.56 0.0 0 0 198.56 250.43   C 197.18 251.17 195.60 251.25 193.96 250.45   Q 190.84 248.94 186.62 248.48   A 0.66 0.66 0.0 0 1 186.45 247.21" data-svg-id="svg-elem-1768388258565-5earwpurw" id="svg-elem-1768388229109-2y98sryz0"/>
<path stroke="#b0b4b8" vector-effect="non-scaling-stroke" d="   M 454.12 212.53   L 454.15 208.82   A 2.78 2.76 -86.3 0 0 451.72 206.04   Q 450.27 205.86 446.68 204.70   C 436.53 201.46 424.45 205.09 418.94 214.13   C 412.83 224.12 415.26 236.57 424.32 243.62   C 431.45 249.16 443.40 248.55 451.64 245.85   A 4.46 4.46 0.0 0 0 454.72 241.65   L 454.74 239.95   A 1.75 1.75 0.0 0 0 452.05 238.46   C 448.63 240.61 440.74 242.90 436.11 241.81   C 427.90 239.86 422.37 235.06 422.43 226.04   C 422.51 209.51 441.13 206.82 452.25 213.58   A 1.23 1.23 0.0 0 0 454.12 212.53" data-svg-id="svg-elem-1768388258565-79adys94b" id="svg-elem-1768388229109-ccmo2s6yh"/>
<path stroke="#b0b4b8" vector-effect="non-scaling-stroke" d="   M 754.79 212.44   L 754.79 208.72   A 2.78 2.76 -86.8 0 0 752.34 205.96   Q 750.88 205.79 747.28 204.66   C 737.10 201.49 725.05 205.22 719.60 214.30   C 713.57 224.34 716.09 236.78 725.21 243.76   C 732.38 249.25 744.33 248.55 752.56 245.79   A 4.47 4.46 -9.3 0 0 755.61 241.56   L 755.61 239.86   A 1.75 1.75 0.0 0 0 752.91 238.39   C 749.51 240.57 741.63 242.92 736.99 241.86   C 728.76 239.98 723.19 235.22 723.18 226.19   C 723.14 209.65 741.75 206.82 752.92 213.50   A 1.24 1.24 0.0 0 0 754.79 212.44" data-svg-id="svg-elem-1768388258565-j2m7keqmp" id="svg-elem-1768388229109-s9bbkd72w"/>
<path stroke="#b0b4b8" vector-effect="non-scaling-stroke" d="   M 83.48 220.32   L 83.48 205.89   A 1.76 1.74 4.9 0 0 82.02 204.17   Q 79.62 203.77 78.37 204.55   A 1.40 1.40 0.0 0 0 77.71 205.74   L 77.71 245.66   A 1.75 1.75 0.0 0 0 79.46 247.41   L 81.51 247.41   A 2.09 2.09 0.0 0 0 83.60 245.31   C 83.56 238.69 83.08 233.29 83.77 227.54   C 84.16 224.31 89.59 222.54 92.27 223.86   C 94.92 225.17 95.39 228.05 95.45 231.01   Q 95.57 235.96 95.37 244.87   A 2.73 2.72 0.7 0 0 98.10 247.66   L 98.71 247.66   A 2.63 2.62 0.2 0 0 101.34 245.06   Q 101.45 233.47 100.80 225.12   C 100.41 219.97 93.40 217.29 89.28 218.61   Q 85.92 219.69 84.04 220.67   A 0.39 0.38 76.5 0 1 83.48 220.32" data-svg-id="svg-elem-1768388258565-h51xsyk71" id="svg-elem-1768388229109-6s84tw62d"/>
<path stroke="#b0b4b8" vector-effect="non-scaling-stroke" d="   M 56.56 247.25   A 1.24 1.24 0.0 0 0 57.80 246.01   L 57.80 211.08   A 1.24 1.24 0.0 0 1 59.04 209.84   L 72.01 209.84   A 1.24 1.24 0.0 0 0 73.25 208.60   L 73.25 205.81   A 1.24 1.24 0.0 0 0 72.01 204.57   L 37.69 204.57   A 1.24 1.24 0.0 0 0 36.45 205.81   L 36.45 208.53   A 1.24 1.24 0.0 0 0 37.69 209.77   L 50.33 209.77   A 1.24 1.24 0.0 0 1 51.57 211.01   L 51.57 246.01   A 1.24 1.24 0.0 0 0 52.81 247.25   L 56.56 247.25" data-svg-id="svg-elem-1768388258565-9phwtw8bh" id="svg-elem-1768388229109-0q0n5pskh"/>
<path stroke="#b0b4b8" vector-effect="non-scaling-stroke" d="   M 633.14 207.54   L 628.93 207.79   A 1.46 1.46 0.0 0 0 627.55 209.34   L 627.59 209.98   A 4.57 3.50 86.6 0 0 631.36 214.34   L 631.50 214.33   A 4.57 3.50 86.6 0 0 634.72 209.56   L 634.68 208.91   A 1.46 1.46 0.0 0 0 633.14 207.54" data-svg-id="svg-elem-1768388258565-02rdyrsdp" id="svg-elem-1768388229109-n75eit0g9"/>
<path stroke="#b0b4b8" vector-effect="non-scaling-stroke" d="   M 295.03 223.85   Q 295.95 224.52 297.93 224.75   A 0.93 0.92 4.4 0 1 298.75 225.70   Q 298.55 232.74 298.88 238.80   Q 299.14 243.44 302.20 246.54   A 2.19 2.11 74.3 0 0 303.19 247.12   Q 308.60 248.55 314.05 247.07   A 1.50 1.47 7.3 0 0 314.91 246.42   Q 315.85 244.89 315.28 242.01   A 1.36 1.35 65.5 0 0 313.11 241.20   Q 310.42 243.30 306.51 242.00   A 1.17 1.16 -0.4 0 1 305.78 241.29   Q 305.21 239.69 305.17 237.75   Q 305.09 233.48 305.29 225.48   A 0.85 0.85 0.0 0 1 306.14 224.65   L 311.50 224.65   A 2.26 2.25 0.0 0 0 313.76 222.40   L 313.76 220.95   A 2.35 2.35 0.0 0 0 311.41 218.60   L 306.10 218.60   A 0.72 0.72 0.0 0 1 305.38 217.87   Q 305.43 215.61 304.75 214.01   A 0.63 0.63 0.0 0 0 303.72 213.81   L 294.93 222.60   A 0.83 0.82 40.6 0 0 295.03 223.85" data-svg-id="svg-elem-1768388258565-xx3dxi538" id="svg-elem-1768388229109-rlo6oxp43"/>
<path stroke="#b0b4b8" vector-effect="non-scaling-stroke" d="   M 602.70 223.48   Q 604.12 224.22 606.89 224.50   A 1.17 1.16 2.5 0 1 607.93 225.63   Q 607.95 227.08 607.82 236.49   C 607.78 239.64 608.23 245.14 611.53 246.66   Q 616.67 249.03 622.23 246.92   C 623.60 246.41 624.76 245.06 624.90 243.68   A 1.76 1.69 -1.8 0 0 622.87 241.85   Q 618.63 242.51 618.26 242.56   C 614.08 243.09 613.66 240.00 613.65 236.87   Q 613.62 230.17 613.54 225.56   A 0.78 0.77 87.2 0 1 614.25 224.77   L 622.06 224.15   A 1.02 1.00 5.9 0 0 622.94 223.45   Q 623.75 220.92 622.01 219.22   A 1.16 1.13 -20.0 0 0 621.28 218.89   L 614.62 218.49   A 1.03 1.02 -85.2 0 1 613.66 217.35   Q 613.87 215.52 613.45 214.90   A 1.35 1.35 0.0 0 0 611.27 214.83   Q 607.02 220.28 602.68 223.05   A 0.25 0.25 0.0 0 0 602.70 223.48" data-svg-id="svg-elem-1768388258565-a0dr7uuc4" id="svg-elem-1768388229109-tb464x5g0"/>
<path stroke="#b0b4b8" vector-effect="non-scaling-stroke" d="   M 981.03 226.41   Q 982.76 232.39 982.79 232.59   Q 983.09 235.02 985.90 234.10   A 0.74 0.73 -0.9 0 0 986.38 233.61   L 989.18 224.42   A 0.36 0.36 0.0 0 1 989.88 224.47   Q 990.58 228.71 989.80 232.79   A 1.27 1.27 0.0 0 0 990.89 234.29   L 991.78 234.41   A 1.02 1.02 0.0 0 0 992.94 233.40   L 992.94 219.24   A 1.25 1.25 0.0 0 0 992.05 218.04   Q 989.39 217.22 988.33 219.29   Q 985.81 224.23 985.23 228.51   A 0.71 0.71 0.0 0 1 983.81 228.45   Q 983.52 223.34 981.73 219.69   A 2.74 2.73 77.0 0 0 979.27 218.15   L 962.97 218.15   A 1.03 1.03 0.0 0 0 962.67 220.16   L 966.51 221.33   A 0.63 0.61 -82.0 0 1 966.95 221.93   L 966.95 233.11   A 1.07 1.06 -90.0 0 0 968.01 234.18   L 969.04 234.18   A 1.10 1.09 -90.0 0 0 970.13 233.08   L 970.13 222.58   A 1.95 1.94 -6.8 0 1 971.62 220.69   L 975.19 219.81   A 1.17 1.17 0.0 0 1 976.64 220.95   L 976.64 233.44   A 1.04 1.04 0.0 0 0 977.92 234.45   L 978.53 234.30   A 1.23 1.22 -3.2 0 0 979.46 233.27   L 980.36 226.46   A 0.34 0.34 0.0 0 1 981.03 226.41" data-svg-id="svg-elem-1768388258565-gqovcpcd6" id="svg-elem-1768388229109-862nf5jeo"/>
<path stroke="#b0b4b8" vector-effect="non-scaling-stroke" d="   M 356.42 220.70   Q 355.05 218.27 352.15 218.30   A 1.49 1.49 0.0 0 0 350.70 219.51   Q 350.25 221.86 350.24 224.00   Q 350.19 237.72 350.04 244.96   A 2.50 2.50 0.0 0 0 352.54 247.51   L 354.07 247.51   A 2.33 2.33 0.0 0 0 356.40 245.20   Q 356.43 240.04 356.37 232.53   C 356.33 227.71 355.81 225.74 360.15 224.00   Q 364.29 222.34 366.94 225.58   A 1.90 1.80 -72.8 0 1 367.30 226.31   Q 368.18 229.89 368.19 234.02   Q 368.24 245.26 368.24 245.30   A 2.16 2.15 -0.7 0 0 370.60 247.60   L 371.80 247.48   A 2.72 2.72 0.0 0 0 374.25 244.75   Q 374.17 233.58 374.12 229.76   C 374.04 224.07 380.31 221.98 384.29 225.31   A 3.67 3.67 0.0 0 1 385.61 228.13   L 385.61 245.61   A 1.97 1.97 0.0 0 0 387.58 247.58   L 389.66 247.58   A 2.17 2.17 0.0 0 0 391.83 245.41   Q 391.79 228.93 391.49 226.81   C 390.95 223.08 387.36 218.29 383.04 218.12   C 378.77 217.95 377.07 219.49 373.53 222.12   A 1.28 1.27 -36.4 0 1 371.73 221.85   Q 368.66 217.61 362.79 218.28   C 360.55 218.54 358.64 220.97 357.38 221.16   A 0.94 0.94 0.0 0 1 356.42 220.70" data-svg-id="svg-elem-1768388258565-05hf2eo8l" id="svg-elem-1768388229109-mg17rcp1j"/>
<path stroke="#b0b4b8" vector-effect="non-scaling-stroke" d="   M 796.73 219.00   Q 795.82 221.18 795.82 224.04   Q 795.85 240.37 795.60 244.75   A 2.71 2.71 0.0 0 0 798.31 247.62   L 798.82 247.62   A 2.97 2.97 0.0 0 0 801.79 244.62   Q 801.69 230.80 801.64 230.23   Q 801.23 224.62 806.78 223.57   Q 811.17 222.75 812.90 226.03   A 2.51 2.42 28.0 0 1 813.16 226.83   C 813.58 229.85 814.07 232.88 814.01 236.21   Q 813.89 244.02 813.88 245.39   A 2.04 2.04 0.0 0 0 815.92 247.43   L 817.46 247.43   A 1.99 1.99 0.0 0 0 819.45 245.36   Q 819.25 239.90 819.37 230.25   Q 819.41 227.44 819.83 226.59   A 2.53 2.42 84.7 0 1 820.44 225.82   Q 823.91 222.94 827.67 223.96   C 833.24 225.48 831.81 238.75 831.54 245.33   A 2.13 2.12 -89.0 0 0 833.66 247.54   L 835.34 247.54   A 2.22 2.22 0.0 0 0 837.56 245.30   Q 837.43 231.11 837.36 230.42   C 836.75 224.07 834.32 217.55 826.59 218.32   C 824.07 218.57 821.57 220.75 819.35 221.83   A 2.02 2.02 0.0 0 1 817.28 221.65   L 813.10 218.64   A 0.95 0.90 -19.9 0 0 812.69 218.46   Q 808.08 217.63 804.18 220.04   A 2.66 2.66 0.0 0 1 801.23 219.93   L 799.04 218.35   A 1.53 1.53 0.0 0 0 796.73 219.00" data-svg-id="svg-elem-1768388258565-mvr9x6wic" id="svg-elem-1768388229109-ki6hdmdwo"/>
<path stroke="#b0b4b8" vector-effect="non-scaling-stroke" d="   M 132.52 242.70   L 132.52 241.50   A 1.55 1.54 78.1 0 0 130.35 240.08   Q 124.63 242.60 122.96 242.55   C 118.89 242.43 113.26 239.27 113.34 234.57   A 0.88 0.88 0.0 0 1 114.22 233.71   L 131.34 233.71   A 1.51 1.51 0.0 0 0 132.85 232.23   Q 132.96 225.65 128.53 220.78   A 3.49 3.47 -5.3 0 0 127.73 220.12   C 122.76 217.10 116.28 217.62 111.71 221.36   Q 109.09 223.50 107.77 227.76   Q 105.53 235.01 109.64 241.76   C 114.10 249.10 122.71 248.66 129.88 246.34   A 3.83 3.82 81.0 0 0 132.52 242.70" data-svg-id="svg-elem-1768388258565-vu9avypfl" id="svg-elem-1768388229109-4gjzex5ma"/>
<path stroke="#b0b4b8" vector-effect="non-scaling-stroke" d="   M 229.93 218.53   L 228.63 218.53   A 2.31 2.31 0.0 0 0 226.32 220.83   Q 226.26 236.29 226.26 236.51   C 226.30 242.37 220.68 244.02 216.04 242.25   A 2.26 2.26 0.0 0 1 214.64 240.64   Q 214.15 238.55 214.15 237.50   Q 214.20 228.34 214.17 221.18   A 3.01 3.00 -88.5 0 0 211.35 218.20   L 211.23 218.19   A 2.78 2.77 -86.7 0 0 208.29 220.82   Q 207.67 232.31 208.39 239.38   C 209.23 247.75 216.58 249.44 223.30 246.55   C 225.58 245.57 228.11 247.59 230.46 247.40   A 1.95 1.94 87.8 0 0 232.25 245.46   L 232.25 220.85   A 2.32 2.32 0.0 0 0 229.93 218.53" data-svg-id="svg-elem-1768388258565-71trwvilo" id="svg-elem-1768388229109-qwgertshj"/>
<path stroke="#b0b4b8" vector-effect="non-scaling-stroke" d="   M 257.76 242.64   Q 257.59 236.87 257.75 228.71   C 257.85 223.91 257.05 220.67 252.67 219.07   Q 247.20 217.08 240.94 219.83   A 4.04 4.04 0.0 0 0 238.52 223.53   L 238.52 225.24   A 1.52 1.52 0.0 0 0 240.91 226.48   Q 245.92 222.99 249.95 224.50   Q 252.52 225.46 252.51 228.76   A 1.03 1.03 0.0 0 1 251.92 229.69   Q 248.58 231.26 245.94 232.26   C 240.78 234.20 237.19 236.84 238.28 242.99   C 239.41 249.41 247.54 247.57 251.47 246.54   Q 252.16 246.35 254.63 247.34   Q 255.92 247.86 260.08 247.37   Q 261.51 247.21 261.84 246.05   A 2.97 2.37 -67.3 0 0 260.96 242.96   Q 260.23 242.49 258.42 243.10   A 0.50 0.50 0.0 0 1 257.76 242.64" data-svg-id="svg-elem-1768388258565-2wsshgmz3" id="svg-elem-1768388229109-houk714qq"/>
<path stroke="#b0b4b8" vector-effect="non-scaling-stroke" d="   M 288.99 247.63   A 1.65 1.64 -87.4 0 0 290.85 245.93   Q 290.64 240.76 290.86 229.86   Q 290.95 225.71 289.60 223.38   Q 286.27 217.59 279.29 218.36   C 276.18 218.71 274.23 221.49 270.59 218.62   A 2.19 2.19 0.0 0 0 267.04 220.34   L 267.04 245.32   A 2.12 2.11 -0.0 0 0 269.16 247.43   L 270.84 247.44   A 2.16 2.16 0.0 0 0 272.96 245.27   Q 272.93 238.39 272.82 230.75   Q 272.79 228.66 273.42 226.66   A 2.33 2.30 77.3 0 1 274.03 225.68   Q 277.40 222.43 282.48 224.13   A 3.23 3.23 0.0 0 1 284.68 227.19   L 284.68 245.33   A 1.97 1.96 -86.3 0 0 286.39 247.28   L 288.99 247.63" data-svg-id="svg-elem-1768388258565-7hb2vawuc" id="svg-elem-1768388229109-z5ct1i4q9"/>
<path stroke="#b0b4b8" vector-effect="non-scaling-stroke" d="   M 322.89 218.28   L 322.18 218.34   A 3.02 3.02 0.0 0 0 319.40 221.34   Q 319.38 227.10 319.29 236.67   C 319.24 241.97 320.06 246.24 325.50 247.48   Q 329.96 248.49 334.68 246.29   A 2.48 2.44 37.3 0 1 336.19 246.10   C 338.36 246.50 343.12 249.98 343.23 244.44   Q 343.43 233.88 343.04 221.08   A 2.75 2.75 0.0 0 0 340.38 218.42   L 340.22 218.41   A 2.67 2.66 1.2 0 0 337.47 221.04   C 337.37 228.54 338.07 235.46 336.24 240.40   A 1.92 1.91 83.0 0 1 335.54 241.30   Q 332.32 243.47 327.92 242.43   A 2.60 2.60 0.0 0 1 325.94 240.25   L 325.39 236.25   Q 325.39 236.21 325.39 236.18   L 324.83 220.01   A 1.80 1.79 -3.2 0 0 322.89 218.28" data-svg-id="svg-elem-1768388258565-lxha76b4i" id="svg-elem-1768388229109-ykwicz1we"/>
<path stroke="#b0b4b8" vector-effect="non-scaling-stroke" d="   M 501.52 225.77   C 504.56 223.60 506.95 222.46 510.51 224.25   C 512.81 225.41 512.82 229.25 512.92 231.77   Q 513.25 239.80 512.77 245.20   A 2.04 2.04 0.0 0 0 514.80 247.42   L 516.62 247.42   A 1.93 1.92 89.4 0 0 518.54 245.45   Q 518.43 239.51 518.63 229.54   Q 518.71 225.46 522.95 223.89   Q 524.99 223.13 527.61 224.17   Q 530.32 225.25 530.32 228.23   Q 530.31 244.53 530.23 245.34   A 2.06 2.06 0.0 0 0 532.25 247.59   L 533.99 247.61   A 2.50 2.50 0.0 0 0 536.52 245.09   Q 536.41 234.86 536.43 231.26   Q 536.46 226.32 535.73 224.69   C 533.63 220.06 530.37 217.77 525.21 218.35   C 523.13 218.59 519.68 221.06 518.52 221.89   A 1.54 1.52 -44.4 0 1 516.74 221.88   L 512.25 218.64   A 1.21 1.14 -23.0 0 0 511.66 218.42   Q 507.45 218.06 505.94 218.93   Q 503.77 220.18 501.44 220.83   A 1.49 1.49 0.0 0 1 499.67 219.98   Q 498.70 217.71 496.27 218.42   A 0.90 0.88 89.5 0 0 495.66 219.05   Q 495.08 221.26 495.15 224.75   Q 495.29 231.69 495.07 245.36   A 2.14 2.14 0.0 0 0 497.21 247.53   L 498.54 247.53   A 2.20 2.20 0.0 0 0 500.74 245.33   L 500.74 227.29   A 1.87 1.87 0.0 0 1 501.52 225.77" data-svg-id="svg-elem-1768388258565-jh4q7lapa" id="svg-elem-1768388229109-678f0yrdy"/>
<path stroke="#b0b4b8" vector-effect="non-scaling-stroke" d="   M 593.58 220.20   Q 593.18 227.05 593.31 236.50   C 593.39 242.09 588.07 243.75 583.67 242.35   A 2.94 2.93 -81.2 0 1 581.63 239.55   L 581.63 221.71   A 3.27 3.25 5.7 0 0 579.01 218.52   L 578.60 218.44   A 2.54 2.53 -82.5 0 0 575.45 220.86   Q 575.29 231.84 575.37 239.75   C 575.43 246.44 582.12 249.07 587.75 247.42   Q 590.84 246.51 591.56 246.28   A 2.26 2.22 47.5 0 1 593.12 246.36   C 595.69 247.48 599.02 249.00 599.12 244.81   Q 599.37 234.59 599.23 220.45   A 1.80 1.80 0.0 0 0 597.43 218.67   L 595.21 218.67   A 1.63 1.63 0.0 0 0 593.58 220.20" data-svg-id="svg-elem-1768388258565-ucnryhquu" id="svg-elem-1768388229109-yw6jwtqlz"/>
<path stroke="#b0b4b8" vector-effect="non-scaling-stroke" d="   M 634.5429 220.9662   A 2.49 2.49 0.0 0 0 632.0660 218.4632   L 630.9060 218.4572   A 2.49 2.49 0.0 0 0 628.4030 220.9341   L 628.2771 244.9938   A 2.49 2.49 0.0 0 0 630.7540 247.4968   L 631.9140 247.5028   A 2.49 2.49 0.0 0 0 634.4170 245.0259   L 634.5429 220.9662" data-svg-id="svg-elem-1768388258565-4kmwa70c6" id="svg-elem-1768388229109-8yrp3um6k"/>
<path stroke="#b0b4b8" vector-effect="non-scaling-stroke" d="   M 646.47 247.53   A 1.81 1.80 90.0 0 0 648.27 245.72   L 648.27 226.66   A 1.87 1.87 0.0 0 1 649.36 224.96   C 651.69 223.88 654.33 222.63 656.85 224.26   Q 659.91 226.24 660.05 231.28   Q 660.18 236.43 660.00 244.74   A 2.99 2.99 0.0 0 0 663.24 247.78   L 663.27 247.78   A 3.44 3.42 86.4 0 0 666.41 244.21   C 666.14 237.84 666.99 229.36 664.46 223.27   C 662.49 218.52 655.45 217.01 651.35 219.44   Q 650.06 220.21 649.41 220.26   A 1.03 0.98 -34.0 0 1 648.99 220.19   L 644.04 218.30   A 1.74 1.73 24.0 0 0 641.86 219.13   Q 641.79 219.26 641.76 219.76   Q 641.44 226.15 641.54 245.38   A 2.17 2.17 0.0 0 0 643.71 247.53   L 646.47 247.53" data-svg-id="svg-elem-1768388258565-m9pawiaey" id="svg-elem-1768388229109-78xcy2dl4"/>
<path stroke="#b0b4b8" vector-effect="non-scaling-stroke" d="   M 888.56 228.23   A 1.58 1.57 74.0 0 1 887.63 229.92   Q 881.31 232.61 880.40 232.96   Q 873.12 235.76 874.52 243.04   C 875.81 249.75 883.56 247.52 887.97 246.59   A 2.56 2.55 53.6 0 1 889.75 246.86   Q 893.43 248.95 897.95 246.32   A 1.45 1.44 -22.4 0 0 898.62 244.73   Q 898.01 242.26 895.67 242.86   A 0.72 0.72 0.0 0 1 894.78 242.15   Q 894.89 234.41 894.59 230.01   C 894.40 227.16 894.12 221.75 891.32 220.16   Q 883.61 215.81 876.49 220.51   A 3.25 3.24 73.4 0 0 875.03 223.22   L 875.03 225.74   A 1.19 1.19 0.0 0 0 876.81 226.77   C 879.83 225.05 880.92 224.00 885.23 224.35   Q 887.97 224.57 888.56 228.23" data-svg-id="svg-elem-1768388258565-l3l4lcrj2" id="svg-elem-1768388229109-z8uuq92vu"/>
<path stroke="#b0b4b8" vector-effect="non-scaling-stroke" d="   M 908.74 219.53   Q 906.36 217.75 904.50 218.62   A 1.57 1.57 0.0 0 0 903.75 219.37   Q 902.92 221.12 903.10 223.52   Q 903.83 233.49 902.98 244.50   A 2.99 2.98 -88.2 0 0 905.99 247.72   L 906.09 247.72   A 3.32 3.31 89.7 0 0 909.37 244.39   Q 909.35 236.24 909.24 233.50   Q 908.99 227.47 910.40 225.73   Q 912.76 222.80 917.95 223.96   A 2.99 2.99 0.0 0 1 920.22 226.25   C 921.44 232.03 921.04 239.46 920.82 244.95   A 2.40 2.40 0.0 0 0 922.90 247.42   L 924.74 247.66   A 2.04 2.03 -86.0 0 0 927.04 245.65   Q 927.06 241.14 927.17 231.58   Q 927.24 225.31 925.34 222.35   Q 922.14 217.36 915.96 218.28   C 914.00 218.57 911.46 220.20 909.98 220.02   A 2.65 2.58 65.8 0 1 908.74 219.53" data-svg-id="svg-elem-1768388258565-4pzu81j2b" id="svg-elem-1768388229109-2b9uj7y5m"/>
<path stroke="#b0b4b8" vector-effect="non-scaling-stroke" d="   M 944.21 232.84   A 0.84 0.84 0.0 0 1 942.68 232.84   L 937.10 220.66   A 4.11 4.11 0.0 0 0 932.72 218.32   L 932.40 218.37   A 2.43 2.43 0.0 0 0 930.60 221.90   Q 935.29 230.75 938.96 239.28   Q 939.92 241.50 939.24 243.25   Q 937.01 249.02 931.69 258.75   A 2.20 2.20 0.0 0 0 933.30 261.99   L 933.92 262.10   A 4.24 4.23 17.4 0 0 938.49 259.72   L 956.23 221.56   A 2.25 2.24 18.5 0 0 954.66 218.42   L 954.21 218.30   A 3.61 3.60 -70.4 0 0 950.06 220.28   L 944.21 232.84" data-svg-id="svg-elem-1768388258565-eam8sn63j" id="svg-elem-1768388229109-65ll62zcw"/>
<path stroke="#b0b4b8" vector-effect="non-scaling-stroke" d="   M 488.8603 231.7840   A 13.07 13.07 0.0 0 0 475.6091 218.8978   L 472.2294 218.9450   A 13.07 13.07 0.0 0 0 459.3431 232.1962   L 459.3797 234.8160   A 13.07 13.07 0.0 0 0 472.6309 247.7022   L 476.0106 247.6550   A 13.07 13.07 0.0 0 0 488.8969 234.4038   L 488.8603 231.7840" data-svg-id="svg-elem-1768388258565-2j6rj0smd" id="svg-elem-1768388229109-1fumrrc6z"/>
<path stroke="#b0b4b8" vector-effect="non-scaling-stroke" d="   M 544.05 219.59   L 544.05 259.92   A 2.00 1.99 -0.0 0 0 546.05 261.91   L 547.63 261.91   A 2.10 2.10 0.0 0 0 549.73 259.81   L 549.73 248.03   A 0.65 0.64 2.8 0 1 550.44 247.39   C 554.06 247.76 560.08 248.31 562.93 246.19   Q 565.42 244.35 567.90 241.14   C 569.70 238.82 569.66 233.96 569.51 231.18   C 569.04 222.69 561.15 218.99 553.75 218.74   Q 548.69 218.57 544.99 218.63   A 0.96 0.96 0.0 0 0 544.05 219.59" data-svg-id="svg-elem-1768388258565-qsky7kty2" id="svg-elem-1768388229109-n57rie1rd"/>
<path stroke="#b0b4b8" vector-effect="non-scaling-stroke" d="   M 689.93 245.14   Q 686.93 245.06 682.50 243.63   Q 681.82 243.41 680.98 243.29   Q 679.91 243.14 679.61 242.67   A 2.08 1.99 -23.3 0 1 680.90 239.62   Q 682.99 239.10 686.27 238.52   A 4.48 4.19 23.5 0 0 687.65 238.03   Q 690.71 236.31 692.63 232.73   C 694.08 230.03 693.34 228.19 691.77 225.73   A 0.76 0.75 61.4 0 1 692.09 224.63   L 695.36 223.13   A 0.70 0.68 86.4 0 0 695.74 222.69   Q 696.48 220.27 694.78 219.12   A 1.97 1.87 62.8 0 0 693.87 218.80   C 687.22 218.23 678.91 217.75 673.81 222.14   A 3.14 3.08 83.5 0 0 673.02 223.15   Q 668.91 231.38 675.62 237.27   A 0.67 0.66 -43.5 0 1 675.59 238.30   Q 672.24 240.91 673.92 244.53   A 1.51 1.50 62.9 0 1 673.30 246.47   C 671.38 247.56 669.61 248.64 669.13 250.87   Q 668.04 255.91 671.88 258.86   C 676.14 262.13 680.77 262.14 686.19 261.65   Q 691.48 261.16 694.76 256.96   A 2.57 2.53 71.1 0 0 695.26 255.92   C 695.81 253.58 696.12 250.22 694.24 248.30   Q 692.03 246.04 690.85 245.39   A 2.15 2.12 -29.4 0 0 689.93 245.14" data-svg-id="svg-elem-1768388258565-1avdycgxy" id="svg-elem-1768388229109-p3pbuf63z"/>
<path stroke="#b0b4b8" vector-effect="non-scaling-stroke" d="   M 790.1845 232.3073   A 15.33 14.74 -3.9 0 0 773.8875 218.6441   A 15.33 14.74 -3.9 0 0 759.5955 234.3927   A 15.33 14.74 -3.9 0 0 775.8925 248.0559   A 15.33 14.74 -3.9 0 0 790.1845 232.3073" data-svg-id="svg-elem-1768388258565-13kyoczm0" id="svg-elem-1768388229109-172vxgwye"/>
<path stroke="#b0b4b8" vector-effect="non-scaling-stroke" d="   M 851.01 246.93   C 856.87 248.69 864.38 247.82 867.70 242.42   C 870.43 237.96 871.38 233.71 869.66 228.08   C 868.01 222.65 864.44 221.01 859.46 219.57   C 854.61 218.16 849.33 218.96 845.70 218.74   A 1.37 1.37 0.0 0 0 844.25 220.11   L 844.25 259.68   A 2.41 2.40 0.0 0 0 846.66 262.08   L 848.16 262.08   A 2.00 1.99 0.0 0 0 850.16 260.09   L 850.16 247.56   A 0.66 0.66 0.0 0 1 851.01 246.93" data-svg-id="svg-elem-1768388258565-o5rfeq7nd" id="svg-elem-1768388229109-vtd1ig8hh"/>
<path stroke="#eef4fb" vector-effect="non-scaling-stroke" d="   M 1018.78 293.13   A 0.69 0.69 0.0 0 0 1018.09 292.44   L 6.01 292.44   A 0.69 0.69 0.0 0 0 5.32 293.13   A 0.69 0.69 0.0 0 0 6.01 293.82   L 1018.09 293.82   A 0.69 0.69 0.0 0 0 1018.78 293.13" data-svg-id="svg-elem-1768388258565-xfd7ovxra" id="svg-elem-1768388229109-9to93pok3"/>
<path stroke="#888c8e" vector-effect="non-scaling-stroke" d="   M 59.96 73.52   L 59.82 149.32   A 1.42 1.42 0.0 0 0 61.24 150.74   L 150.81 150.90   A 11.69 10.10 0.1 0 0 162.52 140.82   L 162.62 82.38   A 11.69 10.10 0.1 0 0 150.95 72.26   L 61.38 72.10   A 1.42 1.42 0.0 0 0 59.96 73.52" data-svg-id="svg-elem-1768388258565-ykj8siv1r" id="svg-elem-1768388229109-xlnt78zeq"/>
<path stroke="#b0b4b8" vector-effect="non-scaling-stroke" d="   M 195.0171 224.8427   A 16.68 16.13 -3.6 0 0 177.3572 209.7918   A 16.68 16.13 -3.6 0 0 161.7229 226.9373   A 16.68 16.13 -3.6 0 0 179.3828 241.9882   A 16.68 16.13 -3.6 0 0 195.0171 224.8427" data-svg-id="svg-elem-1768388258565-miha4dl0v" id="svg-elem-1768388229109-9jwcytk6l"/>
<path stroke="#b0b4b8" vector-effect="non-scaling-stroke" d="   M 114.64 230.02   L 125.98 230.10   A 0.76 0.76 0.0 0 0 126.74 229.34   L 126.74 229.22   A 5.74 5.30 0.4 0 0 121.04 223.88   L 119.66 223.88   A 5.74 5.30 0.4 0 0 113.88 229.14   L 113.88 229.26   A 0.76 0.76 0.0 0 0 114.64 230.02" data-svg-id="svg-elem-1768388258565-l07exvof6" id="svg-elem-1768388229109-ap4ipjfpv"/>
<path stroke="#b0b4b8" vector-effect="non-scaling-stroke" d="   M 252.61 234.82   A 0.58 0.58 0.0 0 0 251.99 234.24   C 248.38 234.49 242.68 236.50 244.06 241.25   C 244.81 243.82 249.42 243.05 251.27 242.63   A 1.74 1.73 83.5 0 0 252.61 240.94   L 252.61 234.82" data-svg-id="svg-elem-1768388258565-zryrl6jer" id="svg-elem-1768388229109-xgqn7u1r3"/>
<path stroke="#9ea9b4" vector-effect="non-scaling-stroke" d="   M 882.65 243.28   Q 884.61 243.72 887.43 242.42   A 2.38 2.38 0.0 0 0 888.81 240.26   L 888.81 235.70   A 1.07 1.06 -85.6 0 0 887.91 234.64   C 883.83 234.01 877.21 238.49 881.74 242.79   A 1.98 1.95 72.9 0 0 882.65 243.28" data-svg-id="svg-elem-1768388258565-j4h77ineh" id="svg-elem-1768388229109-ovh3edgq7"/>
<path stroke="#b0b4b8" vector-effect="non-scaling-stroke" d="   M 483.31 233.46   A 9.20 9.20 0.0 0 0 474.11 224.26   A 9.20 9.20 0.0 0 0 464.91 233.46   A 9.20 9.20 0.0 0 0 474.11 242.66   A 9.20 9.20 0.0 0 0 483.31 233.46" data-svg-id="svg-elem-1768388258565-qv8hh4pk2" id="svg-elem-1768388229109-lgr6jqder"/>
<path stroke="#b0b4b8" vector-effect="non-scaling-stroke" d="   M 549.63 226.62   L 549.63 240.62   A 2.17 2.17 0.0 0 0 551.80 242.79   L 555.36 242.79   A 7.93 7.67 0.0 0 0 563.29 235.12   L 563.29 232.12   A 7.93 7.67 -0.0 0 0 555.36 224.45   L 551.80 224.45   A 2.17 2.17 0.0 0 0 549.63 226.62" data-svg-id="svg-elem-1768388258565-ip4ygysv5" id="svg-elem-1768388229109-69vsoebm4"/>
<path stroke="#b0b4b8" vector-effect="non-scaling-stroke" d="   M 687.1561 228.3339   A 4.20 4.20 0.0 0 0 682.6194 224.5001   L 680.8058 224.6524   A 4.20 4.20 0.0 0 0 676.9719 229.1891   L 677.0439 230.0461   A 4.20 4.20 0.0 0 0 681.5806 233.8799   L 683.3942 233.7276   A 4.20 4.20 0.0 0 0 687.2281 229.1909   L 687.1561 228.3339" data-svg-id="svg-elem-1768388258565-l7epi905c" id="svg-elem-1768388229109-dvrlq2gux"/>
<path stroke="#b0b4b8" vector-effect="non-scaling-stroke" d="   M 689.5138 253.1078   A 3.78 3.78 0.0 0 0 685.8341 249.2301   L 679.0564 249.0526   A 3.78 3.78 0.0 0 0 675.1787 252.7324   L 675.1662 253.2122   A 3.78 3.78 0.0 0 0 678.8459 257.0899   L 685.6236 257.2674   A 3.78 3.78 0.0 0 0 689.5013 253.5876   L 689.5138 253.1078" data-svg-id="svg-elem-1768388258565-fxipebv6o" id="svg-elem-1768388229109-rqk01a7wy"/>
<path stroke="#b0b4b8" vector-effect="non-scaling-stroke" d="   M 765.6916 232.2413   A 9.29 9.12 -172.4 0 0 773.6938 242.5099   A 9.29 9.12 -172.4 0 0 784.1084 234.6987   A 9.29 9.12 -172.4 0 0 776.1062 224.4301   A 9.29 9.12 -172.4 0 0 765.6916 232.2413" data-svg-id="svg-elem-1768388258565-xizxqwhdo" id="svg-elem-1768388229109-dqspcyo0b"/>
<path stroke="#b0b4b8" vector-effect="non-scaling-stroke" d="   M 850.22 226.24   L 850.69 241.29   A 1.70 1.70 0.0 0 0 852.44 242.93   L 855.93 242.82   A 9.10 8.93 88.2 0 0 864.57 233.45   L 864.56 233.19   A 9.10 8.93 88.2 0 0 855.35 224.37   L 851.86 224.48   A 1.70 1.70 0.0 0 0 850.22 226.24" data-svg-id="svg-elem-1768388258565-xa1ynmg7n" id="svg-elem-1768388229109-iozxsswi1"/>
</g>
<path fill="rgb(255, 255, 255)" d="   M 23.47 0.00   L 6.58 0.15   A 1.18 1.17 84.0 0 0 5.44 1.57   L 5.45 1.64   A 1.74 1.74 0.0 0 0 7.16 3.04   Q 512.01 3.06 1017.38 3.03   A 1.62 1.62 0.0 0 0 1019.00 1.51   Q 1019.06 0.43 1017.63 0.00   L 1024.00 0.00   L 1024.00 294.00   L 0.00 294.00   L 0.00 0.00   L 23.47 0.00   Z   M 37.12 51.58   L 36.92 171.56   A 1.34 1.34 0.0 0 0 38.25 172.90   L 151.76 173.10   A 34.07 33.11 0.1 0 0 185.89 140.05   L 185.99 83.61   A 34.07 33.11 0.1 0 0 151.98 50.44   L 38.47 50.24   A 1.34 1.34 0.0 0 0 37.12 51.58   Z   M 240.61 64.76   A 14.72 14.72 0.0 0 0 225.89 50.04   A 14.72 14.72 0.0 0 0 211.17 64.76   A 14.72 14.72 0.0 0 0 225.89 79.48   A 14.72 14.72 0.0 0 0 240.61 64.76   Z   M 413.63 141.24   Q 416.11 154.24 424.99 163.84   C 428.99 168.15 433.44 169.90 438.82 171.60   Q 442.64 172.81 450.74 172.75   C 458.66 172.69 466.61 173.35 473.04 171.99   C 489.09 168.60 496.87 155.68 500.63 140.67   C 504.32 125.90 508.46 111.53 512.62 94.45   Q 517.28 75.28 523.80 51.50   A 0.93 0.92 -82.3 0 0 522.91 50.33   L 500.12 50.33   A 1.35 1.35 0.0 0 0 498.82 51.31   Q 497.15 57.17 495.90 62.06   Q 488.44 91.24 485.67 101.72   Q 477.36 133.05 477.32 133.41   C 476.68 139.83 472.90 146.15 467.46 149.49   A 4.86 4.83 -60.7 0 1 464.92 150.21   Q 452.70 150.20 450.75 150.23   C 438.98 150.37 438.29 135.92 433.70 128.44   Q 428.08 119.27 416.76 117.61   Q 408.48 116.40 401.53 119.88   C 394.18 123.55 391.00 129.29 388.79 137.04   Q 387.92 140.10 384.60 145.09   Q 381.16 150.26 375.01 150.23   Q 370.37 150.21 361.14 150.23   A 3.70 3.68 58.1 0 1 359.49 149.84   Q 356.29 148.24 355.31 147.21   C 351.46 143.18 349.81 139.06 348.45 133.30   Q 346.96 126.96 343.76 115.10   Q 336.76 89.08 329.95 61.70   Q 329.65 60.51 327.28 50.88   A 0.72 0.72 0.0 0 0 326.58 50.34   L 303.24 50.34   A 0.56 0.56 0.0 0 0 302.68 50.87   Q 302.56 53.08 302.96 54.51   Q 308.77 75.28 313.60 95.57   C 316.85 109.24 320.94 122.37 324.16 136.35   C 326.66 147.18 330.30 156.86 337.80 164.26   Q 342.64 169.03 349.97 171.33   Q 354.79 172.83 364.05 172.79   C 375.78 172.72 382.54 173.52 391.63 170.13   C 400.11 166.97 406.17 158.47 409.69 150.39   C 410.96 147.48 411.67 144.08 413.23 141.18   A 0.22 0.21 53.4 0 1 413.63 141.24   Z   M 620.00 100.89   Q 618.64 100.56 612.75 100.54   Q 581.43 100.46 575.26 100.53   Q 558.91 100.69 547.26 112.05   Q 540.22 118.91 538.68 127.63   Q 537.15 136.31 538.77 147.01   C 540.99 161.66 556.75 172.96 570.98 172.92   Q 611.90 172.79 638.76 173.00   Q 654.27 173.11 659.10 171.61   C 668.77 168.60 678.81 160.43 681.49 149.98   Q 683.16 143.42 683.06 137.34   C 682.93 129.52 683.02 114.82 683.12 90.26   Q 683.16 81.43 682.40 78.12   Q 678.81 62.39 664.64 54.58   Q 656.86 50.29 646.27 50.30   Q 606.45 50.31 541.25 50.34   A 0.98 0.98 0.0 0 0 540.27 51.32   L 540.27 70.83   A 1.05 1.04 2.1 0 0 541.24 71.87   Q 544.33 72.11 547.00 72.10   Q 585.35 72.02 644.75 72.13   C 650.84 72.14 659.33 75.59 659.35 83.01   Q 659.37 100.37 659.40 135.63   C 659.41 144.44 658.69 150.60 648.74 150.66   Q 622.95 150.80 578.08 150.70   Q 569.46 150.68 568.03 150.22   C 562.10 148.32 561.31 141.46 561.51 135.36   Q 561.64 131.15 563.62 128.36   Q 567.29 123.19 575.19 123.23   Q 608.81 123.39 619.72 123.12   A 0.92 0.91 89.4 0 0 620.61 122.20   L 620.61 101.67   A 0.80 0.80 0.0 0 0 620.00 100.89   Z   M 766.93 172.92   Q 778.17 172.93 780.99 172.90   Q 790.80 172.80 794.88 171.44   C 807.04 167.37 814.74 154.89 817.79 143.24   Q 827.34 106.85 834.03 80.25   C 836.43 70.68 839.37 61.10 841.59 51.33   A 0.77 0.77 0.0 0 0 840.84 50.39   L 817.91 50.33   A 1.53 1.53 0.0 0 0 816.43 51.47   Q 806.30 91.01 794.72 135.63   C 792.92 142.55 788.88 150.33 780.74 150.64   Q 778.42 150.73 766.95 150.72   Q 755.48 150.71 753.15 150.62   C 745.01 150.31 740.98 142.52 739.19 135.60   Q 727.66 90.97 717.58 51.41   A 1.53 1.53 0.0 0 0 716.10 50.27   L 693.17 50.31   A 0.77 0.77 0.0 0 0 692.42 51.25   C 694.63 61.02 697.56 70.60 699.94 80.17   Q 706.60 106.78 716.11 143.18   C 719.15 154.84 726.83 167.32 738.99 171.41   Q 743.07 172.77 752.88 172.88   Q 755.70 172.92 766.93 172.92   Z   M 992.83 172.43   L 992.83 151.51   A 0.80 0.80 0.0 0 0 992.03 150.71   Q 961.52 150.73 893.75 150.73   C 889.49 150.73 883.27 151.29 880.10 149.35   C 876.91 147.40 873.32 144.43 873.32 140.47   Q 873.33 119.39 873.31 82.07   Q 873.31 78.43 876.04 75.56   C 878.27 73.23 884.32 72.22 887.02 72.19   Q 907.80 71.92 957.25 72.17   C 963.41 72.20 970.35 73.69 971.18 81.05   C 972.03 88.62 971.87 94.92 964.71 98.64   Q 961.35 100.38 953.06 100.26   Q 939.74 100.07 915.50 100.28   Q 913.98 100.29 912.51 100.73   A 0.53 0.53 0.0 0 0 912.13 101.24   L 912.13 122.12   A 0.58 0.57 90.0 0 0 912.70 122.70   Q 948.88 122.68 954.54 122.72   C 959.81 122.75 963.81 122.20 968.26 121.26   C 976.01 119.62 982.12 115.10 987.55 109.27   Q 991.64 104.89 993.65 98.20   C 995.34 92.57 995.27 84.08 994.68 79.00   C 992.97 64.34 982.64 54.76 968.76 51.33   Q 964.53 50.29 954.67 50.30   Q 925.37 50.35 889.00 50.28   Q 880.89 50.26 876.00 51.29   C 865.86 53.41 855.24 61.42 851.64 72.03   Q 850.20 76.27 850.23 83.01   Q 850.37 108.33 850.28 134.97   Q 850.26 144.11 850.44 145.50   C 851.72 155.27 858.46 162.65 866.77 167.95   C 874.68 172.99 882.61 172.94 894.05 172.92   Q 960.81 172.85 992.29 172.97   A 0.54 0.54 0.0 0 0 992.83 172.43   Z   M 227.2839 96.5489   A 14.96 14.68 -84.5 0 0 211.2376 110.0330   A 14.96 14.68 -84.5 0 0 224.4161 126.3311   A 14.96 14.68 -84.5 0 0 240.4624 112.8470   A 14.96 14.68 -84.5 0 0 227.2839 96.5489   Z   M 289.63 111.42   A 14.90 14.90 0.0 0 0 274.73 96.52   A 14.90 14.90 0.0 0 0 259.83 111.42   A 14.90 14.90 0.0 0 0 274.73 126.32   A 14.90 14.90 0.0 0 0 289.63 111.42   Z   M 259.6721 157.1383   A 14.96 14.76 -175.7 0 0 273.4833 172.9785   A 14.96 14.76 -175.7 0 0 289.5079 159.3817   A 14.96 14.76 -175.7 0 0 275.6967 143.5415   A 14.96 14.76 -175.7 0 0 259.6721 157.1383   Z   M 186.45 247.21   Q 200.94 241.43 201.88 225.02   A 4.59 4.33 -51.8 0 0 201.76 223.69   Q 200.33 218.07 199.75 216.75   Q 196.38 208.99 188.25 205.36   C 181.84 202.50 171.88 203.19 165.81 206.69   Q 157.53 211.46 155.61 221.10   Q 155.06 223.89 155.45 228.02   Q 155.96 233.35 156.71 234.88   Q 160.06 241.67 167.09 245.52   A 4.89 4.10 62.6 0 0 167.93 245.87   Q 172.58 247.23 176.39 249.76   C 180.51 252.50 184.15 254.01 187.59 255.34   Q 188.61 255.74 193.36 255.88   A 2.03 2.00 28.3 0 0 194.56 255.53   Q 197.88 253.25 199.28 251.25   A 0.56 0.56 0.0 0 0 198.56 250.43   C 197.18 251.17 195.60 251.25 193.96 250.45   Q 190.84 248.94 186.62 248.48   A 0.66 0.66 0.0 0 1 186.45 247.21   Z   M 454.12 212.53   L 454.15 208.82   A 2.78 2.76 -86.3 0 0 451.72 206.04   Q 450.27 205.86 446.68 204.70   C 436.53 201.46 424.45 205.09 418.94 214.13   C 412.83 224.12 415.26 236.57 424.32 243.62   C 431.45 249.16 443.40 248.55 451.64 245.85   A 4.46 4.46 0.0 0 0 454.72 241.65   L 454.74 239.95   A 1.75 1.75 0.0 0 0 452.05 238.46   C 448.63 240.61 440.74 242.90 436.11 241.81   C 427.90 239.86 422.37 235.06 422.43 226.04   C 422.51 209.51 441.13 206.82 452.25 213.58   A 1.23 1.23 0.0 0 0 454.12 212.53   Z   M 754.79 212.44   L 754.79 208.72   A 2.78 2.76 -86.8 0 0 752.34 205.96   Q 750.88 205.79 747.28 204.66   C 737.10 201.49 725.05 205.22 719.60 214.30   C 713.57 224.34 716.09 236.78 725.21 243.76   C 732.38 249.25 744.33 248.55 752.56 245.79   A 4.47 4.46 -9.3 0 0 755.61 241.56   L 755.61 239.86   A 1.75 1.75 0.0 0 0 752.91 238.39   C 749.51 240.57 741.63 242.92 736.99 241.86   C 728.76 239.98 723.19 235.22 723.18 226.19   C 723.14 209.65 741.75 206.82 752.92 213.50   A 1.24 1.24 0.0 0 0 754.79 212.44   Z   M 83.48 220.32   L 83.48 205.89   A 1.76 1.74 4.9 0 0 82.02 204.17   Q 79.62 203.77 78.37 204.55   A 1.40 1.40 0.0 0 0 77.71 205.74   L 77.71 245.66   A 1.75 1.75 0.0 0 0 79.46 247.41   L 81.51 247.41   A 2.09 2.09 0.0 0 0 83.60 245.31   C 83.56 238.69 83.08 233.29 83.77 227.54   C 84.16 224.31 89.59 222.54 92.27 223.86   C 94.92 225.17 95.39 228.05 95.45 231.01   Q 95.57 235.96 95.37 244.87   A 2.73 2.72 0.7 0 0 98.10 247.66   L 98.71 247.66   A 2.63 2.62 0.2 0 0 101.34 245.06   Q 101.45 233.47 100.80 225.12   C 100.41 219.97 93.40 217.29 89.28 218.61   Q 85.92 219.69 84.04 220.67   A 0.39 0.38 76.5 0 1 83.48 220.32   Z   M 56.56 247.25   A 1.24 1.24 0.0 0 0 57.80 246.01   L 57.80 211.08   A 1.24 1.24 0.0 0 1 59.04 209.84   L 72.01 209.84   A 1.24 1.24 0.0 0 0 73.25 208.60   L 73.25 205.81   A 1.24 1.24 0.0 0 0 72.01 204.57   L 37.69 204.57   A 1.24 1.24 0.0 0 0 36.45 205.81   L 36.45 208.53   A 1.24 1.24 0.0 0 0 37.69 209.77   L 50.33 209.77   A 1.24 1.24 0.0 0 1 51.57 211.01   L 51.57 246.01   A 1.24 1.24 0.0 0 0 52.81 247.25   L 56.56 247.25   Z   M 633.14 207.54   L 628.93 207.79   A 1.46 1.46 0.0 0 0 627.55 209.34   L 627.59 209.98   A 4.57 3.50 86.6 0 0 631.36 214.34   L 631.50 214.33   A 4.57 3.50 86.6 0 0 634.72 209.56   L 634.68 208.91   A 1.46 1.46 0.0 0 0 633.14 207.54   Z   M 295.03 223.85   Q 295.95 224.52 297.93 224.75   A 0.93 0.92 4.4 0 1 298.75 225.70   Q 298.55 232.74 298.88 238.80   Q 299.14 243.44 302.20 246.54   A 2.19 2.11 74.3 0 0 303.19 247.12   Q 308.60 248.55 314.05 247.07   A 1.50 1.47 7.3 0 0 314.91 246.42   Q 315.85 244.89 315.28 242.01   A 1.36 1.35 65.5 0 0 313.11 241.20   Q 310.42 243.30 306.51 242.00   A 1.17 1.16 -0.4 0 1 305.78 241.29   Q 305.21 239.69 305.17 237.75   Q 305.09 233.48 305.29 225.48   A 0.85 0.85 0.0 0 1 306.14 224.65   L 311.50 224.65   A 2.26 2.25 0.0 0 0 313.76 222.40   L 313.76 220.95   A 2.35 2.35 0.0 0 0 311.41 218.60   L 306.10 218.60   A 0.72 0.72 0.0 0 1 305.38 217.87   Q 305.43 215.61 304.75 214.01   A 0.63 0.63 0.0 0 0 303.72 213.81   L 294.93 222.60   A 0.83 0.82 40.6 0 0 295.03 223.85   Z   M 602.70 223.48   Q 604.12 224.22 606.89 224.50   A 1.17 1.16 2.5 0 1 607.93 225.63   Q 607.95 227.08 607.82 236.49   C 607.78 239.64 608.23 245.14 611.53 246.66   Q 616.67 249.03 622.23 246.92   C 623.60 246.41 624.76 245.06 624.90 243.68   A 1.76 1.69 -1.8 0 0 622.87 241.85   Q 618.63 242.51 618.26 242.56   C 614.08 243.09 613.66 240.00 613.65 236.87   Q 613.62 230.17 613.54 225.56   A 0.78 0.77 87.2 0 1 614.25 224.77   L 622.06 224.15   A 1.02 1.00 5.9 0 0 622.94 223.45   Q 623.75 220.92 622.01 219.22   A 1.16 1.13 -20.0 0 0 621.28 218.89   L 614.62 218.49   A 1.03 1.02 -85.2 0 1 613.66 217.35   Q 613.87 215.52 613.45 214.90   A 1.35 1.35 0.0 0 0 611.27 214.83   Q 607.02 220.28 602.68 223.05   A 0.25 0.25 0.0 0 0 602.70 223.48   Z   M 981.03 226.41   Q 982.76 232.39 982.79 232.59   Q 983.09 235.02 985.90 234.10   A 0.74 0.73 -0.9 0 0 986.38 233.61   L 989.18 224.42   A 0.36 0.36 0.0 0 1 989.88 224.47   Q 990.58 228.71 989.80 232.79   A 1.27 1.27 0.0 0 0 990.89 234.29   L 991.78 234.41   A 1.02 1.02 0.0 0 0 992.94 233.40   L 992.94 219.24   A 1.25 1.25 0.0 0 0 992.05 218.04   Q 989.39 217.22 988.33 219.29   Q 985.81 224.23 985.23 228.51   A 0.71 0.71 0.0 0 1 983.81 228.45   Q 983.52 223.34 981.73 219.69   A 2.74 2.73 77.0 0 0 979.27 218.15   L 962.97 218.15   A 1.03 1.03 0.0 0 0 962.67 220.16   L 966.51 221.33   A 0.63 0.61 -82.0 0 1 966.95 221.93   L 966.95 233.11   A 1.07 1.06 -90.0 0 0 968.01 234.18   L 969.04 234.18   A 1.10 1.09 -90.0 0 0 970.13 233.08   L 970.13 222.58   A 1.95 1.94 -6.8 0 1 971.62 220.69   L 975.19 219.81   A 1.17 1.17 0.0 0 1 976.64 220.95   L 976.64 233.44   A 1.04 1.04 0.0 0 0 977.92 234.45   L 978.53 234.30   A 1.23 1.22 -3.2 0 0 979.46 233.27   L 980.36 226.46   A 0.34 0.34 0.0 0 1 981.03 226.41   Z   M 356.42 220.70   Q 355.05 218.27 352.15 218.30   A 1.49 1.49 0.0 0 0 350.70 219.51   Q 350.25 221.86 350.24 224.00   Q 350.19 237.72 350.04 244.96   A 2.50 2.50 0.0 0 0 352.54 247.51   L 354.07 247.51   A 2.33 2.33 0.0 0 0 356.40 245.20   Q 356.43 240.04 356.37 232.53   C 356.33 227.71 355.81 225.74 360.15 224.00   Q 364.29 222.34 366.94 225.58   A 1.90 1.80 -72.8 0 1 367.30 226.31   Q 368.18 229.89 368.19 234.02   Q 368.24 245.26 368.24 245.30   A 2.16 2.15 -0.7 0 0 370.60 247.60   L 371.80 247.48   A 2.72 2.72 0.0 0 0 374.25 244.75   Q 374.17 233.58 374.12 229.76   C 374.04 224.07 380.31 221.98 384.29 225.31   A 3.67 3.67 0.0 0 1 385.61 228.13   L 385.61 245.61   A 1.97 1.97 0.0 0 0 387.58 247.58   L 389.66 247.58   A 2.17 2.17 0.0 0 0 391.83 245.41   Q 391.79 228.93 391.49 226.81   C 390.95 223.08 387.36 218.29 383.04 218.12   C 378.77 217.95 377.07 219.49 373.53 222.12   A 1.28 1.27 -36.4 0 1 371.73 221.85   Q 368.66 217.61 362.79 218.28   C 360.55 218.54 358.64 220.97 357.38 221.16   A 0.94 0.94 0.0 0 1 356.42 220.70   Z   M 796.73 219.00   Q 795.82 221.18 795.82 224.04   Q 795.85 240.37 795.60 244.75   A 2.71 2.71 0.0 0 0 798.31 247.62   L 798.82 247.62   A 2.97 2.97 0.0 0 0 801.79 244.62   Q 801.69 230.80 801.64 230.23   Q 801.23 224.62 806.78 223.57   Q 811.17 222.75 812.90 226.03   A 2.51 2.42 28.0 0 1 813.16 226.83   C 813.58 229.85 814.07 232.88 814.01 236.21   Q 813.89 244.02 813.88 245.39   A 2.04 2.04 0.0 0 0 815.92 247.43   L 817.46 247.43   A 1.99 1.99 0.0 0 0 819.45 245.36   Q 819.25 239.90 819.37 230.25   Q 819.41 227.44 819.83 226.59   A 2.53 2.42 84.7 0 1 820.44 225.82   Q 823.91 222.94 827.67 223.96   C 833.24 225.48 831.81 238.75 831.54 245.33   A 2.13 2.12 -89.0 0 0 833.66 247.54   L 835.34 247.54   A 2.22 2.22 0.0 0 0 837.56 245.30   Q 837.43 231.11 837.36 230.42   C 836.75 224.07 834.32 217.55 826.59 218.32   C 824.07 218.57 821.57 220.75 819.35 221.83   A 2.02 2.02 0.0 0 1 817.28 221.65   L 813.10 218.64   A 0.95 0.90 -19.9 0 0 812.69 218.46   Q 808.08 217.63 804.18 220.04   A 2.66 2.66 0.0 0 1 801.23 219.93   L 799.04 218.35   A 1.53 1.53 0.0 0 0 796.73 219.00   Z   M 132.52 242.70   L 132.52 241.50   A 1.55 1.54 78.1 0 0 130.35 240.08   Q 124.63 242.60 122.96 242.55   C 118.89 242.43 113.26 239.27 113.34 234.57   A 0.88 0.88 0.0 0 1 114.22 233.71   L 131.34 233.71   A 1.51 1.51 0.0 0 0 132.85 232.23   Q 132.96 225.65 128.53 220.78   A 3.49 3.47 -5.3 0 0 127.73 220.12   C 122.76 217.10 116.28 217.62 111.71 221.36   Q 109.09 223.50 107.77 227.76   Q 105.53 235.01 109.64 241.76   C 114.10 249.10 122.71 248.66 129.88 246.34   A 3.83 3.82 81.0 0 0 132.52 242.70   Z   M 229.93 218.53   L 228.63 218.53   A 2.31 2.31 0.0 0 0 226.32 220.83   Q 226.26 236.29 226.26 236.51   C 226.30 242.37 220.68 244.02 216.04 242.25   A 2.26 2.26 0.0 0 1 214.64 240.64   Q 214.15 238.55 214.15 237.50   Q 214.20 228.34 214.17 221.18   A 3.01 3.00 -88.5 0 0 211.35 218.20   L 211.23 218.19   A 2.78 2.77 -86.7 0 0 208.29 220.82   Q 207.67 232.31 208.39 239.38   C 209.23 247.75 216.58 249.44 223.30 246.55   C 225.58 245.57 228.11 247.59 230.46 247.40   A 1.95 1.94 87.8 0 0 232.25 245.46   L 232.25 220.85   A 2.32 2.32 0.0 0 0 229.93 218.53   Z   M 257.76 242.64   Q 257.59 236.87 257.75 228.71   C 257.85 223.91 257.05 220.67 252.67 219.07   Q 247.20 217.08 240.94 219.83   A 4.04 4.04 0.0 0 0 238.52 223.53   L 238.52 225.24   A 1.52 1.52 0.0 0 0 240.91 226.48   Q 245.92 222.99 249.95 224.50   Q 252.52 225.46 252.51 228.76   A 1.03 1.03 0.0 0 1 251.92 229.69   Q 248.58 231.26 245.94 232.26   C 240.78 234.20 237.19 236.84 238.28 242.99   C 239.41 249.41 247.54 247.57 251.47 246.54   Q 252.16 246.35 254.63 247.34   Q 255.92 247.86 260.08 247.37   Q 261.51 247.21 261.84 246.05   A 2.97 2.37 -67.3 0 0 260.96 242.96   Q 260.23 242.49 258.42 243.10   A 0.50 0.50 0.0 0 1 257.76 242.64   Z   M 288.99 247.63   A 1.65 1.64 -87.4 0 0 290.85 245.93   Q 290.64 240.76 290.86 229.86   Q 290.95 225.71 289.60 223.38   Q 286.27 217.59 279.29 218.36   C 276.18 218.71 274.23 221.49 270.59 218.62   A 2.19 2.19 0.0 0 0 267.04 220.34   L 267.04 245.32   A 2.12 2.11 -0.0 0 0 269.16 247.43   L 270.84 247.44   A 2.16 2.16 0.0 0 0 272.96 245.27   Q 272.93 238.39 272.82 230.75   Q 272.79 228.66 273.42 226.66   A 2.33 2.30 77.3 0 1 274.03 225.68   Q 277.40 222.43 282.48 224.13   A 3.23 3.23 0.0 0 1 284.68 227.19   L 284.68 245.33   A 1.97 1.96 -86.3 0 0 286.39 247.28   L 288.99 247.63   Z   M 322.89 218.28   L 322.18 218.34   A 3.02 3.02 0.0 0 0 319.40 221.34   Q 319.38 227.10 319.29 236.67   C 319.24 241.97 320.06 246.24 325.50 247.48   Q 329.96 248.49 334.68 246.29   A 2.48 2.44 37.3 0 1 336.19 246.10   C 338.36 246.50 343.12 249.98 343.23 244.44   Q 343.43 233.88 343.04 221.08   A 2.75 2.75 0.0 0 0 340.38 218.42   L 340.22 218.41   A 2.67 2.66 1.2 0 0 337.47 221.04   C 337.37 228.54 338.07 235.46 336.24 240.40   A 1.92 1.91 83.0 0 1 335.54 241.30   Q 332.32 243.47 327.92 242.43   A 2.60 2.60 0.0 0 1 325.94 240.25   L 325.39 236.25   Q 325.39 236.21 325.39 236.18   L 324.83 220.01   A 1.80 1.79 -3.2 0 0 322.89 218.28   Z   M 501.52 225.77   C 504.56 223.60 506.95 222.46 510.51 224.25   C 512.81 225.41 512.82 229.25 512.92 231.77   Q 513.25 239.80 512.77 245.20   A 2.04 2.04 0.0 0 0 514.80 247.42   L 516.62 247.42   A 1.93 1.92 89.4 0 0 518.54 245.45   Q 518.43 239.51 518.63 229.54   Q 518.71 225.46 522.95 223.89   Q 524.99 223.13 527.61 224.17   Q 530.32 225.25 530.32 228.23   Q 530.31 244.53 530.23 245.34   A 2.06 2.06 0.0 0 0 532.25 247.59   L 533.99 247.61   A 2.50 2.50 0.0 0 0 536.52 245.09   Q 536.41 234.86 536.43 231.26   Q 536.46 226.32 535.73 224.69   C 533.63 220.06 530.37 217.77 525.21 218.35   C 523.13 218.59 519.68 221.06 518.52 221.89   A 1.54 1.52 -44.4 0 1 516.74 221.88   L 512.25 218.64   A 1.21 1.14 -23.0 0 0 511.66 218.42   Q 507.45 218.06 505.94 218.93   Q 503.77 220.18 501.44 220.83   A 1.49 1.49 0.0 0 1 499.67 219.98   Q 498.70 217.71 496.27 218.42   A 0.90 0.88 89.5 0 0 495.66 219.05   Q 495.08 221.26 495.15 224.75   Q 495.29 231.69 495.07 245.36   A 2.14 2.14 0.0 0 0 497.21 247.53   L 498.54 247.53   A 2.20 2.20 0.0 0 0 500.74 245.33   L 500.74 227.29   A 1.87 1.87 0.0 0 1 501.52 225.77   Z   M 593.58 220.20   Q 593.18 227.05 593.31 236.50   C 593.39 242.09 588.07 243.75 583.67 242.35   A 2.94 2.93 -81.2 0 1 581.63 239.55   L 581.63 221.71   A 3.27 3.25 5.7 0 0 579.01 218.52   L 578.60 218.44   A 2.54 2.53 -82.5 0 0 575.45 220.86   Q 575.29 231.84 575.37 239.75   C 575.43 246.44 582.12 249.07 587.75 247.42   Q 590.84 246.51 591.56 246.28   A 2.26 2.22 47.5 0 1 593.12 246.36   C 595.69 247.48 599.02 249.00 599.12 244.81   Q 599.37 234.59 599.23 220.45   A 1.80 1.80 0.0 0 0 597.43 218.67   L 595.21 218.67   A 1.63 1.63 0.0 0 0 593.58 220.20   Z   M 634.5429 220.9662   A 2.49 2.49 0.0 0 0 632.0660 218.4632   L 630.9060 218.4572   A 2.49 2.49 0.0 0 0 628.4030 220.9341   L 628.2771 244.9938   A 2.49 2.49 0.0 0 0 630.7540 247.4968   L 631.9140 247.5028   A 2.49 2.49 0.0 0 0 634.4170 245.0259   L 634.5429 220.9662   Z   M 646.47 247.53   A 1.81 1.80 90.0 0 0 648.27 245.72   L 648.27 226.66   A 1.87 1.87 0.0 0 1 649.36 224.96   C 651.69 223.88 654.33 222.63 656.85 224.26   Q 659.91 226.24 660.05 231.28   Q 660.18 236.43 660.00 244.74   A 2.99 2.99 0.0 0 0 663.24 247.78   L 663.27 247.78   A 3.44 3.42 86.4 0 0 666.41 244.21   C 666.14 237.84 666.99 229.36 664.46 223.27   C 662.49 218.52 655.45 217.01 651.35 219.44   Q 650.06 220.21 649.41 220.26   A 1.03 0.98 -34.0 0 1 648.99 220.19   L 644.04 218.30   A 1.74 1.73 24.0 0 0 641.86 219.13   Q 641.79 219.26 641.76 219.76   Q 641.44 226.15 641.54 245.38   A 2.17 2.17 0.0 0 0 643.71 247.53   L 646.47 247.53   Z   M 888.56 228.23   A 1.58 1.57 74.0 0 1 887.63 229.92   Q 881.31 232.61 880.40 232.96   Q 873.12 235.76 874.52 243.04   C 875.81 249.75 883.56 247.52 887.97 246.59   A 2.56 2.55 53.6 0 1 889.75 246.86   Q 893.43 248.95 897.95 246.32   A 1.45 1.44 -22.4 0 0 898.62 244.73   Q 898.01 242.26 895.67 242.86   A 0.72 0.72 0.0 0 1 894.78 242.15   Q 894.89 234.41 894.59 230.01   C 894.40 227.16 894.12 221.75 891.32 220.16   Q 883.61 215.81 876.49 220.51   A 3.25 3.24 73.4 0 0 875.03 223.22   L 875.03 225.74   A 1.19 1.19 0.0 0 0 876.81 226.77   C 879.83 225.05 880.92 224.00 885.23 224.35   Q 887.97 224.57 888.56 228.23   Z   M 908.74 219.53   Q 906.36 217.75 904.50 218.62   A 1.57 1.57 0.0 0 0 903.75 219.37   Q 902.92 221.12 903.10 223.52   Q 903.83 233.49 902.98 244.50   A 2.99 2.98 -88.2 0 0 905.99 247.72   L 906.09 247.72   A 3.32 3.31 89.7 0 0 909.37 244.39   Q 909.35 236.24 909.24 233.50   Q 908.99 227.47 910.40 225.73   Q 912.76 222.80 917.95 223.96   A 2.99 2.99 0.0 0 1 920.22 226.25   C 921.44 232.03 921.04 239.46 920.82 244.95   A 2.40 2.40 0.0 0 0 922.90 247.42   L 924.74 247.66   A 2.04 2.03 -86.0 0 0 927.04 245.65   Q 927.06 241.14 927.17 231.58   Q 927.24 225.31 925.34 222.35   Q 922.14 217.36 915.96 218.28   C 914.00 218.57 911.46 220.20 909.98 220.02   A 2.65 2.58 65.8 0 1 908.74 219.53   Z   M 944.21 232.84   A 0.84 0.84 0.0 0 1 942.68 232.84   L 937.10 220.66   A 4.11 4.11 0.0 0 0 932.72 218.32   L 932.40 218.37   A 2.43 2.43 0.0 0 0 930.60 221.90   Q 935.29 230.75 938.96 239.28   Q 939.92 241.50 939.24 243.25   Q 937.01 249.02 931.69 258.75   A 2.20 2.20 0.0 0 0 933.30 261.99   L 933.92 262.10   A 4.24 4.23 17.4 0 0 938.49 259.72   L 956.23 221.56   A 2.25 2.24 18.5 0 0 954.66 218.42   L 954.21 218.30   A 3.61 3.60 -70.4 0 0 950.06 220.28   L 944.21 232.84   Z   M 488.8603 231.7840   A 13.07 13.07 0.0 0 0 475.6091 218.8978   L 472.2294 218.9450   A 13.07 13.07 0.0 0 0 459.3431 232.1962   L 459.3797 234.8160   A 13.07 13.07 0.0 0 0 472.6309 247.7022   L 476.0106 247.6550   A 13.07 13.07 0.0 0 0 488.8969 234.4038   L 488.8603 231.7840   Z   M 544.05 219.59   L 544.05 259.92   A 2.00 1.99 -0.0 0 0 546.05 261.91   L 547.63 261.91   A 2.10 2.10 0.0 0 0 549.73 259.81   L 549.73 248.03   A 0.65 0.64 2.8 0 1 550.44 247.39   C 554.06 247.76 560.08 248.31 562.93 246.19   Q 565.42 244.35 567.90 241.14   C 569.70 238.82 569.66 233.96 569.51 231.18   C 569.04 222.69 561.15 218.99 553.75 218.74   Q 548.69 218.57 544.99 218.63   A 0.96 0.96 0.0 0 0 544.05 219.59   Z   M 689.93 245.14   Q 686.93 245.06 682.50 243.63   Q 681.82 243.41 680.98 243.29   Q 679.91 243.14 679.61 242.67   A 2.08 1.99 -23.3 0 1 680.90 239.62   Q 682.99 239.10 686.27 238.52   A 4.48 4.19 23.5 0 0 687.65 238.03   Q 690.71 236.31 692.63 232.73   C 694.08 230.03 693.34 228.19 691.77 225.73   A 0.76 0.75 61.4 0 1 692.09 224.63   L 695.36 223.13   A 0.70 0.68 86.4 0 0 695.74 222.69   Q 696.48 220.27 694.78 219.12   A 1.97 1.87 62.8 0 0 693.87 218.80   C 687.22 218.23 678.91 217.75 673.81 222.14   A 3.14 3.08 83.5 0 0 673.02 223.15   Q 668.91 231.38 675.62 237.27   A 0.67 0.66 -43.5 0 1 675.59 238.30   Q 672.24 240.91 673.92 244.53   A 1.51 1.50 62.9 0 1 673.30 246.47   C 671.38 247.56 669.61 248.64 669.13 250.87   Q 668.04 255.91 671.88 258.86   C 676.14 262.13 680.77 262.14 686.19 261.65   Q 691.48 261.16 694.76 256.96   A 2.57 2.53 71.1 0 0 695.26 255.92   C 695.81 253.58 696.12 250.22 694.24 248.30   Q 692.03 246.04 690.85 245.39   A 2.15 2.12 -29.4 0 0 689.93 245.14   Z   M 790.1845 232.3073   A 15.33 14.74 -3.9 0 0 773.8875 218.6441   A 15.33 14.74 -3.9 0 0 759.5955 234.3927   A 15.33 14.74 -3.9 0 0 775.8925 248.0559   A 15.33 14.74 -3.9 0 0 790.1845 232.3073   Z   M 851.01 246.93   C 856.87 248.69 864.38 247.82 867.70 242.42   C 870.43 237.96 871.38 233.71 869.66 228.08   C 868.01 222.65 864.44 221.01 859.46 219.57   C 854.61 218.16 849.33 218.96 845.70 218.74   A 1.37 1.37 0.0 0 0 844.25 220.11   L 844.25 259.68   A 2.41 2.40 0.0 0 0 846.66 262.08   L 848.16 262.08   A 2.00 1.99 0.0 0 0 850.16 260.09   L 850.16 247.56   A 0.66 0.66 0.0 0 1 851.01 246.93   Z   M 1018.78 293.13   A 0.69 0.69 0.0 0 0 1018.09 292.44   L 6.01 292.44   A 0.69 0.69 0.0 0 0 5.32 293.13   A 0.69 0.69 0.0 0 0 6.01 293.82   L 1018.09 293.82   A 0.69 0.69 0.0 0 0 1018.78 293.13   Z" data-svg-id="svg-elem-1768388258565-76e3m3s8u" id="svg-elem-1768388229109-npsiol5iw" data-original-fill="rgb(255, 255, 255)"/>
<path fill="rgb(255, 255, 255)" d="   M 1017.63 0.00   Q 1019.06 0.43 1019.00 1.51   A 1.62 1.62 0.0 0 1 1017.38 3.03   Q 512.01 3.06 7.16 3.04   A 1.74 1.74 0.0 0 1 5.45 1.64   L 5.44 1.57   A 1.18 1.17 84.0 0 1 6.58 0.15   L 23.47 0.00   L 1017.63 0.00   Z" data-svg-id="svg-elem-1768388258565-nh3nnshyp" id="svg-elem-1768388229109-nlga48nzn" data-original-fill="rgb(220, 232, 247)"/>
<path fill="rgb(17, 25, 28)" d="   M 37.12 51.58   A 1.34 1.34 0.0 0 1 38.47 50.24   L 151.98 50.44   A 34.07 33.11 0.1 0 1 185.99 83.61   L 185.89 140.05   A 34.07 33.11 0.1 0 1 151.76 173.10   L 38.25 172.90   A 1.34 1.34 0.0 0 1 36.92 171.56   L 37.12 51.58   Z   M 59.96 73.52   L 59.82 149.32   A 1.42 1.42 0.0 0 0 61.24 150.74   L 150.81 150.90   A 11.69 10.10 0.1 0 0 162.52 140.82   L 162.62 82.38   A 11.69 10.10 0.1 0 0 150.95 72.26   L 61.38 72.10   A 1.42 1.42 0.0 0 0 59.96 73.52   Z" data-svg-id="svg-elem-1768388258565-aibjm1x69" id="svg-elem-1768388229109-lbr4ffn7b" data-original-fill="rgb(17, 25, 28)"/>
<circle fill="rgb(17, 25, 28)" cx="225.89" cy="64.76" r="14.72" data-svg-id="svg-elem-1768388258565-ehhjtoh8x" id="svg-elem-1768388229109-oqejynwgo" data-original-fill="rgb(17, 25, 28)"/>
<path fill="rgb(17, 25, 28)" d="   M 413.63 141.24   A 0.22 0.21 53.4 0 0 413.23 141.18   C 411.67 144.08 410.96 147.48 409.69 150.39   C 406.17 158.47 400.11 166.97 391.63 170.13   C 382.54 173.52 375.78 172.72 364.05 172.79   Q 354.79 172.83 349.97 171.33   Q 342.64 169.03 337.80 164.26   C 330.30 156.86 326.66 147.18 324.16 136.35   C 320.94 122.37 316.85 109.24 313.60 95.57   Q 308.77 75.28 302.96 54.51   Q 302.56 53.08 302.68 50.87   A 0.56 0.56 0.0 0 1 303.24 50.34   L 326.58 50.34   A 0.72 0.72 0.0 0 1 327.28 50.88   Q 329.65 60.51 329.95 61.70   Q 336.76 89.08 343.76 115.10   Q 346.96 126.96 348.45 133.30   C 349.81 139.06 351.46 143.18 355.31 147.21   Q 356.29 148.24 359.49 149.84   A 3.70 3.68 58.1 0 0 361.14 150.23   Q 370.37 150.21 375.01 150.23   Q 381.16 150.26 384.60 145.09   Q 387.92 140.10 388.79 137.04   C 391.00 129.29 394.18 123.55 401.53 119.88   Q 408.48 116.40 416.76 117.61   Q 428.08 119.27 433.70 128.44   C 438.29 135.92 438.98 150.37 450.75 150.23   Q 452.70 150.20 464.92 150.21   A 4.86 4.83 -60.7 0 0 467.46 149.49   C 472.90 146.15 476.68 139.83 477.32 133.41   Q 477.36 133.05 485.67 101.72   Q 488.44 91.24 495.90 62.06   Q 497.15 57.17 498.82 51.31   A 1.35 1.35 0.0 0 1 500.12 50.33   L 522.91 50.33   A 0.93 0.92 -82.3 0 1 523.80 51.50   Q 517.28 75.28 512.62 94.45   C 508.46 111.53 504.32 125.90 500.63 140.67   C 496.87 155.68 489.09 168.60 473.04 171.99   C 466.61 173.35 458.66 172.69 450.74 172.75   Q 442.64 172.81 438.82 171.60   C 433.44 169.90 428.99 168.15 424.99 163.84   Q 416.11 154.24 413.63 141.24   Z" data-svg-id="svg-elem-1768388258565-1ez2vfyqk" id="svg-elem-1768388229109-f3rojknqz" data-original-fill="rgb(17, 25, 28)"/>
<path fill="rgb(17, 25, 28)" d="   M 620.61 101.67   L 620.61 122.20   A 0.92 0.91 89.4 0 1 619.72 123.12   Q 608.81 123.39 575.19 123.23   Q 567.29 123.19 563.62 128.36   Q 561.64 131.15 561.51 135.36   C 561.31 141.46 562.10 148.32 568.03 150.22   Q 569.46 150.68 578.08 150.70   Q 622.95 150.80 648.74 150.66   C 658.69 150.60 659.41 144.44 659.40 135.63   Q 659.37 100.37 659.35 83.01   C 659.33 75.59 650.84 72.14 644.75 72.13   Q 585.35 72.02 547.00 72.10   Q 544.33 72.11 541.24 71.87   A 1.05 1.04 2.1 0 1 540.27 70.83   L 540.27 51.32   A 0.98 0.98 0.0 0 1 541.25 50.34   Q 606.45 50.31 646.27 50.30   Q 656.86 50.29 664.64 54.58   Q 678.81 62.39 682.40 78.12   Q 683.16 81.43 683.12 90.26   C 683.02 114.82 682.93 129.52 683.06 137.34   Q 683.16 143.42 681.49 149.98   C 678.81 160.43 668.77 168.60 659.10 171.61   Q 654.27 173.11 638.76 173.00   Q 611.90 172.79 570.98 172.92   C 556.75 172.96 540.99 161.66 538.77 147.01   Q 537.15 136.31 538.68 127.63   Q 540.22 118.91 547.26 112.05   Q 558.91 100.69 575.26 100.53   Q 581.43 100.46 612.75 100.54   Q 618.64 100.56 620.00 100.89   A 0.80 0.80 0.0 0 1 620.61 101.67   Z" data-svg-id="svg-elem-1768388258565-vzkqxs85o" id="svg-elem-1768388229109-u534j7yse" data-original-fill="rgb(17, 25, 28)"/>
<path fill="rgb(17, 25, 28)" d="   M 766.95 150.72   Q 778.42 150.73 780.74 150.64   C 788.88 150.33 792.92 142.55 794.72 135.63   Q 806.30 91.01 816.43 51.47   A 1.53 1.53 0.0 0 1 817.91 50.33   L 840.84 50.39   A 0.77 0.77 0.0 0 1 841.59 51.33   C 839.37 61.10 836.43 70.68 834.03 80.25   Q 827.34 106.85 817.79 143.24   C 814.74 154.89 807.04 167.37 794.88 171.44   Q 790.80 172.80 780.99 172.90   Q 778.17 172.93 766.93 172.92   Q 755.70 172.92 752.88 172.88   Q 743.07 172.77 738.99 171.41   C 726.83 167.32 719.15 154.84 716.11 143.18   Q 706.60 106.78 699.94 80.17   C 697.56 70.60 694.63 61.02 692.42 51.25   A 0.77 0.77 0.0 0 1 693.17 50.31   L 716.10 50.27   A 1.53 1.53 0.0 0 1 717.58 51.41   Q 727.66 90.97 739.19 135.60   C 740.98 142.52 745.01 150.31 753.15 150.62   Q 755.48 150.71 766.95 150.72   Z" data-svg-id="svg-elem-1768388258565-as6e46aju" id="svg-elem-1768388229109-wyenqinvv" data-original-fill="rgb(17, 25, 28)"/>
<path fill="rgb(17, 25, 28)" d="   M 992.29 172.97   Q 960.81 172.85 894.05 172.92   C 882.61 172.94 874.68 172.99 866.77 167.95   C 858.46 162.65 851.72 155.27 850.44 145.50   Q 850.26 144.11 850.28 134.97   Q 850.37 108.33 850.23 83.01   Q 850.20 76.27 851.64 72.03   C 855.24 61.42 865.86 53.41 876.00 51.29   Q 880.89 50.26 889.00 50.28   Q 925.37 50.35 954.67 50.30   Q 964.53 50.29 968.76 51.33   C 982.64 54.76 992.97 64.34 994.68 79.00   C 995.27 84.08 995.34 92.57 993.65 98.20   Q 991.64 104.89 987.55 109.27   C 982.12 115.10 976.01 119.62 968.26 121.26   C 963.81 122.20 959.81 122.75 954.54 122.72   Q 948.88 122.68 912.70 122.70   A 0.58 0.57 -90.0 0 1 912.13 122.12   L 912.13 101.24   A 0.53 0.53 0.0 0 1 912.51 100.73   Q 913.98 100.29 915.50 100.28   Q 939.74 100.07 953.06 100.26   Q 961.35 100.38 964.71 98.64   C 971.87 94.92 972.03 88.62 971.18 81.05   C 970.35 73.69 963.41 72.20 957.25 72.17   Q 907.80 71.92 887.02 72.19   C 884.32 72.22 878.27 73.23 876.04 75.56   Q 873.31 78.43 873.31 82.07   Q 873.33 119.39 873.32 140.47   C 873.32 144.43 876.91 147.40 880.10 149.35   C 883.27 151.29 889.49 150.73 893.75 150.73   Q 961.52 150.73 992.03 150.71   A 0.80 0.80 0.0 0 1 992.83 151.51   L 992.83 172.43   A 0.54 0.54 0.0 0 1 992.29 172.97   Z" data-svg-id="svg-elem-1768388258565-njxa2tp72" id="svg-elem-1768388229109-z5oaqwlsc" data-original-fill="rgb(17, 25, 28)"/>
<path fill="rgb(255, 255, 255)" d="   M 59.96 73.52   A 1.42 1.42 0.0 0 1 61.38 72.10   L 150.95 72.26   A 11.69 10.10 0.1 0 1 162.62 82.38   L 162.52 140.82   A 11.69 10.10 0.1 0 1 150.81 150.90   L 61.24 150.74   A 1.42 1.42 0.0 0 1 59.82 149.32   L 59.96 73.52   Z" data-svg-id="svg-elem-1768388258565-v6q3d38zi" id="svg-elem-1768388229109-c9vnxwu30" data-original-fill="rgb(255, 255, 255)"/>
<ellipse fill="rgb(17, 25, 28)" cx="0.00" cy="0.00" transform="translate(225.85,111.44) rotate(-84.5)" rx="14.96" ry="14.68" data-svg-id="svg-elem-1768388258565-hb4xrmv3b" id="svg-elem-1768388229109-qt6oydqnz" data-original-fill="rgb(17, 25, 28)"/>
<circle fill="rgb(91, 132, 158)" cx="274.73" cy="111.42" r="14.90" data-svg-id="svg-elem-1768388258565-ekhnwdz1v" id="svg-elem-1768388229109-rhtxcvojz" data-original-fill="rgb(91, 132, 158)"/>
<ellipse fill="rgb(17, 25, 28)" cx="0.00" cy="0.00" transform="translate(274.59,158.26) rotate(-175.7)" rx="14.96" ry="14.76" data-svg-id="svg-elem-1768388258565-fp10hawlo" id="svg-elem-1768388229109-fw50y3c7m" data-original-fill="rgb(17, 25, 28)"/>
<path fill="rgb(96, 105, 112)" d="   M 186.45 247.21   A 0.66 0.66 0.0 0 0 186.62 248.48   Q 190.84 248.94 193.96 250.45   C 195.60 251.25 197.18 251.17 198.56 250.43   A 0.56 0.56 0.0 0 1 199.28 251.25   Q 197.88 253.25 194.56 255.53   A 2.03 2.00 28.3 0 1 193.36 255.88   Q 188.61 255.74 187.59 255.34   C 184.15 254.01 180.51 252.50 176.39 249.76   Q 172.58 247.23 167.93 245.87   A 4.89 4.10 62.6 0 1 167.09 245.52   Q 160.06 241.67 156.71 234.88   Q 155.96 233.35 155.45 228.02   Q 155.06 223.89 155.61 221.10   Q 157.53 211.46 165.81 206.69   C 171.88 203.19 181.84 202.50 188.25 205.36   Q 196.38 208.99 199.75 216.75   Q 200.33 218.07 201.76 223.69   A 4.59 4.33 -51.8 0 1 201.88 225.02   Q 200.94 241.43 186.45 247.21   Z   M 195.0171 224.8427   A 16.68 16.13 -3.6 0 0 177.3572 209.7918   A 16.68 16.13 -3.6 0 0 161.7229 226.9373   A 16.68 16.13 -3.6 0 0 179.3828 241.9882   A 16.68 16.13 -3.6 0 0 195.0171 224.8427   Z" data-svg-id="svg-elem-1768388258565-lzio41p3o" id="svg-elem-1768388229109-7qlixlxsd" data-original-fill="rgb(96, 105, 112)"/>
<path fill="rgb(96, 105, 112)" d="   M 454.12 212.53   A 1.23 1.23 0.0 0 1 452.25 213.58   C 441.13 206.82 422.51 209.51 422.43 226.04   C 422.37 235.06 427.90 239.86 436.11 241.81   C 440.74 242.90 448.63 240.61 452.05 238.46   A 1.75 1.75 0.0 0 1 454.74 239.95   L 454.72 241.65   A 4.46 4.46 0.0 0 1 451.64 245.85   C 443.40 248.55 431.45 249.16 424.32 243.62   C 415.26 236.57 412.83 224.12 418.94 214.13   C 424.45 205.09 436.53 201.46 446.68 204.70   Q 450.27 205.86 451.72 206.04   A 2.78 2.76 -86.3 0 1 454.15 208.82   L 454.12 212.53   Z" data-svg-id="svg-elem-1768388258565-46h5g9jyp" id="svg-elem-1768388229109-zeb811jon" data-original-fill="rgb(96, 105, 112)"/>
<path fill="rgb(96, 105, 112)" d="   M 752.92 213.50   C 741.75 206.82 723.14 209.65 723.18 226.19   C 723.19 235.22 728.76 239.98 736.99 241.86   C 741.63 242.92 749.51 240.57 752.91 238.39   A 1.75 1.75 0.0 0 1 755.61 239.86   L 755.61 241.56   A 4.47 4.46 -9.3 0 1 752.56 245.79   C 744.33 248.55 732.38 249.25 725.21 243.76   C 716.09 236.78 713.57 224.34 719.60 214.30   C 725.05 205.22 737.10 201.49 747.28 204.66   Q 750.88 205.79 752.34 205.96   A 2.78 2.76 -86.8 0 1 754.79 208.72   L 754.79 212.44   A 1.24 1.24 0.0 0 1 752.92 213.50   Z" data-svg-id="svg-elem-1768388258566-bs7axug7b" id="svg-elem-1768388229109-9cdduqcxh" data-original-fill="rgb(96, 105, 112)"/>
<path fill="rgb(96, 105, 112)" d="   M 83.48 220.32   A 0.39 0.38 76.5 0 0 84.04 220.67   Q 85.92 219.69 89.28 218.61   C 93.40 217.29 100.41 219.97 100.80 225.12   Q 101.45 233.47 101.34 245.06   A 2.63 2.62 0.2 0 1 98.71 247.66   L 98.10 247.66   A 2.73 2.72 0.7 0 1 95.37 244.87   Q 95.57 235.96 95.45 231.01   C 95.39 228.05 94.92 225.17 92.27 223.86   C 89.59 222.54 84.16 224.31 83.77 227.54   C 83.08 233.29 83.56 238.69 83.60 245.31   A 2.09 2.09 0.0 0 1 81.51 247.41   L 79.46 247.41   A 1.75 1.75 0.0 0 1 77.71 245.66   L 77.71 205.74   A 1.40 1.40 0.0 0 1 78.37 204.55   Q 79.62 203.77 82.02 204.17   A 1.76 1.74 4.9 0 1 83.48 205.89   L 83.48 220.32   Z" data-svg-id="svg-elem-1768388258566-ozggomch9" id="svg-elem-1768388229109-48izcgz9j" data-original-fill="rgb(96, 105, 112)"/>
<path fill="rgb(96, 105, 112)" d="   M 56.56 247.25   L 52.81 247.25   A 1.24 1.24 0.0 0 1 51.57 246.01   L 51.57 211.01   A 1.24 1.24 0.0 0 0 50.33 209.77   L 37.69 209.77   A 1.24 1.24 0.0 0 1 36.45 208.53   L 36.45 205.81   A 1.24 1.24 0.0 0 1 37.69 204.57   L 72.01 204.57   A 1.24 1.24 0.0 0 1 73.25 205.81   L 73.25 208.60   A 1.24 1.24 0.0 0 1 72.01 209.84   L 59.04 209.84   A 1.24 1.24 0.0 0 0 57.80 211.08   L 57.80 246.01   A 1.24 1.24 0.0 0 1 56.56 247.25   Z" data-svg-id="svg-elem-1768388258566-qhv1q14ou" id="svg-elem-1768388229109-rqfupjsgr" data-original-fill="rgb(96, 105, 112)"/>
<path fill="rgb(96, 105, 112)" d="   M 633.14 207.54   A 1.46 1.46 0.0 0 1 634.68 208.91   L 634.72 209.56   A 4.57 3.50 86.6 0 1 631.50 214.33   L 631.36 214.34   A 4.57 3.50 86.6 0 1 627.59 209.98   L 627.55 209.34   A 1.46 1.46 0.0 0 1 628.93 207.79   L 633.14 207.54   Z" data-svg-id="svg-elem-1768388258566-wkwdia1s5" id="svg-elem-1768388229109-lypem0jq7" data-original-fill="rgb(96, 105, 112)"/>
<ellipse fill="rgb(255, 255, 255)" cx="0.00" cy="0.00" transform="translate(178.37,225.89) rotate(-3.6)" rx="16.68" ry="16.13" data-svg-id="svg-elem-1768388258566-37x9a5rgn" id="svg-elem-1768388229109-0tzi1wnzu" data-original-fill="rgb(255, 255, 255)"/>
<path fill="rgb(96, 105, 112)" d="   M 295.03 223.85   A 0.83 0.82 40.6 0 1 294.93 222.60   L 303.72 213.81   A 0.63 0.63 0.0 0 1 304.75 214.01   Q 305.43 215.61 305.38 217.87   A 0.72 0.72 0.0 0 0 306.10 218.60   L 311.41 218.60   A 2.35 2.35 0.0 0 1 313.76 220.95   L 313.76 222.40   A 2.26 2.25 -0.0 0 1 311.50 224.65   L 306.14 224.65   A 0.85 0.85 0.0 0 0 305.29 225.48   Q 305.09 233.48 305.17 237.75   Q 305.21 239.69 305.78 241.29   A 1.17 1.16 -0.4 0 0 306.51 242.00   Q 310.42 243.30 313.11 241.20   A 1.36 1.35 65.5 0 1 315.28 242.01   Q 315.85 244.89 314.91 246.42   A 1.50 1.47 7.3 0 1 314.05 247.07   Q 308.60 248.55 303.19 247.12   A 2.19 2.11 74.3 0 1 302.20 246.54   Q 299.14 243.44 298.88 238.80   Q 298.55 232.74 298.75 225.70   A 0.93 0.92 4.4 0 0 297.93 224.75   Q 295.95 224.52 295.03 223.85   Z" data-svg-id="svg-elem-1768388258566-xll5oqadf" id="svg-elem-1768388229109-h1sfrigil" data-original-fill="rgb(96, 105, 112)"/>
<path fill="rgb(96, 105, 112)" d="   M 602.70 223.48   A 0.25 0.25 0.0 0 1 602.68 223.05   Q 607.02 220.28 611.27 214.83   A 1.35 1.35 0.0 0 1 613.45 214.90   Q 613.87 215.52 613.66 217.35   A 1.03 1.02 -85.2 0 0 614.62 218.49   L 621.28 218.89   A 1.16 1.13 -20.0 0 1 622.01 219.22   Q 623.75 220.92 622.94 223.45   A 1.02 1.00 5.9 0 1 622.06 224.15   L 614.25 224.77   A 0.78 0.77 87.2 0 0 613.54 225.56   Q 613.62 230.17 613.65 236.87   C 613.66 240.00 614.08 243.09 618.26 242.56   Q 618.63 242.51 622.87 241.85   A 1.76 1.69 -1.8 0 1 624.90 243.68   C 624.76 245.06 623.60 246.41 622.23 246.92   Q 616.67 249.03 611.53 246.66   C 608.23 245.14 607.78 239.64 607.82 236.49   Q 607.95 227.08 607.93 225.63   A 1.17 1.16 2.5 0 0 606.89 224.50   Q 604.12 224.22 602.70 223.48   Z" data-svg-id="svg-elem-1768388258566-0ml36l8ll" id="svg-elem-1768388229109-9sx49f905" data-original-fill="rgb(96, 105, 112)"/>
<path fill="rgb(96, 105, 112)" d="   M 981.03 226.41   A 0.34 0.34 0.0 0 0 980.36 226.46   L 979.46 233.27   A 1.23 1.22 -3.2 0 1 978.53 234.30   L 977.92 234.45   A 1.04 1.04 0.0 0 1 976.64 233.44   L 976.64 220.95   A 1.17 1.17 0.0 0 0 975.19 219.81   L 971.62 220.69   A 1.95 1.94 -6.8 0 0 970.13 222.58   L 970.13 233.08   A 1.10 1.09 -90.0 0 1 969.04 234.18   L 968.01 234.18   A 1.07 1.06 -90.0 0 1 966.95 233.11   L 966.95 221.93   A 0.63 0.61 -82.0 0 0 966.51 221.33   L 962.67 220.16   A 1.03 1.03 0.0 0 1 962.97 218.15   L 979.27 218.15   A 2.74 2.73 77.0 0 1 981.73 219.69   Q 983.52 223.34 983.81 228.45   A 0.71 0.71 0.0 0 0 985.23 228.51   Q 985.81 224.23 988.33 219.29   Q 989.39 217.22 992.05 218.04   A 1.25 1.25 0.0 0 1 992.94 219.24   L 992.94 233.40   A 1.02 1.02 0.0 0 1 991.78 234.41   L 990.89 234.29   A 1.27 1.27 0.0 0 1 989.80 232.79   Q 990.58 228.71 989.88 224.47   A 0.36 0.36 0.0 0 0 989.18 224.42   L 986.38 233.61   A 0.74 0.73 -0.9 0 1 985.90 234.10   Q 983.09 235.02 982.79 232.59   Q 982.76 232.39 981.03 226.41   Z" data-svg-id="svg-elem-1768388258566-2xwhm29c4" id="svg-elem-1768388229109-ea79887tj" data-original-fill="rgb(96, 105, 112)"/>
<path fill="rgb(96, 105, 112)" d="   M 357.38 221.16   C 358.64 220.97 360.55 218.54 362.79 218.28   Q 368.66 217.61 371.73 221.85   A 1.28 1.27 -36.4 0 0 373.53 222.12   C 377.07 219.49 378.77 217.95 383.04 218.12   C 387.36 218.29 390.95 223.08 391.49 226.81   Q 391.79 228.93 391.83 245.41   A 2.17 2.17 0.0 0 1 389.66 247.58   L 387.58 247.58   A 1.97 1.97 0.0 0 1 385.61 245.61   L 385.61 228.13   A 3.67 3.67 0.0 0 0 384.29 225.31   C 380.31 221.98 374.04 224.07 374.12 229.76   Q 374.17 233.58 374.25 244.75   A 2.72 2.72 0.0 0 1 371.80 247.48   L 370.60 247.60   A 2.16 2.15 -0.7 0 1 368.24 245.30   Q 368.24 245.26 368.19 234.02   Q 368.18 229.89 367.30 226.31   A 1.90 1.80 -72.8 0 0 366.94 225.58   Q 364.29 222.34 360.15 224.00   C 355.81 225.74 356.33 227.71 356.37 232.53   Q 356.43 240.04 356.40 245.20   A 2.33 2.33 0.0 0 1 354.07 247.51   L 352.54 247.51   A 2.50 2.50 0.0 0 1 350.04 244.96   Q 350.19 237.72 350.24 224.00   Q 350.25 221.86 350.70 219.51   A 1.49 1.49 0.0 0 1 352.15 218.30   Q 355.05 218.27 356.42 220.70   A 0.94 0.94 0.0 0 0 357.38 221.16   Z" data-svg-id="svg-elem-1768388258566-x0zdlph3j" id="svg-elem-1768388229109-kd7h33l8c" data-original-fill="rgb(96, 105, 112)"/>
<path fill="rgb(96, 105, 112)" d="   M 796.73 219.00   A 1.53 1.53 0.0 0 1 799.04 218.35   L 801.23 219.93   A 2.66 2.66 0.0 0 0 804.18 220.04   Q 808.08 217.63 812.69 218.46   A 0.95 0.90 -19.9 0 1 813.10 218.64   L 817.28 221.65   A 2.02 2.02 0.0 0 0 819.35 221.83   C 821.57 220.75 824.07 218.57 826.59 218.32   C 834.32 217.55 836.75 224.07 837.36 230.42   Q 837.43 231.11 837.56 245.30   A 2.22 2.22 0.0 0 1 835.34 247.54   L 833.66 247.54   A 2.13 2.12 -89.0 0 1 831.54 245.33   C 831.81 238.75 833.24 225.48 827.67 223.96   Q 823.91 222.94 820.44 225.82   A 2.53 2.42 84.7 0 0 819.83 226.59   Q 819.41 227.44 819.37 230.25   Q 819.25 239.90 819.45 245.36   A 1.99 1.99 0.0 0 1 817.46 247.43   L 815.92 247.43   A 2.04 2.04 0.0 0 1 813.88 245.39   Q 813.89 244.02 814.01 236.21   C 814.07 232.88 813.58 229.85 813.16 226.83   A 2.51 2.42 28.0 0 0 812.90 226.03   Q 811.17 222.75 806.78 223.57   Q 801.23 224.62 801.64 230.23   Q 801.69 230.80 801.79 244.62   A 2.97 2.97 0.0 0 1 798.82 247.62   L 798.31 247.62   A 2.71 2.71 0.0 0 1 795.60 244.75   Q 795.85 240.37 795.82 224.04   Q 795.82 221.18 796.73 219.00   Z" data-svg-id="svg-elem-1768388258566-re9jwxqkp" id="svg-elem-1768388229109-53wr8gwkq" data-original-fill="rgb(96, 105, 112)"/>
<path fill="rgb(96, 105, 112)" d="   M 132.52 242.70   A 3.83 3.82 81.0 0 1 129.88 246.34   C 122.71 248.66 114.10 249.10 109.64 241.76   Q 105.53 235.01 107.77 227.76   Q 109.09 223.50 111.71 221.36   C 116.28 217.62 122.76 217.10 127.73 220.12   A 3.49 3.47 -5.3 0 1 128.53 220.78   Q 132.96 225.65 132.85 232.23   A 1.51 1.51 0.0 0 1 131.34 233.71   L 114.22 233.71   A 0.88 0.88 0.0 0 0 113.34 234.57   C 113.26 239.27 118.89 242.43 122.96 242.55   Q 124.63 242.60 130.35 240.08   A 1.55 1.54 78.1 0 1 132.52 241.50   L 132.52 242.70   Z   M 114.64 230.02   L 125.98 230.10   A 0.76 0.76 0.0 0 0 126.74 229.34   L 126.74 229.22   A 5.74 5.30 0.4 0 0 121.04 223.88   L 119.66 223.88   A 5.74 5.30 0.4 0 0 113.88 229.14   L 113.88 229.26   A 0.76 0.76 0.0 0 0 114.64 230.02   Z" data-svg-id="svg-elem-1768388258566-oyth8744e" id="svg-elem-1768388229109-wcna5d87m" data-original-fill="rgb(96, 105, 112)"/>
<path fill="rgb(96, 105, 112)" d="   M 229.93 218.53   A 2.32 2.32 0.0 0 1 232.25 220.85   L 232.25 245.46   A 1.95 1.94 87.8 0 1 230.46 247.40   C 228.11 247.59 225.58 245.57 223.30 246.55   C 216.58 249.44 209.23 247.75 208.39 239.38   Q 207.67 232.31 208.29 220.82   A 2.78 2.77 -86.7 0 1 211.23 218.19   L 211.35 218.20   A 3.01 3.00 -88.5 0 1 214.17 221.18   Q 214.20 228.34 214.15 237.50   Q 214.15 238.55 214.64 240.64   A 2.26 2.26 0.0 0 0 216.04 242.25   C 220.68 244.02 226.30 242.37 226.26 236.51   Q 226.26 236.29 226.32 220.83   A 2.31 2.31 0.0 0 1 228.63 218.53   L 229.93 218.53   Z" data-svg-id="svg-elem-1768388258566-8no0kb99a" id="svg-elem-1768388229109-zrc6hl2bd" data-original-fill="rgb(96, 105, 112)"/>
<path fill="rgb(96, 105, 112)" d="   M 257.76 242.64   A 0.50 0.50 0.0 0 0 258.42 243.10   Q 260.23 242.49 260.96 242.96   A 2.97 2.37 -67.3 0 1 261.84 246.05   Q 261.51 247.21 260.08 247.37   Q 255.92 247.86 254.63 247.34   Q 252.16 246.35 251.47 246.54   C 247.54 247.57 239.41 249.41 238.28 242.99   C 237.19 236.84 240.78 234.20 245.94 232.26   Q 248.58 231.26 251.92 229.69   A 1.03 1.03 0.0 0 0 252.51 228.76   Q 252.52 225.46 249.95 224.50   Q 245.92 222.99 240.91 226.48   A 1.52 1.52 0.0 0 1 238.52 225.24   L 238.52 223.53   A 4.04 4.04 0.0 0 1 240.94 219.83   Q 247.20 217.08 252.67 219.07   C 257.05 220.67 257.85 223.91 257.75 228.71   Q 257.59 236.87 257.76 242.64   Z   M 252.61 234.82   A 0.58 0.58 0.0 0 0 251.99 234.24   C 248.38 234.49 242.68 236.50 244.06 241.25   C 244.81 243.82 249.42 243.05 251.27 242.63   A 1.74 1.73 83.5 0 0 252.61 240.94   L 252.61 234.82   Z" data-svg-id="svg-elem-1768388258566-jvkfdd7r8" id="svg-elem-1768388229109-v7iv1tf6x" data-original-fill="rgb(96, 105, 112)"/>
<path fill="rgb(96, 105, 112)" d="   M 288.99 247.63   L 286.39 247.28   A 1.97 1.96 -86.3 0 1 284.68 245.33   L 284.68 227.19   A 3.23 3.23 0.0 0 0 282.48 224.13   Q 277.40 222.43 274.03 225.68   A 2.33 2.30 77.3 0 0 273.42 226.66   Q 272.79 228.66 272.82 230.75   Q 272.93 238.39 272.96 245.27   A 2.16 2.16 0.0 0 1 270.84 247.44   L 269.16 247.43   A 2.12 2.11 -0.0 0 1 267.04 245.32   L 267.04 220.34   A 2.19 2.19 0.0 0 1 270.59 218.62   C 274.23 221.49 276.18 218.71 279.29 218.36   Q 286.27 217.59 289.60 223.38   Q 290.95 225.71 290.86 229.86   Q 290.64 240.76 290.85 245.93   A 1.65 1.64 -87.4 0 1 288.99 247.63   Z" data-svg-id="svg-elem-1768388258566-czjm6kk8d" id="svg-elem-1768388229109-mil5k3lfs" data-original-fill="rgb(96, 105, 112)"/>
<path fill="rgb(96, 105, 112)" d="   M 324.83 220.01   L 325.39 236.18   Q 325.39 236.21 325.39 236.25   L 325.94 240.25   A 2.60 2.60 0.0 0 0 327.92 242.43   Q 332.32 243.47 335.54 241.30   A 1.92 1.91 83.0 0 0 336.24 240.40   C 338.07 235.46 337.37 228.54 337.47 221.04   A 2.67 2.66 1.2 0 1 340.22 218.41   L 340.38 218.42   A 2.75 2.75 0.0 0 1 343.04 221.08   Q 343.43 233.88 343.23 244.44   C 343.12 249.98 338.36 246.50 336.19 246.10   A 2.48 2.44 37.3 0 0 334.68 246.29   Q 329.96 248.49 325.50 247.48   C 320.06 246.24 319.24 241.97 319.29 236.67   Q 319.38 227.10 319.40 221.34   A 3.02 3.02 0.0 0 1 322.18 218.34   L 322.89 218.28   A 1.80 1.79 -3.2 0 1 324.83 220.01   Z" data-svg-id="svg-elem-1768388258566-twy7vhcu5" id="svg-elem-1768388229109-pd9sjtv6m" data-original-fill="rgb(96, 105, 112)"/>
<path fill="rgb(96, 105, 112)" d="   M 501.52 225.77   A 1.87 1.87 0.0 0 0 500.74 227.29   L 500.74 245.33   A 2.20 2.20 0.0 0 1 498.54 247.53   L 497.21 247.53   A 2.14 2.14 0.0 0 1 495.07 245.36   Q 495.29 231.69 495.15 224.75   Q 495.08 221.26 495.66 219.05   A 0.90 0.88 89.5 0 1 496.27 218.42   Q 498.70 217.71 499.67 219.98   A 1.49 1.49 0.0 0 0 501.44 220.83   Q 503.77 220.18 505.94 218.93   Q 507.45 218.06 511.66 218.42   A 1.21 1.14 -23.0 0 1 512.25 218.64   L 516.74 221.88   A 1.54 1.52 -44.4 0 0 518.52 221.89   C 519.68 221.06 523.13 218.59 525.21 218.35   C 530.37 217.77 533.63 220.06 535.73 224.69   Q 536.46 226.32 536.43 231.26   Q 536.41 234.86 536.52 245.09   A 2.50 2.50 0.0 0 1 533.99 247.61   L 532.25 247.59   A 2.06 2.06 0.0 0 1 530.23 245.34   Q 530.31 244.53 530.32 228.23   Q 530.32 225.25 527.61 224.17   Q 524.99 223.13 522.95 223.89   Q 518.71 225.46 518.63 229.54   Q 518.43 239.51 518.54 245.45   A 1.93 1.92 89.4 0 1 516.62 247.42   L 514.80 247.42   A 2.04 2.04 0.0 0 1 512.77 245.20   Q 513.25 239.80 512.92 231.77   C 512.82 229.25 512.81 225.41 510.51 224.25   C 506.95 222.46 504.56 223.60 501.52 225.77   Z" data-svg-id="svg-elem-1768388258566-bwj806ny8" id="svg-elem-1768388229109-ksb7wn2jg" data-original-fill="rgb(96, 105, 112)"/>
<path fill="rgb(96, 105, 112)" d="   M 593.58 220.20   A 1.63 1.63 0.0 0 1 595.21 218.67   L 597.43 218.67   A 1.80 1.80 0.0 0 1 599.23 220.45   Q 599.37 234.59 599.12 244.81   C 599.02 249.00 595.69 247.48 593.12 246.36   A 2.26 2.22 47.5 0 0 591.56 246.28   Q 590.84 246.51 587.75 247.42   C 582.12 249.07 575.43 246.44 575.37 239.75   Q 575.29 231.84 575.45 220.86   A 2.54 2.53 -82.5 0 1 578.60 218.44   L 579.01 218.52   A 3.27 3.25 5.7 0 1 581.63 221.71   L 581.63 239.55   A 2.94 2.93 -81.2 0 0 583.67 242.35   C 588.07 243.75 593.39 242.09 593.31 236.50   Q 593.18 227.05 593.58 220.20   Z" data-svg-id="svg-elem-1768388258566-u63qtvfrg" id="svg-elem-1768388229109-uu3ey7pss" data-original-fill="rgb(96, 105, 112)"/>
<rect fill="rgb(96, 105, 112)" x="-3.07" y="-14.52" transform="translate(631.41,232.98) rotate(0.3)" width="6.14" height="29.04" rx="2.49" data-svg-id="svg-elem-1768388258566-ij025v8th" id="svg-elem-1768388229109-lxe3mxai9" data-original-fill="rgb(96, 105, 112)"/>
<path fill="rgb(96, 105, 112)" d="   M 646.47 247.53   L 643.71 247.53   A 2.17 2.17 0.0 0 1 641.54 245.38   Q 641.44 226.15 641.76 219.76   Q 641.79 219.26 641.86 219.13   A 1.74 1.73 24.0 0 1 644.04 218.30   L 648.99 220.19   A 1.03 0.98 -34.0 0 0 649.41 220.26   Q 650.06 220.21 651.35 219.44   C 655.45 217.01 662.49 218.52 664.46 223.27   C 666.99 229.36 666.14 237.84 666.41 244.21   A 3.44 3.42 86.4 0 1 663.27 247.78   L 663.24 247.78   A 2.99 2.99 0.0 0 1 660.00 244.74   Q 660.18 236.43 660.05 231.28   Q 659.91 226.24 656.85 224.26   C 654.33 222.63 651.69 223.88 649.36 224.96   A 1.87 1.87 0.0 0 0 648.27 226.66   L 648.27 245.72   A 1.81 1.80 90.0 0 1 646.47 247.53   Z" data-svg-id="svg-elem-1768388258566-idpsw63qe" id="svg-elem-1768388229109-iodcb0hqp" data-original-fill="rgb(96, 105, 112)"/>
<path fill="rgb(96, 105, 112)" d="   M 888.56 228.23   Q 887.97 224.57 885.23 224.35   C 880.92 224.00 879.83 225.05 876.81 226.77   A 1.19 1.19 0.0 0 1 875.03 225.74   L 875.03 223.22   A 3.25 3.24 73.4 0 1 876.49 220.51   Q 883.61 215.81 891.32 220.16   C 894.12 221.75 894.40 227.16 894.59 230.01   Q 894.89 234.41 894.78 242.15   A 0.72 0.72 0.0 0 0 895.67 242.86   Q 898.01 242.26 898.62 244.73   A 1.45 1.44 -22.4 0 1 897.95 246.32   Q 893.43 248.95 889.75 246.86   A 2.56 2.55 53.6 0 0 887.97 246.59   C 883.56 247.52 875.81 249.75 874.52 243.04   Q 873.12 235.76 880.40 232.96   Q 881.31 232.61 887.63 229.92   A 1.58 1.57 74.0 0 0 888.56 228.23   Z   M 882.65 243.28   Q 884.61 243.72 887.43 242.42   A 2.38 2.38 0.0 0 0 888.81 240.26   L 888.81 235.70   A 1.07 1.06 -85.6 0 0 887.91 234.64   C 883.83 234.01 877.21 238.49 881.74 242.79   A 1.98 1.95 72.9 0 0 882.65 243.28   Z" data-svg-id="svg-elem-1768388258566-21c7bou3c" id="svg-elem-1768388229109-7enfxwvuv" data-original-fill="rgb(96, 105, 112)"/>
<path fill="rgb(96, 105, 112)" d="   M 909.98 220.02   C 911.46 220.20 914.00 218.57 915.96 218.28   Q 922.14 217.36 925.34 222.35   Q 927.24 225.31 927.17 231.58   Q 927.06 241.14 927.04 245.65   A 2.04 2.03 -86.0 0 1 924.74 247.66   L 922.90 247.42   A 2.40 2.40 0.0 0 1 920.82 244.95   C 921.04 239.46 921.44 232.03 920.22 226.25   A 2.99 2.99 0.0 0 0 917.95 223.96   Q 912.76 222.80 910.40 225.73   Q 908.99 227.47 909.24 233.50   Q 909.35 236.24 909.37 244.39   A 3.32 3.31 89.7 0 1 906.09 247.72   L 905.99 247.72   A 2.99 2.98 -88.2 0 1 902.98 244.50   Q 903.83 233.49 903.10 223.52   Q 902.92 221.12 903.75 219.37   A 1.57 1.57 0.0 0 1 904.50 218.62   Q 906.36 217.75 908.74 219.53   A 2.65 2.58 65.8 0 0 909.98 220.02   Z" data-svg-id="svg-elem-1768388258566-c0s1umrln" id="svg-elem-1768388229109-8dusswcy1" data-original-fill="rgb(96, 105, 112)"/>
<path fill="rgb(96, 105, 112)" d="   M 944.21 232.84   L 950.06 220.28   A 3.61 3.60 -70.4 0 1 954.21 218.30   L 954.66 218.42   A 2.25 2.24 18.5 0 1 956.23 221.56   L 938.49 259.72   A 4.24 4.23 17.4 0 1 933.92 262.10   L 933.30 261.99   A 2.20 2.20 0.0 0 1 931.69 258.75   Q 937.01 249.02 939.24 243.25   Q 939.92 241.50 938.96 239.28   Q 935.29 230.75 930.60 221.90   A 2.43 2.43 0.0 0 1 932.40 218.37   L 932.72 218.32   A 4.11 4.11 0.0 0 1 937.10 220.66   L 942.68 232.84   A 0.84 0.84 0.0 0 0 944.21 232.84   Z" data-svg-id="svg-elem-1768388258566-o9rq7s7sp" id="svg-elem-1768388229109-554bc7nlh" data-original-fill="rgb(96, 105, 112)"/>
<path fill="rgb(96, 105, 112)" d="   M 488.8969 234.4038   A 13.07 13.07 0.0 0 1 476.0106 247.6550   L 472.6309 247.7022   A 13.07 13.07 0.0 0 1 459.3797 234.8160   L 459.3431 232.1962   A 13.07 13.07 0.0 0 1 472.2294 218.9450   L 475.6091 218.8978   A 13.07 13.07 0.0 0 1 488.8603 231.7840   L 488.8969 234.4038   Z   M 483.31 233.46   A 9.20 9.20 0.0 0 0 474.11 224.26   A 9.20 9.20 0.0 0 0 464.91 233.46   A 9.20 9.20 0.0 0 0 474.11 242.66   A 9.20 9.20 0.0 0 0 483.31 233.46   Z" data-svg-id="svg-elem-1768388258566-kpo787ovy" id="svg-elem-1768388229109-ruwpq1pvu" data-original-fill="rgb(96, 105, 112)"/>
<path fill="rgb(96, 105, 112)" d="   M 544.05 219.59   A 0.96 0.96 0.0 0 1 544.99 218.63   Q 548.69 218.57 553.75 218.74   C 561.15 218.99 569.04 222.69 569.51 231.18   C 569.66 233.96 569.70 238.82 567.90 241.14   Q 565.42 244.35 562.93 246.19   C 560.08 248.31 554.06 247.76 550.44 247.39   A 0.65 0.64 2.8 0 0 549.73 248.03   L 549.73 259.81   A 2.10 2.10 0.0 0 1 547.63 261.91   L 546.05 261.91   A 2.00 1.99 0.0 0 1 544.05 259.92   L 544.05 219.59   Z   M 549.63 226.62   L 549.63 240.62   A 2.17 2.17 0.0 0 0 551.80 242.79   L 555.36 242.79   A 7.93 7.67 0.0 0 0 563.29 235.12   L 563.29 232.12   A 7.93 7.67 -0.0 0 0 555.36 224.45   L 551.80 224.45   A 2.17 2.17 0.0 0 0 549.63 226.62   Z" data-svg-id="svg-elem-1768388258566-0eqmxzivf" id="svg-elem-1768388229109-gzv2t08yr" data-original-fill="rgb(96, 105, 112)"/>
<path fill="rgb(96, 105, 112)" d="   M 690.85 245.39   Q 692.03 246.04 694.24 248.30   C 696.12 250.22 695.81 253.58 695.26 255.92   A 2.57 2.53 71.1 0 1 694.76 256.96   Q 691.48 261.16 686.19 261.65   C 680.77 262.14 676.14 262.13 671.88 258.86   Q 668.04 255.91 669.13 250.87   C 669.61 248.64 671.38 247.56 673.30 246.47   A 1.51 1.50 62.9 0 0 673.92 244.53   Q 672.24 240.91 675.59 238.30   A 0.67 0.66 -43.5 0 0 675.62 237.27   Q 668.91 231.38 673.02 223.15   A 3.14 3.08 83.5 0 1 673.81 222.14   C 678.91 217.75 687.22 218.23 693.87 218.80   A 1.97 1.87 62.8 0 1 694.78 219.12   Q 696.48 220.27 695.74 222.69   A 0.70 0.68 86.4 0 1 695.36 223.13   L 692.09 224.63   A 0.76 0.75 61.4 0 0 691.77 225.73   C 693.34 228.19 694.08 230.03 692.63 232.73   Q 690.71 236.31 687.65 238.03   A 4.48 4.19 23.5 0 1 686.27 238.52   Q 682.99 239.10 680.90 239.62   A 2.08 1.99 -23.3 0 0 679.61 242.67   Q 679.91 243.14 680.98 243.29   Q 681.82 243.41 682.50 243.63   Q 686.93 245.06 689.93 245.14   A 2.15 2.12 -29.4 0 1 690.85 245.39   Z   M 687.1561 228.3339   A 4.20 4.20 0.0 0 0 682.6194 224.5001   L 680.8058 224.6524   A 4.20 4.20 0.0 0 0 676.9719 229.1891   L 677.0439 230.0461   A 4.20 4.20 0.0 0 0 681.5806 233.8799   L 683.3942 233.7276   A 4.20 4.20 0.0 0 0 687.2281 229.1909   L 687.1561 228.3339   Z   M 689.5138 253.1078   A 3.78 3.78 0.0 0 0 685.8341 249.2301   L 679.0564 249.0526   A 3.78 3.78 0.0 0 0 675.1787 252.7324   L 675.1662 253.2122   A 3.78 3.78 0.0 0 0 678.8459 257.0899   L 685.6236 257.2674   A 3.78 3.78 0.0 0 0 689.5013 253.5876   L 689.5138 253.1078   Z" data-svg-id="svg-elem-1768388258566-5cjkc8m64" id="svg-elem-1768388229109-5vksc8gyc" data-original-fill="rgb(96, 105, 112)"/>
<path fill="rgb(96, 105, 112)" d="   M 790.1845 232.3073   A 15.33 14.74 -3.9 0 1 775.8925 248.0559   A 15.33 14.74 -3.9 0 1 759.5955 234.3927   A 15.33 14.74 -3.9 0 1 773.8875 218.6441   A 15.33 14.74 -3.9 0 1 790.1845 232.3073   Z   M 765.6916 232.2413   A 9.29 9.12 -172.4 0 0 773.6938 242.5099   A 9.29 9.12 -172.4 0 0 784.1084 234.6987   A 9.29 9.12 -172.4 0 0 776.1062 224.4301   A 9.29 9.12 -172.4 0 0 765.6916 232.2413   Z" data-svg-id="svg-elem-1768388258566-4y9f9uirp" id="svg-elem-1768388229109-bwbvcc35w" data-original-fill="rgb(96, 105, 112)"/>
<path fill="rgb(96, 105, 112)" d="   M 850.16 247.56   L 850.16 260.09   A 2.00 1.99 -0.0 0 1 848.16 262.08   L 846.66 262.08   A 2.41 2.40 -0.0 0 1 844.25 259.68   L 844.25 220.11   A 1.37 1.37 0.0 0 1 845.70 218.74   C 849.33 218.96 854.61 218.16 859.46 219.57   C 864.44 221.01 868.01 222.65 869.66 228.08   C 871.38 233.71 870.43 237.96 867.70 242.42   C 864.38 247.82 856.87 248.69 851.01 246.93   A 0.66 0.66 0.0 0 0 850.16 247.56   Z   M 850.22 226.24   L 850.69 241.29   A 1.70 1.70 0.0 0 0 852.44 242.93   L 855.93 242.82   A 9.10 8.93 88.2 0 0 864.57 233.45   L 864.56 233.19   A 9.10 8.93 88.2 0 0 855.35 224.37   L 851.86 224.48   A 1.70 1.70 0.0 0 0 850.22 226.24   Z" data-svg-id="svg-elem-1768388258566-ixw2rqwue" id="svg-elem-1768388229109-symz60we1" data-original-fill="rgb(96, 105, 112)"/>
<path fill="rgb(255, 255, 255)" d="   M 114.64 230.02   A 0.76 0.76 0.0 0 1 113.88 229.26   L 113.88 229.14   A 5.74 5.30 0.4 0 1 119.66 223.88   L 121.04 223.88   A 5.74 5.30 0.4 0 1 126.74 229.22   L 126.74 229.34   A 0.76 0.76 0.0 0 1 125.98 230.10   L 114.64 230.02   Z" data-svg-id="svg-elem-1768388258566-tazybucr0" id="svg-elem-1768388229109-rcm9vs272" data-original-fill="rgb(255, 255, 255)"/>
<circle fill="rgb(255, 255, 255)" cx="474.11" cy="233.46" r="9.20" data-svg-id="svg-elem-1768388258566-hreh6s3b8" id="svg-elem-1768388229109-dvr4zpe0h" data-original-fill="rgb(255, 255, 255)"/>
<path fill="rgb(255, 255, 255)" d="   M 549.63 226.62   A 2.17 2.17 0.0 0 1 551.80 224.45   L 555.36 224.45   A 7.93 7.67 -0.0 0 1 563.29 232.12   L 563.29 235.12   A 7.93 7.67 -0.0 0 1 555.36 242.79   L 551.80 242.79   A 2.17 2.17 0.0 0 1 549.63 240.62   L 549.63 226.62   Z" data-svg-id="svg-elem-1768388258566-n4zb5vgr0" id="svg-elem-1768388229109-fjhbsyahz" data-original-fill="rgb(255, 255, 255)"/>
<rect fill="rgb(255, 255, 255)" x="-5.11" y="-4.63" transform="translate(682.10,229.19) rotate(-4.8)" width="10.22" height="9.26" rx="4.20" data-svg-id="svg-elem-1768388258566-apwkama9a" id="svg-elem-1768388229109-hdgpbo1bc" data-original-fill="rgb(255, 255, 255)"/>
<ellipse fill="rgb(255, 255, 255)" cx="0.00" cy="0.00" transform="translate(774.90,233.47) rotate(-172.4)" rx="9.29" ry="9.12" data-svg-id="svg-elem-1768388258566-jjqg7aec5" id="svg-elem-1768388229109-2sb9zl9gc" data-original-fill="rgb(255, 255, 255)"/>
<path fill="rgb(255, 255, 255)" d="   M 850.22 226.24   A 1.70 1.70 0.0 0 1 851.86 224.48   L 855.35 224.37   A 9.10 8.93 88.2 0 1 864.56 233.19   L 864.57 233.45   A 9.10 8.93 88.2 0 1 855.93 242.82   L 852.44 242.93   A 1.70 1.70 0.0 0 1 850.69 241.29   L 850.22 226.24   Z" data-svg-id="svg-elem-1768388258566-c1imt561y" id="svg-elem-1768388229109-1ncrke7jp" data-original-fill="rgb(255, 255, 255)"/>
<path fill="rgb(255, 255, 255)" d="   M 252.61 234.82   L 252.61 240.94   A 1.74 1.73 83.5 0 1 251.27 242.63   C 249.42 243.05 244.81 243.82 244.06 241.25   C 242.68 236.50 248.38 234.49 251.99 234.24   A 0.58 0.58 0.0 0 1 252.61 234.82   Z" data-svg-id="svg-elem-1768388258566-gk2rkfqv4" id="svg-elem-1768388229109-0mxpibcyr" data-original-fill="rgb(255, 255, 255)"/>
<path fill="rgb(255, 255, 255)" d="   M 881.74 242.79   C 877.21 238.49 883.83 234.01 887.91 234.64   A 1.07 1.06 -85.6 0 1 888.81 235.70   L 888.81 240.26   A 2.38 2.38 0.0 0 1 887.43 242.42   Q 884.61 243.72 882.65 243.28   A 1.98 1.95 72.9 0 1 881.74 242.79   Z" data-svg-id="svg-elem-1768388258566-ia5z5gz0d" id="svg-elem-1768388229109-v8c5epmsf" data-original-fill="rgb(220, 232, 247)"/>
<rect fill="rgb(255, 255, 255)" x="-7.17" y="-4.02" transform="translate(682.34,253.16) rotate(1.5)" width="14.34" height="8.04" rx="3.78" data-svg-id="svg-elem-1768388258566-pr894ayb3" id="svg-elem-1768388229109-ybrst4tdf" data-original-fill="rgb(255, 255, 255)"/>
<rect fill="rgb(255, 255, 255)" x="5.32" y="292.44" width="1013.46" height="1.38" rx="0.69" data-svg-id="svg-elem-1768388258566-axsof8obl" id="svg-elem-1768388229109-t2acikmgc" data-original-fill="rgb(220, 232, 247)"/>
</svg>