<svg xmlns="http://www.w3.org/2000/svg" version="1.1" viewBox="-20 -20 510 320">
<g stroke-width="2.00" fill="none" stroke-linecap="butt" data-svg-id="svg-elem-1768388872907-fnf0zxh2z" id="svg-elem-1768388872907-fnf0zxh2z">
<path stroke="#8fb7e1" vector-effect="non-scaling-stroke" d="   M 101.35 12.90   A 0.27 0.27 0.0 0 0 101.08 12.63   L 17.08 12.63   A 0.27 0.27 0.0 0 0 16.81 12.90   L 16.81 24.26   A 0.27 0.27 0.0 0 0 17.08 24.53   L 101.08 24.53   A 0.27 0.27 0.0 0 0 101.35 24.26   L 101.35 12.90" data-svg-id="svg-elem-1768388872907-pyvmrpxdv" id="svg-elem-1768388872907-pyvmrpxdv"/>
<path stroke="#8fb7e1" vector-effect="non-scaling-stroke" d="   M 257.15 24.18   A 0.34 0.34 0.0 0 0 257.49 24.52   L 329.37 24.52   A 0.34 0.34 0.0 0 0 329.69 24.06   L 325.62 12.86   A 0.34 0.34 0.0 0 0 325.30 12.64   L 257.49 12.64   A 0.34 0.34 0.0 0 0 257.15 12.98   L 257.15 24.18" data-svg-id="svg-elem-1768388872907-lhnxvnawn" id="svg-elem-1768388872907-lhnxvnawn"/>
<path stroke="#8fb7e1" vector-effect="non-scaling-stroke" d="   M 232.81 24.23   A 0.31 0.30 46.5 0 0 232.82 23.75   Q 223.80 16.32 212.44 13.46   Q 208.22 12.40 189.50 12.56   Q 175.54 12.68 113.57 12.57   A 0.31 0.31 0.0 0 0 113.26 12.88   L 113.26 24.10   A 0.46 0.46 0.0 0 0 113.72 24.56   Q 167.77 24.50 231.23 24.57   Q 232.38 24.57 232.81 24.23" data-svg-id="svg-elem-1768388872907-enwrhib7e" id="svg-elem-1768388872907-enwrhib7e"/>
<path stroke="#8fb7e1" vector-effect="non-scaling-stroke" d="   M 449.09 12.96   A 0.34 0.34 0.0 0 0 448.75 12.62   L 382.12 12.62   A 0.34 0.34 0.0 0 0 381.80 12.85   L 377.90 24.08   A 0.34 0.34 0.0 0 0 378.22 24.53   L 448.75 24.53   A 0.34 0.34 0.0 0 0 449.09 24.19   L 449.09 12.96" data-svg-id="svg-elem-1768388872907-sgwphnijs" id="svg-elem-1768388872907-sgwphnijs"/>
<path stroke="#8fb7e1" vector-effect="non-scaling-stroke" d="   M 101.40 35.79   A 0.27 0.27 0.0 0 0 101.13 35.52   L 17.03 35.52   A 0.27 0.27 0.0 0 0 16.76 35.79   L 16.76 47.07   A 0.27 0.27 0.0 0 0 17.03 47.34   L 101.13 47.34   A 0.27 0.27 0.0 0 0 101.40 47.07   L 101.40 35.79" data-svg-id="svg-elem-1768388872907-idyn1rz92" id="svg-elem-1768388872907-idyn1rz92"/>
<path stroke="#8fb7e1" vector-effect="non-scaling-stroke" d="   M 113.63 35.52   A 0.30 0.30 0.0 0 0 113.33 35.82   L 113.33 47.05   A 0.30 0.30 0.0 0 0 113.63 47.35   L 247.32 47.35   A 0.30 0.30 0.0 0 0 247.61 46.96   L 244.17 35.73   A 0.30 0.30 0.0 0 0 243.89 35.52   L 113.63 35.52" data-svg-id="svg-elem-1768388872907-yq7vmjs95" id="svg-elem-1768388872907-yq7vmjs95"/>
<path stroke="#8fb7e1" vector-effect="non-scaling-stroke" d="   M 257.14 46.70   A 0.66 0.66 0.0 0 0 257.80 47.36   L 336.74 47.36   A 0.66 0.66 0.0 0 0 337.37 46.51   L 334.15 35.99   A 0.66 0.66 0.0 0 0 333.52 35.52   L 257.80 35.52   A 0.66 0.66 0.0 0 0 257.14 36.18   L 257.14 46.70" data-svg-id="svg-elem-1768388872907-od3mppihb" id="svg-elem-1768388872907-od3mppihb"/>
<path stroke="#8fb7e1" vector-effect="non-scaling-stroke" d="   M 449.11 35.85   A 0.32 0.32 0.0 0 0 448.79 35.53   L 373.46 35.53   A 0.32 0.32 0.0 0 0 373.15 35.76   L 369.86 46.96   A 0.32 0.32 0.0 0 0 370.17 47.37   L 448.79 47.37   A 0.32 0.32 0.0 0 0 449.11 47.05   L 449.11 35.85" data-svg-id="svg-elem-1768388872907-z3w33qoyo" id="svg-elem-1768388872907-z3w33qoyo"/>
<path stroke="#8fb7e1" vector-effect="non-scaling-stroke" d="   M 77.74 58.94   A 0.38 0.38 0.0 0 0 77.36 58.56   L 41.52 58.56   A 0.38 0.38 0.0 0 0 41.14 58.94   L 41.14 69.90   A 0.38 0.38 0.0 0 0 41.52 70.28   L 77.36 70.28   A 0.38 0.38 0.0 0 0 77.74 69.90   L 77.74 58.94" data-svg-id="svg-elem-1768388872907-793xunnot" id="svg-elem-1768388872907-793xunnot"/>
<path stroke="#8fb7e1" vector-effect="non-scaling-stroke" d="   M 173.9397 58.8618   A 0.26 0.26 0.0 0 0 173.6802 58.6013   L 137.7803 58.5387   A 0.26 0.26 0.0 0 0 137.5198 58.7982   L 137.5003 69.9982   A 0.26 0.26 0.0 0 0 137.7598 70.2587   L 173.6597 70.3213   A 0.26 0.26 0.0 0 0 173.9202 70.0618   L 173.9397 58.8618" data-svg-id="svg-elem-1768388872907-ni055lm0p" id="svg-elem-1768388872907-ni055lm0p"/>
<path stroke="#8fb7e1" vector-effect="non-scaling-stroke" d="   M 209.64 69.96   A 0.31 0.31 0.0 0 0 209.95 70.27   L 246.45 70.27   A 0.31 0.31 0.0 0 0 246.75 70.01   L 248.63 58.92   A 0.31 0.31 0.0 0 0 248.32 58.56   L 209.95 58.56   A 0.31 0.31 0.0 0 0 209.64 58.87   L 209.64 69.96" data-svg-id="svg-elem-1768388872907-901wyyt3n" id="svg-elem-1768388872907-901wyyt3n"/>
<path stroke="#8fb7e1" vector-effect="non-scaling-stroke" d="   M 281.35 69.74   A 0.54 0.54 0.0 0 0 281.89 70.28   L 345.05 70.28   A 0.54 0.54 0.0 0 0 345.57 69.58   L 342.31 58.94   A 0.54 0.54 0.0 0 0 341.79 58.56   L 281.89 58.56   A 0.54 0.54 0.0 0 0 281.35 59.10   L 281.35 69.74" data-svg-id="svg-elem-1768388872907-gwe0u632e" id="svg-elem-1768388872907-gwe0u632e"/>
<path stroke="#8fb7e1" vector-effect="non-scaling-stroke" d="   M 361.36 69.63   A 0.48 0.48 0.0 0 0 361.81 70.27   L 425.81 70.27   A 0.48 0.48 0.0 0 0 426.29 69.79   L 426.29 59.02   A 0.48 0.48 0.0 0 0 425.81 58.54   L 365.55 58.54   A 0.48 0.48 0.0 0 0 365.10 58.86   L 361.36 69.63" data-svg-id="svg-elem-1768388872907-ria5tzaxx" id="svg-elem-1768388872907-ria5tzaxx"/>
<path stroke="#8fb7e1" vector-effect="non-scaling-stroke" d="   M 77.7095 82.0019   A 0.49 0.49 0.0 0 0 77.2203 81.5111   L 41.6004 81.4489   A 0.49 0.49 0.0 0 0 41.1095 81.9381   L 41.0905 92.8381   A 0.49 0.49 0.0 0 0 41.5797 93.3289   L 77.1996 93.3911   A 0.49 0.49 0.0 0 0 77.6905 92.9019   L 77.7095 82.0019" data-svg-id="svg-elem-1768388872907-zr9ne6rmg" id="svg-elem-1768388872907-zr9ne6rmg"/>
<path stroke="#8fb7e1" vector-effect="non-scaling-stroke" d="   M 389.70 88.19   L 389.70 92.44   A 0.93 0.93 0.0 0 0 390.63 93.37   L 425.57 93.37   A 0.68 0.68 0.0 0 0 426.25 92.69   L 426.25 82.34   A 0.84 0.83 0.0 0 0 425.41 81.51   L 358.24 81.51   A 0.86 0.85 9.6 0 0 357.43 82.08   L 354.70 89.95   A 0.83 0.83 0.0 0 1 353.12 89.92   L 350.79 82.31   A 1.15 1.14 81.3 0 0 349.70 81.50   L 282.10 81.50   A 0.67 0.67 0.0 0 0 281.43 82.17   L 281.43 92.98   A 0.38 0.38 0.0 0 0 281.81 93.36   L 316.86 93.36   A 0.80 0.80 0.0 0 0 317.66 92.54   Q 317.60 89.02 317.65 88.72   Q 317.70 88.43 317.86 88.37   A 0.73 0.70 73.3 0 1 318.80 88.90   Q 319.31 91.09 319.44 91.62   A 2.29 2.29 0.0 0 0 321.66 93.36   L 386.88 93.36   A 0.94 0.94 0.0 0 0 387.82 92.35   Q 387.61 89.85 388.93 87.95   A 0.42 0.42 0.0 0 1 389.70 88.19" data-svg-id="svg-elem-1768388872907-n41id78c9" id="svg-elem-1768388872907-n41id78c9"/>
<path stroke="#8fb7e1" vector-effect="non-scaling-stroke" d="   M 240.84 81.99   Q 239.97 81.50 238.75 81.50   C 184.38 81.53 152.43 81.28 137.98 81.55   A 0.41 0.41 0.0 0 0 137.58 81.96   L 137.58 92.98   A 0.42 0.42 0.0 0 0 138.00 93.40   Q 180.89 93.24 226.00 93.41   Q 229.10 93.42 231.04 92.92   A 3.27 3.18 16.0 0 0 232.44 92.17   Q 235.85 89.05 236.37 88.36   Q 239.21 84.59 240.94 82.58   A 0.39 0.38 -54.9 0 0 240.84 81.99" data-svg-id="svg-elem-1768388872907-jun5ylpld" id="svg-elem-1768388872907-jun5ylpld"/>
<path stroke="#8fb7e1" vector-effect="non-scaling-stroke" d="   M 77.7294 104.9520   A 0.56 0.56 0.0 0 0 77.1703 104.3910   L 41.6304 104.3290   A 0.56 0.56 0.0 0 0 41.0694 104.8880   L 41.0506 115.6480   A 0.56 0.56 0.0 0 0 41.6097 116.2090   L 77.1496 116.2710   A 0.56 0.56 0.0 0 0 77.7106 115.7120   L 77.7294 104.9520" data-svg-id="svg-elem-1768388872907-6ll5dkeci" id="svg-elem-1768388872907-6ll5dkeci"/>
<path stroke="#8fb7e1" vector-effect="non-scaling-stroke" d="   M 137.48 114.96   A 1.27 1.27 0.0 0 0 138.75 116.23   L 239.75 116.23   A 1.27 1.27 0.0 0 0 240.65 114.06   L 231.36 104.77   A 1.27 1.27 0.0 0 0 230.46 104.40   L 138.75 104.40   A 1.27 1.27 0.0 0 0 137.48 105.67   L 137.48 114.96" data-svg-id="svg-elem-1768388872907-dz802szuu" id="svg-elem-1768388872907-dz802szuu"/>
<path stroke="#8fb7e1" vector-effect="non-scaling-stroke" d="   M 317.83 104.99   A 0.61 0.61 0.0 0 0 317.22 104.38   L 282.00 104.38   A 0.61 0.61 0.0 0 0 281.39 104.99   L 281.39 115.65   A 0.61 0.61 0.0 0 0 282.00 116.26   L 317.22 116.26   A 0.61 0.61 0.0 0 0 317.83 115.65   L 317.83 104.99" data-svg-id="svg-elem-1768388872907-reh7mddpy" id="svg-elem-1768388872907-reh7mddpy"/>
<path stroke="#8fb7e1" vector-effect="non-scaling-stroke" d="   M 328.36 115.57   A 0.92 0.92 0.0 0 0 329.24 116.22   L 378.51 116.22   A 0.92 0.92 0.0 0 0 379.37 115.60   L 382.85 105.62   A 0.92 0.92 0.0 0 0 381.98 104.40   L 326.18 104.40   A 0.92 0.92 0.0 0 0 325.30 105.59   L 328.36 115.57" data-svg-id="svg-elem-1768388872907-w6hlwd88y" id="svg-elem-1768388872907-w6hlwd88y"/>
<path stroke="#8fb7e1" vector-effect="non-scaling-stroke" d="   M 426.23 105.06   A 0.68 0.68 0.0 0 0 425.55 104.38   L 390.31 104.38   A 0.68 0.68 0.0 0 0 389.63 105.06   L 389.63 115.56   A 0.68 0.68 0.0 0 0 390.31 116.24   L 425.55 116.24   A 0.68 0.68 0.0 0 0 426.23 115.56   L 426.23 105.06" data-svg-id="svg-elem-1768388872907-aydrjryjw" id="svg-elem-1768388872907-aydrjryjw"/>
<path stroke="#8fb7e1" vector-effect="non-scaling-stroke" d="   M 77.65 127.69   A 0.28 0.28 0.0 0 0 77.37 127.41   L 41.37 127.41   A 0.28 0.28 0.0 0 0 41.09 127.69   L 41.09 138.91   A 0.28 0.28 0.0 0 0 41.37 139.19   L 77.37 139.19   A 0.28 0.28 0.0 0 0 77.65 138.91   L 77.65 127.69" data-svg-id="svg-elem-1768388872907-zimmaa2wr" id="svg-elem-1768388872907-zimmaa2wr"/>
<path stroke="#8fb7e1" vector-effect="non-scaling-stroke" d="   M 173.9303 127.6165   A 0.27 0.27 0.0 0 0 173.6593 127.3474   L 137.7795 127.4727   A 0.27 0.27 0.0 0 0 137.5105 127.7436   L 137.5497 138.9835   A 0.27 0.27 0.0 0 0 137.8207 139.2526   L 173.7005 139.1273   A 0.27 0.27 0.0 0 0 173.9695 138.8564   L 173.9303 127.6165" data-svg-id="svg-elem-1768388872907-c6o282vul" id="svg-elem-1768388872907-c6o282vul"/>
<path stroke="#8fb7e1" vector-effect="non-scaling-stroke" d="   M 209.72 138.54   A 0.67 0.67 0.0 0 0 210.39 139.21   L 248.06 139.21   A 0.67 0.67 0.0 0 0 248.72 138.41   L 246.71 127.93   A 0.67 0.67 0.0 0 0 246.06 127.39   L 210.39 127.39   A 0.67 0.67 0.0 0 0 209.72 128.06   L 209.72 138.54" data-svg-id="svg-elem-1768388872907-yolq5ojbz" id="svg-elem-1768388872907-yolq5ojbz"/>
<path stroke="#8fb7e1" vector-effect="non-scaling-stroke" d="   M 317.7907 127.9782   A 0.55 0.55 0.0 0 0 317.2397 127.4292   L 281.9198 127.4908   A 0.55 0.55 0.0 0 0 281.3707 128.0418   L 281.3893 138.6818   A 0.55 0.55 0.0 0 0 281.9403 139.2308   L 317.2602 139.1692   A 0.55 0.55 0.0 0 0 317.8093 138.6182   L 317.7907 127.9782" data-svg-id="svg-elem-1768388872907-omfa02zlp" id="svg-elem-1768388872907-omfa02zlp"/>
<path stroke="#8fb7e1" vector-effect="non-scaling-stroke" d="   M 374.63 128.41   A 0.76 0.76 0.0 0 0 373.91 127.40   L 333.90 127.40   A 0.76 0.76 0.0 0 0 333.18 128.42   L 336.94 138.74   A 0.76 0.76 0.0 0 0 337.65 139.24   L 370.33 139.24   A 0.76 0.76 0.0 0 0 371.05 138.73   L 374.63 128.41" data-svg-id="svg-elem-1768388872907-io03dw14g" id="svg-elem-1768388872907-io03dw14g"/>
<path stroke="#8fb7e1" vector-effect="non-scaling-stroke" d="   M 426.3007 127.9481   A 0.57 0.57 0.0 0 0 425.7297 127.3791   L 390.2697 127.4410   A 0.57 0.57 0.0 0 0 389.7007 128.0119   L 389.7193 138.6719   A 0.57 0.57 0.0 0 0 390.2903 139.2409   L 425.7503 139.1790   A 0.57 0.57 0.0 0 0 426.3193 138.6081   L 426.3007 127.9481" data-svg-id="svg-elem-1768388872907-cmg33aagy" id="svg-elem-1768388872907-cmg33aagy"/>
<path stroke="#8fb7e1" vector-effect="non-scaling-stroke" d="   M 345.39 161.72   A 0.55 0.55 0.0 0 0 345.91 162.08   L 362.29 162.08   A 0.55 0.55 0.0 0 0 362.81 161.71   L 366.47 151.17   A 0.55 0.55 0.0 0 0 365.95 150.44   L 342.07 150.44   A 0.55 0.55 0.0 0 0 341.55 151.18   L 345.39 161.72" data-svg-id="svg-elem-1768388872907-bqz0ljg56" id="svg-elem-1768388872907-bqz0ljg56"/>
<path stroke="#8fb7e1" vector-effect="non-scaling-stroke" d="   M 101.94 150.88   A 0.48 0.48 0.0 0 0 101.46 150.40   L 18.02 150.40   A 0.48 0.48 0.0 0 0 17.54 150.88   L 17.54 161.64   A 0.48 0.48 0.0 0 0 18.02 162.12   L 101.46 162.12   A 0.48 0.48 0.0 0 0 101.94 161.64   L 101.94 150.88" data-svg-id="svg-elem-1768388872907-jjfjfyglk" id="svg-elem-1768388872907-jjfjfyglk"/>
<path stroke="#8fb7e1" vector-effect="non-scaling-stroke" d="   M 113.35 161.80   A 0.31 0.31 0.0 0 0 113.66 162.11   L 243.65 162.11   A 0.31 0.31 0.0 0 0 243.94 161.90   L 247.80 150.80   A 0.31 0.31 0.0 0 0 247.50 150.39   L 113.66 150.39   A 0.31 0.31 0.0 0 0 113.35 150.70   L 113.35 161.80" data-svg-id="svg-elem-1768388872907-ucxg3a3mu" id="svg-elem-1768388872907-ucxg3a3mu"/>
<path stroke="#8fb7e1" vector-effect="non-scaling-stroke" d="   M 317.83 150.98   A 0.58 0.58 0.0 0 0 317.25 150.40   L 258.43 150.40   A 0.58 0.58 0.0 0 0 257.85 150.98   L 257.85 161.54   A 0.58 0.58 0.0 0 0 258.43 162.12   L 317.25 162.12   A 0.58 0.58 0.0 0 0 317.83 161.54   L 317.83 150.98" data-svg-id="svg-elem-1768388872907-7n1cfm9ud" id="svg-elem-1768388872907-7n1cfm9ud"/>
<path stroke="#8fb7e1" vector-effect="non-scaling-stroke" d="   M 449.13 151.03   A 0.64 0.64 0.0 0 0 448.49 150.39   L 390.37 150.39   A 0.64 0.64 0.0 0 0 389.73 151.03   L 389.73 161.47   A 0.64 0.64 0.0 0 0 390.37 162.11   L 448.49 162.11   A 0.64 0.64 0.0 0 0 449.13 161.47   L 449.13 151.03" data-svg-id="svg-elem-1768388872907-qlx919m83" id="svg-elem-1768388872907-qlx919m83"/>
<path stroke="#8fb7e1" vector-effect="non-scaling-stroke" d="   M 232.75 173.62   Q 232.32 173.28 231.17 173.28   Q 167.82 173.37 113.87 173.32   A 0.46 0.46 0.0 0 0 113.41 173.78   L 113.41 184.98   A 0.31 0.31 0.0 0 0 113.72 185.29   Q 175.58 185.17 189.52 185.28   Q 208.21 185.44 212.42 184.38   Q 223.76 181.52 232.76 174.10   A 0.31 0.30 -46.6 0 0 232.75 173.62" data-svg-id="svg-elem-1768388872907-ieeo8u9le" id="svg-elem-1768388872907-ieeo8u9le"/>
<path stroke="#8fb7e1" vector-effect="non-scaling-stroke" d="   M 358.53 174.13   A 0.57 0.57 0.0 0 0 358.00 173.36   L 350.32 173.32   A 0.57 0.57 0.0 0 0 349.78 174.08   L 353.57 184.44   A 0.57 0.57 0.0 0 0 354.64 184.45   L 358.53 174.13" data-svg-id="svg-elem-1768388872907-p10trovut" id="svg-elem-1768388872907-p10trovut"/>
<path stroke="#8fb7e1" vector-effect="non-scaling-stroke" d="   M 101.92 173.91   A 0.61 0.61 0.0 0 0 101.31 173.30   L 18.19 173.30   A 0.61 0.61 0.0 0 0 17.58 173.91   L 17.58 184.69   A 0.61 0.61 0.0 0 0 18.19 185.30   L 101.31 185.30   A 0.61 0.61 0.0 0 0 101.92 184.69   L 101.92 173.91" data-svg-id="svg-elem-1768388872907-vxy0l5093" id="svg-elem-1768388872907-vxy0l5093"/>
<path stroke="#8fb7e1" vector-effect="non-scaling-stroke" d="   M 317.8002 173.6377   A 0.41 0.41 0.0 0 0 317.3895 173.2284   L 258.2296 173.3316   A 0.41 0.41 0.0 0 0 257.8203 173.7424   L 257.8398 184.9223   A 0.41 0.41 0.0 0 0 258.2505 185.3316   L 317.4104 185.2284   A 0.41 0.41 0.0 0 0 317.8197 184.8176   L 317.8002 173.6377" data-svg-id="svg-elem-1768388872907-lfuqm033v" id="svg-elem-1768388872907-lfuqm033v"/>
<path stroke="#8fb7e1" vector-effect="non-scaling-stroke" d="   M 449.08 173.69   A 0.40 0.40 0.0 0 0 448.68 173.29   L 390.06 173.29   A 0.40 0.40 0.0 0 0 389.66 173.69   L 389.66 184.89   A 0.40 0.40 0.0 0 0 390.06 185.29   L 448.68 185.29   A 0.40 0.40 0.0 0 0 449.08 184.89   L 449.08 173.69" data-svg-id="svg-elem-1768388872907-477w9klpx" id="svg-elem-1768388872907-477w9klpx"/>
<path stroke="#81b4ec" vector-effect="non-scaling-stroke" d="   M 97.77 249.90   L 82.36 249.90   A 0.23 0.23 0.0 0 1 82.25 249.46   C 93.33 243.74 92.35 231.42 91.39 220.59   C 90.54 210.98 86.44 204.81 77.60 200.79   Q 74.73 199.49 67.80 199.80   Q 64.36 199.95 53.44 199.68   C 38.09 199.31 31.36 209.77 30.36 223.64   Q 29.78 231.69 31.01 238.52   C 34.08 255.54 47.79 258.57 63.00 258.58   Q 82.80 258.59 97.66 258.57   A 0.31 0.31 0.0 0 0 97.97 258.26   L 97.97 250.10   A 0.20 0.20 0.0 0 0 97.77 249.90" data-svg-id="svg-elem-1768388872907-f0k3xxdoc" id="svg-elem-1768388872907-f0k3xxdoc"/>
<path stroke="#81b4ec" vector-effect="non-scaling-stroke" d="   M 290.49 248.93   Q 286.66 250.88 282.84 248.75   A 3.81 3.81 0.0 0 1 280.88 245.42   L 280.88 224.87   A 0.23 0.23 0.0 0 1 281.11 224.64   L 291.27 224.64   A 0.29 0.29 0.0 0 0 291.56 224.35   L 291.56 216.86   A 0.21 0.21 0.0 0 0 291.35 216.65   L 281.69 216.65   A 0.78 0.78 0.0 0 1 280.91 215.87   L 280.91 208.58   A 0.63 0.63 0.0 0 0 280.28 207.95   L 269.88 207.95   A 0.70 0.70 0.0 0 0 269.18 208.65   L 269.18 215.84   A 0.77 0.76 90.0 0 1 268.42 216.61   L 260.97 216.61   A 0.22 0.22 0.0 0 0 260.75 216.83   L 260.75 224.38   A 0.20 0.20 0.0 0 0 260.95 224.58   L 268.53 224.58   A 0.90 0.89 2.1 0 1 269.43 225.54   Q 269.08 230.73 269.40 248.24   Q 269.46 251.74 271.58 254.86   A 4.98 4.94 -1.1 0 0 273.13 256.34   C 278.21 259.43 284.45 259.22 290.48 258.21   A 1.36 1.35 85.2 0 0 291.61 256.87   L 291.61 249.61   A 0.77 0.77 0.0 0 0 290.49 248.93" data-svg-id="svg-elem-1768388872907-x58ftf3uq" id="svg-elem-1768388872907-x58ftf3uq"/>
<path stroke="#81b4ec" vector-effect="non-scaling-stroke" d="   M 160.60 226.76   Q 167.61 224.16 174.61 223.45   C 181.84 222.72 187.49 222.33 188.75 230.98   A 1.07 1.05 86.0 0 1 187.70 232.20   Q 180.93 232.19 174.01 232.26   C 166.05 232.35 157.07 234.72 156.53 244.37   C 156.21 249.95 158.77 254.19 163.84 256.38   Q 167.69 258.05 169.16 258.20   Q 184.35 259.74 199.43 256.82   A 1.30 1.28 84.6 0 0 200.47 255.55   Q 200.44 241.55 200.46 227.29   Q 200.47 223.94 197.30 220.19   A 3.31 3.30 83.1 0 0 196.22 219.34   Q 188.77 215.64 180.72 215.73   Q 171.59 215.84 160.70 217.51   A 0.29 0.28 -4.8 0 0 160.46 217.79   L 160.46 226.66   A 0.11 0.10 79.0 0 0 160.60 226.76" data-svg-id="svg-elem-1768388872907-lfo4h6fhg" id="svg-elem-1768388872907-lfo4h6fhg"/>
<path stroke="#81b4ec" vector-effect="non-scaling-stroke" d="   M 223.00 258.27   A 0.43 0.43 0.0 0 0 223.43 257.84   L 223.43 225.46   A 0.82 0.82 0.0 0 1 224.06 224.66   C 228.11 223.66 240.23 221.69 241.54 227.73   Q 242.18 230.65 242.20 235.00   Q 242.27 246.08 242.03 257.97   A 0.34 0.34 0.0 0 0 242.37 258.32   L 254.04 258.32   A 0.61 0.60 90.0 0 0 254.64 257.71   Q 254.65 245.10 254.66 230.52   C 254.67 225.71 253.84 221.71 249.63 219.22   C 244.55 216.21 237.81 215.66 232.00 215.87   Q 221.22 216.25 211.38 218.07   A 0.40 0.39 84.8 0 0 211.06 218.46   L 211.06 258.04   A 0.23 0.23 0.0 0 0 211.29 258.27   L 223.00 258.27" data-svg-id="svg-elem-1768388872907-dv6oi4tx5" id="svg-elem-1768388872907-dv6oi4tx5"/>
<path stroke="#81b4ec" vector-effect="non-scaling-stroke" d="   M 384.88 258.37   L 395.75 258.37   A 0.62 0.62 0.0 0 0 396.37 257.75   L 396.37 226.75   A 1.59 1.59 0.0 0 1 397.50 225.23   C 401.79 223.94 404.75 222.84 408.64 223.86   Q 414.05 225.27 414.00 230.74   Q 413.89 241.83 413.95 257.82   A 0.59 0.59 0.0 0 0 414.54 258.41   L 425.75 258.41   A 0.46 0.45 -90.0 0 0 426.20 257.95   Q 426.04 233.71 426.03 230.53   C 425.99 212.14 402.56 214.40 391.38 218.88   A 2.81 2.80 48.5 0 1 388.97 218.73   Q 383.15 215.47 375.72 215.78   Q 365.42 216.20 354.31 218.67   A 0.35 0.35 0.0 0 0 354.03 219.01   L 354.03 257.68   A 0.67 0.67 0.0 0 0 354.70 258.35   L 365.41 258.35   A 0.71 0.71 0.0 0 0 366.12 257.64   L 366.12 225.41   A 0.66 0.65 -6.0 0 1 366.64 224.77   C 371.50 223.79 374.19 222.85 378.22 223.81   Q 384.04 225.19 384.05 231.27   Q 384.08 247.37 384.14 257.63   A 0.75 0.74 89.6 0 0 384.88 258.37" data-svg-id="svg-elem-1768388872907-i0vsnh3b7" id="svg-elem-1768388872907-i0vsnh3b7"/>
<path stroke="#81b4ec" vector-effect="non-scaling-stroke" d="   M 135.75 216.57   A 0.43 0.43 0.0 0 0 135.32 217.00   L 135.39 249.27   A 0.82 0.82 0.0 0 1 134.77 250.07   C 130.73 251.07 118.66 253.06 117.34 247.05   Q 116.70 244.14 116.67 239.80   Q 116.57 228.76 116.78 216.91   A 0.34 0.34 0.0 0 0 116.44 216.56   L 104.81 216.59   A 0.61 0.60 89.9 0 0 104.22 217.20   Q 104.24 229.77 104.26 244.30   C 104.26 249.09 105.10 253.07 109.30 255.55   C 114.37 258.53 121.09 259.07 126.88 258.84   Q 137.62 258.44 147.42 256.60   A 0.40 0.39 84.6 0 0 147.74 256.21   L 147.65 216.77   A 0.23 0.23 0.0 0 0 147.42 216.54   L 135.75 216.57" data-svg-id="svg-elem-1768388872907-yo9xc8oq9" id="svg-elem-1768388872907-yo9xc8oq9"/>
<path stroke="#81b4ec" vector-effect="non-scaling-stroke" d="   M 331.72 216.52   A 0.43 0.43 0.0 0 0 331.30 216.95   L 331.39 249.30   A 0.82 0.82 0.0 0 1 330.76 250.11   C 326.72 251.12 314.61 253.12 313.29 247.09   Q 312.64 244.17 312.61 239.83   Q 312.51 228.76 312.71 216.88   A 0.34 0.34 0.0 0 0 312.37 216.53   L 300.71 216.56   A 0.61 0.60 89.8 0 0 300.12 217.17   Q 300.14 229.77 300.17 244.34   C 300.18 249.14 301.02 253.14 305.23 255.61   C 310.31 258.61 317.05 259.14 322.85 258.91   Q 333.62 258.50 343.45 256.65   A 0.40 0.39 84.6 0 0 343.77 256.26   L 343.65 216.72   A 0.23 0.23 0.0 0 0 343.42 216.49   L 331.72 216.52" data-svg-id="svg-elem-1768388872907-s1ip1qw3v" id="svg-elem-1768388872907-s1ip1qw3v"/>
<path stroke="#81b4ec" vector-effect="non-scaling-stroke" d="   M 77.6090 222.5047   A 15.28 15.28 0.0 0 0 62.2227 207.3317   L 59.7027 207.3493   A 15.28 15.28 0.0 0 0 44.5298 222.7356   L 44.6110 234.3753   A 15.28 15.28 0.0 0 0 59.9973 249.5483   L 62.5173 249.5307   A 15.28 15.28 0.0 0 0 77.6902 234.1444   L 77.6090 222.5047" data-svg-id="svg-elem-1768388872907-bc4sjsf92" id="svg-elem-1768388872907-bc4sjsf92"/>
<path stroke="#81b4ec" vector-effect="non-scaling-stroke" d="   M 188.41 249.90   L 188.29 240.68   A 0.83 0.83 0.0 0 0 187.45 239.86   L 175.81 240.01   A 8.23 5.11 -0.7 0 0 167.65 245.22   L 167.65 245.88   A 8.23 5.11 -0.7 0 0 175.95 250.89   L 187.59 250.74   A 0.83 0.83 0.0 0 0 188.41 249.90" data-svg-id="svg-elem-1768388872907-mvdaf3xgz" id="svg-elem-1768388872907-mvdaf3xgz"/>
</g>
<path fill="#ffffff" d="   M 470.00 0.00   L 470.00 280.00   L 0.00 280.00   L 0.00 0.00   L 470.00 0.00   Z   M 101.35 12.90   A 0.27 0.27 0.0 0 0 101.08 12.63   L 17.08 12.63   A 0.27 0.27 0.0 0 0 16.81 12.90   L 16.81 24.26   A 0.27 0.27 0.0 0 0 17.08 24.53   L 101.08 24.53   A 0.27 0.27 0.0 0 0 101.35 24.26   L 101.35 12.90   Z   M 257.15 24.18   A 0.34 0.34 0.0 0 0 257.49 24.52   L 329.37 24.52   A 0.34 0.34 0.0 0 0 329.69 24.06   L 325.62 12.86   A 0.34 0.34 0.0 0 0 325.30 12.64   L 257.49 12.64   A 0.34 0.34 0.0 0 0 257.15 12.98   L 257.15 24.18   Z   M 232.81 24.23   A 0.31 0.30 46.5 0 0 232.82 23.75   Q 223.80 16.32 212.44 13.46   Q 208.22 12.40 189.50 12.56   Q 175.54 12.68 113.57 12.57   A 0.31 0.31 0.0 0 0 113.26 12.88   L 113.26 24.10   A 0.46 0.46 0.0 0 0 113.72 24.56   Q 167.77 24.50 231.23 24.57   Q 232.38 24.57 232.81 24.23   Z   M 449.09 12.96   A 0.34 0.34 0.0 0 0 448.75 12.62   L 382.12 12.62   A 0.34 0.34 0.0 0 0 381.80 12.85   L 377.90 24.08   A 0.34 0.34 0.0 0 0 378.22 24.53   L 448.75 24.53   A 0.34 0.34 0.0 0 0 449.09 24.19   L 449.09 12.96   Z   M 101.40 35.79   A 0.27 0.27 0.0 0 0 101.13 35.52   L 17.03 35.52   A 0.27 0.27 0.0 0 0 16.76 35.79   L 16.76 47.07   A 0.27 0.27 0.0 0 0 17.03 47.34   L 101.13 47.34   A 0.27 0.27 0.0 0 0 101.40 47.07   L 101.40 35.79   Z   M 113.63 35.52   A 0.30 0.30 0.0 0 0 113.33 35.82   L 113.33 47.05   A 0.30 0.30 0.0 0 0 113.63 47.35   L 247.32 47.35   A 0.30 0.30 0.0 0 0 247.61 46.96   L 244.17 35.73   A 0.30 0.30 0.0 0 0 243.89 35.52   L 113.63 35.52   Z   M 257.14 46.70   A 0.66 0.66 0.0 0 0 257.80 47.36   L 336.74 47.36   A 0.66 0.66 0.0 0 0 337.37 46.51   L 334.15 35.99   A 0.66 0.66 0.0 0 0 333.52 35.52   L 257.80 35.52   A 0.66 0.66 0.0 0 0 257.14 36.18   L 257.14 46.70   Z   M 449.11 35.85   A 0.32 0.32 0.0 0 0 448.79 35.53   L 373.46 35.53   A 0.32 0.32 0.0 0 0 373.15 35.76   L 369.86 46.96   A 0.32 0.32 0.0 0 0 370.17 47.37   L 448.79 47.37   A 0.32 0.32 0.0 0 0 449.11 47.05   L 449.11 35.85   Z   M 77.74 58.94   A 0.38 0.38 0.0 0 0 77.36 58.56   L 41.52 58.56   A 0.38 0.38 0.0 0 0 41.14 58.94   L 41.14 69.90   A 0.38 0.38 0.0 0 0 41.52 70.28   L 77.36 70.28   A 0.38 0.38 0.0 0 0 77.74 69.90   L 77.74 58.94   Z   M 173.9397 58.8618   A 0.26 0.26 0.0 0 0 173.6802 58.6013   L 137.7803 58.5387   A 0.26 0.26 0.0 0 0 137.5198 58.7982   L 137.5003 69.9982   A 0.26 0.26 0.0 0 0 137.7598 70.2587   L 173.6597 70.3213   A 0.26 0.26 0.0 0 0 173.9202 70.0618   L 173.9397 58.8618   Z   M 209.64 69.96   A 0.31 0.31 0.0 0 0 209.95 70.27   L 246.45 70.27   A 0.31 0.31 0.0 0 0 246.75 70.01   L 248.63 58.92   A 0.31 0.31 0.0 0 0 248.32 58.56   L 209.95 58.56   A 0.31 0.31 0.0 0 0 209.64 58.87   L 209.64 69.96   Z   M 281.35 69.74   A 0.54 0.54 0.0 0 0 281.89 70.28   L 345.05 70.28   A 0.54 0.54 0.0 0 0 345.57 69.58   L 342.31 58.94   A 0.54 0.54 0.0 0 0 341.79 58.56   L 281.89 58.56   A 0.54 0.54 0.0 0 0 281.35 59.10   L 281.35 69.74   Z   M 361.36 69.63   A 0.48 0.48 0.0 0 0 361.81 70.27   L 425.81 70.27   A 0.48 0.48 0.0 0 0 426.29 69.79   L 426.29 59.02   A 0.48 0.48 0.0 0 0 425.81 58.54   L 365.55 58.54   A 0.48 0.48 0.0 0 0 365.10 58.86   L 361.36 69.63   Z   M 77.7095 82.0019   A 0.49 0.49 0.0 0 0 77.2203 81.5111   L 41.6004 81.4489   A 0.49 0.49 0.0 0 0 41.1095 81.9381   L 41.0905 92.8381   A 0.49 0.49 0.0 0 0 41.5797 93.3289   L 77.1996 93.3911   A 0.49 0.49 0.0 0 0 77.6905 92.9019   L 77.7095 82.0019   Z   M 389.70 88.19   L 389.70 92.44   A 0.93 0.93 0.0 0 0 390.63 93.37   L 425.57 93.37   A 0.68 0.68 0.0 0 0 426.25 92.69   L 426.25 82.34   A 0.84 0.83 0.0 0 0 425.41 81.51   L 358.24 81.51   A 0.86 0.85 9.6 0 0 357.43 82.08   L 354.70 89.95   A 0.83 0.83 0.0 0 1 353.12 89.92   L 350.79 82.31   A 1.15 1.14 81.3 0 0 349.70 81.50   L 282.10 81.50   A 0.67 0.67 0.0 0 0 281.43 82.17   L 281.43 92.98   A 0.38 0.38 0.0 0 0 281.81 93.36   L 316.86 93.36   A 0.80 0.80 0.0 0 0 317.66 92.54   Q 317.60 89.02 317.65 88.72   Q 317.70 88.43 317.86 88.37   A 0.73 0.70 73.3 0 1 318.80 88.90   Q 319.31 91.09 319.44 91.62   A 2.29 2.29 0.0 0 0 321.66 93.36   L 386.88 93.36   A 0.94 0.94 0.0 0 0 387.82 92.35   Q 387.61 89.85 388.93 87.95   A 0.42 0.42 0.0 0 1 389.70 88.19   Z   M 240.84 81.99   Q 239.97 81.50 238.75 81.50   C 184.38 81.53 152.43 81.28 137.98 81.55   A 0.41 0.41 0.0 0 0 137.58 81.96   L 137.58 92.98   A 0.42 0.42 0.0 0 0 138.00 93.40   Q 180.89 93.24 226.00 93.41   Q 229.10 93.42 231.04 92.92   A 3.27 3.18 16.0 0 0 232.44 92.17   Q 235.85 89.05 236.37 88.36   Q 239.21 84.59 240.94 82.58   A 0.39 0.38 -54.9 0 0 240.84 81.99   Z   M 77.7294 104.9520   A 0.56 0.56 0.0 0 0 77.1703 104.3910   L 41.6304 104.3290   A 0.56 0.56 0.0 0 0 41.0694 104.8880   L 41.0506 115.6480   A 0.56 0.56 0.0 0 0 41.6097 116.2090   L 77.1496 116.2710   A 0.56 0.56 0.0 0 0 77.7106 115.7120   L 77.7294 104.9520   Z   M 137.48 114.96   A 1.27 1.27 0.0 0 0 138.75 116.23   L 239.75 116.23   A 1.27 1.27 0.0 0 0 240.65 114.06   L 231.36 104.77   A 1.27 1.27 0.0 0 0 230.46 104.40   L 138.75 104.40   A 1.27 1.27 0.0 0 0 137.48 105.67   L 137.48 114.96   Z   M 317.83 104.99   A 0.61 0.61 0.0 0 0 317.22 104.38   L 282.00 104.38   A 0.61 0.61 0.0 0 0 281.39 104.99   L 281.39 115.65   A 0.61 0.61 0.0 0 0 282.00 116.26   L 317.22 116.26   A 0.61 0.61 0.0 0 0 317.83 115.65   L 317.83 104.99   Z   M 328.36 115.57   A 0.92 0.92 0.0 0 0 329.24 116.22   L 378.51 116.22   A 0.92 0.92 0.0 0 0 379.37 115.60   L 382.85 105.62   A 0.92 0.92 0.0 0 0 381.98 104.40   L 326.18 104.40   A 0.92 0.92 0.0 0 0 325.30 105.59   L 328.36 115.57   Z   M 426.23 105.06   A 0.68 0.68 0.0 0 0 425.55 104.38   L 390.31 104.38   A 0.68 0.68 0.0 0 0 389.63 105.06   L 389.63 115.56   A 0.68 0.68 0.0 0 0 390.31 116.24   L 425.55 116.24   A 0.68 0.68 0.0 0 0 426.23 115.56   L 426.23 105.06   Z   M 77.65 127.69   A 0.28 0.28 0.0 0 0 77.37 127.41   L 41.37 127.41   A 0.28 0.28 0.0 0 0 41.09 127.69   L 41.09 138.91   A 0.28 0.28 0.0 0 0 41.37 139.19   L 77.37 139.19   A 0.28 0.28 0.0 0 0 77.65 138.91   L 77.65 127.69   Z   M 173.9303 127.6165   A 0.27 0.27 0.0 0 0 173.6593 127.3474   L 137.7795 127.4727   A 0.27 0.27 0.0 0 0 137.5105 127.7436   L 137.5497 138.9835   A 0.27 0.27 0.0 0 0 137.8207 139.2526   L 173.7005 139.1273   A 0.27 0.27 0.0 0 0 173.9695 138.8564   L 173.9303 127.6165   Z   M 209.72 138.54   A 0.67 0.67 0.0 0 0 210.39 139.21   L 248.06 139.21   A 0.67 0.67 0.0 0 0 248.72 138.41   L 246.71 127.93   A 0.67 0.67 0.0 0 0 246.06 127.39   L 210.39 127.39   A 0.67 0.67 0.0 0 0 209.72 128.06   L 209.72 138.54   Z   M 317.7907 127.9782   A 0.55 0.55 0.0 0 0 317.2397 127.4292   L 281.9198 127.4908   A 0.55 0.55 0.0 0 0 281.3707 128.0418   L 281.3893 138.6818   A 0.55 0.55 0.0 0 0 281.9403 139.2308   L 317.2602 139.1692   A 0.55 0.55 0.0 0 0 317.8093 138.6182   L 317.7907 127.9782   Z   M 374.63 128.41   A 0.76 0.76 0.0 0 0 373.91 127.40   L 333.90 127.40   A 0.76 0.76 0.0 0 0 333.18 128.42   L 336.94 138.74   A 0.76 0.76 0.0 0 0 337.65 139.24   L 370.33 139.24   A 0.76 0.76 0.0 0 0 371.05 138.73   L 374.63 128.41   Z   M 426.3007 127.9481   A 0.57 0.57 0.0 0 0 425.7297 127.3791   L 390.2697 127.4410   A 0.57 0.57 0.0 0 0 389.7007 128.0119   L 389.7193 138.6719   A 0.57 0.57 0.0 0 0 390.2903 139.2409   L 425.7503 139.1790   A 0.57 0.57 0.0 0 0 426.3193 138.6081   L 426.3007 127.9481   Z   M 345.39 161.72   A 0.55 0.55 0.0 0 0 345.91 162.08   L 362.29 162.08   A 0.55 0.55 0.0 0 0 362.81 161.71   L 366.47 151.17   A 0.55 0.55 0.0 0 0 365.95 150.44   L 342.07 150.44   A 0.55 0.55 0.0 0 0 341.55 151.18   L 345.39 161.72   Z   M 101.94 150.88   A 0.48 0.48 0.0 0 0 101.46 150.40   L 18.02 150.40   A 0.48 0.48 0.0 0 0 17.54 150.88   L 17.54 161.64   A 0.48 0.48 0.0 0 0 18.02 162.12   L 101.46 162.12   A 0.48 0.48 0.0 0 0 101.94 161.64   L 101.94 150.88   Z   M 113.35 161.80   A 0.31 0.31 0.0 0 0 113.66 162.11   L 243.65 162.11   A 0.31 0.31 0.0 0 0 243.94 161.90   L 247.80 150.80   A 0.31 0.31 0.0 0 0 247.50 150.39   L 113.66 150.39   A 0.31 0.31 0.0 0 0 113.35 150.70   L 113.35 161.80   Z   M 317.83 150.98   A 0.58 0.58 0.0 0 0 317.25 150.40   L 258.43 150.40   A 0.58 0.58 0.0 0 0 257.85 150.98   L 257.85 161.54   A 0.58 0.58 0.0 0 0 258.43 162.12   L 317.25 162.12   A 0.58 0.58 0.0 0 0 317.83 161.54   L 317.83 150.98   Z   M 449.13 151.03   A 0.64 0.64 0.0 0 0 448.49 150.39   L 390.37 150.39   A 0.64 0.64 0.0 0 0 389.73 151.03   L 389.73 161.47   A 0.64 0.64 0.0 0 0 390.37 162.11   L 448.49 162.11   A 0.64 0.64 0.0 0 0 449.13 161.47   L 449.13 151.03   Z   M 232.75 173.62   Q 232.32 173.28 231.17 173.28   Q 167.82 173.37 113.87 173.32   A 0.46 0.46 0.0 0 0 113.41 173.78   L 113.41 184.98   A 0.31 0.31 0.0 0 0 113.72 185.29   Q 175.58 185.17 189.52 185.28   Q 208.21 185.44 212.42 184.38   Q 223.76 181.52 232.76 174.10   A 0.31 0.30 -46.6 0 0 232.75 173.62   Z   M 358.53 174.13   A 0.57 0.57 0.0 0 0 358.00 173.36   L 350.32 173.32   A 0.57 0.57 0.0 0 0 349.78 174.08   L 353.57 184.44   A 0.57 0.57 0.0 0 0 354.64 184.45   L 358.53 174.13   Z   M 101.92 173.91   A 0.61 0.61 0.0 0 0 101.31 173.30   L 18.19 173.30   A 0.61 0.61 0.0 0 0 17.58 173.91   L 17.58 184.69   A 0.61 0.61 0.0 0 0 18.19 185.30   L 101.31 185.30   A 0.61 0.61 0.0 0 0 101.92 184.69   L 101.92 173.91   Z   M 317.8002 173.6377   A 0.41 0.41 0.0 0 0 317.3895 173.2284   L 258.2296 173.3316   A 0.41 0.41 0.0 0 0 257.8203 173.7424   L 257.8398 184.9223   A 0.41 0.41 0.0 0 0 258.2505 185.3316   L 317.4104 185.2284   A 0.41 0.41 0.0 0 0 317.8197 184.8176   L 317.8002 173.6377   Z   M 449.08 173.69   A 0.40 0.40 0.0 0 0 448.68 173.29   L 390.06 173.29   A 0.40 0.40 0.0 0 0 389.66 173.69   L 389.66 184.89   A 0.40 0.40 0.0 0 0 390.06 185.29   L 448.68 185.29   A 0.40 0.40 0.0 0 0 449.08 184.89   L 449.08 173.69   Z   M 97.77 249.90   L 82.36 249.90   A 0.23 0.23 0.0 0 1 82.25 249.46   C 93.33 243.74 92.35 231.42 91.39 220.59   C 90.54 210.98 86.44 204.81 77.60 200.79   Q 74.73 199.49 67.80 199.80   Q 64.36 199.95 53.44 199.68   C 38.09 199.31 31.36 209.77 30.36 223.64   Q 29.78 231.69 31.01 238.52   C 34.08 255.54 47.79 258.57 63.00 258.58   Q 82.80 258.59 97.66 258.57   A 0.31 0.31 0.0 0 0 97.97 258.26   L 97.97 250.10   A 0.20 0.20 0.0 0 0 97.77 249.90   Z   M 290.49 248.93   Q 286.66 250.88 282.84 248.75   A 3.81 3.81 0.0 0 1 280.88 245.42   L 280.88 224.87   A 0.23 0.23 0.0 0 1 281.11 224.64   L 291.27 224.64   A 0.29 0.29 0.0 0 0 291.56 224.35   L 291.56 216.86   A 0.21 0.21 0.0 0 0 291.35 216.65   L 281.69 216.65   A 0.78 0.78 0.0 0 1 280.91 215.87   L 280.91 208.58   A 0.63 0.63 0.0 0 0 280.28 207.95   L 269.88 207.95   A 0.70 0.70 0.0 0 0 269.18 208.65   L 269.18 215.84   A 0.77 0.76 90.0 0 1 268.42 216.61   L 260.97 216.61   A 0.22 0.22 0.0 0 0 260.75 216.83   L 260.75 224.38   A 0.20 0.20 0.0 0 0 260.95 224.58   L 268.53 224.58   A 0.90 0.89 2.1 0 1 269.43 225.54   Q 269.08 230.73 269.40 248.24   Q 269.46 251.74 271.58 254.86   A 4.98 4.94 -1.1 0 0 273.13 256.34   C 278.21 259.43 284.45 259.22 290.48 258.21   A 1.36 1.35 85.2 0 0 291.61 256.87   L 291.61 249.61   A 0.77 0.77 0.0 0 0 290.49 248.93   Z   M 160.60 226.76   Q 167.61 224.16 174.61 223.45   C 181.84 222.72 187.49 222.33 188.75 230.98   A 1.07 1.05 86.0 0 1 187.70 232.20   Q 180.93 232.19 174.01 232.26   C 166.05 232.35 157.07 234.72 156.53 244.37   C 156.21 249.95 158.77 254.19 163.84 256.38   Q 167.69 258.05 169.16 258.20   Q 184.35 259.74 199.43 256.82   A 1.30 1.28 84.6 0 0 200.47 255.55   Q 200.44 241.55 200.46 227.29   Q 200.47 223.94 197.30 220.19   A 3.31 3.30 83.1 0 0 196.22 219.34   Q 188.77 215.64 180.72 215.73   Q 171.59 215.84 160.70 217.51   A 0.29 0.28 -4.8 0 0 160.46 217.79   L 160.46 226.66   A 0.11 0.10 79.0 0 0 160.60 226.76   Z   M 223.00 258.27   A 0.43 0.43 0.0 0 0 223.43 257.84   L 223.43 225.46   A 0.82 0.82 0.0 0 1 224.06 224.66   C 228.11 223.66 240.23 221.69 241.54 227.73   Q 242.18 230.65 242.20 235.00   Q 242.27 246.08 242.03 257.97   A 0.34 0.34 0.0 0 0 242.37 258.32   L 254.04 258.32   A 0.61 0.60 90.0 0 0 254.64 257.71   Q 254.65 245.10 254.66 230.52   C 254.67 225.71 253.84 221.71 249.63 219.22   C 244.55 216.21 237.81 215.66 232.00 215.87   Q 221.22 216.25 211.38 218.07   A 0.40 0.39 84.8 0 0 211.06 218.46   L 211.06 258.04   A 0.23 0.23 0.0 0 0 211.29 258.27   L 223.00 258.27   Z   M 384.88 258.37   L 395.75 258.37   A 0.62 0.62 0.0 0 0 396.37 257.75   L 396.37 226.75   A 1.59 1.59 0.0 0 1 397.50 225.23   C 401.79 223.94 404.75 222.84 408.64 223.86   Q 414.05 225.27 414.00 230.74   Q 413.89 241.83 413.95 257.82   A 0.59 0.59 0.0 0 0 414.54 258.41   L 425.75 258.41   A 0.46 0.45 -90.0 0 0 426.20 257.95   Q 426.04 233.71 426.03 230.53   C 425.99 212.14 402.56 214.40 391.38 218.88   A 2.81 2.80 48.5 0 1 388.97 218.73   Q 383.15 215.47 375.72 215.78   Q 365.42 216.20 354.31 218.67   A 0.35 0.35 0.0 0 0 354.03 219.01   L 354.03 257.68   A 0.67 0.67 0.0 0 0 354.70 258.35   L 365.41 258.35   A 0.71 0.71 0.0 0 0 366.12 257.64   L 366.12 225.41   A 0.66 0.65 -6.0 0 1 366.64 224.77   C 371.50 223.79 374.19 222.85 378.22 223.81   Q 384.04 225.19 384.05 231.27   Q 384.08 247.37 384.14 257.63   A 0.75 0.74 89.6 0 0 384.88 258.37   Z   M 135.75 216.57   A 0.43 0.43 0.0 0 0 135.32 217.00   L 135.39 249.27   A 0.82 0.82 0.0 0 1 134.77 250.07   C 130.73 251.07 118.66 253.06 117.34 247.05   Q 116.70 244.14 116.67 239.80   Q 116.57 228.76 116.78 216.91   A 0.34 0.34 0.0 0 0 116.44 216.56   L 104.81 216.59   A 0.61 0.60 89.9 0 0 104.22 217.20   Q 104.24 229.77 104.26 244.30   C 104.26 249.09 105.10 253.07 109.30 255.55   C 114.37 258.53 121.09 259.07 126.88 258.84   Q 137.62 258.44 147.42 256.60   A 0.40 0.39 84.6 0 0 147.74 256.21   L 147.65 216.77   A 0.23 0.23 0.0 0 0 147.42 216.54   L 135.75 216.57   Z   M 331.72 216.52   A 0.43 0.43 0.0 0 0 331.30 216.95   L 331.39 249.30   A 0.82 0.82 0.0 0 1 330.76 250.11   C 326.72 251.12 314.61 253.12 313.29 247.09   Q 312.64 244.17 312.61 239.83   Q 312.51 228.76 312.71 216.88   A 0.34 0.34 0.0 0 0 312.37 216.53   L 300.71 216.56   A 0.61 0.60 89.8 0 0 300.12 217.17   Q 300.14 229.77 300.17 244.34   C 300.18 249.14 301.02 253.14 305.23 255.61   C 310.31 258.61 317.05 259.14 322.85 258.91   Q 333.62 258.50 343.45 256.65   A 0.40 0.39 84.6 0 0 343.77 256.26   L 343.65 216.72   A 0.23 0.23 0.0 0 0 343.42 216.49   L 331.72 216.52   Z" data-svg-id="svg-elem-1768388872907-pkszlqpig" id="svg-elem-1768388872907-pkszlqpig"/>
<rect fill="#1e6fc2" x="16.81" y="12.63" width="84.54" height="11.90" rx="0.27" data-svg-id="svg-elem-1768388872907-z6oizjaii" id="svg-elem-1768388872907-z6oizjaii"/>
<path fill="#1e6fc2" d="   M 257.15 24.18   L 257.15 12.98   A 0.34 0.34 0.0 0 1 257.49 12.64   L 325.30 12.64   A 0.34 0.34 0.0 0 1 325.62 12.86   L 329.69 24.06   A 0.34 0.34 0.0 0 1 329.37 24.52   L 257.49 24.52   A 0.34 0.34 0.0 0 1 257.15 24.18   Z" data-svg-id="svg-elem-1768388872907-ghdpsrzr1" id="svg-elem-1768388872907-ghdpsrzr1"/>
<path fill="#1e6fc2" d="   M 232.81 24.23   Q 232.38 24.57 231.23 24.57   Q 167.77 24.50 113.72 24.56   A 0.46 0.46 0.0 0 1 113.26 24.10   L 113.26 12.88   A 0.31 0.31 0.0 0 1 113.57 12.57   Q 175.54 12.68 189.50 12.56   Q 208.22 12.40 212.44 13.46   Q 223.80 16.32 232.82 23.75   A 0.31 0.30 46.5 0 1 232.81 24.23   Z" data-svg-id="svg-elem-1768388872907-rnqj6bgt7" id="svg-elem-1768388872907-rnqj6bgt7"/>
<path fill="#1e6fc2" d="   M 449.09 12.96   L 449.09 24.19   A 0.34 0.34 0.0 0 1 448.75 24.53   L 378.22 24.53   A 0.34 0.34 0.0 0 1 377.90 24.08   L 381.80 12.85   A 0.34 0.34 0.0 0 1 382.12 12.62   L 448.75 12.62   A 0.34 0.34 0.0 0 1 449.09 12.96   Z" data-svg-id="svg-elem-1768388872907-mv5bm9h0y" id="svg-elem-1768388872907-mv5bm9h0y"/>
<rect fill="#1e6fc2" x="16.76" y="35.52" width="84.64" height="11.82" rx="0.27" data-svg-id="svg-elem-1768388872907-87cuaqhsu" id="svg-elem-1768388872907-87cuaqhsu"/>
<path fill="#1e6fc2" d="   M 113.63 35.52   L 243.89 35.52   A 0.30 0.30 0.0 0 1 244.17 35.73   L 247.61 46.96   A 0.30 0.30 0.0 0 1 247.32 47.35   L 113.63 47.35   A 0.30 0.30 0.0 0 1 113.33 47.05   L 113.33 35.82   A 0.30 0.30 0.0 0 1 113.63 35.52   Z" data-svg-id="svg-elem-1768388872907-le0pcqngr" id="svg-elem-1768388872907-le0pcqngr"/>
<path fill="#1e6fc2" d="   M 257.14 46.70   L 257.14 36.18   A 0.66 0.66 0.0 0 1 257.80 35.52   L 333.52 35.52   A 0.66 0.66 0.0 0 1 334.15 35.99   L 337.37 46.51   A 0.66 0.66 0.0 0 1 336.74 47.36   L 257.80 47.36   A 0.66 0.66 0.0 0 1 257.14 46.70   Z" data-svg-id="svg-elem-1768388872907-7yi2nqpq4" id="svg-elem-1768388872907-7yi2nqpq4"/>
<path fill="#1e6fc2" d="   M 449.11 35.85   L 449.11 47.05   A 0.32 0.32 0.0 0 1 448.79 47.37   L 370.17 47.37   A 0.32 0.32 0.0 0 1 369.86 46.96   L 373.15 35.76   A 0.32 0.32 0.0 0 1 373.46 35.53   L 448.79 35.53   A 0.32 0.32 0.0 0 1 449.11 35.85   Z" data-svg-id="svg-elem-1768388872907-n44kqvrf5" id="svg-elem-1768388872907-n44kqvrf5"/>
<rect fill="#1e6fc2" x="41.14" y="58.56" width="36.60" height="11.72" rx="0.38" data-svg-id="svg-elem-1768388872907-s3dk0yawm" id="svg-elem-1768388872907-s3dk0yawm"/>
<rect fill="#1e6fc2" x="-18.21" y="-5.86" transform="translate(155.72,64.43) rotate(0.1)" width="36.42" height="11.72" rx="0.26" data-svg-id="svg-elem-1768388872907-2areyy0lf" id="svg-elem-1768388872907-2areyy0lf"/>
<path fill="#1e6fc2" d="   M 209.64 69.96   L 209.64 58.87   A 0.31 0.31 0.0 0 1 209.95 58.56   L 248.32 58.56   A 0.31 0.31 0.0 0 1 248.63 58.92   L 246.75 70.01   A 0.31 0.31 0.0 0 1 246.45 70.27   L 209.95 70.27   A 0.31 0.31 0.0 0 1 209.64 69.96   Z" data-svg-id="svg-elem-1768388872907-oi5o80apw" id="svg-elem-1768388872907-oi5o80apw"/>
<path fill="#1e6fc2" d="   M 281.35 69.74   L 281.35 59.10   A 0.54 0.54 0.0 0 1 281.89 58.56   L 341.79 58.56   A 0.54 0.54 0.0 0 1 342.31 58.94   L 345.57 69.58   A 0.54 0.54 0.0 0 1 345.05 70.28   L 281.89 70.28   A 0.54 0.54 0.0 0 1 281.35 69.74   Z" data-svg-id="svg-elem-1768388872907-n5volr1s6" id="svg-elem-1768388872907-n5volr1s6"/>
<path fill="#1e6fc2" d="   M 361.36 69.63   L 365.10 58.86   A 0.48 0.48 0.0 0 1 365.55 58.54   L 425.81 58.54   A 0.48 0.48 0.0 0 1 426.29 59.02   L 426.29 69.79   A 0.48 0.48 0.0 0 1 425.81 70.27   L 361.81 70.27   A 0.48 0.48 0.0 0 1 361.36 69.63   Z" data-svg-id="svg-elem-1768388872907-q1q7lzae6" id="svg-elem-1768388872907-q1q7lzae6"/>
<rect fill="#1e6fc2" x="-18.30" y="-5.94" transform="translate(59.40,87.42) rotate(0.1)" width="36.60" height="11.88" rx="0.49" data-svg-id="svg-elem-1768388872907-krb6ueqa4" id="svg-elem-1768388872907-krb6ueqa4"/>
<path fill="#1e6fc2" d="   M 389.70 88.19   A 0.42 0.42 0.0 0 0 388.93 87.95   Q 387.61 89.85 387.82 92.35   A 0.94 0.94 0.0 0 1 386.88 93.36   L 321.66 93.36   A 2.29 2.29 0.0 0 1 319.44 91.62   Q 319.31 91.09 318.80 88.90   A 0.73 0.70 73.3 0 0 317.86 88.37   Q 317.70 88.43 317.65 88.72   Q 317.60 89.02 317.66 92.54   A 0.80 0.80 0.0 0 1 316.86 93.36   L 281.81 93.36   A 0.38 0.38 0.0 0 1 281.43 92.98   L 281.43 82.17   A 0.67 0.67 0.0 0 1 282.10 81.50   L 349.70 81.50   A 1.15 1.14 81.3 0 1 350.79 82.31   L 353.12 89.92   A 0.83 0.83 0.0 0 0 354.70 89.95   L 357.43 82.08   A 0.86 0.85 9.6 0 1 358.24 81.51   L 425.41 81.51   A 0.84 0.83 -0.0 0 1 426.25 82.34   L 426.25 92.69   A 0.68 0.68 0.0 0 1 425.57 93.37   L 390.63 93.37   A 0.93 0.93 0.0 0 1 389.70 92.44   L 389.70 88.19   Z" data-svg-id="svg-elem-1768388872907-gftdwlwed" id="svg-elem-1768388872907-gftdwlwed"/>
<path fill="#1e6fc2" d="   M 240.84 81.99   A 0.39 0.38 -54.9 0 1 240.94 82.58   Q 239.21 84.59 236.37 88.36   Q 235.85 89.05 232.44 92.17   A 3.27 3.18 16.0 0 1 231.04 92.92   Q 229.10 93.42 226.00 93.41   Q 180.89 93.24 138.00 93.40   A 0.42 0.42 0.0 0 1 137.58 92.98   L 137.58 81.96   A 0.41 0.41 0.0 0 1 137.98 81.55   C 152.43 81.28 184.38 81.53 238.75 81.50   Q 239.97 81.50 240.84 81.99   Z" data-svg-id="svg-elem-1768388872907-cd5h4ptww" id="svg-elem-1768388872907-cd5h4ptww"/>
<rect fill="#1e6fc2" x="-18.33" y="-5.94" transform="translate(59.39,110.30) rotate(0.1)" width="36.66" height="11.88" rx="0.56" data-svg-id="svg-elem-1768388872907-ak42g8jmj" id="svg-elem-1768388872907-ak42g8jmj"/>
<path fill="#1e6fc2" d="   M 137.48 114.96   L 137.48 105.67   A 1.27 1.27 0.0 0 1 138.75 104.40   L 230.46 104.40   A 1.27 1.27 0.0 0 1 231.36 104.77   L 240.65 114.06   A 1.27 1.27 0.0 0 1 239.75 116.23   L 138.75 116.23   A 1.27 1.27 0.0 0 1 137.48 114.96   Z" data-svg-id="svg-elem-1768388872908-duho7lcgt" id="svg-elem-1768388872908-duho7lcgt"/>
<rect fill="#1e6fc2" x="281.39" y="104.38" width="36.44" height="11.88" rx="0.61" data-svg-id="svg-elem-1768388872908-8i2q3pcjl" id="svg-elem-1768388872908-8i2q3pcjl"/>
<path fill="#1e6fc2" d="   M 328.36 115.57   L 325.30 105.59   A 0.92 0.92 0.0 0 1 326.18 104.40   L 381.98 104.40   A 0.92 0.92 0.0 0 1 382.85 105.62   L 379.37 115.60   A 0.92 0.92 0.0 0 1 378.51 116.22   L 329.24 116.22   A 0.92 0.92 0.0 0 1 328.36 115.57   Z" data-svg-id="svg-elem-1768388872908-k2ywi4re2" id="svg-elem-1768388872908-k2ywi4re2"/>
<rect fill="#1e6fc2" x="389.63" y="104.38" width="36.60" height="11.86" rx="0.68" data-svg-id="svg-elem-1768388872908-rtgbli2ge" id="svg-elem-1768388872908-rtgbli2ge"/>
<rect fill="#1e6fc2" x="41.09" y="127.41" width="36.56" height="11.78" rx="0.28" data-svg-id="svg-elem-1768388872908-b9pjkyyo7" id="svg-elem-1768388872908-b9pjkyyo7"/>
<rect fill="#1e6fc2" x="-18.21" y="-5.89" transform="translate(155.74,133.30) rotate(-0.2)" width="36.42" height="11.78" rx="0.27" data-svg-id="svg-elem-1768388872908-pd292ebou" id="svg-elem-1768388872908-pd292ebou"/>
<path fill="#1e6fc2" d="   M 209.72 138.54   L 209.72 128.06   A 0.67 0.67 0.0 0 1 210.39 127.39   L 246.06 127.39   A 0.67 0.67 0.0 0 1 246.71 127.93   L 248.72 138.41   A 0.67 0.67 0.0 0 1 248.06 139.21   L 210.39 139.21   A 0.67 0.67 0.0 0 1 209.72 138.54   Z" data-svg-id="svg-elem-1768388872908-1v5snu5xm" id="svg-elem-1768388872908-1v5snu5xm"/>
<rect fill="#1e6fc2" x="-18.21" y="-5.87" transform="translate(299.59,133.33) rotate(-0.1)" width="36.42" height="11.74" rx="0.55" data-svg-id="svg-elem-1768388872908-x0e0pg2kh" id="svg-elem-1768388872908-x0e0pg2kh"/>
<path fill="#1e6fc2" d="   M 374.63 128.41   L 371.05 138.73   A 0.76 0.76 0.0 0 1 370.33 139.24   L 337.65 139.24   A 0.76 0.76 0.0 0 1 336.94 138.74   L 333.18 128.42   A 0.76 0.76 0.0 0 1 333.90 127.40   L 373.91 127.40   A 0.76 0.76 0.0 0 1 374.63 128.41   Z" data-svg-id="svg-elem-1768388872908-btkub2zg0" id="svg-elem-1768388872908-btkub2zg0"/>
<rect fill="#1e6fc2" x="-18.30" y="-5.90" transform="translate(408.01,133.31) rotate(-0.1)" width="36.60" height="11.80" rx="0.57" data-svg-id="svg-elem-1768388872908-dupsgsxro" id="svg-elem-1768388872908-dupsgsxro"/>
<path fill="#1e6fc2" d="   M 345.39 161.72   L 341.55 151.18   A 0.55 0.55 0.0 0 1 342.07 150.44   L 365.95 150.44   A 0.55 0.55 0.0 0 1 366.47 151.17   L 362.81 161.71   A 0.55 0.55 0.0 0 1 362.29 162.08   L 345.91 162.08   A 0.55 0.55 0.0 0 1 345.39 161.72   Z" data-svg-id="svg-elem-1768388872908-nopdxgq95" id="svg-elem-1768388872908-nopdxgq95"/>
<rect fill="#1e6fc2" x="17.54" y="150.40" width="84.40" height="11.72" rx="0.48" data-svg-id="svg-elem-1768388872908-p40x7vji9" id="svg-elem-1768388872908-p40x7vji9"/>
<path fill="#1e6fc2" d="   M 113.35 161.80   L 113.35 150.70   A 0.31 0.31 0.0 0 1 113.66 150.39   L 247.50 150.39   A 0.31 0.31 0.0 0 1 247.80 150.80   L 243.94 161.90   A 0.31 0.31 0.0 0 1 243.65 162.11   L 113.66 162.11   A 0.31 0.31 0.0 0 1 113.35 161.80   Z" data-svg-id="svg-elem-1768388872908-i6dyrk28z" id="svg-elem-1768388872908-i6dyrk28z"/>
<rect fill="#1e6fc2" x="257.85" y="150.40" width="59.98" height="11.72" rx="0.58" data-svg-id="svg-elem-1768388872908-y43qzf3ql" id="svg-elem-1768388872908-y43qzf3ql"/>
<rect fill="#1e6fc2" x="389.73" y="150.39" width="59.40" height="11.72" rx="0.64" data-svg-id="svg-elem-1768388872908-c0g3n2xov" id="svg-elem-1768388872908-c0g3n2xov"/>
<path fill="#1e6fc2" d="   M 232.75 173.62   A 0.31 0.30 -46.6 0 1 232.76 174.10   Q 223.76 181.52 212.42 184.38   Q 208.21 185.44 189.52 185.28   Q 175.58 185.17 113.72 185.29   A 0.31 0.31 0.0 0 1 113.41 184.98   L 113.41 173.78   A 0.46 0.46 0.0 0 1 113.87 173.32   Q 167.82 173.37 231.17 173.28   Q 232.32 173.28 232.75 173.62   Z" data-svg-id="svg-elem-1768388872908-gz2mzg4tm" id="svg-elem-1768388872908-gz2mzg4tm"/>
<path fill="#1e6fc2" d="   M 358.53 174.13   L 354.64 184.45   A 0.57 0.57 0.0 0 1 353.57 184.44   L 349.78 174.08   A 0.57 0.57 0.0 0 1 350.32 173.32   L 358.00 173.36   A 0.57 0.57 0.0 0 1 358.53 174.13   Z" data-svg-id="svg-elem-1768388872908-j9ohtoivp" id="svg-elem-1768388872908-j9ohtoivp"/>
<rect fill="#1e6fc2" x="17.58" y="173.30" width="84.34" height="12.00" rx="0.61" data-svg-id="svg-elem-1768388872908-4jym79qcy" id="svg-elem-1768388872908-4jym79qcy"/>
<rect fill="#1e6fc2" x="-29.99" y="-6.00" transform="translate(287.82,179.28) rotate(-0.1)" width="59.98" height="12.00" rx="0.41" data-svg-id="svg-elem-1768388872908-ti1jcss75" id="svg-elem-1768388872908-ti1jcss75"/>
<rect fill="#1e6fc2" x="389.66" y="173.29" width="59.42" height="12.00" rx="0.40" data-svg-id="svg-elem-1768388872908-vd3ucds6e" id="svg-elem-1768388872908-vd3ucds6e"/>
<path fill="#0368d8" d="   M 97.77 249.90   A 0.20 0.20 0.0 0 1 97.97 250.10   L 97.97 258.26   A 0.31 0.31 0.0 0 1 97.66 258.57   Q 82.80 258.59 63.00 258.58   C 47.79 258.57 34.08 255.54 31.01 238.52   Q 29.78 231.69 30.36 223.64   C 31.36 209.77 38.09 199.31 53.44 199.68   Q 64.36 199.95 67.80 199.80   Q 74.73 199.49 77.60 200.79   C 86.44 204.81 90.54 210.98 91.39 220.59   C 92.35 231.42 93.33 243.74 82.25 249.46   A 0.23 0.23 0.0 0 0 82.36 249.90   L 97.77 249.90   Z   M 77.6090 222.5047   A 15.28 15.28 0.0 0 0 62.2227 207.3317   L 59.7027 207.3493   A 15.28 15.28 0.0 0 0 44.5298 222.7356   L 44.6110 234.3753   A 15.28 15.28 0.0 0 0 59.9973 249.5483   L 62.5173 249.5307   A 15.28 15.28 0.0 0 0 77.6902 234.1444   L 77.6090 222.5047   Z" data-svg-id="svg-elem-1768388872908-3tbt1je1i" id="svg-elem-1768388872908-3tbt1je1i"/>
<rect fill="#ffffff" x="-16.54" y="-21.10" transform="translate(61.11,228.44) rotate(-0.4)" width="33.08" height="42.20" rx="15.28" data-svg-id="svg-elem-1768388872908-pxfwjgr8q" id="svg-elem-1768388872908-pxfwjgr8q"/>
<path fill="#0368d8" d="   M 290.49 248.93   A 0.77 0.77 0.0 0 1 291.61 249.61   L 291.61 256.87   A 1.36 1.35 85.2 0 1 290.48 258.21   C 284.45 259.22 278.21 259.43 273.13 256.34   A 4.98 4.94 -1.1 0 1 271.58 254.86   Q 269.46 251.74 269.40 248.24   Q 269.08 230.73 269.43 225.54   A 0.90 0.89 2.1 0 0 268.53 224.58   L 260.95 224.58   A 0.20 0.20 0.0 0 1 260.75 224.38   L 260.75 216.83   A 0.22 0.22 0.0 0 1 260.97 216.61   L 268.42 216.61   A 0.77 0.76 -90.0 0 0 269.18 215.84   L 269.18 208.65   A 0.70 0.70 0.0 0 1 269.88 207.95   L 280.28 207.95   A 0.63 0.63 0.0 0 1 280.91 208.58   L 280.91 215.87   A 0.78 0.78 0.0 0 0 281.69 216.65   L 291.35 216.65   A 0.21 0.21 0.0 0 1 291.56 216.86   L 291.56 224.35   A 0.29 0.29 0.0 0 1 291.27 224.64   L 281.11 224.64   A 0.23 0.23 0.0 0 0 280.88 224.87   L 280.88 245.42   A 3.81 3.81 0.0 0 0 282.84 248.75   Q 286.66 250.88 290.49 248.93   Z" data-svg-id="svg-elem-1768388872908-0jxkvj5vr" id="svg-elem-1768388872908-0jxkvj5vr"/>
<path fill="#0368d8" d="   M 160.60 226.76   A 0.11 0.10 79.0 0 1 160.46 226.66   L 160.46 217.79   A 0.29 0.28 -4.8 0 1 160.70 217.51   Q 171.59 215.84 180.72 215.73   Q 188.77 215.64 196.22 219.34   A 3.31 3.30 83.1 0 1 197.30 220.19   Q 200.47 223.94 200.46 227.29   Q 200.44 241.55 200.47 255.55   A 1.30 1.28 84.6 0 1 199.43 256.82   Q 184.35 259.74 169.16 258.20   Q 167.69 258.05 163.84 256.38   C 158.77 254.19 156.21 249.95 156.53 244.37   C 157.07 234.72 166.05 232.35 174.01 232.26   Q 180.93 232.19 187.70 232.20   A 1.07 1.05 86.0 0 0 188.75 230.98   C 187.49 222.33 181.84 222.72 174.61 223.45   Q 167.61 224.16 160.60 226.76   Z   M 188.41 249.90   L 188.29 240.68   A 0.83 0.83 0.0 0 0 187.45 239.86   L 175.81 240.01   A 8.23 5.11 -0.7 0 0 167.65 245.22   L 167.65 245.88   A 8.23 5.11 -0.7 0 0 175.95 250.89   L 187.59 250.74   A 0.83 0.83 0.0 0 0 188.41 249.90   Z" data-svg-id="svg-elem-1768388872908-sta2ga7eo" id="svg-elem-1768388872908-sta2ga7eo"/>
<path fill="#0368d8" d="   M 223.00 258.27   L 211.29 258.27   A 0.23 0.23 0.0 0 1 211.06 258.04   L 211.06 218.46   A 0.40 0.39 84.8 0 1 211.38 218.07   Q 221.22 216.25 232.00 215.87   C 237.81 215.66 244.55 216.21 249.63 219.22   C 253.84 221.71 254.67 225.71 254.66 230.52   Q 254.65 245.10 254.64 257.71   A 0.61 0.60 90.0 0 1 254.04 258.32   L 242.37 258.32   A 0.34 0.34 0.0 0 1 242.03 257.97   Q 242.27 246.08 242.20 235.00   Q 242.18 230.65 241.54 227.73   C 240.23 221.69 228.11 223.66 224.06 224.66   A 0.82 0.82 0.0 0 0 223.43 225.46   L 223.43 257.84   A 0.43 0.43 0.0 0 1 223.00 258.27   Z" data-svg-id="svg-elem-1768388872908-pnk7s6puk" id="svg-elem-1768388872908-pnk7s6puk"/>
<path fill="#0368d8" d="   M 384.14 257.63   Q 384.08 247.37 384.05 231.27   Q 384.04 225.19 378.22 223.81   C 374.19 222.85 371.50 223.79 366.64 224.77   A 0.66 0.65 -6.0 0 0 366.12 225.41   L 366.12 257.64   A 0.71 0.71 0.0 0 1 365.41 258.35   L 354.70 258.35   A 0.67 0.67 0.0 0 1 354.03 257.68   L 354.03 219.01   A 0.35 0.35 0.0 0 1 354.31 218.67   Q 365.42 216.20 375.72 215.78   Q 383.15 215.47 388.97 218.73   A 2.81 2.80 48.5 0 0 391.38 218.88   C 402.56 214.40 425.99 212.14 426.03 230.53   Q 426.04 233.71 426.20 257.95   A 0.46 0.45 -90.0 0 1 425.75 258.41   L 414.54 258.41   A 0.59 0.59 0.0 0 1 413.95 257.82   Q 413.89 241.83 414.00 230.74   Q 414.05 225.27 408.64 223.86   C 404.75 222.84 401.79 223.94 397.50 225.23   A 1.59 1.59 0.0 0 0 396.37 226.75   L 396.37 257.75   A 0.62 0.62 0.0 0 1 395.75 258.37   L 384.88 258.37   A 0.75 0.74 89.6 0 1 384.14 257.63   Z" data-svg-id="svg-elem-1768388872908-k7qechbpj" id="svg-elem-1768388872908-k7qechbpj"/>
<path fill="#0368d8" d="   M 135.75 216.57   L 147.42 216.54   A 0.23 0.23 0.0 0 1 147.65 216.77   L 147.74 256.21   A 0.40 0.39 84.6 0 1 147.42 256.60   Q 137.62 258.44 126.88 258.84   C 121.09 259.07 114.37 258.53 109.30 255.55   C 105.10 253.07 104.26 249.09 104.26 244.30   Q 104.24 229.77 104.22 217.20   A 0.61 0.60 89.9 0 1 104.81 216.59   L 116.44 216.56   A 0.34 0.34 0.0 0 1 116.78 216.91   Q 116.57 228.76 116.67 239.80   Q 116.70 244.14 117.34 247.05   C 118.66 253.06 130.73 251.07 134.77 250.07   A 0.82 0.82 0.0 0 0 135.39 249.27   L 135.32 217.00   A 0.43 0.43 0.0 0 1 135.75 216.57   Z" data-svg-id="svg-elem-1768388872908-13d3tpd3x" id="svg-elem-1768388872908-13d3tpd3x"/>
<path fill="#0368d8" d="   M 331.72 216.52   L 343.42 216.49   A 0.23 0.23 0.0 0 1 343.65 216.72   L 343.77 256.26   A 0.40 0.39 84.6 0 1 343.45 256.65   Q 333.62 258.50 322.85 258.91   C 317.05 259.14 310.31 258.61 305.23 255.61   C 301.02 253.14 300.18 249.14 300.17 244.34   Q 300.14 229.77 300.12 217.17   A 0.61 0.60 89.8 0 1 300.71 216.56   L 312.37 216.53   A 0.34 0.34 0.0 0 1 312.71 216.88   Q 312.51 228.76 312.61 239.83   Q 312.64 244.17 313.29 247.09   C 314.61 253.12 326.72 251.12 330.76 250.11   A 0.82 0.82 0.0 0 0 331.39 249.30   L 331.30 216.95   A 0.43 0.43 0.0 0 1 331.72 216.52   Z" data-svg-id="svg-elem-1768388872908-gvp7kzet1" id="svg-elem-1768388872908-gvp7kzet1"/>
<path fill="#ffffff" d="   M 188.41 249.90   A 0.83 0.83 0.0 0 1 187.59 250.74   L 175.95 250.89   A 8.23 5.11 -0.7 0 1 167.65 245.88   L 167.65 245.22   A 8.23 5.11 -0.7 0 1 175.81 240.01   L 187.45 239.86   A 0.83 0.83 0.0 0 1 188.29 240.68   L 188.41 249.90   Z" data-svg-id="svg-elem-1768388872908-zqhzofbqh" id="svg-elem-1768388872908-zqhzofbqh"/>
</svg>