<svg xmlns="http://www.w3.org/2000/svg" version="1.1" viewBox="-20 -20 715 299">
<g stroke-width="2.00" fill="none" stroke-linecap="butt" data-svg-id="svg-elem-1768388576864-a5thoctjm" id="svg-elem-1768388576864-a5thoctjm">
<path stroke="#c3c3c4" vector-effect="non-scaling-stroke" d="   M 30.54 78.92   Q 29.65 79.28 29.59 79.84   Q 29.39 81.59 29.41 85.75   Q 29.71 135.16 29.38 180.83   Q 29.36 183.78 29.85 185.81   A 1.60 1.56 8.5 0 0 30.60 186.80   L 122.10 239.67" data-svg-id="svg-elem-1768388576864-m98y9qgt6" id="svg-elem-1768388576864-m98y9qgt6"/>
<path stroke="#d7d7d7" vector-effect="non-scaling-stroke" d="   M 122.10 239.67   Q 122.88 239.86 123.50 239.50   Q 147.02 225.88 170.55 212.15" data-svg-id="svg-elem-1768388576864-vl93pfdhd" id="svg-elem-1768388576864-vl93pfdhd"/>
<path stroke="#c3c3c4" vector-effect="non-scaling-stroke" d="   M 170.55 212.15   Q 185.12 220.27 192.90 224.82   Q 193.86 225.39 194.83 224.49" data-svg-id="svg-elem-1768388576864-gex87sa8c" id="svg-elem-1768388576864-gex87sa8c"/>
<path stroke="#d7d7d7" vector-effect="non-scaling-stroke" d="   M 194.83 224.49   L 214.78 212.97   A 2.65 2.64 -15.2 0 0 216.11 210.66   Q 215.99 145.25 216.04 81.00   Q 216.04 80.47 215.90 80.02   Q 215.64 79.19 215.45 79.18" data-svg-id="svg-elem-1768388576864-whhx0s8zd" id="svg-elem-1768388576864-whhx0s8zd"/>
<path stroke="#e7e7e7" vector-effect="non-scaling-stroke" d="   M 215.45 79.18   Q 212.97 77.18 208.91 74.83   Q 165.76 49.88 123.63 25.48   A 1.78 1.78 0.0 0 0 121.87 25.48   C 78.00 50.87 49.62 67.06 31.25 78.01   Q 30.63 78.39 30.54 78.92" data-svg-id="svg-elem-1768388576864-7oorv4miw" id="svg-elem-1768388576864-7oorv4miw"/>
<path stroke="#bebebf" vector-effect="non-scaling-stroke" d="   M 215.45 79.18   L 193.58 92.38" data-svg-id="svg-elem-1768388576864-0h3hxfjrt" id="svg-elem-1768388576864-0h3hxfjrt"/>
<path stroke="#d4907a" vector-effect="non-scaling-stroke" d="   M 193.58 92.38   Q 191.96 90.97 189.62 89.63   Q 156.66 70.71 123.44 51.52" data-svg-id="svg-elem-1768388576864-n9471vflc" id="svg-elem-1768388576864-n9471vflc"/>
<path stroke="#dca57e" vector-effect="non-scaling-stroke" d="   M 123.44 51.52   Q 122.47 51.28 121.58 51.79   Q 94.87 67.02 51.79 92.18" data-svg-id="svg-elem-1768388576864-2cuvqzhxd" id="svg-elem-1768388576864-2cuvqzhxd"/>
<path stroke="#ababac" vector-effect="non-scaling-stroke" d="   M 51.79 92.18   L 32.18 80.67   A 2.65 2.54 83.8 0 1 31.48 80.08   L 30.54 78.92" data-svg-id="svg-elem-1768388576864-db632k8la" id="svg-elem-1768388576864-db632k8la"/>
<path stroke="#be9255" vector-effect="non-scaling-stroke" d="   M 51.81 170.77   Q 51.51 173.08 52.57 173.68   Q 87.01 193.36 122.18 213.88" data-svg-id="svg-elem-1768388576864-ra6xfstz4" id="svg-elem-1768388576864-ra6xfstz4"/>
<path stroke="#9b9b9c" vector-effect="non-scaling-stroke" d="   M 122.18 213.88   L 122.10 239.67" data-svg-id="svg-elem-1768388576864-lshh6ljvv" id="svg-elem-1768388576864-lshh6ljvv"/>
<path stroke="#c4806a" vector-effect="non-scaling-stroke" d="   M 193.58 92.38   Q 193.62 129.76 193.69 166.25   Q 193.70 169.94 193.25 172.48" data-svg-id="svg-elem-1768388576864-ymht2nycg" id="svg-elem-1768388576864-ymht2nycg"/>
<path stroke="#e77823" vector-effect="non-scaling-stroke" d="   M 193.25 172.48   L 170.71 160.19" data-svg-id="svg-elem-1768388576864-xmhtwvznq" id="svg-elem-1768388576864-xmhtwvznq"/>
<path stroke="#eda992" vector-effect="non-scaling-stroke" d="   M 170.71 160.19   L 170.76 106.24   A 2.48 2.46 -75.1 0 0 169.53 104.10   L 122.85 77.11" data-svg-id="svg-elem-1768388576864-nu3ohrd0h" id="svg-elem-1768388576864-nu3ohrd0h"/>
<path stroke="#9b9b9c" vector-effect="non-scaling-stroke" d="   M 194.83 224.49   Q 193.53 223.08 193.57 221.23   Q 193.88 209.02 193.43 199.28   Q 193.42 199.09 193.50 198.99   Q 193.59 198.89 193.74 198.83" data-svg-id="svg-elem-1768388576864-826myz2q5" id="svg-elem-1768388576864-826myz2q5"/>
<path stroke="#d1a669" vector-effect="non-scaling-stroke" d="   M 193.74 198.83   L 214.03 187.07   A 0.83 0.83 0.0 0 0 214.25 185.81   Q 213.34 184.75 212.19 184.08   Q 202.47 178.45 193.25 172.48" data-svg-id="svg-elem-1768388576864-ne65qd4di" id="svg-elem-1768388576864-ne65qd4di"/>
<path stroke="#e26729" vector-effect="non-scaling-stroke" d="   M 123.44 51.52   Q 123.13 52.50 123.40 56.30   Q 123.98 64.18 122.85 77.11" data-svg-id="svg-elem-1768388576864-fbx4n09o7" id="svg-elem-1768388576864-fbx4n09o7"/>
<path stroke="#f4bd96" vector-effect="non-scaling-stroke" d="   M 122.85 77.11   L 76.05 104.01   A 2.62 2.60 75.1 0 0 74.75 106.27   L 74.80 160.23" data-svg-id="svg-elem-1768388576864-aijaz5662" id="svg-elem-1768388576864-aijaz5662"/>
<path stroke="#ef8c28" vector-effect="non-scaling-stroke" d="   M 74.80 160.23   Q 64.60 164.78 53.75 171.58   Q 52.78 172.19 51.81 170.77" data-svg-id="svg-elem-1768388576864-irpe6zwry" id="svg-elem-1768388576864-irpe6zwry"/>
<path stroke="#b8815b" vector-effect="non-scaling-stroke" d="   M 51.81 170.77   L 51.79 92.18" data-svg-id="svg-elem-1768388576864-26kl5x9vw" id="svg-elem-1768388576864-26kl5x9vw"/>
<path stroke="#9b9b9c" vector-effect="non-scaling-stroke" d="   M 171.81 186.92   Q 171.16 187.04 170.82 187.42   A 0.63 0.63 0.0 0 0 170.66 187.84   L 170.55 212.15" data-svg-id="svg-elem-1768388576864-1f6rit7ew" id="svg-elem-1768388576864-1f6rit7ew"/>
<path stroke="#be9255" vector-effect="non-scaling-stroke" d="   M 193.74 198.83   L 171.81 186.92" data-svg-id="svg-elem-1768388576864-b7vbj724h" id="svg-elem-1768388576864-b7vbj724h"/>
<path stroke="#d1a669" vector-effect="non-scaling-stroke" d="   M 171.81 186.92   Q 170.79 185.81 169.55 186.55   Q 145.76 200.69 122.18 213.88" data-svg-id="svg-elem-1768388576864-s1c09d8fq" id="svg-elem-1768388576864-s1c09d8fq"/>
<path stroke="#face91" vector-effect="non-scaling-stroke" d="   M 170.71 160.19   L 123.98 187.17   A 2.61 2.58 44.9 0 1 121.39 187.16   L 74.80 160.23" data-svg-id="svg-elem-1768388576864-dt0bp7s6p" id="svg-elem-1768388576864-dt0bp7s6p"/>
<path stroke="#c3c3c4" vector-effect="non-scaling-stroke" d="   M 417.22 130.98   A 54.95 54.95 0.0 0 0 362.27 76.03   A 54.95 54.95 0.0 0 0 307.32 130.98   A 54.95 54.95 0.0 0 0 362.27 185.93   A 54.95 54.95 0.0 0 0 417.22 130.98" data-svg-id="svg-elem-1768388576864-wrpqij4yv" id="svg-elem-1768388576864-wrpqij4yv"/>
<path stroke="#c3c3c4" vector-effect="non-scaling-stroke" d="   M 634.57 166.47   C 636.00 163.84 638.85 160.40 640.35 157.11   C 652.32 130.84 645.65 99.62 620.15 84.15   Q 608.01 76.79 593.97 76.37   Q 590.89 76.28 588.82 76.71   C 584.49 77.60 580.46 77.40 576.11 78.81   Q 567.23 81.69 561.69 85.16   C 547.46 94.10 538.19 109.14 536.70 126.02   C 534.82 147.39 542.66 166.36 560.88 178.05   C 578.04 189.07 599.51 189.18 617.55 180.48   A 1.54 1.53 55.4 0 1 619.35 180.82   L 631.14 193.54   A 0.89 0.88 48.6 0 0 632.35 193.62   L 646.48 181.71   A 0.97 0.97 0.0 0 0 646.57 180.31   L 634.70 167.52   A 0.91 0.91 0.0 0 1 634.57 166.47" data-svg-id="svg-elem-1768388576864-fatkoe97t" id="svg-elem-1768388576864-fatkoe97t"/>
<path stroke="#c3c3c4" vector-effect="non-scaling-stroke" d="   M 293.28 79.12   A 0.78 0.78 0.0 0 0 292.50 78.34   L 270.40 78.34   A 0.78 0.78 0.0 0 0 269.62 79.12   L 269.62 182.96   A 0.78 0.78 0.0 0 0 270.40 183.74   L 292.50 183.74   A 0.78 0.78 0.0 0 0 293.28 182.96   L 293.28 79.12" data-svg-id="svg-elem-1768388576864-7t980rgu5" id="svg-elem-1768388576864-7t980rgu5"/>
<path stroke="#c3c3c4" vector-effect="non-scaling-stroke" d="   M 454.32 115.67   A 0.42 0.42 0.0 0 1 455.09 115.45   L 497.57 183.15   A 2.51 2.50 73.8 0 0 499.69 184.32   L 521.97 184.32   A 0.83 0.82 0.0 0 0 522.80 183.50   L 522.80 79.72   A 0.74 0.73 0.0 0 0 522.06 78.99   L 499.95 78.99   A 0.68 0.68 0.0 0 0 499.27 79.67   L 499.27 141.69   A 0.35 0.35 0.0 0 1 498.62 141.88   Q 489.92 127.88 462.34 83.20   C 460.12 79.60 459.94 78.15 455.77 78.19   Q 453.83 78.21 431.33 78.32   A 0.64 0.64 0.0 0 0 430.69 78.96   L 430.69 183.23   A 0.52 0.51 0.0 0 0 431.21 183.74   L 453.61 183.74   A 0.71 0.71 0.0 0 0 454.32 183.03   L 454.32 115.67" data-svg-id="svg-elem-1768388576864-nwga4tgd0" id="svg-elem-1768388576864-nwga4tgd0"/>
<path stroke="#c3c3c4" vector-effect="non-scaling-stroke" d="   M 362.8546 99.1171   A 32.21 30.96 -88.8 0 0 331.2268 130.6716   A 32.21 30.96 -88.8 0 0 361.5054 163.5229   A 32.21 30.96 -88.8 0 0 393.1332 131.9684   A 32.21 30.96 -88.8 0 0 362.8546 99.1171" data-svg-id="svg-elem-1768388576864-y785mxafc" id="svg-elem-1768388576864-y785mxafc"/>
<path stroke="#c3c3c4" vector-effect="non-scaling-stroke" d="   M 617.97 147.37   C 624.79 131.57 621.14 112.35 605.42 103.55   C 598.63 99.74 589.52 99.05 582.42 100.93   Q 568.25 104.69 562.22 118.41   C 559.96 123.56 560.13 129.53 560.16 135.02   C 560.21 149.12 570.83 160.93 584.42 163.46   A 8.69 8.58 47.0 0 0 586.83 163.56   C 591.57 163.08 596.34 163.38 600.96 161.65   A 0.62 0.62 0.0 0 0 601.19 160.64   L 587.00 145.33   A 0.99 0.99 0.0 0 1 587.09 143.90   L 601.26 131.96   A 0.75 0.74 -41.0 0 1 602.29 132.03   L 616.72 147.59   A 0.76 0.76 0.0 0 0 617.97 147.37" data-svg-id="svg-elem-1768388576864-52fq254yf" id="svg-elem-1768388576864-52fq254yf"/>
</g>
<path fill="#ffffff" d="   M 675.00 0.00   L 675.00 259.00   L 0.00 259.00   L 0.00 0.00   L 675.00 0.00   Z   M 30.54 78.92   Q 29.65 79.28 29.59 79.84   Q 29.39 81.59 29.41 85.75   Q 29.71 135.16 29.38 180.83   Q 29.36 183.78 29.85 185.81   A 1.60 1.56 8.5 0 0 30.60 186.80   L 122.10 239.67   Q 122.88 239.86 123.50 239.50   Q 147.02 225.88 170.55 212.15   Q 185.12 220.27 192.90 224.82   Q 193.86 225.39 194.83 224.49   L 214.78 212.97   A 2.65 2.64 -15.2 0 0 216.11 210.66   Q 215.99 145.25 216.04 81.00   Q 216.04 80.47 215.90 80.02   Q 215.64 79.19 215.45 79.18   Q 212.97 77.18 208.91 74.83   Q 165.76 49.88 123.63 25.48   A 1.78 1.78 0.0 0 0 121.87 25.48   C 78.00 50.87 49.62 67.06 31.25 78.01   Q 30.63 78.39 30.54 78.92   Z   M 417.22 130.98   A 54.95 54.95 0.0 0 0 362.27 76.03   A 54.95 54.95 0.0 0 0 307.32 130.98   A 54.95 54.95 0.0 0 0 362.27 185.93   A 54.95 54.95 0.0 0 0 417.22 130.98   Z   M 634.57 166.47   C 636.00 163.84 638.85 160.40 640.35 157.11   C 652.32 130.84 645.65 99.62 620.15 84.15   Q 608.01 76.79 593.97 76.37   Q 590.89 76.28 588.82 76.71   C 584.49 77.60 580.46 77.40 576.11 78.81   Q 567.23 81.69 561.69 85.16   C 547.46 94.10 538.19 109.14 536.70 126.02   C 534.82 147.39 542.66 166.36 560.88 178.05   C 578.04 189.07 599.51 189.18 617.55 180.48   A 1.54 1.53 55.4 0 1 619.35 180.82   L 631.14 193.54   A 0.89 0.88 48.6 0 0 632.35 193.62   L 646.48 181.71   A 0.97 0.97 0.0 0 0 646.57 180.31   L 634.70 167.52   A 0.91 0.91 0.0 0 1 634.57 166.47   Z   M 293.28 79.12   A 0.78 0.78 0.0 0 0 292.50 78.34   L 270.40 78.34   A 0.78 0.78 0.0 0 0 269.62 79.12   L 269.62 182.96   A 0.78 0.78 0.0 0 0 270.40 183.74   L 292.50 183.74   A 0.78 0.78 0.0 0 0 293.28 182.96   L 293.28 79.12   Z   M 454.32 115.67   A 0.42 0.42 0.0 0 1 455.09 115.45   L 497.57 183.15   A 2.51 2.50 73.8 0 0 499.69 184.32   L 521.97 184.32   A 0.83 0.82 0.0 0 0 522.80 183.50   L 522.80 79.72   A 0.74 0.73 0.0 0 0 522.06 78.99   L 499.95 78.99   A 0.68 0.68 0.0 0 0 499.27 79.67   L 499.27 141.69   A 0.35 0.35 0.0 0 1 498.62 141.88   Q 489.92 127.88 462.34 83.20   C 460.12 79.60 459.94 78.15 455.77 78.19   Q 453.83 78.21 431.33 78.32   A 0.64 0.64 0.0 0 0 430.69 78.96   L 430.69 183.23   A 0.52 0.51 0.0 0 0 431.21 183.74   L 453.61 183.74   A 0.71 0.71 0.0 0 0 454.32 183.03   L 454.32 115.67   Z" data-svg-id="svg-elem-1768388576864-w13rqwglm" id="svg-elem-1768388576864-w13rqwglm"/>
<path fill="#cececf" d="   M 215.45 79.18   L 193.58 92.38   Q 191.96 90.97 189.62 89.63   Q 156.66 70.71 123.44 51.52   Q 122.47 51.28 121.58 51.79   Q 94.87 67.02 51.79 92.18   L 32.18 80.67   A 2.65 2.54 83.8 0 1 31.48 80.08   L 30.54 78.92   Q 30.63 78.39 31.25 78.01   C 49.62 67.06 78.00 50.87 121.87 25.48   A 1.78 1.78 0.0 0 1 123.63 25.48   Q 165.76 49.88 208.91 74.83   Q 212.97 77.18 215.45 79.18   Z" data-svg-id="svg-elem-1768388576864-v77tmmddq" id="svg-elem-1768388576864-v77tmmddq"/>
<path fill="#e97b2d" d="   M 123.44 51.52   Q 123.13 52.50 123.40 56.30   Q 123.98 64.18 122.85 77.11   L 76.05 104.01   A 2.62 2.60 75.1 0 0 74.75 106.27   L 74.80 160.23   Q 64.60 164.78 53.75 171.58   Q 52.78 172.19 51.81 170.77   L 51.79 92.18   Q 94.87 67.02 121.58 51.79   Q 122.47 51.28 123.44 51.52   Z" data-svg-id="svg-elem-1768388576864-buj2az8oz" id="svg-elem-1768388576864-buj2az8oz"/>
<path fill="#da5224" d="   M 123.44 51.52   Q 156.66 70.71 189.62 89.63   Q 191.96 90.97 193.58 92.38   Q 193.62 129.76 193.69 166.25   Q 193.70 169.94 193.25 172.48   L 170.71 160.19   L 170.76 106.24   A 2.48 2.46 -75.1 0 0 169.53 104.10   L 122.85 77.11   Q 123.98 64.18 123.40 56.30   Q 123.13 52.50 123.44 51.52   Z" data-svg-id="svg-elem-1768388576864-nzcimyxe7" id="svg-elem-1768388576864-nzcimyxe7"/>
<path fill="#878788" d="   M 417.22 130.98   A 54.95 54.95 0.0 0 1 362.27 185.93   A 54.95 54.95 0.0 0 1 307.32 130.98   A 54.95 54.95 0.0 0 1 362.27 76.03   A 54.95 54.95 0.0 0 1 417.22 130.98   Z   M 362.8546 99.1171   A 32.21 30.96 -88.8 0 0 331.2268 130.6716   A 32.21 30.96 -88.8 0 0 361.5054 163.5229   A 32.21 30.96 -88.8 0 0 393.1332 131.9684   A 32.21 30.96 -88.8 0 0 362.8546 99.1171   Z" data-svg-id="svg-elem-1768388576864-0m5j1r0z2" id="svg-elem-1768388576864-0m5j1r0z2"/>
<path fill="#878788" d="   M 634.57 166.47   A 0.91 0.91 0.0 0 0 634.70 167.52   L 646.57 180.31   A 0.97 0.97 0.0 0 1 646.48 181.71   L 632.35 193.62   A 0.89 0.88 48.6 0 1 631.14 193.54   L 619.35 180.82   A 1.54 1.53 55.4 0 0 617.55 180.48   C 599.51 189.18 578.04 189.07 560.88 178.05   C 542.66 166.36 534.82 147.39 536.70 126.02   C 538.19 109.14 547.46 94.10 561.69 85.16   Q 567.23 81.69 576.11 78.81   C 580.46 77.40 584.49 77.60 588.82 76.71   Q 590.89 76.28 593.97 76.37   Q 608.01 76.79 620.15 84.15   C 645.65 99.62 652.32 130.84 640.35 157.11   C 638.85 160.40 636.00 163.84 634.57 166.47   Z   M 617.97 147.37   C 624.79 131.57 621.14 112.35 605.42 103.55   C 598.63 99.74 589.52 99.05 582.42 100.93   Q 568.25 104.69 562.22 118.41   C 559.96 123.56 560.13 129.53 560.16 135.02   C 560.21 149.12 570.83 160.93 584.42 163.46   A 8.69 8.58 47.0 0 0 586.83 163.56   C 591.57 163.08 596.34 163.38 600.96 161.65   A 0.62 0.62 0.0 0 0 601.19 160.64   L 587.00 145.33   A 0.99 0.99 0.0 0 1 587.09 143.90   L 601.26 131.96   A 0.75 0.74 -41.0 0 1 602.29 132.03   L 616.72 147.59   A 0.76 0.76 0.0 0 0 617.97 147.37   Z" data-svg-id="svg-elem-1768388576864-2mixhocop" id="svg-elem-1768388576864-2mixhocop"/>
<path fill="#ffffff" d="   M 122.85 77.11   L 169.53 104.10   A 2.48 2.46 -75.1 0 1 170.76 106.24   L 170.71 160.19   L 123.98 187.17   A 2.61 2.58 44.9 0 1 121.39 187.16   L 74.80 160.23   L 74.75 106.27   A 2.62 2.60 75.1 0 1 76.05 104.01   L 122.85 77.11   Z" data-svg-id="svg-elem-1768388576864-e31dlr8tu" id="svg-elem-1768388576864-e31dlr8tu"/>
<rect fill="#878788" x="269.62" y="78.34" width="23.66" height="105.40" rx="0.78" data-svg-id="svg-elem-1768388576864-hepnjsvsy" id="svg-elem-1768388576864-hepnjsvsy"/>
<path fill="#878788" d="   M 454.32 115.67   L 454.32 183.03   A 0.71 0.71 0.0 0 1 453.61 183.74   L 431.21 183.74   A 0.52 0.51 0.0 0 1 430.69 183.23   L 430.69 78.96   A 0.64 0.64 0.0 0 1 431.33 78.32   Q 453.83 78.21 455.77 78.19   C 459.94 78.15 460.12 79.60 462.34 83.20   Q 489.92 127.88 498.62 141.88   A 0.35 0.35 0.0 0 0 499.27 141.69   L 499.27 79.67   A 0.68 0.68 0.0 0 1 499.95 78.99   L 522.06 78.99   A 0.74 0.73 0.0 0 1 522.80 79.72   L 522.80 183.50   A 0.83 0.82 0.0 0 1 521.97 184.32   L 499.69 184.32   A 2.51 2.50 73.8 0 1 497.57 183.15   L 455.09 115.45   A 0.42 0.42 0.0 0 0 454.32 115.67   Z" data-svg-id="svg-elem-1768388576864-du6ncxtj0" id="svg-elem-1768388576864-du6ncxtj0"/>
<path fill="#878788" d="   M 30.54 78.92   L 31.48 80.08   A 2.65 2.54 83.8 0 0 32.18 80.67   L 51.79 92.18   L 51.81 170.77   Q 51.51 173.08 52.57 173.68   Q 87.01 193.36 122.18 213.88   L 122.10 239.67   L 30.60 186.80   A 1.60 1.56 8.5 0 1 29.85 185.81   Q 29.36 183.78 29.38 180.83   Q 29.71 135.16 29.41 85.75   Q 29.39 81.59 29.59 79.84   Q 29.65 79.28 30.54 78.92   Z" data-svg-id="svg-elem-1768388576864-b2vjcuqoi" id="svg-elem-1768388576864-b2vjcuqoi"/>
<path fill="#aeaeaf" d="   M 215.45 79.18   Q 215.64 79.19 215.90 80.02   Q 216.04 80.47 216.04 81.00   Q 215.99 145.25 216.11 210.66   A 2.65 2.64 -15.2 0 1 214.78 212.97   L 194.83 224.49   Q 193.53 223.08 193.57 221.23   Q 193.88 209.02 193.43 199.28   Q 193.42 199.09 193.50 198.99   Q 193.59 198.89 193.74 198.83   L 214.03 187.07   A 0.83 0.83 0.0 0 0 214.25 185.81   Q 213.34 184.75 212.19 184.08   Q 202.47 178.45 193.25 172.48   Q 193.70 169.94 193.69 166.25   Q 193.62 129.76 193.58 92.38   L 215.45 79.18   Z" data-svg-id="svg-elem-1768388576864-6j0y8shtp" id="svg-elem-1768388576864-6j0y8shtp"/>
<ellipse fill="#ffffff" cx="0.00" cy="0.00" transform="translate(362.18,131.32) rotate(-88.8)" rx="32.21" ry="30.96" data-svg-id="svg-elem-1768388576864-77uq0cxli" id="svg-elem-1768388576864-77uq0cxli"/>
<path fill="#ffffff" d="   M 617.97 147.37   A 0.76 0.76 0.0 0 1 616.72 147.59   L 602.29 132.03   A 0.75 0.74 -41.0 0 0 601.26 131.96   L 587.09 143.90   A 0.99 0.99 0.0 0 0 587.00 145.33   L 601.19 160.64   A 0.62 0.62 0.0 0 1 600.96 161.65   C 596.34 163.38 591.57 163.08 586.83 163.56   A 8.69 8.58 47.0 0 1 584.42 163.46   C 570.83 160.93 560.21 149.12 560.16 135.02   C 560.13 129.53 559.96 123.56 562.22 118.41   Q 568.25 104.69 582.42 100.93   C 589.52 99.05 598.63 99.74 605.42 103.55   C 621.14 112.35 624.79 131.57 617.97 147.37   Z" data-svg-id="svg-elem-1768388576864-i7r3xpnz4" id="svg-elem-1768388576864-i7r3xpnz4"/>
<path fill="#f49d22" d="   M 170.71 160.19   L 193.25 172.48   Q 202.47 178.45 212.19 184.08   Q 213.34 184.75 214.25 185.81   A 0.83 0.83 0.0 0 1 214.03 187.07   L 193.74 198.83   L 171.81 186.92   Q 170.79 185.81 169.55 186.55   Q 145.76 200.69 122.18 213.88   Q 87.01 193.36 52.57 173.68   Q 51.51 173.08 51.81 170.77   Q 52.78 172.19 53.75 171.58   Q 64.60 164.78 74.80 160.23   L 121.39 187.16   A 2.61 2.58 44.9 0 0 123.98 187.17   L 170.71 160.19   Z" data-svg-id="svg-elem-1768388576864-fd5buysvj" id="svg-elem-1768388576864-fd5buysvj"/>
<path fill="#aeaeaf" d="   M 171.81 186.92   Q 171.16 187.04 170.82 187.42   A 0.63 0.63 0.0 0 0 170.66 187.84   L 170.55 212.15   Q 147.02 225.88 123.50 239.50   Q 122.88 239.86 122.10 239.67   L 122.18 213.88   Q 145.76 200.69 169.55 186.55   Q 170.79 185.81 171.81 186.92   Z" data-svg-id="svg-elem-1768388576864-147osjs7d" id="svg-elem-1768388576864-147osjs7d"/>
<path fill="#878788" d="   M 171.81 186.92   L 193.74 198.83   Q 193.59 198.89 193.50 198.99   Q 193.42 199.09 193.43 199.28   Q 193.88 209.02 193.57 221.23   Q 193.53 223.08 194.83 224.49   Q 193.86 225.39 192.90 224.82   Q 185.12 220.27 170.55 212.15   L 170.66 187.84   A 0.63 0.63 0.0 0 1 170.82 187.42   Q 171.16 187.04 171.81 186.92   Z" data-svg-id="svg-elem-1768388576864-0559c8zs0" id="svg-elem-1768388576864-0559c8zs0"/>
</svg>