<svg xmlns="http://www.w3.org/2000/svg" version="1.1" viewBox="-20 -20 864 386">
<g stroke-width="2.00" fill="none" stroke-linecap="butt" data-svg-id="svg-elem-1768388991255-3khlqdlnv" id="svg-elem-1768388991255-3khlqdlnv">
<path stroke="#908ea7" vector-effect="non-scaling-stroke" d="   M 603.02 248.71   L 690.67 249.43   A 1.19 1.19 0.0 0 0 691.87 248.24   L 691.87 193.69   A 0.87 0.87 0.0 0 0 691.00 192.82   L 536.21 192.37" data-svg-id="svg-elem-1768388991255-vljw0w2ph" id="svg-elem-1768388991255-vljw0w2ph"/>
<path stroke="#81819d" vector-effect="non-scaling-stroke" d="   M 536.21 192.37   Q 528.98 191.93 521.74 191.61   Q 510.12 191.08 496.02 183.49   C 482.76 176.36 472.56 163.89 469.90 148.83   Q 468.58 141.36 468.61 138.75   Q 468.68 132.02 470.19 125.26   C 475.35 102.10 498.47 88.37 520.16 84.51   C 524.13 83.81 528.38 83.76 532.77 83.39   Q 535.94 83.12 542.24 83.11   Q 595.52 83.06 685.62 83.13   Q 688.75 83.13 690.54 82.98   A 1.01 1.01 0.0 0 0 691.45 81.85   Q 691.00 78.21 690.97 74.50   Q 690.81 50.45 691.11 27.96   A 1.09 1.08 -89.7 0 0 690.03 26.86   Q 593.11 26.87 587.50 26.85   Q 554.01 26.74 528.25 27.24   C 520.04 27.39 511.40 27.20 503.61 28.60   Q 476.32 33.50 451.72 47.20   Q 436.54 55.65 425.82 67.04   C 416.65 76.78 408.80 89.15 405.17 102.15   C 403.71 107.38 402.23 111.84 401.56 116.80   Q 399.10 135.15 401.37 153.38   C 401.95 158.10 403.46 162.58 404.44 166.93   Q 405.44 171.38 407.80 176.75   C 413.06 188.66 418.15 197.66 425.48 206.01   Q 444.43 227.58 471.35 237.59   Q 483.65 242.16 491.33 243.36   C 503.95 245.34 515.47 247.18 528.97 247.72   C 554.09 248.73 578.32 248.48 603.02 248.71" data-svg-id="svg-elem-1768388991255-77fzf3ips" id="svg-elem-1768388991255-77fzf3ips"/>
<path stroke="#121045" vector-effect="non-scaling-stroke" d="   M 536.21 192.37   L 540.25 193.49   A 0.41 0.41 0.0 0 1 540.33 194.25   Q 538.10 195.43 534.00 196.01   Q 527.64 196.92 519.74 196.68   C 515.37 196.54 510.85 194.45 506.72 193.48   C 495.01 190.74 483.49 181.32 476.17 172.14   C 470.95 165.59 466.46 158.36 465.71 150.47   Q 465.03 143.27 465.52 130.81   Q 465.77 124.44 467.56 119.77   Q 472.32 107.38 481.00 98.51   A 18.32 17.68 4.7 0 1 484.07 96.00   Q 487.06 94.05 495.83 88.82   Q 499.80 86.46 504.88 84.82   Q 523.63 78.79 546.34 78.62   Q 592.59 78.27 636.23 78.75   Q 648.72 78.88 654.36 78.80   C 665.36 78.64 674.16 78.70 684.99 77.55   A 0.66 0.66 0.0 0 0 685.58 76.97   C 685.82 75.04 686.19 72.46 686.13 70.74   Q 685.79 61.69 688.73 53.47   C 689.19 52.18 689.10 49.23 688.84 47.85   Q 687.89 42.67 687.40 35.19   C 687.14 31.20 684.46 30.42 681.30 31.65   Q 680.87 31.82 679.18 31.83   Q 627.73 31.97 563.82 31.85   Q 555.57 31.84 539.79 32.04   Q 531.61 32.15 510.12 31.64   C 505.63 31.54 501.10 32.12 496.82 33.29   C 478.42 38.29 462.54 46.13 445.08 56.16   Q 441.78 58.06 438.64 61.17   Q 432.11 67.65 428.54 71.46   C 422.09 78.36 416.57 86.49 413.08 95.37   C 408.73 106.43 405.68 115.59 405.58 127.06   Q 405.47 138.88 406.43 151.99   C 407.75 170.01 413.91 183.47 423.95 198.16   Q 429.53 206.33 439.47 214.30   Q 454.85 226.65 472.30 233.25   Q 482.96 237.29 490.49 238.34   C 498.16 239.41 507.09 242.24 516.13 242.67   Q 530.97 243.37 536.03 243.36   C 556.14 243.32 570.59 243.99 588.33 243.88   C 598.09 243.82 610.59 243.73 622.34 244.94   A 0.02 0.01 32.6 0 1 622.35 244.97   Q 622.34 244.98 622.32 245.00   A 0.32 0.18 -48.6 0 1 622.17 245.05   L 616.21 245.13   A 2.09 2.01 -57.0 0 0 615.31 245.34   Q 609.58 248.13 603.02 248.71" data-svg-id="svg-elem-1768388991255-pzcnbq5q2" id="svg-elem-1768388991255-pzcnbq5q2"/>
<path stroke="#81819d" vector-effect="non-scaling-stroke" d="   M 128.10 32.06   Q 123.61 33.17 119.07 34.37   C 92.85 41.33 71.95 58.84 57.67 81.18   Q 52.49 89.28 48.34 100.70   Q 47.07 104.21 46.55 106.59   C 45.45 111.66 43.62 116.34 42.84 121.52   Q 38.66 149.17 47.04 173.50   Q 61.13 214.37 101.25 233.27   Q 114.57 239.54 129.54 242.87   Q 151.84 247.84 174.00 248.29   Q 190.41 248.62 197.00 248.50   Q 246.78 247.61 278.91 246.28   Q 279.92 246.24 289.29 245.55   C 293.47 245.24 295.41 246.31 298.76 248.89   C 302.79 252.00 307.23 251.61 312.50 251.62   Q 345.76 251.65 379.06 251.77" data-svg-id="svg-elem-1768388991255-kgbjrfhr1" id="svg-elem-1768388991255-kgbjrfhr1"/>
<path stroke="#908ea7" vector-effect="non-scaling-stroke" d="   M 379.06 251.77   L 394.61 251.47   A 1.35 1.34 87.8 0 0 395.93 250.03   Q 395.68 246.51 392.84 244.20   Q 388.59 240.74 383.35 236.40   Q 348.27 207.38 302.86 170.39   C 297.92 166.37 291.08 166.44 285.41 166.48   Q 248.07 166.80 209.75 166.56   Q 206.84 166.54 204.27 166.89   A 1.57 1.57 0.0 0 0 202.93 168.22   C 202.65 170.18 203.31 171.29 204.95 172.64   Q 211.37 177.93 219.87 185.80   C 221.53 187.33 223.96 188.79 225.11 190.09   A 0.58 0.58 0.0 0 1 224.89 191.02   Q 224.02 191.35 223.24 191.43   C 212.93 192.46 204.99 192.15 194.25 192.43   Q 182.38 192.73 170.57 191.97" data-svg-id="svg-elem-1768388991255-bpc9356ai" id="svg-elem-1768388991255-bpc9356ai"/>
<path stroke="#81819d" vector-effect="non-scaling-stroke" d="   M 170.57 191.97   Q 159.42 191.42 156.30 190.72   C 137.05 186.38 121.12 175.88 113.60 156.97   C 110.58 149.37 110.83 142.64 110.83 134.02   C 110.83 117.27 122.26 101.69 136.23 93.52   Q 151.29 84.72 166.92 83.93   Q 207.36 81.90 252.20 83.77   C 274.70 84.70 294.31 93.94 304.53 114.74   Q 305.21 116.12 306.93 120.73   Q 308.05 123.74 309.44 126.71" data-svg-id="svg-elem-1768388991255-1yvk7aqvj" id="svg-elem-1768388991255-1yvk7aqvj"/>
<path stroke="#908ea7" vector-effect="non-scaling-stroke" d="   M 309.44 126.71   Q 310.63 133.76 312.03 140.94   Q 312.93 145.55 316.03 148.47   C 321.92 154.02 331.04 160.73 336.88 165.61   Q 345.65 172.96 365.07 188.65   A 1.58 1.58 0.0 0 0 367.54 187.99   C 368.68 185.00 369.31 181.82 370.77 178.49   Q 376.79 164.73 378.05 156.01   Q 379.77 144.14 380.02 142.25   C 381.42 131.54 379.69 121.67 377.59 110.92   Q 376.18 103.75 372.52 95.22   Q 360.03 66.09 333.14 49.11   Q 310.77 35.00 285.35 31.74   Q 260.05 28.49 245.52 27.95   Q 209.96 26.61 175.08 28.70   Q 153.43 29.99 151.58 30.12   Q 139.86 30.90 128.10 32.06" data-svg-id="svg-elem-1768388991255-pttlksk0e" id="svg-elem-1768388991255-pttlksk0e"/>
<path stroke="#121045" vector-effect="non-scaling-stroke" d="   M 309.44 126.71   Q 309.39 115.56 301.91 104.96   Q 301.89 104.93 301.92 104.89   Q 301.95 104.83 301.96 104.81   A 0.12 0.09 39.3 0 1 302.15 104.82   L 307.38 112.12   A 0.03 0.02 -52.0 0 0 307.42 112.11   Q 307.45 111.99 307.47 111.87   A 0.25 0.04 60.2 0 0 307.40 111.68   C 299.41 97.01 287.42 87.00 270.72 83.27   Q 255.98 79.99 251.73 79.32   Q 241.82 77.76 228.12 77.88   Q 191.27 78.18 181.33 78.49   Q 170.59 78.83 166.48 79.80   Q 153.40 82.92 148.22 83.74   C 141.35 84.83 135.21 88.88 128.86 92.95   Q 124.76 95.57 121.55 99.05   Q 116.12 104.92 115.33 106.32   Q 113.41 109.73 109.96 117.52   Q 106.58 125.14 106.11 129.29   C 104.97 139.30 105.32 149.03 110.13 158.16   C 113.33 164.23 116.74 170.78 120.96 175.17   Q 125.06 179.44 130.28 182.80   C 134.81 185.71 140.65 189.07 145.14 190.44   Q 150.27 192.01 161.32 194.07   C 166.72 195.08 172.82 196.75 177.86 194.08   A 0.38 0.38 0.0 0 0 177.64 193.37   Q 173.96 193.78 170.57 191.97" data-svg-id="svg-elem-1768388991255-npkizm2ke" id="svg-elem-1768388991255-npkizm2ke"/>
<path stroke="#121045" vector-effect="non-scaling-stroke" d="   M 379.06 251.77   C 377.05 247.00 362.03 247.33 357.75 247.36   Q 336.74 247.50 318.52 247.60   C 312.51 247.63 305.83 247.24 299.13 245.76   Q 292.76 244.35 285.50 244.54   C 278.59 244.72 270.76 246.52 263.00 244.80   C 257.33 243.54 252.99 242.84 248.07 242.95   Q 212.66 243.72 165.81 243.32   C 157.63 243.26 149.00 243.27 141.67 241.43   C 136.19 240.05 133.90 239.42 127.47 238.46   Q 123.01 237.79 118.72 236.38   Q 101.94 230.84 87.62 221.22   C 82.44 217.73 77.97 212.29 73.41 207.96   C 69.09 203.85 66.15 199.65 61.64 194.39   Q 59.04 191.35 56.20 185.25   C 52.55 177.40 48.99 170.77 47.77 162.81   Q 45.08 145.20 46.52 127.58   Q 47.08 120.67 49.53 111.03   Q 52.61 98.88 58.09 89.03   Q 60.71 84.32 66.11 77.89   C 71.71 71.21 77.47 62.84 85.20 57.46   Q 92.24 52.58 103.65 45.52   Q 111.37 40.74 116.20 39.16   Q 122.98 36.93 129.96 36.14   Q 133.06 35.79 135.47 34.34   A 0.32 0.31 35.8 0 0 135.37 33.76   L 128.10 32.06" data-svg-id="svg-elem-1768388991255-uo4hyprqk" id="svg-elem-1768388991255-uo4hyprqk"/>
<path stroke="#908ea7" vector-effect="non-scaling-stroke" d="   M 783.5645 29.0318   A 1.47 1.47 0.0 0 0 782.0920 27.5643   L 718.2521 27.6758   A 1.47 1.47 0.0 0 0 716.7846 29.1483   L 716.8755 81.2082   A 1.47 1.47 0.0 0 0 718.3480 82.6757   L 782.1879 82.5642   A 1.47 1.47 0.0 0 0 783.6554 81.0917   L 783.5645 29.0318" data-svg-id="svg-elem-1768388991255-pccs1npwk" id="svg-elem-1768388991255-pccs1npwk"/>
<path stroke="#908ea7" vector-effect="non-scaling-stroke" d="   M 783.61 106.72   A 0.92 0.92 0.0 0 0 782.69 105.80   L 717.77 105.80   A 0.92 0.92 0.0 0 0 716.85 106.72   L 716.85 246.74   A 0.92 0.92 0.0 0 0 717.77 247.66   L 782.69 247.66   A 0.92 0.92 0.0 0 0 783.61 246.74   L 783.61 106.72" data-svg-id="svg-elem-1768388991255-yivevcmlu" id="svg-elem-1768388991255-yivevcmlu"/>
<path stroke="#81819d" vector-effect="non-scaling-stroke" d="   M 78.95 312.68   Q 81.17 315.48 87.15 314.63   A 1.32 1.32 0.0 0 0 88.29 313.42   Q 88.30 313.36 88.03 312.85   Q 87.91 312.62 87.68 312.44   Q 85.18 310.46 84.88 307.71   A 1.81 1.80 57.4 0 1 85.12 306.61   Q 86.43 304.44 87.31 302.82   C 90.34 297.24 88.96 291.45 86.14 285.78   Q 83.81 281.13 78.56 278.18   Q 69.82 273.29 60.15 278.87   C 51.99 283.58 49.01 293.89 51.96 302.06   C 55.69 312.40 65.79 317.19 76.38 313.92   Q 76.79 313.79 77.28 313.37   Q 78.09 312.65 78.11 312.63   A 0.57 0.57 0.0 0 1 78.95 312.68" data-svg-id="svg-elem-1768388991255-ugipq5q18" id="svg-elem-1768388991255-ugipq5q18"/>
<path stroke="#81819d" vector-effect="non-scaling-stroke" d="   M 148.34 306.25   Q 152.91 306.26 154.11 306.37   A 1.62 1.61 -2.8 0 1 155.54 307.66   L 156.48 312.61   A 2.88 2.88 0.0 0 0 159.31 314.95   L 163.62 314.95   A 2.00 2.00 0.0 0 0 165.54 312.39   Q 164.73 309.59 163.30 306.95   A 5.62 5.38 23.2 0 1 162.92 306.06   Q 159.99 296.88 153.89 278.96   C 153.08 276.59 150.45 276.08 148.36 276.08   C 146.28 276.07 143.65 276.59 142.84 278.95   Q 136.70 296.86 133.75 306.03   A 5.62 5.38 -23.1 0 1 133.37 306.92   Q 131.94 309.56 131.12 312.36   A 2.00 2.00 0.0 0 0 133.04 314.92   L 137.35 314.93   A 2.88 2.88 0.0 0 0 140.18 312.59   L 141.13 307.65   A 1.62 1.61 2.9 0 1 142.57 306.36   Q 143.77 306.25 148.34 306.25" data-svg-id="svg-elem-1768388991255-1ojugtm9m" id="svg-elem-1768388991255-1ojugtm9m"/>
<path stroke="#81819d" vector-effect="non-scaling-stroke" d="   M 316.90 291.81   A 0.37 0.36 -29.8 0 1 317.58 291.99   L 317.58 313.09   A 1.81 1.80 -90.0 0 0 319.38 314.90   L 324.39 314.90   A 1.77 1.76 -90.0 0 0 326.15 313.13   L 326.15 277.85   A 1.22 1.22 0.0 0 0 325.28 276.68   Q 317.32 274.30 314.27 281.24   Q 310.61 289.58 306.84 296.50   A 0.37 0.36 -43.9 0 1 306.19 296.49   L 297.05 277.72   A 2.71 2.70 -10.4 0 0 294.84 276.20   Q 291.27 275.90 288.05 276.76   A 1.44 1.43 -8.7 0 0 286.99 278.19   Q 287.59 298.20 286.79 312.55   A 2.05 2.04 -88.4 0 0 288.83 314.71   L 293.96 314.71   A 1.97 1.96 -2.4 0 0 295.92 312.58   Q 295.08 302.55 295.43 296.00   Q 295.55 293.93 296.22 293.10   A 0.84 0.83 -35.7 0 1 297.65 293.33   C 299.74 298.82 301.89 304.96 305.76 309.32   A 1.21 1.20 41.2 0 0 307.65 309.20   Q 312.51 302.03 315.70 293.97   Q 315.92 293.42 316.90 291.81" data-svg-id="svg-elem-1768388991255-rj1r76g3f" id="svg-elem-1768388991255-rj1r76g3f"/>
<path stroke="#81819d" vector-effect="non-scaling-stroke" d="   M 400.8100 276.1200   A 19.47 18.89 -90.0 0 0 381.9200 295.5900   A 19.47 18.89 -90.0 0 0 400.8100 315.0600   A 19.47 18.89 -90.0 0 0 419.7000 295.5900   A 19.47 18.89 -90.0 0 0 400.8100 276.1200" data-svg-id="svg-elem-1768388991255-d7ubx5szs" id="svg-elem-1768388991255-d7ubx5szs"/>
<path stroke="#81819d" vector-effect="non-scaling-stroke" d="   M 455.09 293.59   A 0.39 0.39 0.0 0 1 455.75 293.83   Q 456.83 302.58 456.07 312.32   A 2.36 2.35 -87.7 0 0 458.41 314.86   L 462.80 314.86   A 1.96 1.96 0.0 0 0 464.76 312.90   L 464.76 277.66   A 1.17 1.17 0.0 0 0 463.79 276.51   C 461.14 276.06 455.18 275.93 453.87 278.87   Q 449.67 288.30 445.70 296.51   A 0.25 0.25 0.0 0 1 445.28 296.56   Q 444.09 295.12 443.10 293.17   Q 437.96 282.99 435.41 277.13   A 1.62 1.62 0.0 0 0 433.84 276.16   L 425.97 276.58   A 0.99 0.98 -6.5 0 0 425.05 277.73   C 426.34 285.25 425.28 293.87 425.58 300.70   Q 425.88 307.53 425.17 312.19   A 2.05 2.05 0.0 0 0 427.20 314.56   L 432.24 314.56   A 2.12 2.11 -4.4 0 0 434.34 312.12   Q 433.14 304.33 434.15 293.68   A 0.67 0.67 0.0 0 1 435.25 293.23   Q 436.18 294.05 436.57 294.95   C 438.42 299.24 440.21 304.17 443.00 307.87   C 444.79 310.25 446.87 309.09 447.97 306.92   Q 453.18 296.61 454.04 295.05   Q 454.57 294.07 455.09 293.59" data-svg-id="svg-elem-1768388991255-btu3h1prm" id="svg-elem-1768388991255-btu3h1prm"/>
<path stroke="#81819d" vector-effect="non-scaling-stroke" d="   M 672.94 294.81   Q 665.45 295.46 661.11 294.66   A 2.19 2.19 0.0 0 0 658.53 296.81   L 658.53 298.19   A 2.46 2.46 0.0 0 0 660.24 300.53   L 665.17 302.09   A 1.39 1.39 0.0 0 1 665.27 304.71   L 658.19 307.55   A 3.42 3.36 -53.4 0 1 656.66 307.79   Q 648.72 307.17 646.62 299.66   Q 645.29 294.88 646.78 290.88   C 647.76 288.27 648.36 286.51 650.73 285.01   C 656.12 281.62 661.62 284.03 665.30 288.28   A 1.08 1.07 -42.9 0 0 666.87 288.33   L 671.23 283.96   A 1.41 1.40 -54.9 0 0 670.84 281.69   Q 668.48 280.58 666.62 279.14   C 660.53 274.45 651.46 275.44 645.84 279.41   Q 637.29 285.46 637.43 295.37   Q 637.65 310.71 652.99 314.92   C 656.20 315.80 662.07 313.61 664.61 312.25   Q 665.03 312.02 665.38 312.21   Q 665.82 312.45 666.07 312.87   C 667.20 314.79 670.88 314.92 672.64 314.48   A 1.14 1.14 0.0 0 0 673.49 313.27   Q 672.63 303.76 673.37 295.24   A 0.40 0.40 0.0 0 0 672.94 294.81" data-svg-id="svg-elem-1768388991255-vfu4wmd5f" id="svg-elem-1768388991255-vfu4wmd5f"/>
<path stroke="#81819d" vector-effect="non-scaling-stroke" d="   M 747.97 295.69   C 748.02 301.48 751.55 308.33 756.46 311.62   Q 764.50 317.01 773.12 314.13   C 775.71 313.27 778.56 311.30 781.29 309.87   A 2.30 2.29 59.6 0 0 782.14 306.58   Q 780.46 304.05 776.45 302.86   A 1.09 1.08 33.3 0 0 775.46 303.06   C 774.29 304.00 773.48 305.29 771.93 306.24   Q 767.16 309.14 761.97 306.08   C 758.21 303.85 756.81 299.94 756.77 295.61   C 756.74 291.29 758.07 287.35 761.80 285.06   Q 766.93 281.91 771.75 284.73   C 773.31 285.66 774.14 286.93 775.33 287.85   A 1.09 1.08 -34.3 0 0 776.32 288.04   Q 780.31 286.78 781.95 284.22   A 2.30 2.29 -60.6 0 0 781.04 280.94   C 778.29 279.56 775.41 277.64 772.80 276.82   Q 764.13 274.09 756.19 279.61   C 751.33 282.99 747.92 289.90 747.97 295.69" data-svg-id="svg-elem-1768388991255-mdv0m4rmm" id="svg-elem-1768388991255-mdv0m4rmm"/>
<path stroke="#81819d" vector-effect="non-scaling-stroke" d="   M 111.11 315.04   C 115.30 315.03 119.45 314.04 122.28 311.03   C 127.04 305.98 128.12 301.37 128.03 293.78   Q 127.95 286.15 128.19 277.96   A 1.75 1.74 0.8 0 0 126.44 276.17   L 120.96 276.17   A 1.67 1.67 0.0 0 0 119.29 277.93   Q 119.78 286.78 119.58 296.22   C 119.47 302.00 117.82 307.76 111.09 307.77   C 104.36 307.79 102.69 302.04 102.55 296.26   Q 102.31 286.82 102.76 277.97   A 1.67 1.67 0.0 0 0 101.08 276.21   L 95.60 276.24   A 1.75 1.74 -1.0 0 0 93.86 278.04   Q 94.14 286.22 94.09 293.85   C 94.03 301.44 95.13 306.05 99.92 311.08   C 102.76 314.07 106.91 315.05 111.11 315.04" data-svg-id="svg-elem-1768388991255-lckh1tfiy" id="svg-elem-1768388991255-lckh1tfiy"/>
<path stroke="#81819d" vector-effect="non-scaling-stroke" d="   M 179.13 292.65   Q 187.81 302.07 195.96 313.40   C 197.27 315.21 201.48 314.98 203.51 314.69   A 0.63 0.62 86.3 0 0 204.05 314.07   L 204.05 278.23   A 1.90 1.89 0.0 0 0 202.15 276.34   L 196.98 276.34   A 1.41 1.40 -0.0 0 0 195.57 277.74   L 195.57 299.34   A 0.28 0.28 0.0 0 1 195.06 299.51   Q 184.40 285.51 180.16 279.59   Q 176.86 274.98 171.34 276.64   A 1.71 1.70 -12.0 0 0 170.14 278.47   C 171.08 286.57 170.58 295.48 170.31 312.75   A 1.97 1.97 0.0 0 0 172.28 314.75   L 176.95 314.75   A 1.92 1.92 0.0 0 0 178.87 312.83   L 178.87 292.75   A 0.15 0.15 0.0 0 1 179.13 292.65" data-svg-id="svg-elem-1768388991255-tx3qgjeqi" id="svg-elem-1768388991255-tx3qgjeqi"/>
<path stroke="#81819d" vector-effect="non-scaling-stroke" d="   M 228.19 314.79   A 1.12 1.12 0.0 0 0 229.31 313.67   L 229.31 284.83   A 1.12 1.12 0.0 0 1 230.43 283.71   L 240.36 283.71   A 1.12 1.12 0.0 0 0 241.48 282.59   L 241.48 277.53   A 1.12 1.12 0.0 0 0 240.36 276.41   L 209.87 276.41   A 1.12 1.12 0.0 0 0 208.75 277.53   L 208.75 282.44   A 1.12 1.12 0.0 0 0 209.87 283.56   L 219.55 283.56   A 1.12 1.12 0.0 0 1 220.67 284.68   L 220.67 313.67   A 1.12 1.12 0.0 0 0 221.79 314.79   L 228.19 314.79" data-svg-id="svg-elem-1768388991255-asq2qz1cn" id="svg-elem-1768388991255-asq2qz1cn"/>
<path stroke="#81819d" vector-effect="non-scaling-stroke" d="   M 262.41 315.06   C 266.60 315.08 270.75 314.12 273.60 311.14   C 278.39 306.13 279.50 301.54 279.47 293.96   Q 279.45 286.34 279.75 278.17   A 1.75 1.74 1.2 0 0 278.02 276.37   L 272.55 276.32   A 1.67 1.67 0.0 0 0 270.87 278.07   Q 271.29 286.91 271.02 296.33   C 270.85 302.10 269.17 307.84 262.45 307.80   C 255.73 307.76 254.11 302.01 254.01 296.24   Q 253.84 286.81 254.36 277.98   A 1.67 1.67 0.0 0 0 252.70 276.21   L 247.23 276.20   A 1.75 1.74 -0.6 0 0 245.48 277.98   Q 245.69 286.16 245.58 293.77   C 245.47 301.35 246.53 305.96 251.27 311.02   C 254.08 314.03 258.22 315.03 262.41 315.06" data-svg-id="svg-elem-1768388991255-kjb8pom66" id="svg-elem-1768388991255-kjb8pom66"/>
<path stroke="#81819d" vector-effect="non-scaling-stroke" d="   M 378.12 306.46   L 375.74 304.08   A 2.68 2.67 51.0 0 0 372.40 303.72   C 368.05 306.55 364.73 309.63 359.23 306.57   C 352.25 302.69 351.01 292.65 356.22 286.86   Q 360.85 281.71 367.03 283.99   C 369.12 284.76 371.20 286.63 372.74 287.61   A 2.52 2.51 -58.6 0 0 376.27 286.75   L 377.73 284.22   A 2.41 2.40 -57.5 0 0 377.03 281.05   Q 372.15 277.66 369.56 276.95   Q 358.38 273.91 350.16 281.90   Q 347.44 284.54 346.21 287.93   Q 341.92 299.77 350.18 308.83   Q 358.08 317.51 369.75 314.06   Q 371.16 313.64 377.80 309.39   A 1.89 1.89 0.0 0 0 378.12 306.46" data-svg-id="svg-elem-1768388991255-uktbyx5yx" id="svg-elem-1768388991255-uktbyx5yx"/>
<path stroke="#81819d" vector-effect="non-scaling-stroke" d="   M 481.22 301.91   A 0.39 0.39 0.0 0 1 481.69 301.51   Q 486.11 302.41 491.25 302.01   C 497.18 301.56 500.59 295.43 500.98 290.14   Q 501.44 283.81 497.31 279.88   Q 493.75 276.47 488.97 276.36   Q 481.41 276.18 473.69 276.59   A 1.00 0.99 88.5 0 0 472.75 277.59   L 472.75 313.13   A 1.73 1.72 -1.6 0 0 474.57 314.85   L 480.15 314.55   A 1.75 1.74 87.0 0 0 481.80 312.71   L 481.22 301.91" data-svg-id="svg-elem-1768388991255-brhf3r9ur" id="svg-elem-1768388991255-brhf3r9ur"/>
<path stroke="#81819d" vector-effect="non-scaling-stroke" d="   M 538.37 276.45   L 533.83 276.45   A 2.32 2.32 0.0 0 0 531.52 278.93   Q 531.97 285.60 531.94 295.51   C 531.93 300.72 530.16 306.85 524.48 307.69   C 519.30 308.46 515.05 304.13 514.75 298.98   Q 514.13 288.36 515.02 278.68   A 2.04 2.04 0.0 0 0 512.99 276.45   L 508.50 276.45   A 2.21 2.21 0.0 0 0 506.29 278.69   Q 506.48 292.23 506.53 298.45   C 506.59 304.77 509.17 308.46 513.67 312.58   C 517.73 316.30 526.71 315.26 531.07 313.35   C 537.61 310.48 539.96 303.63 539.92 297.00   Q 539.82 283.00 540.39 278.75   A 2.04 2.03 3.8 0 0 538.37 276.45" data-svg-id="svg-elem-1768388991255-tuf6zittc" id="svg-elem-1768388991255-tuf6zittc"/>
<path stroke="#81819d" vector-effect="non-scaling-stroke" d="   M 560.59 314.62   Q 562.43 314.62 563.98 314.28   A 0.87 0.85 84.0 0 0 564.65 313.44   L 564.65 284.77   A 0.92 0.92 0.0 0 1 565.57 283.85   L 574.44 283.85   A 2.24 2.23 5.9 0 0 576.63 282.07   Q 576.94 280.65 576.45 278.05   A 1.93 1.93 0.0 0 0 574.92 276.51   Q 573.54 276.25 572.00 276.26   Q 566.28 276.32 560.66 276.31   Q 555.04 276.30 549.31 276.22   Q 547.78 276.20 546.40 276.46   A 1.93 1.93 0.0 0 0 544.86 277.99   Q 544.36 280.59 544.67 282.01   A 2.24 2.23 -5.7 0 0 546.85 283.80   L 555.72 283.83   A 0.92 0.92 0.0 0 1 556.64 284.76   L 556.53 313.43   A 0.87 0.85 -83.8 0 0 557.21 314.27   Q 558.75 314.62 560.59 314.62" data-svg-id="svg-elem-1768388991256-xlg0ntapw" id="svg-elem-1768388991256-xlg0ntapw"/>
<path stroke="#81819d" vector-effect="non-scaling-stroke" d="   M 607.33 293.07   Q 607.47 293.14 607.89 293.65   Q 618.05 306.21 621.47 310.75   C 624.33 314.53 626.72 315.12 630.61 315.07   A 0.88 0.87 88.7 0 0 631.47 314.16   Q 630.80 296.00 631.60 277.94   A 1.34 1.33 -88.8 0 0 630.27 276.54   L 624.19 276.54   A 1.41 1.40 87.0 0 0 622.80 278.09   Q 623.80 287.61 622.86 298.35   A 0.67 0.66 30.1 0 1 621.65 298.67   Q 617.68 292.95 608.31 280.80   C 605.26 276.84 603.30 275.24 598.53 276.84   A 1.02 1.01 -11.1 0 0 597.84 277.85   Q 598.78 295.75 597.59 311.89   A 2.44 2.43 2.1 0 0 600.02 314.50   L 604.33 314.50   A 2.56 2.56 0.0 0 0 606.87 311.65   Q 605.85 302.69 606.40 293.64   A 0.67 0.66 13.3 0 1 607.33 293.07" data-svg-id="svg-elem-1768388991256-r9nhnix5s" id="svg-elem-1768388991256-r9nhnix5s"/>
<path stroke="#81819d" vector-effect="non-scaling-stroke" d="   M 700.9813 277.5775   A 1.13 1.13 0.0 0 0 699.8533 276.4455   L 693.5333 276.4345   A 1.13 1.13 0.0 0 0 692.4014 277.5625   L 692.3387 313.4825   A 1.13 1.13 0.0 0 0 693.4667 314.6145   L 699.7867 314.6255   A 1.13 1.13 0.0 0 0 700.9186 313.4975   L 700.9813 277.5775" data-svg-id="svg-elem-1768388991256-wt2lwx7rv" id="svg-elem-1768388991256-wt2lwx7rv"/>
<path stroke="#81819d" vector-effect="non-scaling-stroke" d="   M 722.56 298.30   Q 728.01 305.07 733.27 311.99   Q 736.36 316.06 741.33 314.69   A 1.52 1.52 0.0 0 0 742.45 313.16   Q 741.85 295.32 742.67 278.66   A 1.97 1.96 1.4 0 0 740.70 276.60   L 735.62 276.60   A 2.03 2.02 86.8 0 0 733.61 278.85   Q 734.66 288.29 734.00 298.10   A 0.68 0.68 0.0 0 1 732.76 298.45   Q 729.53 294.03 728.72 293.03   Q 723.28 286.25 718.01 279.33   Q 714.92 275.26 709.95 276.63   A 1.52 1.52 0.0 0 0 708.83 278.16   Q 709.43 296.00 708.61 312.66   A 1.97 1.96 1.4 0 0 710.58 314.72   L 715.66 314.72   A 2.03 2.02 86.8 0 0 717.67 312.47   Q 716.62 303.03 717.28 293.22   A 0.68 0.68 0.0 0 1 718.52 292.87   Q 721.75 297.29 722.56 298.30" data-svg-id="svg-elem-1768388991256-vkr4jornj" id="svg-elem-1768388991256-vkr4jornj"/>
<path stroke="#81819d" vector-effect="non-scaling-stroke" d="   M 590.1219 277.8248   A 1.28 1.28 0.0 0 0 588.8464 276.5403   L 583.0064 276.5199   A 1.28 1.28 0.0 0 0 581.7219 277.7954   L 581.5981 313.2752   A 1.28 1.28 0.0 0 0 582.8736 314.5597   L 588.7136 314.5801   A 1.28 1.28 0.0 0 0 589.9981 313.3046   L 590.1219 277.8248" data-svg-id="svg-elem-1768388991256-p3f3g499s" id="svg-elem-1768388991256-p3f3g499s"/>
<path stroke="#81819d" vector-effect="non-scaling-stroke" d="   M 70.20 298.59   L 78.44 301.20   A 1.47 1.46 13.8 0 0 80.33 300.06   Q 82.06 290.44 75.56 285.42   C 72.04 282.69 68.49 283.00 64.63 284.99   C 59.61 287.58 59.24 294.77 60.11 299.63   C 61.12 305.23 65.93 307.52 71.00 308.19   A 1.07 1.06 -85.3 0 0 72.20 307.17   Q 72.34 303.17 69.40 299.80   A 0.75 0.75 0.0 0 1 70.20 298.59" data-svg-id="svg-elem-1768388991256-gr0bop4qg" id="svg-elem-1768388991256-gr0bop4qg"/>
<path stroke="#81819d" vector-effect="non-scaling-stroke" d="   M 148.89 285.23   A 0.45 0.44 48.2 0 0 148.06 285.18   Q 145.07 291.67 143.86 299.65   A 0.74 0.74 0.0 0 0 144.44 300.49   Q 147.25 301.07 150.48 300.73   Q 153.05 300.46 152.46 297.83   Q 151.19 292.14 148.89 285.23" data-svg-id="svg-elem-1768388991256-6ldr4xcag" id="svg-elem-1768388991256-6ldr4xcag"/>
<path stroke="#81819d" vector-effect="non-scaling-stroke" d="   M 400.3437 283.3582   A 12.18 10.59 -92.1 0 0 390.2071 295.9181   A 12.18 10.59 -92.1 0 0 401.2363 307.7018   A 12.18 10.59 -92.1 0 0 411.3729 295.1419   A 12.18 10.59 -92.1 0 0 400.3437 283.3582" data-svg-id="svg-elem-1768388991256-gy5jzh9mp" id="svg-elem-1768388991256-gy5jzh9mp"/>
<path stroke="#81819d" vector-effect="non-scaling-stroke" d="   M 481.23 284.58   L 481.35 294.26   A 1.14 1.14 0.0 0 0 482.50 295.39   L 486.37 295.34   A 7.07 5.75 -0.7 0 0 493.37 289.51   L 493.37 289.05   A 7.07 5.75 -0.7 0 0 486.23 283.38   L 482.36 283.43   A 1.14 1.14 0.0 0 0 481.23 284.58" data-svg-id="svg-elem-1768388991256-kbv98z8sj" id="svg-elem-1768388991256-kbv98z8sj"/>
</g>
<path fill="#ffffff" d="   M 824.00 0.00   L 824.00 346.00   L 0.00 346.00   L 0.00 0.00   L 824.00 0.00   Z   M 603.02 248.71   L 690.67 249.43   A 1.19 1.19 0.0 0 0 691.87 248.24   L 691.87 193.69   A 0.87 0.87 0.0 0 0 691.00 192.82   L 536.21 192.37   Q 528.98 191.93 521.74 191.61   Q 510.12 191.08 496.02 183.49   C 482.76 176.36 472.56 163.89 469.90 148.83   Q 468.58 141.36 468.61 138.75   Q 468.68 132.02 470.19 125.26   C 475.35 102.10 498.47 88.37 520.16 84.51   C 524.13 83.81 528.38 83.76 532.77 83.39   Q 535.94 83.12 542.24 83.11   Q 595.52 83.06 685.62 83.13   Q 688.75 83.13 690.54 82.98   A 1.01 1.01 0.0 0 0 691.45 81.85   Q 691.00 78.21 690.97 74.50   Q 690.81 50.45 691.11 27.96   A 1.09 1.08 -89.7 0 0 690.03 26.86   Q 593.11 26.87 587.50 26.85   Q 554.01 26.74 528.25 27.24   C 520.04 27.39 511.40 27.20 503.61 28.60   Q 476.32 33.50 451.72 47.20   Q 436.54 55.65 425.82 67.04   C 416.65 76.78 408.80 89.15 405.17 102.15   C 403.71 107.38 402.23 111.84 401.56 116.80   Q 399.10 135.15 401.37 153.38   C 401.95 158.10 403.46 162.58 404.44 166.93   Q 405.44 171.38 407.80 176.75   C 413.06 188.66 418.15 197.66 425.48 206.01   Q 444.43 227.58 471.35 237.59   Q 483.65 242.16 491.33 243.36   C 503.95 245.34 515.47 247.18 528.97 247.72   C 554.09 248.73 578.32 248.48 603.02 248.71   Z   M 128.10 32.06   Q 123.61 33.17 119.07 34.37   C 92.85 41.33 71.95 58.84 57.67 81.18   Q 52.49 89.28 48.34 100.70   Q 47.07 104.21 46.55 106.59   C 45.45 111.66 43.62 116.34 42.84 121.52   Q 38.66 149.17 47.04 173.50   Q 61.13 214.37 101.25 233.27   Q 114.57 239.54 129.54 242.87   Q 151.84 247.84 174.00 248.29   Q 190.41 248.62 197.00 248.50   Q 246.78 247.61 278.91 246.28   Q 279.92 246.24 289.29 245.55   C 293.47 245.24 295.41 246.31 298.76 248.89   C 302.79 252.00 307.23 251.61 312.50 251.62   Q 345.76 251.65 379.06 251.77   L 394.61 251.47   A 1.35 1.34 87.8 0 0 395.93 250.03   Q 395.68 246.51 392.84 244.20   Q 388.59 240.74 383.35 236.40   Q 348.27 207.38 302.86 170.39   C 297.92 166.37 291.08 166.44 285.41 166.48   Q 248.07 166.80 209.75 166.56   Q 206.84 166.54 204.27 166.89   A 1.57 1.57 0.0 0 0 202.93 168.22   C 202.65 170.18 203.31 171.29 204.95 172.64   Q 211.37 177.93 219.87 185.80   C 221.53 187.33 223.96 188.79 225.11 190.09   A 0.58 0.58 0.0 0 1 224.89 191.02   Q 224.02 191.35 223.24 191.43   C 212.93 192.46 204.99 192.15 194.25 192.43   Q 182.38 192.73 170.57 191.97   Q 159.42 191.42 156.30 190.72   C 137.05 186.38 121.12 175.88 113.60 156.97   C 110.58 149.37 110.83 142.64 110.83 134.02   C 110.83 117.27 122.26 101.69 136.23 93.52   Q 151.29 84.72 166.92 83.93   Q 207.36 81.90 252.20 83.77   C 274.70 84.70 294.31 93.94 304.53 114.74   Q 305.21 116.12 306.93 120.73   Q 308.05 123.74 309.44 126.71   Q 310.63 133.76 312.03 140.94   Q 312.93 145.55 316.03 148.47   C 321.92 154.02 331.04 160.73 336.88 165.61   Q 345.65 172.96 365.07 188.65   A 1.58 1.58 0.0 0 0 367.54 187.99   C 368.68 185.00 369.31 181.82 370.77 178.49   Q 376.79 164.73 378.05 156.01   Q 379.77 144.14 380.02 142.25   C 381.42 131.54 379.69 121.67 377.59 110.92   Q 376.18 103.75 372.52 95.22   Q 360.03 66.09 333.14 49.11   Q 310.77 35.00 285.35 31.74   Q 260.05 28.49 245.52 27.95   Q 209.96 26.61 175.08 28.70   Q 153.43 29.99 151.58 30.12   Q 139.86 30.90 128.10 32.06   Z   M 783.5645 29.0318   A 1.47 1.47 0.0 0 0 782.0920 27.5643   L 718.2521 27.6758   A 1.47 1.47 0.0 0 0 716.7846 29.1483   L 716.8755 81.2082   A 1.47 1.47 0.0 0 0 718.3480 82.6757   L 782.1879 82.5642   A 1.47 1.47 0.0 0 0 783.6554 81.0917   L 783.5645 29.0318   Z   M 783.61 106.72   A 0.92 0.92 0.0 0 0 782.69 105.80   L 717.77 105.80   A 0.92 0.92 0.0 0 0 716.85 106.72   L 716.85 246.74   A 0.92 0.92 0.0 0 0 717.77 247.66   L 782.69 247.66   A 0.92 0.92 0.0 0 0 783.61 246.74   L 783.61 106.72   Z   M 78.95 312.68   Q 81.17 315.48 87.15 314.63   A 1.32 1.32 0.0 0 0 88.29 313.42   Q 88.30 313.36 88.03 312.85   Q 87.91 312.62 87.68 312.44   Q 85.18 310.46 84.88 307.71   A 1.81 1.80 57.4 0 1 85.12 306.61   Q 86.43 304.44 87.31 302.82   C 90.34 297.24 88.96 291.45 86.14 285.78   Q 83.81 281.13 78.56 278.18   Q 69.82 273.29 60.15 278.87   C 51.99 283.58 49.01 293.89 51.96 302.06   C 55.69 312.40 65.79 317.19 76.38 313.92   Q 76.79 313.79 77.28 313.37   Q 78.09 312.65 78.11 312.63   A 0.57 0.57 0.0 0 1 78.95 312.68   Z   M 148.34 306.25   Q 152.91 306.26 154.11 306.37   A 1.62 1.61 -2.8 0 1 155.54 307.66   L 156.48 312.61   A 2.88 2.88 0.0 0 0 159.31 314.95   L 163.62 314.95   A 2.00 2.00 0.0 0 0 165.54 312.39   Q 164.73 309.59 163.30 306.95   A 5.62 5.38 23.2 0 1 162.92 306.06   Q 159.99 296.88 153.89 278.96   C 153.08 276.59 150.45 276.08 148.36 276.08   C 146.28 276.07 143.65 276.59 142.84 278.95   Q 136.70 296.86 133.75 306.03   A 5.62 5.38 -23.1 0 1 133.37 306.92   Q 131.94 309.56 131.12 312.36   A 2.00 2.00 0.0 0 0 133.04 314.92   L 137.35 314.93   A 2.88 2.88 0.0 0 0 140.18 312.59   L 141.13 307.65   A 1.62 1.61 2.9 0 1 142.57 306.36   Q 143.77 306.25 148.34 306.25   Z   M 316.90 291.81   A 0.37 0.36 -29.8 0 1 317.58 291.99   L 317.58 313.09   A 1.81 1.80 -90.0 0 0 319.38 314.90   L 324.39 314.90   A 1.77 1.76 -90.0 0 0 326.15 313.13   L 326.15 277.85   A 1.22 1.22 0.0 0 0 325.28 276.68   Q 317.32 274.30 314.27 281.24   Q 310.61 289.58 306.84 296.50   A 0.37 0.36 -43.9 0 1 306.19 296.49   L 297.05 277.72   A 2.71 2.70 -10.4 0 0 294.84 276.20   Q 291.27 275.90 288.05 276.76   A 1.44 1.43 -8.7 0 0 286.99 278.19   Q 287.59 298.20 286.79 312.55   A 2.05 2.04 -88.4 0 0 288.83 314.71   L 293.96 314.71   A 1.97 1.96 -2.4 0 0 295.92 312.58   Q 295.08 302.55 295.43 296.00   Q 295.55 293.93 296.22 293.10   A 0.84 0.83 -35.7 0 1 297.65 293.33   C 299.74 298.82 301.89 304.96 305.76 309.32   A 1.21 1.20 41.2 0 0 307.65 309.20   Q 312.51 302.03 315.70 293.97   Q 315.92 293.42 316.90 291.81   Z   M 400.8100 276.1200   A 19.47 18.89 -90.0 0 0 381.9200 295.5900   A 19.47 18.89 -90.0 0 0 400.8100 315.0600   A 19.47 18.89 -90.0 0 0 419.7000 295.5900   A 19.47 18.89 -90.0 0 0 400.8100 276.1200   Z   M 455.09 293.59   A 0.39 0.39 0.0 0 1 455.75 293.83   Q 456.83 302.58 456.07 312.32   A 2.36 2.35 -87.7 0 0 458.41 314.86   L 462.80 314.86   A 1.96 1.96 0.0 0 0 464.76 312.90   L 464.76 277.66   A 1.17 1.17 0.0 0 0 463.79 276.51   C 461.14 276.06 455.18 275.93 453.87 278.87   Q 449.67 288.30 445.70 296.51   A 0.25 0.25 0.0 0 1 445.28 296.56   Q 444.09 295.12 443.10 293.17   Q 437.96 282.99 435.41 277.13   A 1.62 1.62 0.0 0 0 433.84 276.16   L 425.97 276.58   A 0.99 0.98 -6.5 0 0 425.05 277.73   C 426.34 285.25 425.28 293.87 425.58 300.70   Q 425.88 307.53 425.17 312.19   A 2.05 2.05 0.0 0 0 427.20 314.56   L 432.24 314.56   A 2.12 2.11 -4.4 0 0 434.34 312.12   Q 433.14 304.33 434.15 293.68   A 0.67 0.67 0.0 0 1 435.25 293.23   Q 436.18 294.05 436.57 294.95   C 438.42 299.24 440.21 304.17 443.00 307.87   C 444.79 310.25 446.87 309.09 447.97 306.92   Q 453.18 296.61 454.04 295.05   Q 454.57 294.07 455.09 293.59   Z   M 672.94 294.81   Q 665.45 295.46 661.11 294.66   A 2.19 2.19 0.0 0 0 658.53 296.81   L 658.53 298.19   A 2.46 2.46 0.0 0 0 660.24 300.53   L 665.17 302.09   A 1.39 1.39 0.0 0 1 665.27 304.71   L 658.19 307.55   A 3.42 3.36 -53.4 0 1 656.66 307.79   Q 648.72 307.17 646.62 299.66   Q 645.29 294.88 646.78 290.88   C 647.76 288.27 648.36 286.51 650.73 285.01   C 656.12 281.62 661.62 284.03 665.30 288.28   A 1.08 1.07 -42.9 0 0 666.87 288.33   L 671.23 283.96   A 1.41 1.40 -54.9 0 0 670.84 281.69   Q 668.48 280.58 666.62 279.14   C 660.53 274.45 651.46 275.44 645.84 279.41   Q 637.29 285.46 637.43 295.37   Q 637.65 310.71 652.99 314.92   C 656.20 315.80 662.07 313.61 664.61 312.25   Q 665.03 312.02 665.38 312.21   Q 665.82 312.45 666.07 312.87   C 667.20 314.79 670.88 314.92 672.64 314.48   A 1.14 1.14 0.0 0 0 673.49 313.27   Q 672.63 303.76 673.37 295.24   A 0.40 0.40 0.0 0 0 672.94 294.81   Z   M 747.97 295.69   C 748.02 301.48 751.55 308.33 756.46 311.62   Q 764.50 317.01 773.12 314.13   C 775.71 313.27 778.56 311.30 781.29 309.87   A 2.30 2.29 59.6 0 0 782.14 306.58   Q 780.46 304.05 776.45 302.86   A 1.09 1.08 33.3 0 0 775.46 303.06   C 774.29 304.00 773.48 305.29 771.93 306.24   Q 767.16 309.14 761.97 306.08   C 758.21 303.85 756.81 299.94 756.77 295.61   C 756.74 291.29 758.07 287.35 761.80 285.06   Q 766.93 281.91 771.75 284.73   C 773.31 285.66 774.14 286.93 775.33 287.85   A 1.09 1.08 -34.3 0 0 776.32 288.04   Q 780.31 286.78 781.95 284.22   A 2.30 2.29 -60.6 0 0 781.04 280.94   C 778.29 279.56 775.41 277.64 772.80 276.82   Q 764.13 274.09 756.19 279.61   C 751.33 282.99 747.92 289.90 747.97 295.69   Z   M 111.11 315.04   C 115.30 315.03 119.45 314.04 122.28 311.03   C 127.04 305.98 128.12 301.37 128.03 293.78   Q 127.95 286.15 128.19 277.96   A 1.75 1.74 0.8 0 0 126.44 276.17   L 120.96 276.17   A 1.67 1.67 0.0 0 0 119.29 277.93   Q 119.78 286.78 119.58 296.22   C 119.47 302.00 117.82 307.76 111.09 307.77   C 104.36 307.79 102.69 302.04 102.55 296.26   Q 102.31 286.82 102.76 277.97   A 1.67 1.67 0.0 0 0 101.08 276.21   L 95.60 276.24   A 1.75 1.74 -1.0 0 0 93.86 278.04   Q 94.14 286.22 94.09 293.85   C 94.03 301.44 95.13 306.05 99.92 311.08   C 102.76 314.07 106.91 315.05 111.11 315.04   Z   M 179.13 292.65   Q 187.81 302.07 195.96 313.40   C 197.27 315.21 201.48 314.98 203.51 314.69   A 0.63 0.62 86.3 0 0 204.05 314.07   L 204.05 278.23   A 1.90 1.89 0.0 0 0 202.15 276.34   L 196.98 276.34   A 1.41 1.40 -0.0 0 0 195.57 277.74   L 195.57 299.34   A 0.28 0.28 0.0 0 1 195.06 299.51   Q 184.40 285.51 180.16 279.59   Q 176.86 274.98 171.34 276.64   A 1.71 1.70 -12.0 0 0 170.14 278.47   C 171.08 286.57 170.58 295.48 170.31 312.75   A 1.97 1.97 0.0 0 0 172.28 314.75   L 176.95 314.75   A 1.92 1.92 0.0 0 0 178.87 312.83   L 178.87 292.75   A 0.15 0.15 0.0 0 1 179.13 292.65   Z   M 228.19 314.79   A 1.12 1.12 0.0 0 0 229.31 313.67   L 229.31 284.83   A 1.12 1.12 0.0 0 1 230.43 283.71   L 240.36 283.71   A 1.12 1.12 0.0 0 0 241.48 282.59   L 241.48 277.53   A 1.12 1.12 0.0 0 0 240.36 276.41   L 209.87 276.41   A 1.12 1.12 0.0 0 0 208.75 277.53   L 208.75 282.44   A 1.12 1.12 0.0 0 0 209.87 283.56   L 219.55 283.56   A 1.12 1.12 0.0 0 1 220.67 284.68   L 220.67 313.67   A 1.12 1.12 0.0 0 0 221.79 314.79   L 228.19 314.79   Z   M 262.41 315.06   C 266.60 315.08 270.75 314.12 273.60 311.14   C 278.39 306.13 279.50 301.54 279.47 293.96   Q 279.45 286.34 279.75 278.17   A 1.75 1.74 1.2 0 0 278.02 276.37   L 272.55 276.32   A 1.67 1.67 0.0 0 0 270.87 278.07   Q 271.29 286.91 271.02 296.33   C 270.85 302.10 269.17 307.84 262.45 307.80   C 255.73 307.76 254.11 302.01 254.01 296.24   Q 253.84 286.81 254.36 277.98   A 1.67 1.67 0.0 0 0 252.70 276.21   L 247.23 276.20   A 1.75 1.74 -0.6 0 0 245.48 277.98   Q 245.69 286.16 245.58 293.77   C 245.47 301.35 246.53 305.96 251.27 311.02   C 254.08 314.03 258.22 315.03 262.41 315.06   Z   M 378.12 306.46   L 375.74 304.08   A 2.68 2.67 51.0 0 0 372.40 303.72   C 368.05 306.55 364.73 309.63 359.23 306.57   C 352.25 302.69 351.01 292.65 356.22 286.86   Q 360.85 281.71 367.03 283.99   C 369.12 284.76 371.20 286.63 372.74 287.61   A 2.52 2.51 -58.6 0 0 376.27 286.75   L 377.73 284.22   A 2.41 2.40 -57.5 0 0 377.03 281.05   Q 372.15 277.66 369.56 276.95   Q 358.38 273.91 350.16 281.90   Q 347.44 284.54 346.21 287.93   Q 341.92 299.77 350.18 308.83   Q 358.08 317.51 369.75 314.06   Q 371.16 313.64 377.80 309.39   A 1.89 1.89 0.0 0 0 378.12 306.46   Z   M 481.22 301.91   A 0.39 0.39 0.0 0 1 481.69 301.51   Q 486.11 302.41 491.25 302.01   C 497.18 301.56 500.59 295.43 500.98 290.14   Q 501.44 283.81 497.31 279.88   Q 493.75 276.47 488.97 276.36   Q 481.41 276.18 473.69 276.59   A 1.00 0.99 88.5 0 0 472.75 277.59   L 472.75 313.13   A 1.73 1.72 -1.6 0 0 474.57 314.85   L 480.15 314.55   A 1.75 1.74 87.0 0 0 481.80 312.71   L 481.22 301.91   Z   M 538.37 276.45   L 533.83 276.45   A 2.32 2.32 0.0 0 0 531.52 278.93   Q 531.97 285.60 531.94 295.51   C 531.93 300.72 530.16 306.85 524.48 307.69   C 519.30 308.46 515.05 304.13 514.75 298.98   Q 514.13 288.36 515.02 278.68   A 2.04 2.04 0.0 0 0 512.99 276.45   L 508.50 276.45   A 2.21 2.21 0.0 0 0 506.29 278.69   Q 506.48 292.23 506.53 298.45   C 506.59 304.77 509.17 308.46 513.67 312.58   C 517.73 316.30 526.71 315.26 531.07 313.35   C 537.61 310.48 539.96 303.63 539.92 297.00   Q 539.82 283.00 540.39 278.75   A 2.04 2.03 3.8 0 0 538.37 276.45   Z   M 560.59 314.62   Q 562.43 314.62 563.98 314.28   A 0.87 0.85 84.0 0 0 564.65 313.44   L 564.65 284.77   A 0.92 0.92 0.0 0 1 565.57 283.85   L 574.44 283.85   A 2.24 2.23 5.9 0 0 576.63 282.07   Q 576.94 280.65 576.45 278.05   A 1.93 1.93 0.0 0 0 574.92 276.51   Q 573.54 276.25 572.00 276.26   Q 566.28 276.32 560.66 276.31   Q 555.04 276.30 549.31 276.22   Q 547.78 276.20 546.40 276.46   A 1.93 1.93 0.0 0 0 544.86 277.99   Q 544.36 280.59 544.67 282.01   A 2.24 2.23 -5.7 0 0 546.85 283.80   L 555.72 283.83   A 0.92 0.92 0.0 0 1 556.64 284.76   L 556.53 313.43   A 0.87 0.85 -83.8 0 0 557.21 314.27   Q 558.75 314.62 560.59 314.62   Z   M 607.33 293.07   Q 607.47 293.14 607.89 293.65   Q 618.05 306.21 621.47 310.75   C 624.33 314.53 626.72 315.12 630.61 315.07   A 0.88 0.87 88.7 0 0 631.47 314.16   Q 630.80 296.00 631.60 277.94   A 1.34 1.33 -88.8 0 0 630.27 276.54   L 624.19 276.54   A 1.41 1.40 87.0 0 0 622.80 278.09   Q 623.80 287.61 622.86 298.35   A 0.67 0.66 30.1 0 1 621.65 298.67   Q 617.68 292.95 608.31 280.80   C 605.26 276.84 603.30 275.24 598.53 276.84   A 1.02 1.01 -11.1 0 0 597.84 277.85   Q 598.78 295.75 597.59 311.89   A 2.44 2.43 2.1 0 0 600.02 314.50   L 604.33 314.50   A 2.56 2.56 0.0 0 0 606.87 311.65   Q 605.85 302.69 606.40 293.64   A 0.67 0.66 13.3 0 1 607.33 293.07   Z   M 700.9813 277.5775   A 1.13 1.13 0.0 0 0 699.8533 276.4455   L 693.5333 276.4345   A 1.13 1.13 0.0 0 0 692.4014 277.5625   L 692.3387 313.4825   A 1.13 1.13 0.0 0 0 693.4667 314.6145   L 699.7867 314.6255   A 1.13 1.13 0.0 0 0 700.9186 313.4975   L 700.9813 277.5775   Z   M 722.56 298.30   Q 728.01 305.07 733.27 311.99   Q 736.36 316.06 741.33 314.69   A 1.52 1.52 0.0 0 0 742.45 313.16   Q 741.85 295.32 742.67 278.66   A 1.97 1.96 1.4 0 0 740.70 276.60   L 735.62 276.60   A 2.03 2.02 86.8 0 0 733.61 278.85   Q 734.66 288.29 734.00 298.10   A 0.68 0.68 0.0 0 1 732.76 298.45   Q 729.53 294.03 728.72 293.03   Q 723.28 286.25 718.01 279.33   Q 714.92 275.26 709.95 276.63   A 1.52 1.52 0.0 0 0 708.83 278.16   Q 709.43 296.00 708.61 312.66   A 1.97 1.96 1.4 0 0 710.58 314.72   L 715.66 314.72   A 2.03 2.02 86.8 0 0 717.67 312.47   Q 716.62 303.03 717.28 293.22   A 0.68 0.68 0.0 0 1 718.52 292.87   Q 721.75 297.29 722.56 298.30   Z   M 590.1219 277.8248   A 1.28 1.28 0.0 0 0 588.8464 276.5403   L 583.0064 276.5199   A 1.28 1.28 0.0 0 0 581.7219 277.7954   L 581.5981 313.2752   A 1.28 1.28 0.0 0 0 582.8736 314.5597   L 588.7136 314.5801   A 1.28 1.28 0.0 0 0 589.9981 313.3046   L 590.1219 277.8248   Z" data-svg-id="svg-elem-1768388991256-kzvsnb0gl" id="svg-elem-1768388991256-kzvsnb0gl"/>
<path fill="#03033a" d="   M 536.21 192.37   L 540.25 193.49   A 0.41 0.41 0.0 0 1 540.33 194.25   Q 538.10 195.43 534.00 196.01   Q 527.64 196.92 519.74 196.68   C 515.37 196.54 510.85 194.45 506.72 193.48   C 495.01 190.74 483.49 181.32 476.17 172.14   C 470.95 165.59 466.46 158.36 465.71 150.47   Q 465.03 143.27 465.52 130.81   Q 465.77 124.44 467.56 119.77   Q 472.32 107.38 481.00 98.51   A 18.32 17.68 4.7 0 1 484.07 96.00   Q 487.06 94.05 495.83 88.82   Q 499.80 86.46 504.88 84.82   Q 523.63 78.79 546.34 78.62   Q 592.59 78.27 636.23 78.75   Q 648.72 78.88 654.36 78.80   C 665.36 78.64 674.16 78.70 684.99 77.55   A 0.66 0.66 0.0 0 0 685.58 76.97   C 685.82 75.04 686.19 72.46 686.13 70.74   Q 685.79 61.69 688.73 53.47   C 689.19 52.18 689.10 49.23 688.84 47.85   Q 687.89 42.67 687.40 35.19   C 687.14 31.20 684.46 30.42 681.30 31.65   Q 680.87 31.82 679.18 31.83   Q 627.73 31.97 563.82 31.85   Q 555.57 31.84 539.79 32.04   Q 531.61 32.15 510.12 31.64   C 505.63 31.54 501.10 32.12 496.82 33.29   C 478.42 38.29 462.54 46.13 445.08 56.16   Q 441.78 58.06 438.64 61.17   Q 432.11 67.65 428.54 71.46   C 422.09 78.36 416.57 86.49 413.08 95.37   C 408.73 106.43 405.68 115.59 405.58 127.06   Q 405.47 138.88 406.43 151.99   C 407.75 170.01 413.91 183.47 423.95 198.16   Q 429.53 206.33 439.47 214.30   Q 454.85 226.65 472.30 233.25   Q 482.96 237.29 490.49 238.34   C 498.16 239.41 507.09 242.24 516.13 242.67   Q 530.97 243.37 536.03 243.36   C 556.14 243.32 570.59 243.99 588.33 243.88   C 598.09 243.82 610.59 243.73 622.34 244.94   A 0.02 0.01 32.6 0 1 622.35 244.97   Q 622.34 244.98 622.32 245.00   A 0.32 0.18 -48.6 0 1 622.17 245.05   L 616.21 245.13   A 2.09 2.01 -57.0 0 0 615.31 245.34   Q 609.58 248.13 603.02 248.71   C 578.32 248.48 554.09 248.73 528.97 247.72   C 515.47 247.18 503.95 245.34 491.33 243.36   Q 483.65 242.16 471.35 237.59   Q 444.43 227.58 425.48 206.01   C 418.15 197.66 413.06 188.66 407.80 176.75   Q 405.44 171.38 404.44 166.93   C 403.46 162.58 401.95 158.10 401.37 153.38   Q 399.10 135.15 401.56 116.80   C 402.23 111.84 403.71 107.38 405.17 102.15   C 408.80 89.15 416.65 76.78 425.82 67.04   Q 436.54 55.65 451.72 47.20   Q 476.32 33.50 503.61 28.60   C 511.40 27.20 520.04 27.39 528.25 27.24   Q 554.01 26.74 587.50 26.85   Q 593.11 26.87 690.03 26.86   A 1.09 1.08 -89.7 0 1 691.11 27.96   Q 690.81 50.45 690.97 74.50   Q 691.00 78.21 691.45 81.85   A 1.01 1.01 0.0 0 1 690.54 82.98   Q 688.75 83.13 685.62 83.13   Q 595.52 83.06 542.24 83.11   Q 535.94 83.12 532.77 83.39   C 528.38 83.76 524.13 83.81 520.16 84.51   C 498.47 88.37 475.35 102.10 470.19 125.26   Q 468.68 132.02 468.61 138.75   Q 468.58 141.36 469.90 148.83   C 472.56 163.89 482.76 176.36 496.02 183.49   Q 510.12 191.08 521.74 191.61   Q 528.98 191.93 536.21 192.37   Z" data-svg-id="svg-elem-1768388991256-8k8mp8170" id="svg-elem-1768388991256-8k8mp8170"/>
<path fill="#201c4f" d="   M 309.44 126.71   Q 309.39 115.56 301.91 104.96   Q 301.89 104.93 301.92 104.89   Q 301.95 104.83 301.96 104.81   A 0.12 0.09 39.3 0 1 302.15 104.82   L 307.38 112.12   A 0.03 0.02 -52.0 0 0 307.42 112.11   Q 307.45 111.99 307.47 111.87   A 0.25 0.04 60.2 0 0 307.40 111.68   C 299.41 97.01 287.42 87.00 270.72 83.27   Q 255.98 79.99 251.73 79.32   Q 241.82 77.76 228.12 77.88   Q 191.27 78.18 181.33 78.49   Q 170.59 78.83 166.48 79.80   Q 153.40 82.92 148.22 83.74   C 141.35 84.83 135.21 88.88 128.86 92.95   Q 124.76 95.57 121.55 99.05   Q 116.12 104.92 115.33 106.32   Q 113.41 109.73 109.96 117.52   Q 106.58 125.14 106.11 129.29   C 104.97 139.30 105.32 149.03 110.13 158.16   C 113.33 164.23 116.74 170.78 120.96 175.17   Q 125.06 179.44 130.28 182.80   C 134.81 185.71 140.65 189.07 145.14 190.44   Q 150.27 192.01 161.32 194.07   C 166.72 195.08 172.82 196.75 177.86 194.08   A 0.38 0.38 0.0 0 0 177.64 193.37   Q 173.96 193.78 170.57 191.97   Q 182.38 192.73 194.25 192.43   C 204.99 192.15 212.93 192.46 223.24 191.43   Q 224.02 191.35 224.89 191.02   A 0.58 0.58 0.0 0 0 225.11 190.09   C 223.96 188.79 221.53 187.33 219.87 185.80   Q 211.37 177.93 204.95 172.64   C 203.31 171.29 202.65 170.18 202.93 168.22   A 1.57 1.57 0.0 0 1 204.27 166.89   Q 206.84 166.54 209.75 166.56   Q 248.07 166.80 285.41 166.48   C 291.08 166.44 297.92 166.37 302.86 170.39   Q 348.27 207.38 383.35 236.40   Q 388.59 240.74 392.84 244.20   Q 395.68 246.51 395.93 250.03   A 1.35 1.34 87.8 0 1 394.61 251.47   L 379.06 251.77   C 377.05 247.00 362.03 247.33 357.75 247.36   Q 336.74 247.50 318.52 247.60   C 312.51 247.63 305.83 247.24 299.13 245.76   Q 292.76 244.35 285.50 244.54   C 278.59 244.72 270.76 246.52 263.00 244.80   C 257.33 243.54 252.99 242.84 248.07 242.95   Q 212.66 243.72 165.81 243.32   C 157.63 243.26 149.00 243.27 141.67 241.43   C 136.19 240.05 133.90 239.42 127.47 238.46   Q 123.01 237.79 118.72 236.38   Q 101.94 230.84 87.62 221.22   C 82.44 217.73 77.97 212.29 73.41 207.96   C 69.09 203.85 66.15 199.65 61.64 194.39   Q 59.04 191.35 56.20 185.25   C 52.55 177.40 48.99 170.77 47.77 162.81   Q 45.08 145.20 46.52 127.58   Q 47.08 120.67 49.53 111.03   Q 52.61 98.88 58.09 89.03   Q 60.71 84.32 66.11 77.89   C 71.71 71.21 77.47 62.84 85.20 57.46   Q 92.24 52.58 103.65 45.52   Q 111.37 40.74 116.20 39.16   Q 122.98 36.93 129.96 36.14   Q 133.06 35.79 135.47 34.34   A 0.32 0.31 35.8 0 0 135.37 33.76   L 128.10 32.06   Q 139.86 30.90 151.58 30.12   Q 153.43 29.99 175.08 28.70   Q 209.96 26.61 245.52 27.95   Q 260.05 28.49 285.35 31.74   Q 310.77 35.00 333.14 49.11   Q 360.03 66.09 372.52 95.22   Q 376.18 103.75 377.59 110.92   C 379.69 121.67 381.42 131.54 380.02 142.25   Q 379.77 144.14 378.05 156.01   Q 376.79 164.73 370.77 178.49   C 369.31 181.82 368.68 185.00 367.54 187.99   A 1.58 1.58 0.0 0 1 365.07 188.65   Q 345.65 172.96 336.88 165.61   C 331.04 160.73 321.92 154.02 316.03 148.47   Q 312.93 145.55 312.03 140.94   Q 310.63 133.76 309.44 126.71   Z" data-svg-id="svg-elem-1768388991256-f928iqjbc" id="svg-elem-1768388991256-f928iqjbc"/>
<rect fill="#201c4f" x="-33.39" y="-27.50" transform="translate(750.22,55.12) rotate(-0.1)" width="66.78" height="55.00" rx="1.47" data-svg-id="svg-elem-1768388991256-vjcxfydto" id="svg-elem-1768388991256-vjcxfydto"/>
<path fill="#201c4f" d="   M 536.21 192.37   L 691.00 192.82   A 0.87 0.87 0.0 0 1 691.87 193.69   L 691.87 248.24   A 1.19 1.19 0.0 0 1 690.67 249.43   L 603.02 248.71   Q 609.58 248.13 615.31 245.34   A 2.09 2.01 -57.0 0 1 616.21 245.13   L 622.17 245.05   A 0.32 0.18 -48.6 0 0 622.32 245.00   Q 622.34 244.98 622.35 244.97   A 0.02 0.01 32.6 0 0 622.34 244.94   C 610.59 243.73 598.09 243.82 588.33 243.88   C 570.59 243.99 556.14 243.32 536.03 243.36   Q 530.97 243.37 516.13 242.67   C 507.09 242.24 498.16 239.41 490.49 238.34   Q 482.96 237.29 472.30 233.25   Q 454.85 226.65 439.47 214.30   Q 429.53 206.33 423.95 198.16   C 413.91 183.47 407.75 170.01 406.43 151.99   Q 405.47 138.88 405.58 127.06   C 405.68 115.59 408.73 106.43 413.08 95.37   C 416.57 86.49 422.09 78.36 428.54 71.46   Q 432.11 67.65 438.64 61.17   Q 441.78 58.06 445.08 56.16   C 462.54 46.13 478.42 38.29 496.82 33.29   C 501.10 32.12 505.63 31.54 510.12 31.64   Q 531.61 32.15 539.79 32.04   Q 555.57 31.84 563.82 31.85   Q 627.73 31.97 679.18 31.83   Q 680.87 31.82 681.30 31.65   C 684.46 30.42 687.14 31.20 687.40 35.19   Q 687.89 42.67 688.84 47.85   C 689.10 49.23 689.19 52.18 688.73 53.47   Q 685.79 61.69 686.13 70.74   C 686.19 72.46 685.82 75.04 685.58 76.97   A 0.66 0.66 0.0 0 1 684.99 77.55   C 674.16 78.70 665.36 78.64 654.36 78.80   Q 648.72 78.88 636.23 78.75   Q 592.59 78.27 546.34 78.62   Q 523.63 78.79 504.88 84.82   Q 499.80 86.46 495.83 88.82   Q 487.06 94.05 484.07 96.00   A 18.32 17.68 4.7 0 0 481.00 98.51   Q 472.32 107.38 467.56 119.77   Q 465.77 124.44 465.52 130.81   Q 465.03 143.27 465.71 150.47   C 466.46 158.36 470.95 165.59 476.17 172.14   C 483.49 181.32 495.01 190.74 506.72 193.48   C 510.85 194.45 515.37 196.54 519.74 196.68   Q 527.64 196.92 534.00 196.01   Q 538.10 195.43 540.33 194.25   A 0.41 0.41 0.0 0 0 540.25 193.49   L 536.21 192.37   Z" data-svg-id="svg-elem-1768388991256-9965va1tn" id="svg-elem-1768388991256-9965va1tn"/>
<path fill="#03033a" d="   M 128.10 32.06   L 135.37 33.76   A 0.32 0.31 35.8 0 1 135.47 34.34   Q 133.06 35.79 129.96 36.14   Q 122.98 36.93 116.20 39.16   Q 111.37 40.74 103.65 45.52   Q 92.24 52.58 85.20 57.46   C 77.47 62.84 71.71 71.21 66.11 77.89   Q 60.71 84.32 58.09 89.03   Q 52.61 98.88 49.53 111.03   Q 47.08 120.67 46.52 127.58   Q 45.08 145.20 47.77 162.81   C 48.99 170.77 52.55 177.40 56.20 185.25   Q 59.04 191.35 61.64 194.39   C 66.15 199.65 69.09 203.85 73.41 207.96   C 77.97 212.29 82.44 217.73 87.62 221.22   Q 101.94 230.84 118.72 236.38   Q 123.01 237.79 127.47 238.46   C 133.90 239.42 136.19 240.05 141.67 241.43   C 149.00 243.27 157.63 243.26 165.81 243.32   Q 212.66 243.72 248.07 242.95   C 252.99 242.84 257.33 243.54 263.00 244.80   C 270.76 246.52 278.59 244.72 285.50 244.54   Q 292.76 244.35 299.13 245.76   C 305.83 247.24 312.51 247.63 318.52 247.60   Q 336.74 247.50 357.75 247.36   C 362.03 247.33 377.05 247.00 379.06 251.77   Q 345.76 251.65 312.50 251.62   C 307.23 251.61 302.79 252.00 298.76 248.89   C 295.41 246.31 293.47 245.24 289.29 245.55   Q 279.92 246.24 278.91 246.28   Q 246.78 247.61 197.00 248.50   Q 190.41 248.62 174.00 248.29   Q 151.84 247.84 129.54 242.87   Q 114.57 239.54 101.25 233.27   Q 61.13 214.37 47.04 173.50   Q 38.66 149.17 42.84 121.52   C 43.62 116.34 45.45 111.66 46.55 106.59   Q 47.07 104.21 48.34 100.70   Q 52.49 89.28 57.67 81.18   C 71.95 58.84 92.85 41.33 119.07 34.37   Q 123.61 33.17 128.10 32.06   Z" data-svg-id="svg-elem-1768388991256-lni3lljne" id="svg-elem-1768388991256-lni3lljne"/>
<path fill="#03033a" d="   M 309.44 126.71   Q 308.05 123.74 306.93 120.73   Q 305.21 116.12 304.53 114.74   C 294.31 93.94 274.70 84.70 252.20 83.77   Q 207.36 81.90 166.92 83.93   Q 151.29 84.72 136.23 93.52   C 122.26 101.69 110.83 117.27 110.83 134.02   C 110.83 142.64 110.58 149.37 113.60 156.97   C 121.12 175.88 137.05 186.38 156.30 190.72   Q 159.42 191.42 170.57 191.97   Q 173.96 193.78 177.64 193.37   A 0.38 0.38 0.0 0 1 177.86 194.08   C 172.82 196.75 166.72 195.08 161.32 194.07   Q 150.27 192.01 145.14 190.44   C 140.65 189.07 134.81 185.71 130.28 182.80   Q 125.06 179.44 120.96 175.17   C 116.74 170.78 113.33 164.23 110.13 158.16   C 105.32 149.03 104.97 139.30 106.11 129.29   Q 106.58 125.14 109.96 117.52   Q 113.41 109.73 115.33 106.32   Q 116.12 104.92 121.55 99.05   Q 124.76 95.57 128.86 92.95   C 135.21 88.88 141.35 84.83 148.22 83.74   Q 153.40 82.92 166.48 79.80   Q 170.59 78.83 181.33 78.49   Q 191.27 78.18 228.12 77.88   Q 241.82 77.76 251.73 79.32   Q 255.98 79.99 270.72 83.27   C 287.42 87.00 299.41 97.01 307.40 111.68   A 0.25 0.04 60.2 0 1 307.47 111.87   Q 307.45 111.99 307.42 112.11   A 0.03 0.02 -52.0 0 1 307.38 112.12   L 302.15 104.82   A 0.12 0.09 39.3 0 0 301.96 104.81   Q 301.95 104.83 301.92 104.89   Q 301.89 104.93 301.91 104.96   Q 309.39 115.56 309.44 126.71   Z" data-svg-id="svg-elem-1768388991256-j40zs6pib" id="svg-elem-1768388991256-j40zs6pib"/>
<rect fill="#201c4f" x="716.85" y="105.80" width="66.76" height="141.86" rx="0.92" data-svg-id="svg-elem-1768388991256-ul5rojqau" id="svg-elem-1768388991256-ul5rojqau"/>
<path fill="#03033a" d="   M 78.11 312.63   Q 78.09 312.65 77.28 313.37   Q 76.79 313.79 76.38 313.92   C 65.79 317.19 55.69 312.40 51.96 302.06   C 49.01 293.89 51.99 283.58 60.15 278.87   Q 69.82 273.29 78.56 278.18   Q 83.81 281.13 86.14 285.78   C 88.96 291.45 90.34 297.24 87.31 302.82   Q 86.43 304.44 85.12 306.61   A 1.81 1.80 57.4 0 0 84.88 307.71   Q 85.18 310.46 87.68 312.44   Q 87.91 312.62 88.03 312.85   Q 88.30 313.36 88.29 313.42   A 1.32 1.32 0.0 0 1 87.15 314.63   Q 81.17 315.48 78.95 312.68   A 0.57 0.57 0.0 0 0 78.11 312.63   Z   M 70.20 298.59   L 78.44 301.20   A 1.47 1.46 13.8 0 0 80.33 300.06   Q 82.06 290.44 75.56 285.42   C 72.04 282.69 68.49 283.00 64.63 284.99   C 59.61 287.58 59.24 294.77 60.11 299.63   C 61.12 305.23 65.93 307.52 71.00 308.19   A 1.07 1.06 -85.3 0 0 72.20 307.17   Q 72.34 303.17 69.40 299.80   A 0.75 0.75 0.0 0 1 70.20 298.59   Z" data-svg-id="svg-elem-1768388991256-onnh4s9ec" id="svg-elem-1768388991256-onnh4s9ec"/>
<path fill="#03033a" d="   M 148.36 276.08   C 150.45 276.08 153.08 276.59 153.89 278.96   Q 159.99 296.88 162.92 306.06   A 5.62 5.38 23.2 0 0 163.30 306.95   Q 164.73 309.59 165.54 312.39   A 2.00 2.00 0.0 0 1 163.62 314.95   L 159.31 314.95   A 2.88 2.88 0.0 0 1 156.48 312.61   L 155.54 307.66   A 1.62 1.61 -2.8 0 0 154.11 306.37   Q 152.91 306.26 148.34 306.25   Q 143.77 306.25 142.57 306.36   A 1.62 1.61 2.9 0 0 141.13 307.65   L 140.18 312.59   A 2.88 2.88 0.0 0 1 137.35 314.93   L 133.04 314.92   A 2.00 2.00 0.0 0 1 131.12 312.36   Q 131.94 309.56 133.37 306.92   A 5.62 5.38 -23.1 0 0 133.75 306.03   Q 136.70 296.86 142.84 278.95   C 143.65 276.59 146.28 276.07 148.36 276.08   Z   M 148.89 285.23   A 0.45 0.44 48.2 0 0 148.06 285.18   Q 145.07 291.67 143.86 299.65   A 0.74 0.74 0.0 0 0 144.44 300.49   Q 147.25 301.07 150.48 300.73   Q 153.05 300.46 152.46 297.83   Q 151.19 292.14 148.89 285.23   Z" data-svg-id="svg-elem-1768388991256-ad5ezjnn4" id="svg-elem-1768388991256-ad5ezjnn4"/>
<path fill="#03033a" d="   M 316.90 291.81   Q 315.92 293.42 315.70 293.97   Q 312.51 302.03 307.65 309.20   A 1.21 1.20 41.2 0 1 305.76 309.32   C 301.89 304.96 299.74 298.82 297.65 293.33   A 0.84 0.83 -35.7 0 0 296.22 293.10   Q 295.55 293.93 295.43 296.00   Q 295.08 302.55 295.92 312.58   A 1.97 1.96 -2.4 0 1 293.96 314.71   L 288.83 314.71   A 2.05 2.04 -88.4 0 1 286.79 312.55   Q 287.59 298.20 286.99 278.19   A 1.44 1.43 -8.7 0 1 288.05 276.76   Q 291.27 275.90 294.84 276.20   A 2.71 2.70 -10.4 0 1 297.05 277.72   L 306.19 296.49   A 0.37 0.36 -43.9 0 0 306.84 296.50   Q 310.61 289.58 314.27 281.24   Q 317.32 274.30 325.28 276.68   A 1.22 1.22 0.0 0 1 326.15 277.85   L 326.15 313.13   A 1.77 1.76 90.0 0 1 324.39 314.90   L 319.38 314.90   A 1.81 1.80 90.0 0 1 317.58 313.09   L 317.58 291.99   A 0.37 0.36 -29.8 0 0 316.90 291.81   Z" data-svg-id="svg-elem-1768388991256-guo9dfsbi" id="svg-elem-1768388991256-guo9dfsbi"/>
<path fill="#03033a" d="   M 400.8100 276.1200   A 19.47 18.89 -90.0 0 1 419.7000 295.5900   A 19.47 18.89 -90.0 0 1 400.8100 315.0600   A 19.47 18.89 -90.0 0 1 381.9200 295.5900   A 19.47 18.89 -90.0 0 1 400.8100 276.1200   Z   M 400.3437 283.3582   A 12.18 10.59 -92.1 0 0 390.2071 295.9181   A 12.18 10.59 -92.1 0 0 401.2363 307.7018   A 12.18 10.59 -92.1 0 0 411.3729 295.1419   A 12.18 10.59 -92.1 0 0 400.3437 283.3582   Z" data-svg-id="svg-elem-1768388991256-lqow1ygbn" id="svg-elem-1768388991256-lqow1ygbn"/>
<path fill="#03033a" d="   M 455.09 293.59   Q 454.57 294.07 454.04 295.05   Q 453.18 296.61 447.97 306.92   C 446.87 309.09 444.79 310.25 443.00 307.87   C 440.21 304.17 438.42 299.24 436.57 294.95   Q 436.18 294.05 435.25 293.23   A 0.67 0.67 0.0 0 0 434.15 293.68   Q 433.14 304.33 434.34 312.12   A 2.12 2.11 -4.4 0 1 432.24 314.56   L 427.20 314.56   A 2.05 2.05 0.0 0 1 425.17 312.19   Q 425.88 307.53 425.58 300.70   C 425.28 293.87 426.34 285.25 425.05 277.73   A 0.99 0.98 -6.5 0 1 425.97 276.58   L 433.84 276.16   A 1.62 1.62 0.0 0 1 435.41 277.13   Q 437.96 282.99 443.10 293.17   Q 444.09 295.12 445.28 296.56   A 0.25 0.25 0.0 0 0 445.70 296.51   Q 449.67 288.30 453.87 278.87   C 455.18 275.93 461.14 276.06 463.79 276.51   A 1.17 1.17 0.0 0 1 464.76 277.66   L 464.76 312.90   A 1.96 1.96 0.0 0 1 462.80 314.86   L 458.41 314.86   A 2.36 2.35 -87.7 0 1 456.07 312.32   Q 456.83 302.58 455.75 293.83   A 0.39 0.39 0.0 0 0 455.09 293.59   Z" data-svg-id="svg-elem-1768388991256-zm95hdece" id="svg-elem-1768388991256-zm95hdece"/>
<path fill="#03033a" d="   M 672.94 294.81   A 0.40 0.40 0.0 0 1 673.37 295.24   Q 672.63 303.76 673.49 313.27   A 1.14 1.14 0.0 0 1 672.64 314.48   C 670.88 314.92 667.20 314.79 666.07 312.87   Q 665.82 312.45 665.38 312.21   Q 665.03 312.02 664.61 312.25   C 662.07 313.61 656.20 315.80 652.99 314.92   Q 637.65 310.71 637.43 295.37   Q 637.29 285.46 645.84 279.41   C 651.46 275.44 660.53 274.45 666.62 279.14   Q 668.48 280.58 670.84 281.69   A 1.41 1.40 -54.9 0 1 671.23 283.96   L 666.87 288.33   A 1.08 1.07 -42.9 0 1 665.30 288.28   C 661.62 284.03 656.12 281.62 650.73 285.01   C 648.36 286.51 647.76 288.27 646.78 290.88   Q 645.29 294.88 646.62 299.66   Q 648.72 307.17 656.66 307.79   A 3.42 3.36 -53.4 0 0 658.19 307.55   L 665.27 304.71   A 1.39 1.39 0.0 0 0 665.17 302.09   L 660.24 300.53   A 2.46 2.46 0.0 0 1 658.53 298.19   L 658.53 296.81   A 2.19 2.19 0.0 0 1 661.11 294.66   Q 665.45 295.46 672.94 294.81   Z" data-svg-id="svg-elem-1768388991256-heryzymzx" id="svg-elem-1768388991256-heryzymzx"/>
<path fill="#03033a" d="   M 756.77 295.61   C 756.81 299.94 758.21 303.85 761.97 306.08   Q 767.16 309.14 771.93 306.24   C 773.48 305.29 774.29 304.00 775.46 303.06   A 1.09 1.08 33.3 0 1 776.45 302.86   Q 780.46 304.05 782.14 306.58   A 2.30 2.29 59.6 0 1 781.29 309.87   C 778.56 311.30 775.71 313.27 773.12 314.13   Q 764.50 317.01 756.46 311.62   C 751.55 308.33 748.02 301.48 747.97 295.69   C 747.92 289.90 751.33 282.99 756.19 279.61   Q 764.13 274.09 772.80 276.82   C 775.41 277.64 778.29 279.56 781.04 280.94   A 2.30 2.29 -60.6 0 1 781.95 284.22   Q 780.31 286.78 776.32 288.04   A 1.09 1.08 -34.3 0 1 775.33 287.85   C 774.14 286.93 773.31 285.66 771.75 284.73   Q 766.93 281.91 761.80 285.06   C 758.07 287.35 756.74 291.29 756.77 295.61   Z" data-svg-id="svg-elem-1768388991256-mdutgfbvg" id="svg-elem-1768388991256-mdutgfbvg"/>
<path fill="#03033a" d="   M 111.09 307.77   C 117.82 307.76 119.47 302.00 119.58 296.22   Q 119.78 286.78 119.29 277.93   A 1.67 1.67 0.0 0 1 120.96 276.17   L 126.44 276.17   A 1.75 1.74 0.8 0 1 128.19 277.96   Q 127.95 286.15 128.03 293.78   C 128.12 301.37 127.04 305.98 122.28 311.03   C 119.45 314.04 115.30 315.03 111.11 315.04   C 106.91 315.05 102.76 314.07 99.92 311.08   C 95.13 306.05 94.03 301.44 94.09 293.85   Q 94.14 286.22 93.86 278.04   A 1.75 1.74 -1.0 0 1 95.60 276.24   L 101.08 276.21   A 1.67 1.67 0.0 0 1 102.76 277.97   Q 102.31 286.82 102.55 296.26   C 102.69 302.04 104.36 307.79 111.09 307.77   Z" data-svg-id="svg-elem-1768388991256-ahkojs54i" id="svg-elem-1768388991256-ahkojs54i"/>
<path fill="#03033a" d="   M 179.13 292.65   A 0.15 0.15 0.0 0 0 178.87 292.75   L 178.87 312.83   A 1.92 1.92 0.0 0 1 176.95 314.75   L 172.28 314.75   A 1.97 1.97 0.0 0 1 170.31 312.75   C 170.58 295.48 171.08 286.57 170.14 278.47   A 1.71 1.70 -12.0 0 1 171.34 276.64   Q 176.86 274.98 180.16 279.59   Q 184.40 285.51 195.06 299.51   A 0.28 0.28 0.0 0 0 195.57 299.34   L 195.57 277.74   A 1.41 1.40 0.0 0 1 196.98 276.34   L 202.15 276.34   A 1.90 1.89 0.0 0 1 204.05 278.23   L 204.05 314.07   A 0.63 0.62 86.3 0 1 203.51 314.69   C 201.48 314.98 197.27 315.21 195.96 313.40   Q 187.81 302.07 179.13 292.65   Z" data-svg-id="svg-elem-1768388991256-3l50kx6n5" id="svg-elem-1768388991256-3l50kx6n5"/>
<path fill="#03033a" d="   M 228.19 314.79   L 221.79 314.79   A 1.12 1.12 0.0 0 1 220.67 313.67   L 220.67 284.68   A 1.12 1.12 0.0 0 0 219.55 283.56   L 209.87 283.56   A 1.12 1.12 0.0 0 1 208.75 282.44   L 208.75 277.53   A 1.12 1.12 0.0 0 1 209.87 276.41   L 240.36 276.41   A 1.12 1.12 0.0 0 1 241.48 277.53   L 241.48 282.59   A 1.12 1.12 0.0 0 1 240.36 283.71   L 230.43 283.71   A 1.12 1.12 0.0 0 0 229.31 284.83   L 229.31 313.67   A 1.12 1.12 0.0 0 1 228.19 314.79   Z" data-svg-id="svg-elem-1768388991256-i4xqe0tpw" id="svg-elem-1768388991256-i4xqe0tpw"/>
<path fill="#03033a" d="   M 262.41 315.06   C 258.22 315.03 254.08 314.03 251.27 311.02   C 246.53 305.96 245.47 301.35 245.58 293.77   Q 245.69 286.16 245.48 277.98   A 1.75 1.74 -0.6 0 1 247.23 276.20   L 252.70 276.21   A 1.67 1.67 0.0 0 1 254.36 277.98   Q 253.84 286.81 254.01 296.24   C 254.11 302.01 255.73 307.76 262.45 307.80   C 269.17 307.84 270.85 302.10 271.02 296.33   Q 271.29 286.91 270.87 278.07   A 1.67 1.67 0.0 0 1 272.55 276.32   L 278.02 276.37   A 1.75 1.74 1.2 0 1 279.75 278.17   Q 279.45 286.34 279.47 293.96   C 279.50 301.54 278.39 306.13 273.60 311.14   C 270.75 314.12 266.60 315.08 262.41 315.06   Z" data-svg-id="svg-elem-1768388991256-buiranvsq" id="svg-elem-1768388991256-buiranvsq"/>
<path fill="#03033a" d="   M 378.12 306.46   A 1.89 1.89 0.0 0 1 377.80 309.39   Q 371.16 313.64 369.75 314.06   Q 358.08 317.51 350.18 308.83   Q 341.92 299.77 346.21 287.93   Q 347.44 284.54 350.16 281.90   Q 358.38 273.91 369.56 276.95   Q 372.15 277.66 377.03 281.05   A 2.41 2.40 -57.5 0 1 377.73 284.22   L 376.27 286.75   A 2.52 2.51 -58.6 0 1 372.74 287.61   C 371.20 286.63 369.12 284.76 367.03 283.99   Q 360.85 281.71 356.22 286.86   C 351.01 292.65 352.25 302.69 359.23 306.57   C 364.73 309.63 368.05 306.55 372.40 303.72   A 2.68 2.67 51.0 0 1 375.74 304.08   L 378.12 306.46   Z" data-svg-id="svg-elem-1768388991256-pb01oaak2" id="svg-elem-1768388991256-pb01oaak2"/>
<path fill="#03033a" d="   M 481.22 301.91   L 481.80 312.71   A 1.75 1.74 87.0 0 1 480.15 314.55   L 474.57 314.85   A 1.73 1.72 -1.6 0 1 472.75 313.13   L 472.75 277.59   A 1.00 0.99 88.5 0 1 473.69 276.59   Q 481.41 276.18 488.97 276.36   Q 493.75 276.47 497.31 279.88   Q 501.44 283.81 500.98 290.14   C 500.59 295.43 497.18 301.56 491.25 302.01   Q 486.11 302.41 481.69 301.51   A 0.39 0.39 0.0 0 0 481.22 301.91   Z   M 481.23 284.58   L 481.35 294.26   A 1.14 1.14 0.0 0 0 482.50 295.39   L 486.37 295.34   A 7.07 5.75 -0.7 0 0 493.37 289.51   L 493.37 289.05   A 7.07 5.75 -0.7 0 0 486.23 283.38   L 482.36 283.43   A 1.14 1.14 0.0 0 0 481.23 284.58   Z" data-svg-id="svg-elem-1768388991256-l4n0lio3a" id="svg-elem-1768388991256-l4n0lio3a"/>
<path fill="#03033a" d="   M 538.37 276.45   A 2.04 2.03 3.8 0 1 540.39 278.75   Q 539.82 283.00 539.92 297.00   C 539.96 303.63 537.61 310.48 531.07 313.35   C 526.71 315.26 517.73 316.30 513.67 312.58   C 509.17 308.46 506.59 304.77 506.53 298.45   Q 506.48 292.23 506.29 278.69   A 2.21 2.21 0.0 0 1 508.50 276.45   L 512.99 276.45   A 2.04 2.04 0.0 0 1 515.02 278.68   Q 514.13 288.36 514.75 298.98   C 515.05 304.13 519.30 308.46 524.48 307.69   C 530.16 306.85 531.93 300.72 531.94 295.51   Q 531.97 285.60 531.52 278.93   A 2.32 2.32 0.0 0 1 533.83 276.45   L 538.37 276.45   Z" data-svg-id="svg-elem-1768388991256-33qup7eno" id="svg-elem-1768388991256-33qup7eno"/>
<path fill="#03033a" d="   M 560.66 276.31   Q 566.28 276.32 572.00 276.26   Q 573.54 276.25 574.92 276.51   A 1.93 1.93 0.0 0 1 576.45 278.05   Q 576.94 280.65 576.63 282.07   A 2.24 2.23 5.9 0 1 574.44 283.85   L 565.57 283.85   A 0.92 0.92 0.0 0 0 564.65 284.77   L 564.65 313.44   A 0.87 0.85 84.0 0 1 563.98 314.28   Q 562.43 314.62 560.59 314.62   Q 558.75 314.62 557.21 314.27   A 0.87 0.85 -83.8 0 1 556.53 313.43   L 556.64 284.76   A 0.92 0.92 0.0 0 0 555.72 283.83   L 546.85 283.80   A 2.24 2.23 -5.7 0 1 544.67 282.01   Q 544.36 280.59 544.86 277.99   A 1.93 1.93 0.0 0 1 546.40 276.46   Q 547.78 276.20 549.31 276.22   Q 555.04 276.30 560.66 276.31   Z" data-svg-id="svg-elem-1768388991256-9clndvxi8" id="svg-elem-1768388991256-9clndvxi8"/>
<path fill="#03033a" d="   M 607.33 293.07   A 0.67 0.66 13.3 0 0 606.40 293.64   Q 605.85 302.69 606.87 311.65   A 2.56 2.56 0.0 0 1 604.33 314.50   L 600.02 314.50   A 2.44 2.43 2.1 0 1 597.59 311.89   Q 598.78 295.75 597.84 277.85   A 1.02 1.01 -11.1 0 1 598.53 276.84   C 603.30 275.24 605.26 276.84 608.31 280.80   Q 617.68 292.95 621.65 298.67   A 0.67 0.66 30.1 0 0 622.86 298.35   Q 623.80 287.61 622.80 278.09   A 1.41 1.40 87.0 0 1 624.19 276.54   L 630.27 276.54   A 1.34 1.33 -88.8 0 1 631.60 277.94   Q 630.80 296.00 631.47 314.16   A 0.88 0.87 88.7 0 1 630.61 315.07   C 626.72 315.12 624.33 314.53 621.47 310.75   Q 618.05 306.21 607.89 293.65   Q 607.47 293.14 607.33 293.07   Z" data-svg-id="svg-elem-1768388991256-wafync152" id="svg-elem-1768388991256-wafync152"/>
<rect fill="#03033a" x="-4.29" y="-19.09" transform="translate(696.66,295.53) rotate(0.1)" width="8.58" height="38.18" rx="1.13" data-svg-id="svg-elem-1768388991256-a3l4ass27" id="svg-elem-1768388991256-a3l4ass27"/>
<path fill="#03033a" d="   M 728.72 293.03   Q 729.53 294.03 732.76 298.45   A 0.68 0.68 0.0 0 0 734.00 298.10   Q 734.66 288.29 733.61 278.85   A 2.03 2.02 86.8 0 1 735.62 276.60   L 740.70 276.60   A 1.97 1.96 1.4 0 1 742.67 278.66   Q 741.85 295.32 742.45 313.16   A 1.52 1.52 0.0 0 1 741.33 314.69   Q 736.36 316.06 733.27 311.99   Q 728.01 305.07 722.56 298.30   Q 721.75 297.29 718.52 292.87   A 0.68 0.68 0.0 0 0 717.28 293.22   Q 716.62 303.03 717.67 312.47   A 2.03 2.02 86.8 0 1 715.66 314.72   L 710.58 314.72   A 1.97 1.96 1.4 0 1 708.61 312.66   Q 709.43 296.00 708.83 278.16   A 1.52 1.52 0.0 0 1 709.95 276.63   Q 714.92 275.26 718.01 279.33   Q 723.28 286.25 728.72 293.03   Z" data-svg-id="svg-elem-1768388991256-s4llycsw3" id="svg-elem-1768388991256-s4llycsw3"/>
<rect fill="#03033a" x="-4.20" y="-19.02" transform="translate(585.86,295.55) rotate(0.2)" width="8.40" height="38.04" rx="1.28" data-svg-id="svg-elem-1768388991256-pgykgocw0" id="svg-elem-1768388991256-pgykgocw0"/>
<path fill="#ffffff" d="   M 70.20 298.59   A 0.75 0.75 0.0 0 0 69.40 299.80   Q 72.34 303.17 72.20 307.17   A 1.07 1.06 -85.3 0 1 71.00 308.19   C 65.93 307.52 61.12 305.23 60.11 299.63   C 59.24 294.77 59.61 287.58 64.63 284.99   C 68.49 283.00 72.04 282.69 75.56 285.42   Q 82.06 290.44 80.33 300.06   A 1.47 1.46 13.8 0 1 78.44 301.20   L 70.20 298.59   Z" data-svg-id="svg-elem-1768388991256-w4e93fo69" id="svg-elem-1768388991256-w4e93fo69"/>
<ellipse fill="#ffffff" cx="0.00" cy="0.00" transform="translate(400.79,295.53) rotate(-92.1)" rx="12.18" ry="10.59" data-svg-id="svg-elem-1768388991256-n0adl9gwe" id="svg-elem-1768388991256-n0adl9gwe"/>
<path fill="#ffffff" d="   M 481.23 284.58   A 1.14 1.14 0.0 0 1 482.36 283.43   L 486.23 283.38   A 7.07 5.75 -0.7 0 1 493.37 289.05   L 493.37 289.51   A 7.07 5.75 -0.7 0 1 486.37 295.34   L 482.50 295.39   A 1.14 1.14 0.0 0 1 481.35 294.26   L 481.23 284.58   Z" data-svg-id="svg-elem-1768388991256-hdr6i9lhc" id="svg-elem-1768388991256-hdr6i9lhc"/>
<path fill="#ffffff" d="   M 148.89 285.23   Q 151.19 292.14 152.46 297.83   Q 153.05 300.46 150.48 300.73   Q 147.25 301.07 144.44 300.49   A 0.74 0.74 0.0 0 1 143.86 299.65   Q 145.07 291.67 148.06 285.18   A 0.45 0.44 48.2 0 1 148.89 285.23   Z" data-svg-id="svg-elem-1768388991256-n7fzo8e67" id="svg-elem-1768388991256-n7fzo8e67"/>
</svg>