<svg xmlns="http://www.w3.org/2000/svg" version="1.1" viewBox="-20 -20 1064 375">
<g stroke-width="2.00" fill="none" stroke-linecap="butt" data-svg-id="svg-elem-1768389219770-ja25hfbyb" id="svg-elem-1768389219770-ja25hfbyb">
<path stroke="#8292a5" vector-effect="non-scaling-stroke" d="   M 215.22 261.93   L 215.22 253.20   A 0.72 0.72 0.0 0 1 215.74 252.51   C 279.30 234.31 314.96 167.43 293.39 104.33   Q 285.84 82.26 270.07 64.93   C 224.38 14.73 145.66 14.20 99.79 64.54   C 57.61 110.83 60.46 182.33 105.94 225.35   Q 130.68 248.76 165.59 255.26   A 0.39 0.38 -84.6 0 1 165.90 255.64   L 165.90 306.90   A 0.41 0.40 0.0 0 0 166.31 307.30   L 298.75 307.30   A 0.57 0.57 0.0 0 0 299.32 306.73   L 299.32 262.99   A 0.60 0.60 0.0 0 0 298.72 262.39   L 215.69 262.39   A 0.47 0.46 -0.0 0 1 215.22 261.93" data-svg-id="svg-elem-1768389219770-ztvrqja5k" id="svg-elem-1768389219770-ztvrqja5k"/>
<path stroke="#8292a5" vector-effect="non-scaling-stroke" d="   M 617.80 80.65   A 0.51 0.51 0.0 0 0 618.31 80.14   L 618.31 40.58   A 0.51 0.51 0.0 0 0 617.80 40.07   L 467.69 40.07   A 0.51 0.51 0.0 0 0 467.18 40.58   L 467.18 251.94   A 0.51 0.51 0.0 0 0 467.69 252.45   L 619.28 252.45   A 0.51 0.51 0.0 0 0 619.79 251.94   L 619.79 211.94   A 0.51 0.51 0.0 0 0 619.28 211.43   L 515.03 211.43   A 0.51 0.51 0.0 0 1 514.52 210.92   L 514.52 164.14   A 0.51 0.51 0.0 0 1 515.03 163.63   L 608.85 163.63   A 0.51 0.51 0.0 0 0 609.36 163.12   L 609.36 124.73   A 0.51 0.51 0.0 0 0 608.85 124.22   L 515.03 124.22   A 0.51 0.51 0.0 0 1 514.52 123.71   L 514.52 81.16   A 0.51 0.51 0.0 0 1 515.03 80.65   L 617.80 80.65" data-svg-id="svg-elem-1768389219770-oy8cxl61c" id="svg-elem-1768389219770-oy8cxl61c"/>
<path stroke="#8292a5" vector-effect="non-scaling-stroke" d="   M 736.38 176.29   C 736.38 194.59 741.39 212.06 752.62 226.39   C 767.16 244.92 788.34 253.89 811.80 252.25   Q 831.40 250.89 846.19 238.11   A 0.37 0.37 0.0 0 1 846.81 238.39   L 846.81 248.85   A 0.62 0.61 0.0 0 0 847.43 249.46   L 891.49 249.46   A 0.56 0.55 -0.2 0 0 892.05 248.90   Q 892.01 244.66 892.03 176.34   Q 892.06 108.01 892.10 103.78   A 0.56 0.55 0.2 0 0 891.54 103.22   L 847.48 103.19   A 0.62 0.61 0.0 0 0 846.86 103.80   L 846.85 114.26   A 0.37 0.37 0.0 0 1 846.23 114.54   Q 831.45 101.75 811.85 100.37   C 788.39 98.72 767.21 107.67 752.66 126.20   C 741.41 140.51 736.39 157.98 736.38 176.29" data-svg-id="svg-elem-1768389219770-f1omktc3g" id="svg-elem-1768389219770-f1omktc3g"/>
<path stroke="#8292a5" vector-effect="non-scaling-stroke" d="   M 381.47 252.47   C 402.58 252.48 422.43 245.40 436.10 228.72   Q 445.91 216.75 449.01 200.31   Q 450.07 194.67 450.03 171.61   Q 449.94 123.48 450.04 103.59   A 0.68 0.67 0.0 0 0 449.36 102.92   L 404.41 102.92   A 0.52 0.51 -0.0 0 0 403.89 103.43   Q 403.93 150.25 403.80 188.75   C 403.75 202.38 395.18 211.40 381.49 211.39   C 367.79 211.39 359.23 202.37 359.19 188.74   Q 359.08 150.24 359.14 103.42   A 0.52 0.51 0.0 0 0 358.62 102.91   L 313.67 102.88   A 0.68 0.67 0.0 0 0 312.99 103.55   Q 313.08 123.44 312.96 171.57   Q 312.91 194.63 313.97 200.27   Q 317.06 216.71 326.87 228.69   C 340.52 245.38 360.37 252.46 381.47 252.47" data-svg-id="svg-elem-1768389219770-fdvc9ptow" id="svg-elem-1768389219770-fdvc9ptow"/>
<path stroke="#8292a5" vector-effect="non-scaling-stroke" d="   M 682.15 116.55   L 682.15 106.76   A 0.57 0.57 0.0 0 0 681.58 106.19   L 636.57 106.19   A 0.47 0.46 -90.0 0 0 636.11 106.66   L 636.11 251.66   A 0.79 0.79 0.0 0 0 636.90 252.45   L 681.55 252.45   A 0.64 0.64 0.0 0 0 682.19 251.81   Q 682.10 235.65 682.19 171.25   C 682.21 156.91 688.56 145.90 703.62 144.06   Q 712.97 142.91 720.89 147.50   C 721.87 148.07 723.00 149.35 723.98 149.75   A 0.59 0.58 -69.0 0 0 724.74 149.40   Q 732.41 127.84 749.35 114.14   A 0.55 0.55 0.0 0 0 749.36 113.30   C 737.32 102.73 719.58 101.33 704.58 104.86   C 697.52 106.52 689.06 110.22 684.17 115.50   Q 683.15 116.60 682.67 116.86   A 0.35 0.35 0.0 0 1 682.15 116.55" data-svg-id="svg-elem-1768389219770-xd8b9zwc4" id="svg-elem-1768389219770-xd8b9zwc4"/>
<path stroke="#d2a9fc" vector-effect="non-scaling-stroke" d="   M 39.29 121.29   A 15.79 15.79 0.0 0 0 23.50 105.50   A 15.79 15.79 0.0 0 0 7.71 121.29   A 15.79 15.79 0.0 0 0 23.50 137.08   A 15.79 15.79 0.0 0 0 39.29 121.29" data-svg-id="svg-elem-1768389219770-xt7pvvzme" id="svg-elem-1768389219770-xt7pvvzme"/>
<path stroke="#ffbe93" vector-effect="non-scaling-stroke" d="   M 956.79 121.48   A 15.73 15.73 0.0 0 0 941.06 105.75   A 15.73 15.73 0.0 0 0 925.33 121.48   A 15.73 15.73 0.0 0 0 941.06 137.21   A 15.73 15.73 0.0 0 0 956.79 121.48" data-svg-id="svg-elem-1768389219770-4usov2gje" id="svg-elem-1768389219770-4usov2gje"/>
<path stroke="#ffbe93" vector-effect="non-scaling-stroke" d="   M 985.18 150.03   A 15.73 15.73 0.0 0 0 969.45 134.30   A 15.73 15.73 0.0 0 0 953.72 150.03   A 15.73 15.73 0.0 0 0 969.45 165.76   A 15.73 15.73 0.0 0 0 985.18 150.03" data-svg-id="svg-elem-1768389219770-yqv949h1f" id="svg-elem-1768389219770-yqv949h1f"/>
<path stroke="#e6b4f9" vector-effect="non-scaling-stroke" d="   M 19.47 144.16   A 15.80 15.80 0.0 0 0 9.84 167.44   A 15.82 15.81 65.4 0 0 28.56 174.42" data-svg-id="svg-elem-1768389219770-2366t6be8" id="svg-elem-1768389219770-2366t6be8"/>
<path stroke="#d2a9fc" vector-effect="non-scaling-stroke" d="   M 28.56 174.42   A 15.82 15.81 -12.1 0 0 39.22 157.98   A 15.81 15.79 14.5 0 0 32.37 146.38   A 15.79 15.77 -35.2 0 0 19.47 144.16" data-svg-id="svg-elem-1768389219770-j6dr7lv1q" id="svg-elem-1768389219770-j6dr7lv1q"/>
<path stroke="#b95ef6" vector-effect="non-scaling-stroke" d="   M 28.56 174.42   L 19.47 144.16" data-svg-id="svg-elem-1768389219770-5jy2y62xe" id="svg-elem-1768389219770-5jy2y62xe"/>
<path stroke="#ffbe93" vector-effect="non-scaling-stroke" d="   M 1013.37 178.58   A 15.74 15.74 0.0 0 0 997.63 162.84   A 15.74 15.74 0.0 0 0 981.89 178.58   A 15.74 15.74 0.0 0 0 997.63 194.32   A 15.74 15.74 0.0 0 0 1013.37 178.58" data-svg-id="svg-elem-1768389219770-ph5fpwlgp" id="svg-elem-1768389219770-ph5fpwlgp"/>
<path stroke="#e6b4f9" vector-effect="non-scaling-stroke" d="   M 39.27 197.61   A 15.79 15.79 0.0 0 0 23.48 181.82   A 15.79 15.79 0.0 0 0 7.69 197.61   A 15.79 15.79 0.0 0 0 23.48 213.40   A 15.79 15.79 0.0 0 0 39.27 197.61" data-svg-id="svg-elem-1768389219770-nd6erk84v" id="svg-elem-1768389219770-nd6erk84v"/>
<path stroke="#fdc0e4" vector-effect="non-scaling-stroke" d="   M 984.99 207.11   A 15.76 15.76 0.0 0 0 969.23 191.35   A 15.76 15.76 0.0 0 0 953.47 207.11   A 15.76 15.76 0.0 0 0 969.23 222.87   A 15.76 15.76 0.0 0 0 984.99 207.11" data-svg-id="svg-elem-1768389219770-8aua8lyaq" id="svg-elem-1768389219770-8aua8lyaq"/>
<path stroke="#e6b4f9" vector-effect="non-scaling-stroke" d="   M 956.64 235.61   A 15.75 15.75 0.0 0 0 940.89 219.86   A 15.75 15.75 0.0 0 0 925.14 235.61   A 15.75 15.75 0.0 0 0 940.89 251.36   A 15.75 15.75 0.0 0 0 956.64 235.61" data-svg-id="svg-elem-1768389219770-6y9fm5tag" id="svg-elem-1768389219770-6y9fm5tag"/>
<path stroke="#e6b4f9" vector-effect="non-scaling-stroke" d="   M 39.28 235.81   A 15.78 15.78 0.0 0 0 23.50 220.03   A 15.78 15.78 0.0 0 0 7.72 235.81   A 15.78 15.78 0.0 0 0 23.50 251.59   A 15.78 15.78 0.0 0 0 39.28 235.81" data-svg-id="svg-elem-1768389219770-1904ibpr3" id="svg-elem-1768389219770-1904ibpr3"/>
<path stroke="#8292a5" vector-effect="non-scaling-stroke" d="   M 249.16 141.88   A 64.38 64.38 0.0 0 0 184.78 77.50   A 64.38 64.38 0.0 0 0 120.40 141.88   A 64.38 64.38 0.0 0 0 184.78 206.26   A 64.38 64.38 0.0 0 0 249.16 141.88" data-svg-id="svg-elem-1768389219770-ud56q972k" id="svg-elem-1768389219770-ud56q972k"/>
<path stroke="#8292a5" vector-effect="non-scaling-stroke" d="   M 783.25 176.97   C 783.64 196.27 796.66 211.26 816.65 210.86   C 836.64 210.46 849.04 194.95 848.65 175.66   C 848.26 156.36 835.25 141.37 815.26 141.77   C 795.27 142.17 782.87 157.68 783.25 176.97" data-svg-id="svg-elem-1768389219770-8iexp1fz7" id="svg-elem-1768389219770-8iexp1fz7"/>
</g>
<path fill="rgb(255, 255, 255)" d="   M 1024.00 0.00   L 1024.00 335.00   L 0.00 335.00   L 0.00 0.00   L 1024.00 0.00   Z   M 215.22 261.93   L 215.22 253.20   A 0.72 0.72 0.0 0 1 215.74 252.51   C 279.30 234.31 314.96 167.43 293.39 104.33   Q 285.84 82.26 270.07 64.93   C 224.38 14.73 145.66 14.20 99.79 64.54   C 57.61 110.83 60.46 182.33 105.94 225.35   Q 130.68 248.76 165.59 255.26   A 0.39 0.38 -84.6 0 1 165.90 255.64   L 165.90 306.90   A 0.41 0.40 0.0 0 0 166.31 307.30   L 298.75 307.30   A 0.57 0.57 0.0 0 0 299.32 306.73   L 299.32 262.99   A 0.60 0.60 0.0 0 0 298.72 262.39   L 215.69 262.39   A 0.47 0.46 -0.0 0 1 215.22 261.93   Z   M 617.80 80.65   A 0.51 0.51 0.0 0 0 618.31 80.14   L 618.31 40.58   A 0.51 0.51 0.0 0 0 617.80 40.07   L 467.69 40.07   A 0.51 0.51 0.0 0 0 467.18 40.58   L 467.18 251.94   A 0.51 0.51 0.0 0 0 467.69 252.45   L 619.28 252.45   A 0.51 0.51 0.0 0 0 619.79 251.94   L 619.79 211.94   A 0.51 0.51 0.0 0 0 619.28 211.43   L 515.03 211.43   A 0.51 0.51 0.0 0 1 514.52 210.92   L 514.52 164.14   A 0.51 0.51 0.0 0 1 515.03 163.63   L 608.85 163.63   A 0.51 0.51 0.0 0 0 609.36 163.12   L 609.36 124.73   A 0.51 0.51 0.0 0 0 608.85 124.22   L 515.03 124.22   A 0.51 0.51 0.0 0 1 514.52 123.71   L 514.52 81.16   A 0.51 0.51 0.0 0 1 515.03 80.65   L 617.80 80.65   Z   M 736.38 176.29   C 736.38 194.59 741.39 212.06 752.62 226.39   C 767.16 244.92 788.34 253.89 811.80 252.25   Q 831.40 250.89 846.19 238.11   A 0.37 0.37 0.0 0 1 846.81 238.39   L 846.81 248.85   A 0.62 0.61 0.0 0 0 847.43 249.46   L 891.49 249.46   A 0.56 0.55 -0.2 0 0 892.05 248.90   Q 892.01 244.66 892.03 176.34   Q 892.06 108.01 892.10 103.78   A 0.56 0.55 0.2 0 0 891.54 103.22   L 847.48 103.19   A 0.62 0.61 0.0 0 0 846.86 103.80   L 846.85 114.26   A 0.37 0.37 0.0 0 1 846.23 114.54   Q 831.45 101.75 811.85 100.37   C 788.39 98.72 767.21 107.67 752.66 126.20   C 741.41 140.51 736.39 157.98 736.38 176.29   Z   M 381.47 252.47   C 402.58 252.48 422.43 245.40 436.10 228.72   Q 445.91 216.75 449.01 200.31   Q 450.07 194.67 450.03 171.61   Q 449.94 123.48 450.04 103.59   A 0.68 0.67 0.0 0 0 449.36 102.92   L 404.41 102.92   A 0.52 0.51 -0.0 0 0 403.89 103.43   Q 403.93 150.25 403.80 188.75   C 403.75 202.38 395.18 211.40 381.49 211.39   C 367.79 211.39 359.23 202.37 359.19 188.74   Q 359.08 150.24 359.14 103.42   A 0.52 0.51 0.0 0 0 358.62 102.91   L 313.67 102.88   A 0.68 0.67 0.0 0 0 312.99 103.55   Q 313.08 123.44 312.96 171.57   Q 312.91 194.63 313.97 200.27   Q 317.06 216.71 326.87 228.69   C 340.52 245.38 360.37 252.46 381.47 252.47   Z   M 682.15 116.55   L 682.15 106.76   A 0.57 0.57 0.0 0 0 681.58 106.19   L 636.57 106.19   A 0.47 0.46 -90.0 0 0 636.11 106.66   L 636.11 251.66   A 0.79 0.79 0.0 0 0 636.90 252.45   L 681.55 252.45   A 0.64 0.64 0.0 0 0 682.19 251.81   Q 682.10 235.65 682.19 171.25   C 682.21 156.91 688.56 145.90 703.62 144.06   Q 712.97 142.91 720.89 147.50   C 721.87 148.07 723.00 149.35 723.98 149.75   A 0.59 0.58 -69.0 0 0 724.74 149.40   Q 732.41 127.84 749.35 114.14   A 0.55 0.55 0.0 0 0 749.36 113.30   C 737.32 102.73 719.58 101.33 704.58 104.86   C 697.52 106.52 689.06 110.22 684.17 115.50   Q 683.15 116.60 682.67 116.86   A 0.35 0.35 0.0 0 1 682.15 116.55   Z   M 39.29 121.29   A 15.79 15.79 0.0 0 0 23.50 105.50   A 15.79 15.79 0.0 0 0 7.71 121.29   A 15.79 15.79 0.0 0 0 23.50 137.08   A 15.79 15.79 0.0 0 0 39.29 121.29   Z   M 956.79 121.48   A 15.73 15.73 0.0 0 0 941.06 105.75   A 15.73 15.73 0.0 0 0 925.33 121.48   A 15.73 15.73 0.0 0 0 941.06 137.21   A 15.73 15.73 0.0 0 0 956.79 121.48   Z   M 985.18 150.03   A 15.73 15.73 0.0 0 0 969.45 134.30   A 15.73 15.73 0.0 0 0 953.72 150.03   A 15.73 15.73 0.0 0 0 969.45 165.76   A 15.73 15.73 0.0 0 0 985.18 150.03   Z   M 19.47 144.16   A 15.80 15.80 0.0 0 0 9.84 167.44   A 15.82 15.81 65.4 0 0 28.56 174.42   A 15.82 15.81 -12.1 0 0 39.22 157.98   A 15.81 15.79 14.5 0 0 32.37 146.38   A 15.79 15.77 -35.2 0 0 19.47 144.16   Z   M 1013.37 178.58   A 15.74 15.74 0.0 0 0 997.63 162.84   A 15.74 15.74 0.0 0 0 981.89 178.58   A 15.74 15.74 0.0 0 0 997.63 194.32   A 15.74 15.74 0.0 0 0 1013.37 178.58   Z   M 39.27 197.61   A 15.79 15.79 0.0 0 0 23.48 181.82   A 15.79 15.79 0.0 0 0 7.69 197.61   A 15.79 15.79 0.0 0 0 23.48 213.40   A 15.79 15.79 0.0 0 0 39.27 197.61   Z   M 984.99 207.11   A 15.76 15.76 0.0 0 0 969.23 191.35   A 15.76 15.76 0.0 0 0 953.47 207.11   A 15.76 15.76 0.0 0 0 969.23 222.87   A 15.76 15.76 0.0 0 0 984.99 207.11   Z   M 956.64 235.61   A 15.75 15.75 0.0 0 0 940.89 219.86   A 15.75 15.75 0.0 0 0 925.14 235.61   A 15.75 15.75 0.0 0 0 940.89 251.36   A 15.75 15.75 0.0 0 0 956.64 235.61   Z   M 39.28 235.81   A 15.78 15.78 0.0 0 0 23.50 220.03   A 15.78 15.78 0.0 0 0 7.72 235.81   A 15.78 15.78 0.0 0 0 23.50 251.59   A 15.78 15.78 0.0 0 0 39.28 235.81   Z" data-svg-id="svg-elem-1768389219770-n9y71n1ju" id="svg-elem-1768389219770-n9y71n1ju" data-original-fill="rgb(255, 255, 255)"/>
<path fill="#05254b" d="   M 215.22 261.93   A 0.47 0.46 -0.0 0 0 215.69 262.39   L 298.72 262.39   A 0.60 0.60 0.0 0 1 299.32 262.99   L 299.32 306.73   A 0.57 0.57 0.0 0 1 298.75 307.30   L 166.31 307.30   A 0.41 0.40 0.0 0 1 165.90 306.90   L 165.90 255.64   A 0.39 0.38 -84.6 0 0 165.59 255.26   Q 130.68 248.76 105.94 225.35   C 60.46 182.33 57.61 110.83 99.79 64.54   C 145.66 14.20 224.38 14.73 270.07 64.93   Q 285.84 82.26 293.39 104.33   C 314.96 167.43 279.30 234.31 215.74 252.51   A 0.72 0.72 0.0 0 0 215.22 253.20   L 215.22 261.93   Z   M 249.16 141.88   A 64.38 64.38 0.0 0 0 184.78 77.50   A 64.38 64.38 0.0 0 0 120.40 141.88   A 64.38 64.38 0.0 0 0 184.78 206.26   A 64.38 64.38 0.0 0 0 249.16 141.88   Z" data-svg-id="svg-elem-1768389219770-er5klrp18" id="svg-elem-1768389219770-er5klrp18" data-original-fill="rgb(5, 37, 75)"/>
<path fill="#05254b" d="   M 617.80 80.65   L 515.03 80.65   A 0.51 0.51 0.0 0 0 514.52 81.16   L 514.52 123.71   A 0.51 0.51 0.0 0 0 515.03 124.22   L 608.85 124.22   A 0.51 0.51 0.0 0 1 609.36 124.73   L 609.36 163.12   A 0.51 0.51 0.0 0 1 608.85 163.63   L 515.03 163.63   A 0.51 0.51 0.0 0 0 514.52 164.14   L 514.52 210.92   A 0.51 0.51 0.0 0 0 515.03 211.43   L 619.28 211.43   A 0.51 0.51 0.0 0 1 619.79 211.94   L 619.79 251.94   A 0.51 0.51 0.0 0 1 619.28 252.45   L 467.69 252.45   A 0.51 0.51 0.0 0 1 467.18 251.94   L 467.18 40.58   A 0.51 0.51 0.0 0 1 467.69 40.07   L 617.80 40.07   A 0.51 0.51 0.0 0 1 618.31 40.58   L 618.31 80.14   A 0.51 0.51 0.0 0 1 617.80 80.65   Z" data-svg-id="svg-elem-1768389219770-zz02h1cgr" id="svg-elem-1768389219770-zz02h1cgr" data-original-fill="rgb(5, 37, 75)"/>
<circle fill="rgb(255, 255, 255)" cx="184.78" cy="141.88" r="64.38" data-svg-id="svg-elem-1768389219771-lfzr6plnm" id="svg-elem-1768389219771-lfzr6plnm" data-original-fill="rgb(255, 255, 255)"/>
<path fill="#05254b" d="   M 892.03 176.34   Q 892.01 244.66 892.05 248.90   A 0.56 0.55 -0.2 0 1 891.49 249.46   L 847.43 249.46   A 0.62 0.61 -0.0 0 1 846.81 248.85   L 846.81 238.39   A 0.37 0.37 0.0 0 0 846.19 238.11   Q 831.40 250.89 811.80 252.25   C 788.34 253.89 767.16 244.92 752.62 226.39   C 741.39 212.06 736.38 194.59 736.38 176.29   C 736.39 157.98 741.41 140.51 752.66 126.20   C 767.21 107.67 788.39 98.72 811.85 100.37   Q 831.45 101.75 846.23 114.54   A 0.37 0.37 0.0 0 0 846.85 114.26   L 846.86 103.80   A 0.62 0.61 0.0 0 1 847.48 103.19   L 891.54 103.22   A 0.56 0.55 0.2 0 1 892.10 103.78   Q 892.06 108.01 892.03 176.34   Z   M 783.25 176.97   C 783.64 196.27 796.66 211.26 816.65 210.86   C 836.64 210.46 849.04 194.95 848.65 175.66   C 848.26 156.36 835.25 141.37 815.26 141.77   C 795.27 142.17 782.87 157.68 783.25 176.97   Z" data-svg-id="svg-elem-1768389219771-r8xuqhous" id="svg-elem-1768389219771-r8xuqhous" data-original-fill="rgb(5, 37, 75)"/>
<path fill="#05254b" d="   M 381.49 211.39   C 395.18 211.40 403.75 202.38 403.80 188.75   Q 403.93 150.25 403.89 103.43   A 0.52 0.51 -0.0 0 1 404.41 102.92   L 449.36 102.92   A 0.68 0.67 -0.0 0 1 450.04 103.59   Q 449.94 123.48 450.03 171.61   Q 450.07 194.67 449.01 200.31   Q 445.91 216.75 436.10 228.72   C 422.43 245.40 402.58 252.48 381.47 252.47   C 360.37 252.46 340.52 245.38 326.87 228.69   Q 317.06 216.71 313.97 200.27   Q 312.91 194.63 312.96 171.57   Q 313.08 123.44 312.99 103.55   A 0.68 0.67 0.0 0 1 313.67 102.88   L 358.62 102.91   A 0.52 0.51 0.0 0 1 359.14 103.42   Q 359.08 150.24 359.19 188.74   C 359.23 202.37 367.79 211.39 381.49 211.39   Z" data-svg-id="svg-elem-1768389219771-y9xutt5l1" id="svg-elem-1768389219771-y9xutt5l1" data-original-fill="rgb(5, 37, 75)"/>
<path fill="#05254b" d="   M 682.67 116.86   Q 683.15 116.60 684.17 115.50   C 689.06 110.22 697.52 106.52 704.58 104.86   C 719.58 101.33 737.32 102.73 749.36 113.30   A 0.55 0.55 0.0 0 1 749.35 114.14   Q 732.41 127.84 724.74 149.40   A 0.59 0.58 -69.0 0 1 723.98 149.75   C 723.00 149.35 721.87 148.07 720.89 147.50   Q 712.97 142.91 703.62 144.06   C 688.56 145.90 682.21 156.91 682.19 171.25   Q 682.10 235.65 682.19 251.81   A 0.64 0.64 0.0 0 1 681.55 252.45   L 636.90 252.45   A 0.79 0.79 0.0 0 1 636.11 251.66   L 636.11 106.66   A 0.47 0.46 90.0 0 1 636.57 106.19   L 681.58 106.19   A 0.57 0.57 0.0 0 1 682.15 106.76   L 682.15 116.55   A 0.35 0.35 0.0 0 0 682.67 116.86   Z" data-svg-id="svg-elem-1768389219771-ujfc460mn" id="svg-elem-1768389219771-ujfc460mn" data-original-fill="rgb(5, 37, 75)"/>
<circle fill="#a452f9" cx="23.50" cy="121.29" r="15.79" data-svg-id="svg-elem-1768389219771-mxwfl0dxr" id="svg-elem-1768389219771-mxwfl0dxr" data-original-fill="rgb(164, 82, 249)"/>
<circle fill="#fe7c26" cx="941.06" cy="121.48" r="15.73" data-svg-id="svg-elem-1768389219771-itfhewttz" id="svg-elem-1768389219771-itfhewttz" data-original-fill="rgb(254, 124, 38)"/>
<circle fill="#fe7c26" cx="969.45" cy="150.03" r="15.73" data-svg-id="svg-elem-1768389219771-5i60707n4" id="svg-elem-1768389219771-5i60707n4" data-original-fill="rgb(254, 124, 38)"/>
<path fill="rgb(255, 255, 255)" d="   M 815.26 141.77   C 835.25 141.37 848.26 156.36 848.65 175.66   C 849.04 194.95 836.64 210.46 816.65 210.86   C 796.66 211.26 783.64 196.27 783.25 176.97   C 782.87 157.68 795.27 142.17 815.26 141.77   Z" data-svg-id="svg-elem-1768389219771-lxewjbqw3" id="svg-elem-1768389219771-lxewjbqw3" data-original-fill="rgb(255, 255, 255)"/>
<path fill="#a452f9" d="   M 28.56 174.42   L 19.47 144.16   A 15.79 15.77 -35.2 0 1 32.37 146.38   A 15.81 15.79 14.5 0 1 39.22 157.98   A 15.82 15.81 -12.1 0 1 28.56 174.42   Z" data-svg-id="svg-elem-1768389219771-3kseq54dz" id="svg-elem-1768389219771-3kseq54dz" data-original-fill="rgb(164, 82, 249)"/>
<path fill="#cd69f3" d="   M 19.47 144.16   L 28.56 174.42   A 15.82 15.81 65.4 0 1 9.84 167.44   A 15.80 15.80 0.0 0 1 19.47 144.16   Z" data-svg-id="svg-elem-1768389219771-lmdqusvlx" id="svg-elem-1768389219771-lmdqusvlx" data-original-fill="rgb(205, 105, 243)"/>
<circle fill="#fe7c26" cx="997.63" cy="178.58" r="15.74" data-svg-id="svg-elem-1768389219771-u666tyokd" id="svg-elem-1768389219771-u666tyokd" data-original-fill="rgb(254, 124, 38)"/>
<circle fill="#cd69f3" cx="23.48" cy="197.61" r="15.79" data-svg-id="svg-elem-1768389219771-lxp4j1m50" id="svg-elem-1768389219771-lxp4j1m50" data-original-fill="rgb(205, 105, 243)"/>
<circle fill="#fb80c9" cx="969.23" cy="207.11" r="15.76" data-svg-id="svg-elem-1768389219771-b4mw3n5hb" id="svg-elem-1768389219771-b4mw3n5hb" data-original-fill="rgb(251, 128, 201)"/>
<circle fill="#cd69f3" cx="940.89" cy="235.61" r="15.75" data-svg-id="svg-elem-1768389219771-oy3qlt2un" id="svg-elem-1768389219771-oy3qlt2un" data-original-fill="rgb(205, 105, 243)"/>
<circle fill="#cd69f3" cx="23.50" cy="235.81" r="15.78" data-svg-id="svg-elem-1768389219771-uk3yrh705" id="svg-elem-1768389219771-uk3yrh705" data-original-fill="rgb(205, 105, 243)"/>
</svg>