<svg xmlns="http://www.w3.org/2000/svg" version="1.1" viewBox="-20 -20 1064 474">
<g stroke-width="2.00" fill="none" stroke-linecap="butt" data-svg-id="svg-elem-1768389089939-zzmpbjlim" id="svg-elem-1768389089939-zzmpbjlim">
<path stroke="#b5d8dc" vector-effect="non-scaling-stroke" d="   M 262.12 50.85   L 204.57 50.85   A 1.66 1.65 90.0 0 0 202.92 52.51   L 202.92 108.11   A 1.87 1.86 0.6 0 0 204.75 109.97   Q 220.47 110.30 238.50 109.98   C 245.30 109.86 253.97 106.43 258.00 100.30   Q 263.06 92.62 263.27 84.97   Q 263.60 73.34 263.36 52.08   A 1.25 1.24 89.5 0 0 262.12 50.85" data-svg-id="svg-elem-1768389089939-vw6k56gff" id="svg-elem-1768389089939-vw6k56gff"/>
<path stroke="#cccfd4" vector-effect="non-scaling-stroke" d="   M 938.14 109.44   Q 939.31 109.91 940.44 109.91   Q 957.77 109.89 973.00 110.07   C 978.04 110.13 986.63 107.13 990.48 102.36   C 994.92 96.87 997.15 92.82 997.13 85.81   Q 997.11 77.33 997.13 52.24   A 1.40 1.40 0.0 0 0 995.73 50.84   L 938.71 50.84   A 1.32 1.32 0.0 0 0 937.39 52.16   L 937.39 108.33   A 1.20 1.19 -79.1 0 0 938.14 109.44" data-svg-id="svg-elem-1768389089939-2kpgfeped" id="svg-elem-1768389089939-2kpgfeped"/>
<path stroke="#cccfd4" vector-effect="non-scaling-stroke" d="   M 779.61 168.52   A 0.48 0.47 79.2 0 0 779.89 168.10   Q 780.11 153.28 779.90 145.41   Q 779.82 142.81 778.23 140.15   Q 773.41 132.11 764.26 132.47   Q 764.06 132.47 739.30 132.46   A 1.10 1.10 0.0 0 1 738.20 131.36   L 738.20 82.34   A 1.47 1.47 0.0 0 0 736.73 80.87   L 699.23 80.98   A 7.12 6.98 37.4 0 0 697.52 81.19   Q 683.68 84.65 679.35 96.77   Q 677.80 101.11 677.86 113.93   Q 678.03 156.54 677.92 276.76   Q 677.91 287.25 681.42 296.35   Q 683.30 301.18 688.25 306.73   Q 696.75 316.25 708.41 319.91   Q 713.65 321.55 729.66 321.60   Q 760.45 321.69 778.05 321.47   A 1.98 1.98 0.0 0 0 780.01 319.46   Q 779.86 306.71 779.97 303.81   Q 780.18 298.72 778.49 295.46   C 774.65 288.04 768.23 287.86 760.65 287.88   C 752.31 287.91 745.35 284.29 741.19 276.99   C 739.63 274.26 738.19 271.86 738.19 269.25   Q 738.16 180.33 738.21 174.75   Q 738.24 171.11 738.65 169.54   A 0.71 0.71 0.0 0 1 739.35 169.01   Q 755.73 169.20 777.97 168.90   Q 778.75 168.89 779.61 168.52" data-svg-id="svg-elem-1768389089939-8isgdm0ay" id="svg-elem-1768389089939-8isgdm0ay"/>
<path stroke="#cccfd4" vector-effect="non-scaling-stroke" d="   M 868.94 169.05   L 908.64 169.05   A 1.31 1.31 0.0 0 0 909.95 167.72   Q 909.79 152.00 909.84 147.32   C 909.88 143.08 908.80 138.38 905.80 136.24   Q 900.41 132.37 893.25 132.42   Q 889.93 132.45 870.02 132.49   A 1.94 1.94 0.0 0 1 868.08 130.55   L 868.08 82.50   A 1.61 1.61 0.0 0 0 866.43 80.89   Q 861.90 81.01 833.46 80.91   Q 828.76 80.90 826.10 81.58   C 820.82 82.94 815.63 86.78 812.58 90.89   Q 809.74 94.72 808.99 99.35   Q 808.52 102.28 808.52 103.25   Q 808.67 188.54 808.51 278.61   Q 808.50 282.91 809.12 286.33   Q 810.15 291.98 810.89 293.93   C 816.03 307.38 826.61 316.71 840.66 320.22   Q 845.43 321.42 848.01 321.44   Q 880.91 321.78 908.81 321.51   A 1.11 1.11 0.0 0 0 909.91 320.39   Q 909.78 305.26 909.84 303.04   Q 909.95 298.37 909.20 296.52   C 907.27 291.77 902.23 288.09 897.24 287.97   C 892.70 287.85 887.06 288.39 882.95 286.67   C 873.96 282.92 868.46 275.84 868.68 266.00   Q 868.88 257.11 868.56 252.39   Q 868.06 245.04 868.07 238.80   Q 868.07 226.00 868.08 169.91   A 0.86 0.86 0.0 0 1 868.94 169.05" data-svg-id="svg-elem-1768389089939-m66udusgk" id="svg-elem-1768389089939-m66udusgk"/>
<path stroke="#b5d8dc" vector-effect="non-scaling-stroke" d="   M 25.33 321.37   Q 37.36 321.73 58.92 321.51   Q 65.89 321.44 68.50 320.54   C 76.17 317.90 80.72 313.01 83.34 305.99   Q 84.69 302.37 84.65 294.32   Q 84.49 255.45 84.63 213.75   Q 84.66 206.97 88.08 202.08   C 94.67 192.68 102.50 191.75 114.43 191.80   Q 120.98 191.82 149.31 191.89   Q 156.39 191.91 160.00 190.54   Q 168.52 187.31 172.69 179.73   Q 175.69 174.27 175.74 170.99   Q 175.91 157.84 175.79 133.92   A 1.39 1.38 0.2 0 0 174.41 132.54   Q 149.94 132.50 112.75 132.58   Q 105.18 132.59 101.49 133.54   C 92.17 135.95 84.31 145.15 84.31 154.98   C 84.32 161.58 85.18 169.52 83.03 175.47   Q 78.30 188.58 63.75 191.60   A 9.38 9.19 39.7 0 1 61.44 191.79   Q 52.79 191.46 49.98 191.51   Q 33.32 191.77 26.16 206.42   A 5.45 5.33 -27.7 0 0 25.70 207.84   Q 24.60 214.11 24.61 218.26   Q 24.73 269.61 24.62 320.64   A 0.73 0.73 0.0 0 0 25.33 321.37" data-svg-id="svg-elem-1768389089939-yind413lh" id="svg-elem-1768389089939-yind413lh"/>
<path stroke="#cccfd4" vector-effect="non-scaling-stroke" d="   M 263.41 133.11   A 0.65 0.65 0.0 0 0 262.76 132.46   L 204.52 132.46   A 1.57 1.57 0.0 0 0 202.95 134.03   L 202.95 319.63   A 1.71 1.70 1.2 0 0 204.59 321.33   Q 218.48 321.92 240.99 321.44   C 251.06 321.22 258.93 314.19 262.04 305.14   Q 263.38 301.24 263.37 293.69   Q 263.22 193.85 263.41 133.11" data-svg-id="svg-elem-1768389089939-1g2wyxe75" id="svg-elem-1768389089939-1g2wyxe75"/>
<path stroke="#cccfd4" vector-effect="non-scaling-stroke" d="   M 462.80 132.61   Q 462.42 132.47 461.75 132.46   Q 458.28 132.45 342.25 132.46   Q 332.84 132.47 328.77 133.11   Q 308.63 136.30 297.37 153.21   Q 294.00 158.27 291.51 166.21   Q 290.22 170.33 290.28 176.56   Q 290.47 195.62 290.38 282.89   A 6.08 6.05 39.7 0 0 290.49 284.04   Q 294.88 305.12 312.65 315.90   C 317.80 319.03 326.13 321.43 331.51 321.47   Q 361.49 321.66 393.57 321.67   Q 396.09 321.67 401.90 322.26   A 1.55 1.54 -87.1 0 1 403.29 323.80   L 403.18 344.28   A 1.86 1.60 -40.6 0 1 403.14 344.54   C 400.73 353.26 395.79 357.19 387.31 360.64   A 4.40 4.35 -56.7 0 1 385.86 360.95   Q 378.98 361.15 376.00 361.15   Q 324.35 361.22 312.23 361.08   C 304.34 360.99 296.90 366.89 296.83 375.26   Q 296.83 375.31 296.90 393.41   A 1.41 1.41 0.0 0 0 298.31 394.81   Q 382.34 394.87 420.99 394.76   C 436.16 394.71 447.92 387.00 456.58 374.87   C 461.77 367.59 463.84 357.75 463.84 349.00   Q 463.87 229.05 463.85 134.15   A 1.65 1.65 0.0 0 0 462.80 132.61" data-svg-id="svg-elem-1768389089939-lujsze9qj" id="svg-elem-1768389089939-lujsze9qj"/>
<path stroke="#cccfd4" vector-effect="non-scaling-stroke" d="   M 549.31 249.34   L 649.45 249.34   A 1.43 1.42 -0.6 0 0 650.88 247.89   Q 650.87 247.52 650.80 245.00   Q 650.54 235.12 650.77 184.27   Q 650.82 172.53 649.77 167.22   C 647.97 158.15 641.75 147.90 633.45 142.02   C 628.18 138.28 624.61 135.82 618.88 134.40   Q 611.14 132.48 603.00 132.47   Q 590.41 132.45 541.75 132.46   Q 532.89 132.47 527.77 133.26   C 516.74 134.97 504.46 142.81 498.46 152.53   C 494.38 159.13 490.69 168.09 490.69 175.25   Q 490.70 208.04 490.64 260.21   Q 490.61 281.06 491.57 285.70   C 495.20 303.21 509.89 318.42 528.28 320.99   Q 532.67 321.60 546.77 321.60   Q 586.65 321.61 628.75 321.59   Q 633.36 321.59 638.16 321.31   A 0.73 0.73 0.0 0 0 638.85 320.59   Q 639.08 307.13 638.62 298.98   C 638.35 294.15 633.99 290.21 629.70 288.68   Q 627.60 287.93 621.71 287.94   Q 595.76 287.97 572.70 288.01   Q 557.43 288.03 550.91 274.93   C 549.75 272.59 549.15 269.62 549.14 267.25   Q 549.07 254.85 548.73 249.97   A 0.58 0.58 0.0 0 1 549.31 249.34" data-svg-id="svg-elem-1768389089939-bs7vm932g" id="svg-elem-1768389089939-bs7vm932g"/>
<path stroke="#cccfd4" vector-effect="non-scaling-stroke" d="   M 997.02 133.62   A 1.74 1.74 0.0 0 0 995.38 132.46   L 938.58 132.49   A 1.12 1.12 0.0 0 0 937.46 133.61   L 937.46 319.82   A 1.43 1.43 0.0 0 0 938.84 321.25   Q 953.10 321.78 972.16 321.55   Q 978.73 321.48 982.33 320.15   C 988.62 317.84 993.89 311.77 996.21 305.47   Q 997.12 303.00 997.12 295.19   Q 997.09 135.34 997.12 134.50   Q 997.13 133.95 997.02 133.62" data-svg-id="svg-elem-1768389089939-9ml9fggt5" id="svg-elem-1768389089939-9ml9fggt5"/>
<path stroke="#cccfd4" vector-effect="non-scaling-stroke" d="   M 402.69 287.69   A 0.51 0.50 88.8 0 0 403.17 287.18   L 403.17 171.83   A 1.81 1.80 -84.8 0 0 401.69 170.05   C 392.65 168.41 384.79 169.11 373.99 169.07   C 367.37 169.05 362.81 169.93 358.17 173.91   Q 350.89 180.15 350.86 189.77   Q 350.68 253.71 350.93 267.77   C 351.10 277.12 358.35 284.91 366.89 287.30   Q 369.19 287.95 382.16 287.99   Q 395.59 288.04 402.69 287.69" data-svg-id="svg-elem-1768389089939-t65mwg2pj" id="svg-elem-1768389089939-t65mwg2pj"/>
<path stroke="#cccfd4" vector-effect="non-scaling-stroke" d="   M 599.90 223.80   A 1.86 1.85 0.8 0 0 601.76 222.00   Q 602.45 198.80 601.87 174.25   Q 601.80 171.41 601.35 170.67   A 1.24 1.24 0.0 0 0 600.57 170.10   Q 596.32 169.07 594.00 169.06   Q 587.48 169.03 572.79 169.07   C 566.24 169.09 560.65 170.11 555.96 174.38   Q 548.77 180.94 548.94 190.41   Q 549.22 205.59 548.97 222.43   A 1.35 1.35 0.0 0 0 550.32 223.80   L 599.90 223.80" data-svg-id="svg-elem-1768389089940-m2tz8jdi1" id="svg-elem-1768389089940-m2tz8jdi1"/>
</g>
<path fill="#ffffff" d="   M 1024.00 0.00   L 1024.00 434.00   L 0.00 434.00   L 0.00 0.00   L 1024.00 0.00   Z   M 262.12 50.85   L 204.57 50.85   A 1.66 1.65 90.0 0 0 202.92 52.51   L 202.92 108.11   A 1.87 1.86 0.6 0 0 204.75 109.97   Q 220.47 110.30 238.50 109.98   C 245.30 109.86 253.97 106.43 258.00 100.30   Q 263.06 92.62 263.27 84.97   Q 263.60 73.34 263.36 52.08   A 1.25 1.24 89.5 0 0 262.12 50.85   Z   M 938.14 109.44   Q 939.31 109.91 940.44 109.91   Q 957.77 109.89 973.00 110.07   C 978.04 110.13 986.63 107.13 990.48 102.36   C 994.92 96.87 997.15 92.82 997.13 85.81   Q 997.11 77.33 997.13 52.24   A 1.40 1.40 0.0 0 0 995.73 50.84   L 938.71 50.84   A 1.32 1.32 0.0 0 0 937.39 52.16   L 937.39 108.33   A 1.20 1.19 -79.1 0 0 938.14 109.44   Z   M 779.61 168.52   A 0.48 0.47 79.2 0 0 779.89 168.10   Q 780.11 153.28 779.90 145.41   Q 779.82 142.81 778.23 140.15   Q 773.41 132.11 764.26 132.47   Q 764.06 132.47 739.30 132.46   A 1.10 1.10 0.0 0 1 738.20 131.36   L 738.20 82.34   A 1.47 1.47 0.0 0 0 736.73 80.87   L 699.23 80.98   A 7.12 6.98 37.4 0 0 697.52 81.19   Q 683.68 84.65 679.35 96.77   Q 677.80 101.11 677.86 113.93   Q 678.03 156.54 677.92 276.76   Q 677.91 287.25 681.42 296.35   Q 683.30 301.18 688.25 306.73   Q 696.75 316.25 708.41 319.91   Q 713.65 321.55 729.66 321.60   Q 760.45 321.69 778.05 321.47   A 1.98 1.98 0.0 0 0 780.01 319.46   Q 779.86 306.71 779.97 303.81   Q 780.18 298.72 778.49 295.46   C 774.65 288.04 768.23 287.86 760.65 287.88   C 752.31 287.91 745.35 284.29 741.19 276.99   C 739.63 274.26 738.19 271.86 738.19 269.25   Q 738.16 180.33 738.21 174.75   Q 738.24 171.11 738.65 169.54   A 0.71 0.71 0.0 0 1 739.35 169.01   Q 755.73 169.20 777.97 168.90   Q 778.75 168.89 779.61 168.52   Z   M 868.94 169.05   L 908.64 169.05   A 1.31 1.31 0.0 0 0 909.95 167.72   Q 909.79 152.00 909.84 147.32   C 909.88 143.08 908.80 138.38 905.80 136.24   Q 900.41 132.37 893.25 132.42   Q 889.93 132.45 870.02 132.49   A 1.94 1.94 0.0 0 1 868.08 130.55   L 868.08 82.50   A 1.61 1.61 0.0 0 0 866.43 80.89   Q 861.90 81.01 833.46 80.91   Q 828.76 80.90 826.10 81.58   C 820.82 82.94 815.63 86.78 812.58 90.89   Q 809.74 94.72 808.99 99.35   Q 808.52 102.28 808.52 103.25   Q 808.67 188.54 808.51 278.61   Q 808.50 282.91 809.12 286.33   Q 810.15 291.98 810.89 293.93   C 816.03 307.38 826.61 316.71 840.66 320.22   Q 845.43 321.42 848.01 321.44   Q 880.91 321.78 908.81 321.51   A 1.11 1.11 0.0 0 0 909.91 320.39   Q 909.78 305.26 909.84 303.04   Q 909.95 298.37 909.20 296.52   C 907.27 291.77 902.23 288.09 897.24 287.97   C 892.70 287.85 887.06 288.39 882.95 286.67   C 873.96 282.92 868.46 275.84 868.68 266.00   Q 868.88 257.11 868.56 252.39   Q 868.06 245.04 868.07 238.80   Q 868.07 226.00 868.08 169.91   A 0.86 0.86 0.0 0 1 868.94 169.05   Z   M 25.33 321.37   Q 37.36 321.73 58.92 321.51   Q 65.89 321.44 68.50 320.54   C 76.17 317.90 80.72 313.01 83.34 305.99   Q 84.69 302.37 84.65 294.32   Q 84.49 255.45 84.63 213.75   Q 84.66 206.97 88.08 202.08   C 94.67 192.68 102.50 191.75 114.43 191.80   Q 120.98 191.82 149.31 191.89   Q 156.39 191.91 160.00 190.54   Q 168.52 187.31 172.69 179.73   Q 175.69 174.27 175.74 170.99   Q 175.91 157.84 175.79 133.92   A 1.39 1.38 0.2 0 0 174.41 132.54   Q 149.94 132.50 112.75 132.58   Q 105.18 132.59 101.49 133.54   C 92.17 135.95 84.31 145.15 84.31 154.98   C 84.32 161.58 85.18 169.52 83.03 175.47   Q 78.30 188.58 63.75 191.60   A 9.38 9.19 39.7 0 1 61.44 191.79   Q 52.79 191.46 49.98 191.51   Q 33.32 191.77 26.16 206.42   A 5.45 5.33 -27.7 0 0 25.70 207.84   Q 24.60 214.11 24.61 218.26   Q 24.73 269.61 24.62 320.64   A 0.73 0.73 0.0 0 0 25.33 321.37   Z   M 263.41 133.11   A 0.65 0.65 0.0 0 0 262.76 132.46   L 204.52 132.46   A 1.57 1.57 0.0 0 0 202.95 134.03   L 202.95 319.63   A 1.71 1.70 1.2 0 0 204.59 321.33   Q 218.48 321.92 240.99 321.44   C 251.06 321.22 258.93 314.19 262.04 305.14   Q 263.38 301.24 263.37 293.69   Q 263.22 193.85 263.41 133.11   Z   M 462.80 132.61   Q 462.42 132.47 461.75 132.46   Q 458.28 132.45 342.25 132.46   Q 332.84 132.47 328.77 133.11   Q 308.63 136.30 297.37 153.21   Q 294.00 158.27 291.51 166.21   Q 290.22 170.33 290.28 176.56   Q 290.47 195.62 290.38 282.89   A 6.08 6.05 39.7 0 0 290.49 284.04   Q 294.88 305.12 312.65 315.90   C 317.80 319.03 326.13 321.43 331.51 321.47   Q 361.49 321.66 393.57 321.67   Q 396.09 321.67 401.90 322.26   A 1.55 1.54 -87.1 0 1 403.29 323.80   L 403.18 344.28   A 1.86 1.60 -40.6 0 1 403.14 344.54   C 400.73 353.26 395.79 357.19 387.31 360.64   A 4.40 4.35 -56.7 0 1 385.86 360.95   Q 378.98 361.15 376.00 361.15   Q 324.35 361.22 312.23 361.08   C 304.34 360.99 296.90 366.89 296.83 375.26   Q 296.83 375.31 296.90 393.41   A 1.41 1.41 0.0 0 0 298.31 394.81   Q 382.34 394.87 420.99 394.76   C 436.16 394.71 447.92 387.00 456.58 374.87   C 461.77 367.59 463.84 357.75 463.84 349.00   Q 463.87 229.05 463.85 134.15   A 1.65 1.65 0.0 0 0 462.80 132.61   Z   M 549.31 249.34   L 649.45 249.34   A 1.43 1.42 -0.6 0 0 650.88 247.89   Q 650.87 247.52 650.80 245.00   Q 650.54 235.12 650.77 184.27   Q 650.82 172.53 649.77 167.22   C 647.97 158.15 641.75 147.90 633.45 142.02   C 628.18 138.28 624.61 135.82 618.88 134.40   Q 611.14 132.48 603.00 132.47   Q 590.41 132.45 541.75 132.46   Q 532.89 132.47 527.77 133.26   C 516.74 134.97 504.46 142.81 498.46 152.53   C 494.38 159.13 490.69 168.09 490.69 175.25   Q 490.70 208.04 490.64 260.21   Q 490.61 281.06 491.57 285.70   C 495.20 303.21 509.89 318.42 528.28 320.99   Q 532.67 321.60 546.77 321.60   Q 586.65 321.61 628.75 321.59   Q 633.36 321.59 638.16 321.31   A 0.73 0.73 0.0 0 0 638.85 320.59   Q 639.08 307.13 638.62 298.98   C 638.35 294.15 633.99 290.21 629.70 288.68   Q 627.60 287.93 621.71 287.94   Q 595.76 287.97 572.70 288.01   Q 557.43 288.03 550.91 274.93   C 549.75 272.59 549.15 269.62 549.14 267.25   Q 549.07 254.85 548.73 249.97   A 0.58 0.58 0.0 0 1 549.31 249.34   Z   M 997.02 133.62   A 1.74 1.74 0.0 0 0 995.38 132.46   L 938.58 132.49   A 1.12 1.12 0.0 0 0 937.46 133.61   L 937.46 319.82   A 1.43 1.43 0.0 0 0 938.84 321.25   Q 953.10 321.78 972.16 321.55   Q 978.73 321.48 982.33 320.15   C 988.62 317.84 993.89 311.77 996.21 305.47   Q 997.12 303.00 997.12 295.19   Q 997.09 135.34 997.12 134.50   Q 997.13 133.95 997.02 133.62   Z" data-svg-id="svg-elem-1768389089940-ighfm7dyi" id="svg-elem-1768389089940-ighfm7dyi"/>
<path fill="#6bb0b9" d="   M 262.12 50.85   A 1.25 1.24 89.5 0 1 263.36 52.08   Q 263.60 73.34 263.27 84.97   Q 263.06 92.62 258.00 100.30   C 253.97 106.43 245.30 109.86 238.50 109.98   Q 220.47 110.30 204.75 109.97   A 1.87 1.86 0.6 0 1 202.92 108.11   L 202.92 52.51   A 1.66 1.65 90.0 0 1 204.57 50.85   L 262.12 50.85   Z" data-svg-id="svg-elem-1768389089940-t9pvc57dw" id="svg-elem-1768389089940-t9pvc57dw"/>
<path fill="#989fa8" d="   M 938.14 109.44   A 1.20 1.19 -79.1 0 1 937.39 108.33   L 937.39 52.16   A 1.32 1.32 0.0 0 1 938.71 50.84   L 995.73 50.84   A 1.40 1.40 0.0 0 1 997.13 52.24   Q 997.11 77.33 997.13 85.81   C 997.15 92.82 994.92 96.87 990.48 102.36   C 986.63 107.13 978.04 110.13 973.00 110.07   Q 957.77 109.89 940.44 109.91   Q 939.31 109.91 938.14 109.44   Z" data-svg-id="svg-elem-1768389089940-xgjl7usyw" id="svg-elem-1768389089940-xgjl7usyw"/>
<path fill="#989fa8" d="   M 779.61 168.52   Q 778.75 168.89 777.97 168.90   Q 755.73 169.20 739.35 169.01   A 0.71 0.71 0.0 0 0 738.65 169.54   Q 738.24 171.11 738.21 174.75   Q 738.16 180.33 738.19 269.25   C 738.19 271.86 739.63 274.26 741.19 276.99   C 745.35 284.29 752.31 287.91 760.65 287.88   C 768.23 287.86 774.65 288.04 778.49 295.46   Q 780.18 298.72 779.97 303.81   Q 779.86 306.71 780.01 319.46   A 1.98 1.98 0.0 0 1 778.05 321.47   Q 760.45 321.69 729.66 321.60   Q 713.65 321.55 708.41 319.91   Q 696.75 316.25 688.25 306.73   Q 683.30 301.18 681.42 296.35   Q 677.91 287.25 677.92 276.76   Q 678.03 156.54 677.86 113.93   Q 677.80 101.11 679.35 96.77   Q 683.68 84.65 697.52 81.19   A 7.12 6.98 37.4 0 1 699.23 80.98   L 736.73 80.87   A 1.47 1.47 0.0 0 1 738.20 82.34   L 738.20 131.36   A 1.10 1.10 0.0 0 0 739.30 132.46   Q 764.06 132.47 764.26 132.47   Q 773.41 132.11 778.23 140.15   Q 779.82 142.81 779.90 145.41   Q 780.11 153.28 779.89 168.10   A 0.48 0.47 79.2 0 1 779.61 168.52   Z" data-svg-id="svg-elem-1768389089940-juqqofytv" id="svg-elem-1768389089940-juqqofytv"/>
<path fill="#989fa8" d="   M 868.94 169.05   A 0.86 0.86 0.0 0 0 868.08 169.91   Q 868.07 226.00 868.07 238.80   Q 868.06 245.04 868.56 252.39   Q 868.88 257.11 868.68 266.00   C 868.46 275.84 873.96 282.92 882.95 286.67   C 887.06 288.39 892.70 287.85 897.24 287.97   C 902.23 288.09 907.27 291.77 909.20 296.52   Q 909.95 298.37 909.84 303.04   Q 909.78 305.26 909.91 320.39   A 1.11 1.11 0.0 0 1 908.81 321.51   Q 880.91 321.78 848.01 321.44   Q 845.43 321.42 840.66 320.22   C 826.61 316.71 816.03 307.38 810.89 293.93   Q 810.15 291.98 809.12 286.33   Q 808.50 282.91 808.51 278.61   Q 808.67 188.54 808.52 103.25   Q 808.52 102.28 808.99 99.35   Q 809.74 94.72 812.58 90.89   C 815.63 86.78 820.82 82.94 826.10 81.58   Q 828.76 80.90 833.46 80.91   Q 861.90 81.01 866.43 80.89   A 1.61 1.61 0.0 0 1 868.08 82.50   L 868.08 130.55   A 1.94 1.94 0.0 0 0 870.02 132.49   Q 889.93 132.45 893.25 132.42   Q 900.41 132.37 905.80 136.24   C 908.80 138.38 909.88 143.08 909.84 147.32   Q 909.79 152.00 909.95 167.72   A 1.31 1.31 0.0 0 1 908.64 169.05   L 868.94 169.05   Z" data-svg-id="svg-elem-1768389089940-3p1puez6a" id="svg-elem-1768389089940-3p1puez6a"/>
<path fill="#6bb0b9" d="   M 25.33 321.37   A 0.73 0.73 0.0 0 1 24.62 320.64   Q 24.73 269.61 24.61 218.26   Q 24.60 214.11 25.70 207.84   A 5.45 5.33 -27.7 0 1 26.16 206.42   Q 33.32 191.77 49.98 191.51   Q 52.79 191.46 61.44 191.79   A 9.38 9.19 39.7 0 0 63.75 191.60   Q 78.30 188.58 83.03 175.47   C 85.18 169.52 84.32 161.58 84.31 154.98   C 84.31 145.15 92.17 135.95 101.49 133.54   Q 105.18 132.59 112.75 132.58   Q 149.94 132.50 174.41 132.54   A 1.39 1.38 0.2 0 1 175.79 133.92   Q 175.91 157.84 175.74 170.99   Q 175.69 174.27 172.69 179.73   Q 168.52 187.31 160.00 190.54   Q 156.39 191.91 149.31 191.89   Q 120.98 191.82 114.43 191.80   C 102.50 191.75 94.67 192.68 88.08 202.08   Q 84.66 206.97 84.63 213.75   Q 84.49 255.45 84.65 294.32   Q 84.69 302.37 83.34 305.99   C 80.72 313.01 76.17 317.90 68.50 320.54   Q 65.89 321.44 58.92 321.51   Q 37.36 321.73 25.33 321.37   Z" data-svg-id="svg-elem-1768389089940-0j7psxn01" id="svg-elem-1768389089940-0j7psxn01"/>
<path fill="#989fa8" d="   M 263.41 133.11   Q 263.22 193.85 263.37 293.69   Q 263.38 301.24 262.04 305.14   C 258.93 314.19 251.06 321.22 240.99 321.44   Q 218.48 321.92 204.59 321.33   A 1.71 1.70 1.2 0 1 202.95 319.63   L 202.95 134.03   A 1.57 1.57 0.0 0 1 204.52 132.46   L 262.76 132.46   A 0.65 0.65 0.0 0 1 263.41 133.11   Z" data-svg-id="svg-elem-1768389089940-402pj5qje" id="svg-elem-1768389089940-402pj5qje"/>
<path fill="#989fa8" d="   M 462.80 132.61   A 1.65 1.65 0.0 0 1 463.85 134.15   Q 463.87 229.05 463.84 349.00   C 463.84 357.75 461.77 367.59 456.58 374.87   C 447.92 387.00 436.16 394.71 420.99 394.76   Q 382.34 394.87 298.31 394.81   A 1.41 1.41 0.0 0 1 296.90 393.41   Q 296.83 375.31 296.83 375.26   C 296.90 366.89 304.34 360.99 312.23 361.08   Q 324.35 361.22 376.00 361.15   Q 378.98 361.15 385.86 360.95   A 4.40 4.35 -56.7 0 0 387.31 360.64   C 395.79 357.19 400.73 353.26 403.14 344.54   A 1.86 1.60 -40.6 0 0 403.18 344.28   L 403.29 323.80   A 1.55 1.54 -87.1 0 0 401.90 322.26   Q 396.09 321.67 393.57 321.67   Q 361.49 321.66 331.51 321.47   C 326.13 321.43 317.80 319.03 312.65 315.90   Q 294.88 305.12 290.49 284.04   A 6.08 6.05 39.7 0 1 290.38 282.89   Q 290.47 195.62 290.28 176.56   Q 290.22 170.33 291.51 166.21   Q 294.00 158.27 297.37 153.21   Q 308.63 136.30 328.77 133.11   Q 332.84 132.47 342.25 132.46   Q 458.28 132.45 461.75 132.46   Q 462.42 132.47 462.80 132.61   Z   M 402.69 287.69   A 0.51 0.50 88.8 0 0 403.17 287.18   L 403.17 171.83   A 1.81 1.80 -84.8 0 0 401.69 170.05   C 392.65 168.41 384.79 169.11 373.99 169.07   C 367.37 169.05 362.81 169.93 358.17 173.91   Q 350.89 180.15 350.86 189.77   Q 350.68 253.71 350.93 267.77   C 351.10 277.12 358.35 284.91 366.89 287.30   Q 369.19 287.95 382.16 287.99   Q 395.59 288.04 402.69 287.69   Z" data-svg-id="svg-elem-1768389089940-orzx42lgf" id="svg-elem-1768389089940-orzx42lgf"/>
<path fill="#989fa8" d="   M 549.31 249.34   A 0.58 0.58 0.0 0 0 548.73 249.97   Q 549.07 254.85 549.14 267.25   C 549.15 269.62 549.75 272.59 550.91 274.93   Q 557.43 288.03 572.70 288.01   Q 595.76 287.97 621.71 287.94   Q 627.60 287.93 629.70 288.68   C 633.99 290.21 638.35 294.15 638.62 298.98   Q 639.08 307.13 638.85 320.59   A 0.73 0.73 0.0 0 1 638.16 321.31   Q 633.36 321.59 628.75 321.59   Q 586.65 321.61 546.77 321.60   Q 532.67 321.60 528.28 320.99   C 509.89 318.42 495.20 303.21 491.57 285.70   Q 490.61 281.06 490.64 260.21   Q 490.70 208.04 490.69 175.25   C 490.69 168.09 494.38 159.13 498.46 152.53   C 504.46 142.81 516.74 134.97 527.77 133.26   Q 532.89 132.47 541.75 132.46   Q 590.41 132.45 603.00 132.47   Q 611.14 132.48 618.88 134.40   C 624.61 135.82 628.18 138.28 633.45 142.02   C 641.75 147.90 647.97 158.15 649.77 167.22   Q 650.82 172.53 650.77 184.27   Q 650.54 235.12 650.80 245.00   Q 650.87 247.52 650.88 247.89   A 1.43 1.42 -0.6 0 1 649.45 249.34   L 549.31 249.34   Z   M 599.90 223.80   A 1.86 1.85 0.8 0 0 601.76 222.00   Q 602.45 198.80 601.87 174.25   Q 601.80 171.41 601.35 170.67   A 1.24 1.24 0.0 0 0 600.57 170.10   Q 596.32 169.07 594.00 169.06   Q 587.48 169.03 572.79 169.07   C 566.24 169.09 560.65 170.11 555.96 174.38   Q 548.77 180.94 548.94 190.41   Q 549.22 205.59 548.97 222.43   A 1.35 1.35 0.0 0 0 550.32 223.80   L 599.90 223.80   Z" data-svg-id="svg-elem-1768389089940-a1yrgva24" id="svg-elem-1768389089940-a1yrgva24"/>
<path fill="#989fa8" d="   M 997.02 133.62   Q 997.13 133.95 997.12 134.50   Q 997.09 135.34 997.12 295.19   Q 997.12 303.00 996.21 305.47   C 993.89 311.77 988.62 317.84 982.33 320.15   Q 978.73 321.48 972.16 321.55   Q 953.10 321.78 938.84 321.25   A 1.43 1.43 0.0 0 1 937.46 319.82   L 937.46 133.61   A 1.12 1.12 0.0 0 1 938.58 132.49   L 995.38 132.46   A 1.74 1.74 0.0 0 1 997.02 133.62   Z" data-svg-id="svg-elem-1768389089940-vqajkkbcp" id="svg-elem-1768389089940-vqajkkbcp"/>
<path fill="#ffffff" d="   M 402.69 287.69   Q 395.59 288.04 382.16 287.99   Q 369.19 287.95 366.89 287.30   C 358.35 284.91 351.10 277.12 350.93 267.77   Q 350.68 253.71 350.86 189.77   Q 350.89 180.15 358.17 173.91   C 362.81 169.93 367.37 169.05 373.99 169.07   C 384.79 169.11 392.65 168.41 401.69 170.05   A 1.81 1.80 -84.8 0 1 403.17 171.83   L 403.17 287.18   A 0.51 0.50 88.8 0 1 402.69 287.69   Z" data-svg-id="svg-elem-1768389089940-8ru3vtw3j" id="svg-elem-1768389089940-8ru3vtw3j"/>
<path fill="#ffffff" d="   M 599.90 223.80   L 550.32 223.80   A 1.35 1.35 0.0 0 1 548.97 222.43   Q 549.22 205.59 548.94 190.41   Q 548.77 180.94 555.96 174.38   C 560.65 170.11 566.24 169.09 572.79 169.07   Q 587.48 169.03 594.00 169.06   Q 596.32 169.07 600.57 170.10   A 1.24 1.24 0.0 0 1 601.35 170.67   Q 601.80 171.41 601.87 174.25   Q 602.45 198.80 601.76 222.00   A 1.86 1.85 0.8 0 1 599.90 223.80   Z" data-svg-id="svg-elem-1768389089940-nnmsvkpp6" id="svg-elem-1768389089940-nnmsvkpp6"/>
</svg>