<?xml version="1.0" encoding="UTF-8"?>
<svg version="1.1" xmlns="http://www.w3.org/2000/svg" width="1200" height="627">
<path d="M0 0 C396 0 792 0 1200 0 C1200 206.91 1200 413.82 1200 627 C804 627 408 627 0 627 C0 420.09 0 213.18 0 0 Z " fill="#FEFEFE" transform="translate(0,0)"/>
<path d="M0 0 C35.5471875 -0.0928125 35.5471875 -0.0928125 71.8125 -0.1875 C79.28237549 -0.21481201 86.75225098 -0.24212402 94.44848633 -0.27026367 C103.60290527 -0.28381348 103.60290527 -0.28381348 107.89482117 -0.28633118 C110.87857317 -0.28911482 113.8621634 -0.30031181 116.84587097 -0.31672668 C120.66265847 -0.33744363 124.47921384 -0.3434479 128.29605234 -0.33921683 C130.34311217 -0.34051433 132.39014688 -0.35653213 134.43713856 -0.37328625 C147.93168884 -0.3280454 161.14022279 2.84744431 171.33984375 12.203125 C178.95417665 20.4445206 183.46111038 28.65674752 183.41992188 39.8659668 C183.42839142 40.72553482 183.43686096 41.58510284 183.44558716 42.47071838 C183.46888005 45.29703807 183.46998084 48.12281054 183.46875 50.94921875 C183.47585839 52.92829095 183.48355837 54.90736111 183.49182129 56.88642883 C183.50525004 61.03135912 183.50684304 65.17609901 183.50097656 69.32104492 C183.49509508 74.60555716 183.52561547 79.88914604 183.56609344 85.17348003 C183.59208293 89.26158988 183.59483745 93.34948107 183.59120178 97.43766212 C183.59288385 99.3843193 183.60243737 101.33098758 183.62034607 103.2775631 C183.73739642 117.5777139 182.65127438 129.19008782 172.2421875 140.03125 C163.18470345 147.98416282 152.70081008 152.13051351 140.69778442 152.12025452 C139.45522951 152.12163201 138.2126746 152.12300951 136.93246651 152.12442875 C135.56321312 152.12088261 134.19395996 152.11724472 132.82470703 152.11352539 C131.35216716 152.11321884 129.87962713 152.11335292 128.40708733 152.11389065 C124.47295265 152.11411589 120.53884855 152.10833089 116.60472107 152.10128021 C112.90957546 152.09557438 109.2144372 152.0953165 105.51928711 152.09460449 C94.72118738 152.08936256 83.9230933 152.07540136 73.125 152.0625 C48.99375 152.041875 24.8625 152.02125 0 152 C0 101.84 0 51.68 0 0 Z " fill="#222222" transform="translate(10,237)"/>
<path d="M0 0 C0.86448761 -0.00860046 1.72897522 -0.01720093 2.61965942 -0.02606201 C3.56556442 -0.03032196 4.51146942 -0.03458191 5.48603821 -0.03897095 C6.98433167 -0.05123718 6.98433167 -0.05123718 8.51289368 -0.06375122 C11.82856146 -0.08861742 15.14418608 -0.10513309 18.45991516 -0.11953735 C19.59561258 -0.12486103 20.73131001 -0.13018471 21.9014225 -0.13566971 C27.92392425 -0.16241889 33.94640525 -0.18177979 39.96894836 -0.19619751 C44.93202868 -0.20948381 49.8946927 -0.23723587 54.85762024 -0.27822876 C60.86526153 -0.32784697 66.87252796 -0.35235566 72.88036537 -0.35942459 C75.15866497 -0.36609403 77.43695764 -0.38120194 79.71513939 -0.4053154 C97.50496175 -0.58272051 114.3361385 0.30364676 127.93647766 13.2203064 C138.53132729 24.35748836 139.31013195 35.68280153 139.10444641 50.4078064 C138.83937562 57.23890163 137.40437082 62.29107297 133.76069641 68.15390015 C133.33788391 68.88222046 132.91507141 69.61054077 132.47944641 70.3609314 C126.59135675 79.31288167 115.92061088 86.17910631 105.54544067 88.6900177 C102.36169156 89.22036634 99.36279599 89.27359823 96.13447571 89.26742554 C95.16777702 89.26764458 95.16777702 89.26764458 94.18154907 89.26786804 C92.06596937 89.2671752 89.95047935 89.25941246 87.83491516 89.2515564 C86.36232552 89.24968998 84.88973526 89.24826713 83.41714478 89.24726868 C79.55217253 89.24346111 75.68723821 89.23364594 71.82228088 89.2225647 C67.87402357 89.21231265 63.92576009 89.20776294 59.97749329 89.20272827 C52.23854175 89.19202201 44.49962924 89.17443955 36.76069641 89.15390015 C36.76069641 80.24390015 36.76069641 71.33390015 36.76069641 62.15390015 C41.09452454 62.11651733 45.42835266 62.07913452 49.89350891 62.0406189 C53.35856612 62.00248752 56.82356081 61.9614149 60.28855896 61.91835785 C63.94103385 61.8737757 67.59339611 61.8343246 71.24604797 61.8074646 C74.76703878 61.78137204 78.28760405 61.74092873 81.80833054 61.69071388 C83.79895642 61.66601657 85.78974716 61.65601568 87.78050232 61.64625549 C89.61172134 61.61656425 89.61172134 61.61656425 91.47993469 61.58627319 C92.55026947 61.57517014 93.62060425 61.56406708 94.72337341 61.55262756 C99.46774857 60.92980528 102.81277821 58.86418596 106.59663391 56.02890015 C109.59420937 52.04656163 109.50398169 49.01148245 109.38569641 44.15390015 C109.40503235 43.35983765 109.42436829 42.56577515 109.44429016 41.74765015 C109.40797889 37.39029706 109.16534107 35.65675953 106.34663391 32.15390015 C103.10553344 29.647188 101.60517512 29.02914176 97.60559082 29.01345825 C96.73499527 29.00774811 95.86439972 29.00203796 94.96742249 28.99615479 C94.00999146 28.99503693 93.05256042 28.99391907 92.06611633 28.99276733 C90.55616844 28.98531998 90.55616844 28.98531998 89.01571655 28.97772217 C85.67419255 28.96307625 82.33271603 28.95629432 78.99116516 28.95077515 C76.67429604 28.94502548 74.35742694 28.93926772 72.04055786 28.9335022 C67.1773303 28.92298514 62.3141193 28.91714716 57.45088196 28.91366577 C51.21631818 28.90818109 44.9819728 28.88415639 38.74747753 28.85569382 C33.95968993 28.83707828 29.17195503 28.8318624 24.38413429 28.8303299 C22.0856081 28.82730014 19.78708291 28.81926082 17.48859215 28.80614471 C14.27337877 28.78910801 11.05870016 28.79095891 7.84346008 28.79745483 C6.89210175 28.78824005 5.94074341 28.77902527 4.96055603 28.76953125 C-1.10839799 28.80798042 -4.5437115 29.55620079 -9.02754211 33.87719727 C-10.72689067 37.06999704 -10.65826844 40.05225176 -10.62748718 43.58114624 C-10.63537262 44.69410316 -10.63537262 44.69410316 -10.64341736 45.82954407 C-10.65660607 48.27902365 -10.6478818 50.72785159 -10.63774109 53.17733765 C-10.63976259 54.88360722 -10.64267466 56.58987596 -10.6464386 58.29614258 C-10.65086077 61.87218451 -10.644436 65.44800156 -10.63041687 69.02401733 C-10.61335089 73.5994279 -10.62315026 78.17430951 -10.64113426 82.74970055 C-10.65199718 86.27396599 -10.64851383 89.79810697 -10.64075089 93.32237625 C-10.63875446 95.00881641 -10.64118853 96.69526799 -10.64818954 98.38169479 C-10.65584256 100.74405386 -10.64414566 103.1055685 -10.62748718 105.46786499 C-10.63659622 106.50609154 -10.63659622 106.50609154 -10.64588928 107.56529236 C-10.56819385 113.5384527 -9.1184257 117.28914549 -4.88038635 121.49478149 C0.15375764 124.46719042 6.37396498 123.72234096 12.01802063 123.69979858 C13.36865425 123.70854029 14.71927752 123.71902817 16.06988525 123.73112488 C19.72445486 123.75893294 23.37868567 123.76239073 27.0333457 123.76140499 C30.85710032 123.7645386 34.68070337 123.79016609 38.50437927 123.81338501 C45.73965959 123.85391437 52.97484985 123.87427847 60.21022618 123.8873589 C68.44970882 123.90323937 76.68903843 123.94165937 84.92843223 123.98195219 C101.87249818 124.06430927 118.81646529 124.1154523 135.76069641 124.15390015 C135.76069641 133.39390015 135.76069641 142.63390015 135.76069641 152.15390015 C118.43520267 152.24450007 101.10991388 152.31805538 83.78424835 152.36114883 C75.73806219 152.38169748 67.69203462 152.40966905 59.64595032 152.45565796 C52.62581945 152.49576341 45.60580354 152.52138876 38.58556128 152.53025413 C34.87483819 152.53542918 31.16444373 152.54742747 27.4538269 152.57682037 C-11.07981588 152.86990356 -11.07981588 152.86990356 -24.23930359 142.15390015 C-25.10555359 141.57640015 -25.97180359 140.99890015 -26.86430359 140.40390015 C-33.65650466 133.96918334 -39.14074868 125.38019938 -39.64044189 115.85586548 C-39.66702761 114.29556337 -39.67776684 112.73493426 -39.6750946 111.17440796 C-39.68517044 110.31469391 -39.69524628 109.45497986 -39.70562744 108.56921387 C-39.73394716 105.74834921 -39.7399761 102.92802281 -39.74320984 100.10702515 C-39.75286293 98.1293822 -39.76295628 96.15174135 -39.77346802 94.17410278 C-39.7913901 90.03515665 -39.79699318 85.89639795 -39.79521179 81.75741577 C-39.79490737 76.48064563 -39.83583696 71.20509061 -39.88752842 65.92860794 C-39.92105761 61.84478347 -39.92696428 57.76124746 -39.92538261 53.6772995 C-39.92889859 51.73341439 -39.94203128 49.78951985 -39.96537971 47.84577179 C-40.11765224 33.85898437 -38.54861235 24.21386212 -29.23930359 13.15390015 C-22.54195131 7.32492418 -15.70881313 3.68616905 -7.23930359 1.15390015 C-4.48920198 0.23719961 -2.83572427 0.02104736 0 0 Z " fill="#242424" transform="translate(1051.2393035888672,236.84609985351563)"/>
<path d="M0 0 C17.82026426 -0.06781981 35.64041773 -0.12304152 53.46077538 -0.15543652 C61.73577889 -0.1708804 70.0106963 -0.19192232 78.28564453 -0.22631836 C85.50128605 -0.25629684 92.71686517 -0.275593 99.93256724 -0.28226548 C103.75034413 -0.28616349 107.56794259 -0.29527213 111.38566208 -0.31719017 C114.98568191 -0.33768916 118.58545133 -0.34380701 122.18552399 -0.33932304 C124.12309478 -0.34053026 126.06063887 -0.35660176 127.99813843 -0.3732605 C142.15581468 -0.32356592 154.02868558 3.92670403 164.375 13.8125 C168.50375005 18.15129775 171.48842493 22.57967054 174 28 C174.33 28.66 174.66 29.32 175 30 C175.12466978 32.83477789 175.18891717 35.64590036 175.20874023 38.48193359 C175.21852402 39.36027863 175.2283078 40.23862366 175.23838806 41.14358521 C175.26839139 44.06185387 175.28975036 46.98007616 175.30859375 49.8984375 C175.31516558 50.89662128 175.3217374 51.89480507 175.32850838 52.92323685 C175.36113591 58.21492342 175.38556912 63.50658969 175.4050293 68.79833984 C175.42278595 73.16517814 175.4575105 77.53136381 175.50756836 81.89794922 C175.56802939 87.17825857 175.5985421 92.45796649 175.60820198 97.7386055 C175.61672044 99.74392309 175.63544849 101.74922621 175.6649456 103.75434494 C175.82546773 115.29501252 175.7313388 124.18530885 169 134 C168.62149399 134.59179047 168.24298798 135.18358093 167.85301208 135.79330444 C160.94481333 145.30807313 149.17275866 149.91561042 138 152 C129.99708456 152.86325582 121.92823719 152.68187819 113.890625 152.62890625 C111.58811328 152.62973695 109.28560164 152.6322039 106.98309326 152.63621521 C102.18564756 152.63905604 97.38867318 152.6245357 92.59130859 152.59692383 C86.46976747 152.56276743 80.34906365 152.56890182 74.22748184 152.5875864 C69.48312502 152.59819535 64.73896027 152.58918444 59.99462128 152.57420158 C57.7381828 152.56905312 55.48172399 152.56946059 53.22528839 152.57574654 C36.76683555 152.60440771 23.36626957 151.73818585 10 141 C0.24901757 131.24901757 -3.21997365 120.37958821 -3.3125 106.9375 C-3.30292963 94.43541002 -1.32248356 86.47342564 7.5703125 77.2890625 C16.98805025 68.41640281 25.54889935 62.86167401 38.71801758 62.88647461 C39.37223694 62.88632858 40.0264563 62.88618256 40.70050049 62.8860321 C42.84854526 62.88672506 44.99650175 62.89448836 47.14453125 62.90234375 C48.63954114 62.90421012 50.13455165 62.90563299 51.62956238 62.90663147 C55.55371811 62.91043936 59.4778365 62.92025482 63.40197754 62.93133545 C67.41055801 62.94158679 71.41914455 62.94613706 75.42773438 62.95117188 C83.28517525 62.96187871 91.14257867 62.97946144 99 63 C99 71.91 99 80.82 99 90 C94.60558594 90.02578125 90.21117187 90.0515625 85.68359375 90.078125 C82.16670836 90.10982856 78.649912 90.14548021 75.13309479 90.18379211 C71.42782256 90.22307861 67.72278858 90.2555024 64.01733398 90.27099609 C60.44438495 90.28620571 56.87208448 90.32072559 53.29942513 90.36830902 C51.94042683 90.38307886 50.58133591 90.39103849 49.22225761 90.39188385 C40.46018993 90.40280947 34.74461131 90.70262664 28.09375 96.7265625 C26.42720369 100.19059805 26.48706434 103.61072332 26.5 107.375 C26.45746094 108.48875 26.45746094 108.48875 26.4140625 109.625 C26.39975683 113.67350544 26.78392793 116.25756703 29.34375 119.4765625 C32.63737515 122.6055064 34.82224382 123.12291195 39.19270325 123.14044189 C40.04639999 123.14615204 40.90009674 123.15186218 41.77966309 123.15774536 C42.71322632 123.15886322 43.64678955 123.15998108 44.60864258 123.16113281 C46.08713936 123.16858017 46.08713936 123.16858017 47.59550476 123.17617798 C50.86185398 123.19080338 54.12815464 123.19760231 57.39453125 123.203125 C59.662735 123.20887621 61.93093874 123.21463395 64.19914246 123.22039795 C68.95804064 123.23090906 73.71692192 123.23675099 78.47583008 123.24023438 C84.57238537 123.24571881 90.66871729 123.26974546 96.76520252 123.29820633 C101.45180411 123.31683436 106.13835192 123.32203841 110.82498741 123.32357025 C113.0724478 123.32659701 115.31990724 123.33462628 117.56733131 123.34775543 C120.71278477 123.36481875 123.85769281 123.36293476 127.00317383 123.35644531 C128.39440964 123.37026749 128.39440964 123.37026749 129.81375122 123.3843689 C134.92290272 123.35136601 138.67226408 123.02322306 143 120 C146.28438848 116.07301967 146.44050362 112.29728894 146.41992188 107.36743164 C146.42839142 106.61556076 146.43686096 105.86368988 146.44558716 105.08903503 C146.46891699 102.61256833 146.46998035 100.13672436 146.46875 97.66015625 C146.47585381 95.93289442 146.48355313 94.20563495 146.49182129 92.4783783 C146.50525669 88.86125119 146.50683903 85.24434232 146.50097656 81.62719727 C146.49507999 76.99889391 146.52567395 72.37163937 146.56609344 67.74353886 C146.59198079 64.17722462 146.59484697 60.61116262 146.59120178 57.04476738 C146.59289194 55.33876343 146.60252449 53.63274771 146.62034607 51.92683601 C146.64255885 49.53783684 146.6328248 47.1509567 146.61523438 44.76196289 C146.62849762 44.06203217 146.64176086 43.36210144 146.65542603 42.64096069 C146.59266283 38.96029142 145.9913883 36.51392489 143.77404785 33.63987732 C139.53246853 29.60344765 136.00518394 28.75349132 130.23564148 28.7215271 C129.08444321 28.71036362 127.93324493 28.69920013 126.74716187 28.68769836 C125.49343781 28.68553818 124.23971375 28.68337799 122.94799805 28.68115234 C121.60736998 28.67184888 120.26674768 28.66167958 118.9261322 28.65071106 C115.29432493 28.62344402 111.66255638 28.60827148 108.03067374 28.59528303 C104.23230287 28.57963803 100.43401089 28.55285218 96.63569641 28.5272522 C89.44645127 28.48048862 82.25719125 28.44373282 75.06787187 28.41057932 C66.88164767 28.37234081 58.69550275 28.32293518 50.50934541 28.27259517 C33.67294849 28.1693113 16.83651854 28.08151352 0 28 C0 18.76 0 9.52 0 0 Z " fill="#252525" transform="translate(630,237)"/>
<path d="M0 0 C10.23 0 20.46 0 31 0 C33.02855151 5.4094707 34.55190816 9.91610506 35.75 15.4375 C37.38516399 22.718654 39.32964739 29.88658267 41.375 37.0625 C44.85584063 49.31155767 47.970799 61.63272497 51 74 C52.44387916 79.87432516 53.90177889 85.74458157 55.39550781 91.60644531 C55.80530695 93.22909099 56.20808609 94.85352277 56.60449219 96.47949219 C59.92070631 110.69204646 59.92070631 110.69204646 69.078125 121.6640625 C73.30518789 123.59675703 77.15536792 123.47488236 81.75 123.4375 C82.6059375 123.45748047 83.461875 123.47746094 84.34375 123.49804688 C90.56543287 123.49333348 95.71385229 122.4022176 101 119 C103.14140661 116.65768223 103.14140661 116.65768223 104.3125 113.875 C104.78429687 112.90691406 105.25609375 111.93882812 105.7421875 110.94140625 C106.89105827 108.25476125 107.92897992 105.55414912 108.9375 102.8125 C111.87585849 95.16305435 117.77649061 88.89074201 125 85 C132.32022447 82.1526851 139.73694836 81.61297842 147.265625 84.0625 C158.14677077 89.09297945 162.63857622 95.34341691 166.8125 106.25 C167.63719393 108.50195203 168.45082679 110.75637513 169.24145508 113.02050781 C170.72998259 117.22191322 170.72998259 117.22191322 173.875 120.125 C174.57625 120.41375 175.2775 120.7025 176 121 C176.61061279 121.34184326 177.22122559 121.68368652 177.8503418 122.03588867 C181.67004314 123.74900629 185.68774495 123.3274556 189.8125 123.3125 C190.68970703 123.32861328 191.56691406 123.34472656 192.47070312 123.36132812 C199.51381692 123.36659597 204.56177042 122.39021944 209.77734375 117.27734375 C212.12675716 113.81309444 213.45875381 110.55112792 214.5625 106.5625 C214.93503906 105.30566406 215.30757812 104.04882812 215.69140625 102.75390625 C216.13191541 101.17046389 216.56752123 99.58565448 217 98 C217.28020996 96.97648437 217.56041992 95.95296875 217.84912109 94.8984375 C219.87280246 87.40927165 221.78976577 79.89702904 223.65625 72.3671875 C223.8875914 71.43404221 224.1189328 70.50089691 224.35728455 69.53947449 C225.31329632 65.67874872 226.26806289 61.81772738 227.21826172 57.95556641 C229.65080647 48.07760825 232.11354122 38.26693089 235.20458984 28.57177734 C236.1990203 25.35651326 236.91742208 22.1774744 237.5625 18.875 C241.02596831 1.97403169 241.02596831 1.97403169 243 0 C245.21855264 -0.08783542 247.43988496 -0.10694609 249.66015625 -0.09765625 C250.65685585 -0.09553383 250.65685585 -0.09553383 251.6736908 -0.09336853 C253.80333899 -0.08775518 255.93288339 -0.07520054 258.0625 -0.0625 C259.50325369 -0.05748671 260.94400903 -0.05292351 262.38476562 -0.04882812 C265.92321102 -0.03778145 269.46159539 -0.02050792 273 0 C272.40558879 4.57844605 271.59063216 8.97686559 270.43359375 13.4453125 C270.11664551 14.67354736 269.79969727 15.90178223 269.47314453 17.16723633 C269.12810171 18.48653589 268.78288266 19.80578937 268.4375 21.125 C268.08176613 22.49566029 267.72613623 23.86634756 267.37060547 25.23706055 C264.57219493 35.98516012 261.63939918 46.69466409 258.61499023 57.38134766 C257.01234859 63.09160716 255.60550949 68.75408611 254.50537109 74.58081055 C253.40402833 79.85289046 251.74976323 84.98717965 250.2109375 90.14453125 C248.70019151 95.29480168 247.48449959 100.40715647 246.47851562 105.67822266 C243.40080227 120.61141349 236.58315649 136.91128197 223.515625 145.6640625 C213.26683092 151.10674507 202.87711671 151.37290652 191.54443359 151.37060547 C189.13697489 151.37497825 186.73135455 151.41138461 184.32421875 151.44921875 C171.13243247 151.54655782 160.87355199 149.38550569 151 140 C144.01488351 132.92720422 140.65889771 124.06383474 137 115 C136.443125 116.11375 135.88625 117.2275 135.3125 118.375 C134.94125 119.1071875 134.57 119.839375 134.1875 120.59375 C133.40381927 122.18173464 132.65279745 123.78631165 131.9375 125.40625 C127.1905504 135.82316718 119.65114369 144.63960629 108.82592773 148.84448242 C100.67390847 151.37156786 92.79088504 151.45857224 84.33862305 151.39111328 C81.93806349 151.37500378 79.5391811 151.39104821 77.13867188 151.41015625 C63.32616197 151.43152013 53.70612925 149.37208476 43 140 C32.59833299 129.04972186 28.2422976 113.34216869 25.21484375 98.9140625 C22.84911687 87.98090899 19.98399742 77.1874926 17.125 66.375 C16.05147038 62.29607493 14.98046562 58.21648987 13.91015625 54.13671875 C13.65235886 53.15494156 13.39456146 52.17316437 13.12895203 51.16163635 C11.21308304 43.85119493 9.36217181 36.52748381 7.5625 29.1875 C5.73197938 21.72481231 3.72467805 14.339628 1.47094727 6.99291992 C0 2.18440613 0 2.18440613 0 0 Z " fill="#242424" transform="translate(336,237)"/>
<path d="M0 0 C28.16811944 -0.16065467 28.16811944 -0.16065467 42.10161209 -0.20101547 C49.63132083 -0.22316404 57.16085194 -0.25126416 64.69042969 -0.30175781 C71.29102658 -0.34600045 77.89148185 -0.36914728 84.49223328 -0.37950897 C87.0087944 -0.38689193 89.52534518 -0.4013091 92.04182434 -0.42292023 C95.57043073 -0.45201444 99.09824582 -0.45595332 102.62695312 -0.45410156 C104.1827861 -0.47567322 104.1827861 -0.47567322 105.77005005 -0.49768066 C112.01117001 -0.4623092 116.81725656 0.36019883 122 4 C126.46290809 8.80620871 127.15296482 11.92053047 127.17700195 18.29199219 C127.18357315 19.04342499 127.19014435 19.79485779 127.19691467 20.56906128 C127.21666223 23.06166683 127.22831443 25.55421205 127.23828125 28.046875 C127.24235678 28.89809181 127.2464323 29.74930862 127.25063133 30.62631989 C127.27149985 35.13303892 127.28579728 39.63972745 127.29516602 44.14648438 C127.30622272 48.79821402 127.34061161 53.44946429 127.38033772 58.10102463 C127.40650591 61.68016438 127.4148581 65.25919005 127.41844749 68.83841705 C127.42331418 70.55280031 127.43493055 72.26717845 127.45348549 73.9814682 C127.47787848 76.38483926 127.47691195 78.78697229 127.4699707 81.19042969 C127.48278076 81.89507355 127.49559082 82.59971741 127.50878906 83.32571411 C127.45612881 88.34359863 126.28051312 91.22470928 123 95 C117.64602095 98.91329129 111.93774246 98.40453023 105.57861328 98.34057617 C104.43656937 98.34101425 103.29452545 98.34145233 102.11787415 98.34190369 C98.35184496 98.33981759 94.58626371 98.31649407 90.8203125 98.29296875 C88.20572147 98.28737218 85.59112729 98.28310237 82.97653198 98.28010559 C76.80365184 98.27079661 70.63093188 98.24619856 64.45812213 98.21605712 C56.73773722 98.17918059 49.01732606 98.16280158 41.296875 98.14648438 C27.53112536 98.11730018 13.76572502 98.0571983 0 98 C0 65.66 0 33.32 0 0 Z " fill="#FBFBFB" transform="translate(38,264)"/>
<path d="M0 0 C10.23 0 20.46 0 31 0 C35.63498953 15.87483913 39.85071568 31.83702739 43.94140625 47.85839844 C45.56823451 54.22762023 47.20796606 60.59351835 48.84918213 66.95904541 C49.36249317 68.95145492 49.87445048 70.94420847 50.38623047 72.93701172 C52.20207143 80.02796079 52.20207143 80.02796079 54.16796875 87.078125 C54.89597899 89.63470556 55.46443588 92.13688389 55.9375 94.75 C58.53624525 108.45330151 58.53624525 108.45330151 66 120 C71.16599996 123.2492668 75.43413928 123.45407517 81.34375 123.43359375 C82.67472717 123.44145653 82.67472717 123.44145653 84.03259277 123.44947815 C85.90176348 123.455879 87.77097457 123.45458653 89.64013672 123.44604492 C92.49129204 123.43752602 95.34044807 123.46633679 98.19140625 123.49804688 C100.01302024 123.49965894 101.83463775 123.49908125 103.65625 123.49609375 C104.50328491 123.50732773 105.35031982 123.51856171 106.22302246 123.53013611 C112.76183389 123.45355951 116.37781571 121.54506122 121.125 116.9375 C125.99932989 109.30104984 127.64894586 100.50556427 129.5 91.76367188 C130.70425305 86.13284804 132.23867033 80.68904281 133.99609375 75.203125 C136.53128724 67.1141808 138.60617927 58.93830131 140.3359375 50.64453125 C142.15336582 42.07030453 144.35181555 33.60482983 146.5625 25.125 C147.16431595 22.80499104 147.76531216 20.48477088 148.36619568 18.16452026 C148.73611377 16.7373471 149.10671404 15.31035049 149.47816467 13.88357544 C150.68026298 9.26201185 151.8416795 4.63328202 153 0 C163.23 0 173.46 0 184 0 C182.8582454 5.708773 181.73997561 11.29415307 180.3359375 16.921875 C180.02237305 18.18 179.70880859 19.438125 179.38574219 20.734375 C179.04903323 22.07296827 178.71211402 23.41150868 178.375 24.75 C178.11571716 25.78447266 178.11571716 25.78447266 177.85119629 26.83984375 C174.92171187 38.52294647 171.85581595 50.1663848 168.72900391 61.7980957 C166.6952954 69.36643289 164.73294006 76.94538379 162.859375 84.5546875 C161.63152382 89.47725449 160.32092952 94.37618464 158.99609375 99.2734375 C158.32230975 101.79418233 157.6691981 104.32052905 157.03515625 106.8515625 C153.1651384 122.11404253 148.02642634 137.8040266 133.83129883 146.44848633 C121.66644882 153.1146605 109.03483285 152.61979878 95.51660156 152.52148438 C92.00776037 152.50004741 88.50096636 152.52135661 84.9921875 152.546875 C56.15517437 152.58311415 56.15517437 152.58311415 45 142 C44.00226562 141.07960938 44.00226562 141.07960938 42.984375 140.140625 C32.3705388 129.3647455 28.73824735 114.7403234 25.39898682 100.46157837 C24.50161205 96.62577177 23.56850658 92.7988973 22.6378479 88.97105408 C22.15399315 86.97966446 21.67188563 84.98784952 21.1914978 82.99562073 C18.84966171 73.30008051 16.36282322 63.64459556 13.82971191 53.99746704 C13.14738535 51.39778864 12.46949463 48.79698396 11.79199219 46.19604492 C9.54836774 37.62368228 7.208924 29.09303141 4.6267395 20.61567688 C3.18954365 15.85150138 2.13066141 11.11231321 1.359375 6.19921875 C1.01820497 4.11140648 0.51308508 2.05234031 0 0 Z " fill="#242424" transform="translate(817,237)"/>
<path d="M0 0 C3.86919683 2.94058959 6.92148345 5.9679669 9.125 10.375 C9.92027797 16.26408369 9.78010678 21.16514423 6.625 26.3125 C2.99226074 31.07087678 -0.98326955 33.73505962 -6.91796875 34.7109375 C-11.86514857 34.95973184 -15.62759707 33.8133239 -19.875 31.375 C-24.78539735 26.59731609 -27.04748038 23.17263381 -27.3125 16.25 C-27.26794538 10.49608885 -26.44573035 7.16479394 -22.56640625 2.8984375 C-16.4853219 -2.57875164 -7.40814492 -3.87428148 0 0 Z " fill="#2D7FE1" transform="translate(311.875,296.625)"/>
<path d="M0 0 C5.08002643 2.66840949 9.0260956 6.86734931 10.83984375 12.30859375 C11.61287677 18.73363865 10.86613947 24.11793683 6.83984375 29.30859375 C2.44964824 33.5803815 -1.69305294 35.68204321 -7.84765625 35.93359375 C-13.4554506 35.58946132 -16.68798309 33.88854558 -20.59375 29.8125 C-25.21288204 24.56527068 -25.62342567 20.16868352 -25.57421875 13.39453125 C-24.92924549 8.58765507 -22.71879813 5.51214338 -19.16015625 2.30859375 C-13.48167386 -1.78673912 -6.64724705 -2.12759987 0 0 Z " fill="#252525" transform="translate(250.16015625,295.69140625)"/>
<path d="M0 0 C4.75905699 2.71809868 7.66222816 6.56605016 9.8125 11.5625 C10.94770879 16.8465294 10.40786268 21.16172351 7.75 25.875 C4.1263541 30.82363553 0.96368802 34.03528974 -5.24609375 35.07421875 C-11.96526304 35.42377091 -16.41706313 34.74407002 -21.6015625 30.36328125 C-25.26170584 26.20730568 -26.59223927 23.1252378 -26.5 17.5625 C-26.49613281 16.551875 -26.49226562 15.54125 -26.48828125 14.5 C-25.94281395 9.17283886 -24.32672403 6.24393252 -20.25 2.8125 C-19.56035156 2.21953125 -18.87070313 1.6265625 -18.16015625 1.015625 C-12.95228661 -2.82066709 -5.76868293 -2.44059662 0 0 Z " fill="#252525" transform="translate(251.1875,238.4375)"/>
<path d="M0 0 C6.11869021 2.54581218 11.02611314 7.05222628 14 13 C14.55674965 18.95293853 14.54141118 23.97348091 11 29 C4.87384039 35.02689314 1.02044978 36.47165122 -7.65625 36.4140625 C-12.63743935 35.79723298 -15.71934711 33.72507632 -19 30 C-23.10471122 24.38102177 -22.76075235 18.7115263 -22 12 C-17.77916052 3.08933888 -9.66139376 -1.54137367 0 0 Z " fill="#252525" transform="translate(307,352)"/>
<path d="M0 0 C0.99 0.33 1.98 0.66 3 1 C0.03 3.97 -2.94 6.94 -6 10 C-6.66 9.67 -7.32 9.34 -8 9 C-6.85459775 7.68712379 -5.70866567 6.37470979 -4.5625 5.0625 C-3.92441406 4.33160156 -3.28632813 3.60070312 -2.62890625 2.84765625 C-1.77458541 1.87860647 -0.91348825 0.91348825 0 0 Z " fill="#303030" transform="translate(455,326)"/>
<path d="M0 0 C1.80411967 2.75924185 2.0127245 3.88972103 1.625 7.25 C1.41875 8.1575 1.2125 9.065 1 10 C0.01 10 -0.98 10 -2 10 C-1.54177532 6.53058454 -1.10868317 3.32604951 0 0 Z " fill="#424242" transform="translate(570,270)"/>
<path d="M0 0 C-0.99 0 -1.98 0 -3 0 C-3.33 0.99 -3.66 1.98 -4 3 C-5.98 3 -7.96 3 -10 3 C-6.81859267 -0.48439851 -4.56758339 -1.41752588 0 0 Z " fill="#3A85E3" transform="translate(301,296)"/>
<path d="M0 0 C0.66 0.99 1.32 1.98 2 3 C0 9 0 9 -2 10 C-1.125 2.25 -1.125 2.25 0 0 Z " fill="#515151" transform="translate(560,309)"/>
</svg>
