<?xml version="1.0" encoding="utf-8"?>
<!-- Generator: Adobe Illustrator 25.0.0, SVG Export Plug-In . SVG Version: 6.00 Build 0)  -->
<svg version="1.1" id="Layer_1" xmlns="http://www.w3.org/2000/svg" xmlns:xlink="http://www.w3.org/1999/xlink" x="0px" y="0px"
	 viewBox="0 0 1056 587" style="enable-background:new 0 0 1056 587;" xml:space="preserve">
<style type="text/css">
	.st0{fill:#0C2F6E;}
</style>
<g>
	<g>
		<path class="st0" d="M209.46,275.78v-46.07h19.42v43.69c0,10.06,5.32,17.28,15.39,17.28c11.04,0,18.13-5.68,18.13-19.04v-41.92
			h19.5v76.71h-19.5v-8.98c-6.45,7.6-15.79,10.52-23.77,10.52C217.52,307.95,209.46,291.83,209.46,275.78z"/>
		<path class="st0" d="M362.06,259.89v46.53h-16.19l-1.21-10.21c-5.24,7.91-15.95,11.75-25.14,11.75
			c-16.52,0-29.25-9.06-29.25-25.11c0-16.66,14.02-22.19,32.07-22.19h21.83c-0.4-11.36-3.95-16.2-16.76-16.2
			c-9.27,0-15.47,5.22-18.93,10.83l-15.07-10.37c7.73-10.06,17.97-16.82,33.84-16.82C349.17,228.1,362.06,241.15,362.06,259.89z
			 M344.25,274.78v-0.61h-20.79c-8.94,0-13.05,4.45-13.05,9.29c0,5.07,4.27,8.68,13.05,8.68
			C335.55,292.14,343.05,283.84,344.25,274.78z"/>
		<path class="st0" d="M372.27,229.71h19.66v8.91c6.45-7.52,15.71-10.52,23.61-10.52c21.11,0,29.41,16.2,29.41,32.25v46.07h-19.66
			v-43.69c0-10.06-5.32-17.35-15.39-17.35c-11.04,0-17.97,5.68-17.97,19.04v42h-19.66V229.71z"/>
		<path class="st0" d="M461.66,286.25V246.4h-12.97v-15.66h13.29v-23.3h19.34v23.3h20.14v15.66h-20.14v36.55
			c0,7.37,3.79,9.52,8.94,9.52c4.11,0,8.54-1.54,11.2-2.76v16.97c-2.98,1.07-8.78,2.3-14.66,2.3
			C471.09,308.97,461.66,300.22,461.66,286.25z"/>
		<path class="st0" d="M507.45,275.78v-46.07h19.31v43.69c0,10.06,5.29,17.28,15.31,17.28c10.98,0,18.03-5.68,18.03-19.04v-41.92
			h19.39v76.71H560.1v-8.98c-6.41,7.6-15.71,10.52-23.64,10.52C515.46,307.95,507.45,291.83,507.45,275.78z"/>
		<path class="st0" d="M590.15,229.71h17.5v9.6c4.82-8.52,12.46-11.21,20.02-11.21c8.38,0,17.5,3.3,21.88,13.51
			c5.93-9.9,14.76-13.51,23.73-13.51c18.84,0,26.55,16.05,26.55,32.25v46.07h-18.09v-43.69c0-9.44-2.74-17.2-12.09-17.2
			c-9.79,0-15.5,8.52-15.5,18.74v42.15h-18.09v-44c0-9.29-2.74-16.89-12.01-16.89c-9.86,0-15.65,8.52-15.65,18.74v42.15H590.3
			L590.15,229.71z"/>
		<path class="st0" d="M708.51,252.33c0-29.71,16.6-55.97,52.16-55.97c21.41,0,38.55,10.9,47.26,31.17l-18.12,7.22
			c-4.05-14.28-15.22-19.81-29.29-19.81c-22.87,0-32.73,16.51-32.73,36.62c0,21.58,9.87,38.08,33.04,38.08
			c13.92,0,23.48-5.53,29.29-20.12l17.97,7.37c-8.57,20.27-25.77,31.25-47.26,31.25C725.26,308.15,708.51,282.12,708.51,252.33z"/>
		<path class="st0" d="M816.47,275.78v-46.07h18.95v43.69c0,10.06,5.19,17.28,15.02,17.28c10.77,0,17.69-5.68,17.69-19.04v-41.92
			h19.03v76.71h-19.03v-8.98c-6.29,7.6-15.41,10.52-23.19,10.52C824.33,307.95,816.47,291.83,816.47,275.78z"/>
		<path class="st0" d="M895.81,268.33c0-19.96,12.25-40.23,39.48-40.23c28.2,0,37.3,21.58,37.3,38.7c0,3.15-0.32,6.3-0.73,7.37
			H916.6c1.69,10.06,7.49,16.81,20.14,16.81c7.25,0,13.7-2.15,19.34-8.14l13.54,11.29c-8.78,9.29-19.5,13.82-33.03,13.82
			C908.87,307.95,895.81,288.99,895.81,268.33z M953.26,260.66c0-1.69-0.16-3.3-0.64-4.84c-2.01-7.91-8.94-11.98-17.48-11.98
			c-11.6,0-16.68,7.22-18.53,16.82H953.26z"/>
		<path class="st0" d="M190.17,288.7c0.03-0.04,0.06-0.07,0.08-0.11l-13.69-13.53l-16.18-16.22h-19.67V275l9.12,9.54
			c-2.02,0.44-4.12,0.68-6.27,0.68c-16.82,0-30.45-14.24-30.45-31.82c0-17.57,13.64-31.82,30.45-31.82s30.45,14.24,30.45,31.82
			c0,1.78-0.14,3.52-0.41,5.22l22.06,21.6c4.33-8.14,6.79-17.42,6.79-27.25c0-32.44-26.65-58.73-59.52-58.73
			c-32.88,0-59.53,26.29-59.53,58.73c0,32.43,26.65,58.73,59.53,58.73c9.66,0,18.78-2.27,26.84-6.3l14.31,14.97h20.14v-17.58
			L190.17,288.7z"/>
	</g>
	<g>
		<path d="M130.17,387.34c-2.71,2.2-6.23,3.49-10.61,3.49c-11.82,0-17.38-9.05-17.38-19.39c0-10.34,5.56-19.36,17.38-19.36
			c11.9,0,17.43,9.05,17.43,19.39c0,5.32-1.48,10.26-4.38,13.72l5.4,5.29l-2.42,2.28L130.17,387.34z M127.56,384.81l-6.31-6.1
			l2.42-2.23l6.26,6.07c2.31-2.9,3.38-6.77,3.38-11.12c0-8.67-4.22-15.87-13.75-15.87c-9.45,0-13.7,7.2-13.7,15.87
			c0,8.7,4.24,15.9,13.7,15.9C122.92,387.34,125.57,386.37,127.56,384.81z"/>
		<path d="M143.41,380.57V363.6h3.52v16.17c0,4.89,2.31,7.76,6.71,7.76c4.51,0,7.47-2.85,7.47-8.08V363.6h3.52v26.83h-3.52v-4.57
			c-1.67,3.28-4.86,4.97-8.41,4.97C146.42,390.83,143.52,386.37,143.41,380.57z"/>
		<path d="M192,374.04v16.38h-2.95l-0.24-5.45c-2.01,3.89-5.75,5.85-9.75,5.85c-5.45,0-9.27-3.03-9.27-8.19
			c0-5.45,4.32-7.65,11.25-7.65h7.73v-0.32c0-5.67-2.07-8.35-7.44-8.35c-3.57,0-5.94,1.61-7.79,4.38l-2.71-1.99
			c2.6-3.6,5.72-5.53,10.47-5.53C188.19,363.17,192,367.3,192,374.04z M188.78,380.35v-2.74h-7.55c-5.29,0-7.81,1.91-7.81,5.13
			c0,3.06,2.28,5.05,6.31,5.05C184.4,387.79,187.54,384.76,188.78,380.35z"/>
		<path d="M198.91,363.6h3.54v4.56c1.69-3.28,4.86-4.99,8.41-4.99c6.26,0,9.21,4.46,9.32,10.26v17h-3.54v-16.17
			c0-4.89-2.31-7.79-6.71-7.79c-4.54,0-7.47,2.87-7.47,8.08v15.87h-3.54V363.6z"/>
		<path d="M227.98,382.9v-16.3h-4.46v-3.01h4.51v-7.76l3.49-2.61v10.37h7.52v3.01h-7.52v15.74c0,3.79,1.5,5.34,4.35,5.34
			c1.18,0,2.39-0.35,3.14-0.64l0.05,3.25c-0.83,0.27-2.28,0.54-3.79,0.54C230.53,390.83,227.98,388.03,227.98,382.9z"/>
		<path d="M243.48,380.57V363.6H247v16.17c0,4.89,2.31,7.76,6.71,7.76c4.51,0,7.47-2.85,7.47-8.08V363.6h3.52v26.83h-3.52v-4.57
			c-1.67,3.28-4.86,4.97-8.41,4.97C246.49,390.83,243.59,386.37,243.48,380.57z"/>
		<path d="M272.33,363.6h3.44v4.67c1.48-3.44,4.48-5.1,8.08-5.1c3.95,0,7.06,1.83,8.27,5.93c1.58-3.92,4.89-5.93,8.86-5.93
			c6.45,0,9.24,4.7,9.24,11.57v15.68h-3.54v-15.25c0-5.56-1.77-8.67-6.34-8.67c-4.46,0-7.28,3.36-7.28,8.03v15.9h-3.54V374.2
			c0-4.75-1.91-7.71-6.31-7.71c-4.48,0-7.3,3.36-7.3,8.03v15.9h-3.54L272.33,363.6z"/>
		<path d="M327.99,371.38c0-11.25,5.85-19.36,17.4-19.36c7.52,0,12.68,3.49,15.47,10.26l-3.46,1.4c-1.91-5.67-5.94-8.11-12.03-8.11
			c-9.16,0-13.72,6.23-13.72,15.68c0,9.05,4.03,16.06,13.54,16.06c5.96,0,9.91-2.55,12.3-8.22l3.44,1.4
			c-2.98,6.77-8.33,10.34-15.74,10.34C333.84,390.83,327.99,382.64,327.99,371.38z"/>
		<path d="M362.91,376.94c0-7.65,5.32-13.78,12.94-13.78c7.65,0,13.05,6.12,13.05,13.78c0,7.71-5.4,13.88-13.05,13.88
			C368.23,390.83,362.91,384.68,362.91,376.94z M385.22,376.94c0-5.91-3.52-10.66-9.37-10.66c-5.8,0-9.27,4.73-9.27,10.66
			c0,5.96,3.46,10.8,9.27,10.8C381.71,387.74,385.22,382.88,385.22,376.94z"/>
		<path d="M394.2,363.6h3.54v4.56c1.69-3.28,4.86-4.99,8.41-4.99c6.26,0,9.21,4.46,9.32,10.26v17h-3.54v-16.17
			c0-4.89-2.31-7.79-6.71-7.79c-4.54,0-7.47,2.87-7.47,8.08v15.87h-3.54V363.6z"/>
		<path d="M422.41,363.6h3.54v4.56c1.69-3.28,4.86-4.99,8.41-4.99c6.26,0,9.21,4.46,9.32,10.26v17h-3.54v-16.17
			c0-4.89-2.31-7.79-6.71-7.79c-4.54,0-7.47,2.87-7.47,8.08v15.87h-3.54V363.6z"/>
		<path d="M448.44,377.13c0-7.57,4.27-13.96,12.08-13.96c8.75,0,11.63,7.09,11.63,12.41c0,0.91-0.08,1.99-0.19,2.39H452.2
			c0.27,5.99,3.38,9.64,8.78,9.64c3.22,0,5.45-0.89,7.87-3.41l2.47,2.18c-3.01,3.14-6.04,4.46-10.37,4.46
			C452.87,390.83,448.44,384.84,448.44,377.13z M468.61,375.33c0.03-0.56,0.03-1.16-0.05-1.69c-0.32-3.62-2.74-7.44-8.06-7.44
			c-4.89,0-7.84,3.76-8.3,9.13H468.61z"/>
		<path d="M475.27,377.05c0-7.04,3.97-13.88,12.03-13.88c4.89,0,8.81,2.55,10.8,7.38l-3.38,1.32c-1.26-3.36-3.97-5.45-7.41-5.45
			c-5.77,0-8.43,5.18-8.43,10.63c0,5.53,2.66,10.55,8.46,10.55c3.49,0,6.18-2.07,7.25-5.4l3.25,1.24
			c-1.64,4.67-5.53,7.38-10.47,7.38C479.65,390.83,475.27,384.65,475.27,377.05z"/>
		<path d="M503.64,382.9v-16.3h-4.46v-3.01h4.51v-7.76l3.49-2.61v10.37h7.52v3.01h-7.52v15.74c0,3.79,1.5,5.34,4.35,5.34
			c1.18,0,2.39-0.35,3.14-0.64l0.05,3.25c-0.83,0.27-2.28,0.54-3.79,0.54C506.19,390.83,503.64,388.03,503.64,382.9z"/>
		<path d="M517.26,377.13c0-7.57,4.27-13.96,12.08-13.96c8.75,0,11.63,7.09,11.63,12.41c0,0.91-0.08,1.99-0.19,2.39h-19.77
			c0.27,5.99,3.38,9.64,8.78,9.64c3.22,0,5.45-0.89,7.87-3.41l2.47,2.18c-3.01,3.14-6.04,4.46-10.37,4.46
			C521.69,390.83,517.26,384.84,517.26,377.13z M537.43,375.33c0.03-0.56,0.03-1.16-0.05-1.69c-0.32-3.62-2.74-7.44-8.06-7.44
			c-4.89,0-7.84,3.76-8.3,9.13H537.43z"/>
		<path d="M544.1,376.97c0-7.57,4.7-13.8,11.92-13.8c4.22,0,7.95,2.39,9.62,6.34v-17.03h3.6v37.95h-3.33l-0.13-6.1
			c-1.67,4.05-5.4,6.5-9.69,6.5C548.8,390.83,544.1,384.62,544.1,376.97z M565.91,376.97c0-5.99-3.46-10.55-9.05-10.55
			s-9.16,4.62-9.16,10.55c0,5.99,3.57,10.63,9.16,10.63S565.91,383.04,565.91,376.97z"/>
		<path d="M578.59,384.52h3.57v5.91h-3.57V384.52z"/>
		<path d="M614.83,352.48h3.09l14.07,37.95h-4l-3.22-9.16h-16.73l-3.28,9.16h-4.03L614.83,352.48z M623.61,378.07l-7.22-20.44
			l-7.2,20.44H623.61z"/>
		<path d="M637.88,352.48h3.68v37.95h-3.68V352.48z"/>
		<path d="M673.64,352.48h3.09l14.07,37.95h-4l-3.22-9.16h-16.73l-3.28,9.16h-4.03L673.64,352.48z M682.42,378.07l-7.22-20.44
			l-7.2,20.44H682.42z"/>
		<path d="M692.74,377.05c0-7.04,3.97-13.88,12.03-13.88c4.89,0,8.81,2.55,10.8,7.38l-3.38,1.32c-1.26-3.36-3.97-5.45-7.41-5.45
			c-5.77,0-8.43,5.18-8.43,10.63c0,5.53,2.66,10.55,8.46,10.55c3.49,0,6.18-2.07,7.25-5.4l3.25,1.24
			c-1.64,4.67-5.53,7.38-10.47,7.38C697.12,390.83,692.74,384.65,692.74,377.05z"/>
		<path d="M717.78,377.05c0-7.04,3.97-13.88,12.03-13.88c4.89,0,8.81,2.55,10.79,7.38l-3.38,1.32c-1.26-3.36-3.97-5.45-7.41-5.45
			c-5.77,0-8.43,5.18-8.43,10.63c0,5.53,2.66,10.55,8.46,10.55c3.49,0,6.18-2.07,7.25-5.4l3.25,1.24
			c-1.64,4.67-5.53,7.38-10.47,7.38C722.16,390.83,717.78,384.65,717.78,377.05z"/>
		<path d="M742.84,377.13c0-7.57,4.27-13.96,12.08-13.96c8.75,0,11.63,7.09,11.63,12.41c0,0.91-0.08,1.99-0.19,2.39H746.6
			c0.27,5.99,3.38,9.64,8.78,9.64c3.22,0,5.45-0.89,7.87-3.41l2.47,2.18c-3.01,3.14-6.04,4.46-10.37,4.46
			C747.27,390.83,742.84,384.84,742.84,377.13z M763.01,375.33c0.03-0.56,0.03-1.16-0.05-1.69c-0.32-3.62-2.74-7.44-8.06-7.44
			c-4.89,0-7.84,3.76-8.3,9.13H763.01z"/>
		<path d="M771.74,384.76v-32.28h3.54v31.37c0,2.07,0.27,3.79,2.95,3.79c0.56,0,1.37-0.11,2.17-0.27l0.05,3.03
			c-1.18,0.24-2.63,0.43-3.79,0.43C772.87,390.83,771.74,388.54,771.74,384.76z"/>
		<path d="M782.49,377.13c0-7.57,4.27-13.96,12.08-13.96c8.75,0,11.63,7.09,11.63,12.41c0,0.91-0.08,1.99-0.19,2.39h-19.77
			c0.27,5.99,3.38,9.64,8.78,9.64c3.22,0,5.45-0.89,7.87-3.41l2.47,2.18c-3.01,3.14-6.04,4.46-10.37,4.46
			C786.92,390.83,782.49,384.84,782.49,377.13z M802.66,375.33c0.03-0.56,0.03-1.16-0.05-1.69c-0.32-3.62-2.74-7.44-8.06-7.44
			c-4.89,0-7.84,3.76-8.3,9.13H802.66z"/>
		<path d="M811.53,363.6H815v5.61c1.34-4.14,5.08-6.04,8.27-6.04c1.5,0,3.04,0.43,4.19,1.29l-1.61,2.95
			c-0.94-0.51-1.99-0.78-3.06-0.78c-3.57,0-7.82,2.82-7.82,10.1v13.7h-3.44V363.6z"/>
		<path d="M850.75,374.04v16.38h-2.95l-0.24-5.45c-2.01,3.89-5.75,5.85-9.75,5.85c-5.45,0-9.26-3.03-9.26-8.19
			c0-5.45,4.32-7.65,11.25-7.65h7.73v-0.32c0-5.67-2.07-8.35-7.44-8.35c-3.57,0-5.93,1.61-7.79,4.38l-2.71-1.99
			c2.61-3.6,5.72-5.53,10.47-5.53C846.94,363.17,850.75,367.3,850.75,374.04z M847.53,380.35v-2.74h-7.55
			c-5.29,0-7.81,1.91-7.81,5.13c0,3.06,2.28,5.05,6.31,5.05C843.15,387.79,846.29,384.76,847.53,380.35z"/>
		<path d="M858.41,382.9v-16.3h-4.46v-3.01h4.51v-7.76l3.49-2.61v10.37h7.52v3.01h-7.52v15.74c0,3.79,1.5,5.34,4.35,5.34
			c1.18,0,2.39-0.35,3.14-0.64l0.05,3.25c-0.83,0.27-2.28,0.54-3.79,0.54C860.96,390.83,858.41,388.03,858.41,382.9z"/>
		<path d="M872.03,377.13c0-7.57,4.27-13.96,12.08-13.96c8.75,0,11.63,7.09,11.63,12.41c0,0.91-0.08,1.99-0.19,2.39h-19.77
			c0.27,5.99,3.38,9.64,8.78,9.64c3.22,0,5.45-0.89,7.87-3.41l2.47,2.18c-3.01,3.14-6.04,4.46-10.37,4.46
			C876.46,390.83,872.03,384.84,872.03,377.13z M892.2,375.33c0.03-0.56,0.03-1.16-0.05-1.69c-0.32-3.62-2.74-7.44-8.06-7.44
			c-4.89,0-7.84,3.76-8.3,9.13H892.2z"/>
		<path d="M898.87,376.97c0-7.57,4.7-13.8,11.92-13.8c4.22,0,7.95,2.39,9.62,6.34v-17.03h3.6v37.95h-3.33l-0.13-6.1
			c-1.67,4.05-5.4,6.5-9.69,6.5C903.57,390.83,898.87,384.62,898.87,376.97z M920.67,376.97c0-5.99-3.46-10.55-9.05-10.55
			s-9.16,4.62-9.16,10.55c0,5.99,3.57,10.63,9.16,10.63S920.67,383.04,920.67,376.97z"/>
		<path d="M933.36,384.52h3.57v5.91h-3.57V384.52z"/>
		<path d="M933.98,353.13h-5.67v-1.43h12.92v1.43h-5.67v14.83h-1.58V353.13z"/>
		<path d="M957.67,351.73v16.17h-1.51v-14.11l-5.32,12.78h-1.53l-5.32-12.81v14.13h-1.51v-16.17h2.17l5.44,13.09l5.42-13.09H957.67z
			"/>
	</g>
</g>
</svg>
